<?xml version="1.0" standalone="no"?>
<!DOCTYPE svg PUBLIC "-//W3C//DTD SVG 20010904//EN"
 "http://www.w3.org/TR/2001/REC-SVG-20010904/DTD/svg10.dtd">
<svg version="1.0" xmlns="http://www.w3.org/2000/svg"
 width="567.000000pt" height="139.000000pt" viewBox="0 0 567.000000 139.000000"
 preserveAspectRatio="xMidYMid meet">

<g transform="translate(0.000000,139.000000) scale(0.100000,-0.100000)"
fill="#000000" stroke="none">
<path d="M0 695 l0 -695 2835 0 2835 0 0 695 0 695 -2835 0 -2835 0 0 -695z
m557 531 c-12 -31 -37 -18 -37 19 l0 36 21 -20 c13 -12 19 -26 16 -35z m765
42 c-16 -16 -15 -50 1 -68 10 -12 9 -12 -5 -1 -21 15 -24 51 -6 69 7 7 14 12
17 12 3 0 0 -5 -7 -12z m58 -33 c0 -11 -4 -25 -8 -32 -4 -6 -7 8 -7 32 0 24 3
38 7 32 4 -7 8 -21 8 -32z m-558 17 c-16 -5 -15 -29 1 -35 9 -4 9 -6 -1 -6
-13 -1 -33 39 -26 51 3 4 12 4 21 1 11 -4 13 -8 5 -11z m-485 -8 c3 -9 -3 -23
-16 -35 l-21 -20 0 36 c0 37 25 50 37 19z m53 5 c0 -5 -5 -7 -10 -4 -6 3 -14
-4 -19 -17 -10 -23 -10 -22 -10 5 -1 21 4 27 19 27 11 0 20 -5 20 -11z m48 -9
l11 25 0 -27 c1 -22 -4 -28 -19 -28 -15 0 -20 6 -19 28 l1 27 8 -25 7 -25 11
25z m62 5 c0 -8 -8 -15 -17 -16 -15 0 -15 -2 2 -9 16 -7 17 -9 3 -9 -21 -1
-32 15 -24 34 7 20 36 19 36 0z m110 -10 c0 -18 -5 -25 -20 -25 -24 0 -27 18
-4 27 13 5 13 7 2 14 -10 7 -9 9 5 9 12 0 17 -8 17 -25z m102 0 c3 -15 1 -25
-6 -25 -6 0 -11 11 -11 25 0 14 3 25 6 25 4 0 9 -11 11 -25z m67 -2 c-2 -24
-2 -25 -6 -5 -2 12 -8 22 -13 22 -5 0 -11 -10 -13 -22 -4 -20 -4 -19 -6 5 -1
21 4 27 19 27 15 0 20 -6 19 -27z m111 12 c0 -8 -8 -15 -17 -16 -15 0 -15 -2
2 -9 16 -7 17 -9 3 -9 -21 -1 -32 15 -24 34 7 20 36 19 36 0z m53 -1 c-5 -13
-7 -13 -14 -2 -5 8 -9 9 -9 2 0 -6 7 -17 15 -24 17 -14 20 -30 4 -30 -5 0 -7
5 -4 10 3 6 -1 10 -10 10 -9 0 -13 -4 -10 -10 3 -5 2 -10 -4 -10 -7 0 -9 48
-2 68 1 1 10 2 21 2 14 0 18 -5 13 -16z m63 4 c5 -8 2 -9 -10 -5 -12 5 -19 0
-26 -16 -8 -21 -9 -21 -9 6 -1 20 4 27 18 27 11 0 23 -5 27 -12z m52 -16 c3
-16 -2 -22 -17 -22 -29 0 -37 20 -10 27 22 6 22 7 3 15 -18 8 -18 8 1 5 12 -1
21 -11 23 -25z m40 21 c-10 -2 -18 -11 -18 -18 0 -7 8 -16 18 -18 15 -4 15 -5
0 -6 -9 0 -20 4 -23 9 -11 17 3 40 22 39 17 -1 17 -2 1 -6z m54 -18 c3 -15 1
-25 -6 -25 -6 0 -11 11 -11 25 0 14 3 25 6 25 4 0 9 -11 11 -25z m71 13 c6
-19 -3 -38 -18 -38 -18 0 -28 17 -21 35 7 18 33 20 39 3z m56 -15 c-2 -24 -2
-25 -6 -5 -2 12 -8 22 -13 22 -5 0 -11 -10 -13 -22 -4 -20 -4 -19 -6 5 -1 21
4 27 19 27 15 0 20 -6 19 -27z m-616 -40 c-7 -2 -19 -2 -25 0 -7 3 -2 5 12 5
14 0 19 -2 13 -5z m-69 -77 c-3 -13 0 -35 7 -48 11 -21 11 -22 -4 -9 -18 14
-21 38 -11 65 9 25 15 19 8 -8z m116 -11 c0 -5 -5 -3 -10 5 -5 8 -10 20 -10
25 0 6 5 3 10 -5 5 -8 10 -19 10 -25z m2000 -5 c0 -16 -3 -31 -7 -33 -5 -3 -8
12 -8 33 0 21 3 36 8 33 4 -2 7 -17 7 -33z m-2174 14 c-4 -9 -1 -23 5 -30 7
-9 8 -14 1 -14 -11 0 -22 23 -22 46 0 8 5 14 11 14 6 0 8 -7 5 -16z m-212 -26
c4 6 4 17 0 24 -4 7 -3 8 4 4 18 -11 14 -34 -8 -46 -18 -10 -20 -8 -19 22 1
30 2 31 8 8 5 -17 9 -21 15 -12z m54 25 c-9 -2 -19 -12 -21 -21 -3 -12 -5 -10
-6 6 -1 17 4 22 22 21 15 -1 17 -3 5 -6z m54 -18 c3 -16 1 -25 -7 -25 -8 0
-10 9 -7 25 2 14 6 25 7 25 1 0 5 -11 7 -25z m67 3 c-1 -17 -2 -19 -6 -5 -2 9
-8 17 -13 17 -5 0 -11 -8 -13 -17 -4 -14 -5 -12 -6 5 -1 16 5 22 19 22 14 0
20 -6 19 -22z m254 2 c-3 -11 -7 -20 -9 -20 -2 0 -4 9 -4 20 0 11 4 20 9 20 5
0 7 -9 4 -20z m24 -12 c-3 -7 -5 -2 -5 12 0 14 2 19 5 13 2 -7 2 -19 0 -25z
m330 0 c-3 -8 -6 -5 -6 6 -1 11 2 17 5 13 3 -3 4 -12 1 -19z m-287 -113 c0
-19 -3 -35 -7 -35 -5 0 -8 16 -8 35 0 19 3 35 8 35 4 0 7 -16 7 -35z m888 0
c1 -19 -2 -35 -6 -35 -6 0 -7 21 -3 63 2 20 8 3 9 -28z m952 0 c0 -28 -4 -35
-20 -35 -25 0 -26 27 -2 51 23 24 22 24 22 -16z m110 -11 c0 -20 -11 -44 -21
-44 -5 0 -4 9 3 19 9 15 9 26 0 48 -11 26 -11 27 3 9 8 -11 15 -25 15 -32z
m-2231 16 c-6 -5 -9 -15 -6 -25 4 -9 3 -14 -3 -10 -6 3 -10 17 -10 30 0 18 4
23 16 18 12 -4 13 -8 3 -13z m1060 0 c-6 -5 -9 -15 -6 -24 4 -9 3 -16 -2 -16
-9 0 -21 47 -14 54 3 3 12 2 20 -1 11 -4 12 -8 2 -13z m953 -10 c-3 -21 -10
-30 -23 -30 -23 0 -25 23 -3 44 23 24 31 19 26 -14z m153 -9 c1 -22 -3 -37 -7
-35 -14 9 -8 75 6 74 1 0 1 -18 1 -39z m-2371 13 c8 -22 7 -34 -3 -34 -5 0
-11 11 -13 25 -6 28 6 34 16 9z m56 1 c0 -9 -7 -18 -15 -21 -8 -4 -15 -12 -15
-20 0 -16 16 -19 23 -4 3 6 4 5 3 -2 -2 -7 -9 -13 -17 -13 -15 0 -24 37 -15
61 7 19 36 18 36 -1z m58 -3 c2 -7 -1 -12 -8 -12 -6 0 -8 5 -5 10 3 6 1 10 -4
10 -6 0 -11 -10 -11 -22 0 -17 -3 -19 -12 -10 -8 8 -8 15 2 27 14 17 31 16 38
-3z m51 -15 c-1 -20 -2 -20 -9 3 l-7 25 -11 -25 c-10 -23 -11 -24 -11 -3 -1
21 16 35 32 26 4 -2 7 -14 6 -26z m107 15 c1 -7 0 -8 -3 -2 -9 18 -22 11 -18
-10 2 -11 0 -20 -6 -20 -10 0 -12 33 -2 44 9 9 26 2 29 -12z m116 -7 c3 -14 2
-25 -2 -25 -4 0 -10 11 -12 25 -3 14 -2 25 2 25 4 0 10 -11 12 -25z m166 -3
c2 -12 -1 -22 -6 -22 -6 0 -9 8 -8 18 2 9 -2 21 -8 25 -7 6 -6 7 4 4 8 -2 16
-13 18 -25z m109 -3 c1 -19 1 -20 -4 -4 -3 11 -10 24 -17 28 -7 6 -6 7 4 4 8
-2 16 -14 17 -28z m63 22 c0 -5 -7 -16 -15 -25 -8 -8 -15 -21 -15 -28 0 -10 3
-9 10 2 5 8 12 11 16 7 12 -12 -13 -30 -31 -23 -11 4 -15 12 -11 22 3 9 6 24
6 35 0 12 7 19 20 19 11 0 20 -4 20 -9z m50 -2 c0 -5 -5 -7 -10 -4 -6 3 -14
-4 -19 -17 -10 -23 -10 -23 -10 -1 -1 19 10 30 32 32 4 1 7 -4 7 -10z m58 -7
c2 -7 -1 -12 -8 -12 -6 0 -8 5 -5 10 3 6 1 10 -4 10 -6 0 -11 -9 -11 -21 0
-11 -5 -17 -10 -14 -7 4 -6 13 1 26 11 21 30 21 37 1z m52 6 c0 -6 -7 -20 -17
-30 -9 -10 -13 -21 -8 -26 4 -4 10 -1 12 6 3 6 10 12 16 12 6 0 4 -7 -5 -16
-9 -9 -21 -13 -27 -10 -12 8 -15 59 -4 69 11 11 33 8 33 -5z m58 -16 c2 -12
-1 -22 -6 -22 -6 0 -9 8 -8 18 2 9 -2 21 -8 25 -7 6 -6 7 4 4 8 -2 16 -13 18
-25z m58 17 c4 -7 1 -10 -7 -7 -8 3 -19 -4 -26 -16 l-12 -21 -1 22 c0 28 32
44 46 22z m110 -1 c5 -8 2 -9 -9 -5 -13 5 -17 1 -18 -16 0 -12 -3 -16 -6 -9
-12 29 17 56 33 30z m50 -6 c1 -7 0 -8 -3 -2 -9 18 -25 10 -20 -10 3 -11 1
-20 -4 -20 -11 0 -12 33 -2 44 9 9 26 2 29 -12z m44 8 c-12 -8 -12 -10 3 -16
9 -3 14 -10 11 -15 -3 -5 -12 -2 -20 6 -16 16 -11 35 9 35 7 0 6 -4 -3 -10z
m221 1 c-8 -5 -11 -16 -8 -25 4 -9 2 -16 -3 -16 -11 0 -14 33 -3 43 3 4 11 7
17 7 6 0 5 -4 -3 -9z m54 -4 c-11 -9 -15 -19 -10 -28 6 -11 5 -12 -5 -2 -11
10 -11 15 0 28 7 8 17 15 23 15 6 0 3 -6 -8 -13z m57 -12 c3 -14 2 -25 -2 -25
-4 0 -10 11 -12 25 -3 14 -2 25 2 25 4 0 10 -11 12 -25z m68 10 c11 -13 11
-18 1 -28 -10 -9 -12 -8 -9 7 1 10 -3 21 -11 24 -10 3 -12 -1 -8 -17 3 -11 1
-21 -4 -21 -10 0 -12 33 -2 43 10 11 19 8 33 -8z m58 -21 c-3 -14 -5 -12 -10
9 -3 19 -2 25 4 19 6 -6 8 -18 6 -28z m56 21 c3 -8 1 -15 -3 -15 -5 0 -12 6
-14 13 -3 6 -6 1 -6 -12 -1 -19 -4 -22 -13 -13 -8 8 -8 15 2 27 16 19 26 19
34 0z m37 6 c-11 -7 -10 -11 5 -19 10 -6 16 -14 12 -17 -10 -10 -41 23 -33 35
3 5 12 10 18 10 8 0 7 -3 -2 -9z m114 -4 c-11 -9 -15 -19 -10 -28 6 -11 5 -11
-5 -2 -16 15 -6 43 17 43 15 0 15 -1 -2 -13z m73 -15 c5 -31 -15 -27 -21 3 -3
16 0 24 7 22 6 -2 12 -13 14 -25z m51 -5 c-1 -20 -2 -20 -8 3 -4 15 -10 20
-14 13 -4 -6 -4 -18 -1 -26 3 -8 1 -18 -5 -22 -7 -4 -11 5 -11 24 0 27 15 44
33 34 4 -2 7 -14 6 -26z m59 5 c5 -31 -15 -27 -21 3 -3 16 0 24 7 22 6 -2 12
-13 14 -25z m37 15 c-11 -9 -15 -19 -10 -28 6 -11 5 -12 -5 -2 -11 10 -11 15
0 28 7 8 17 15 23 15 6 0 3 -6 -8 -13z m57 -12 c3 -14 2 -25 -2 -25 -4 0 -10
11 -12 25 -3 14 -2 25 2 25 4 0 10 -11 12 -25z m126 -3 c2 -12 -1 -22 -7 -22
-6 0 -8 7 -4 16 3 9 0 20 -8 26 -12 8 -11 9 1 5 8 -2 16 -13 18 -25z m-1861
-14 c-3 -7 -5 -2 -5 12 0 14 2 19 5 13 2 -7 2 -19 0 -25z m33 12 c0 -11 -4
-20 -9 -20 -5 0 -7 9 -4 20 3 11 7 20 9 20 2 0 4 -9 4 -20z m857 -12 c-3 -7
-5 -2 -5 12 0 14 2 19 5 13 2 -7 2 -19 0 -25z m330 0 c-3 -7 -5 -2 -5 12 0 14
2 19 5 13 2 -7 2 -19 0 -25z m-1657 2 c0 -5 -4 -10 -10 -10 -5 0 -10 5 -10 10
0 6 5 10 10 10 6 0 10 -4 10 -10z m390 0 c0 -5 -4 -10 -10 -10 -5 0 -10 5 -10
10 0 6 5 10 10 10 6 0 10 -4 10 -10z m-37 -37 c-7 -2 -19 -2 -25 0 -7 3 -2 5
12 5 14 0 19 -2 13 -5z m720 0 c-7 -2 -19 -2 -25 0 -7 3 -2 5 12 5 14 0 19 -2
13 -5z m780 0 c-7 -2 -21 -2 -30 0 -10 3 -4 5 12 5 17 0 24 -2 18 -5z m-1457
-63 c8 0 14 -5 14 -11 0 -5 -5 -7 -10 -4 -6 3 -14 -4 -19 -17 -8 -20 -10 -17
-10 17 1 22 3 34 6 28 2 -7 11 -13 19 -13z m1681 -37 c-4 -15 -5 -14 -6 5 0
12 -5 22 -10 22 -5 0 -12 -10 -14 -22 -3 -14 -5 -8 -6 15 l-1 38 21 -20 c12
-11 19 -27 16 -38z m435 45 c-7 -7 -12 -21 -12 -33 0 -12 5 -26 12 -33 9 -9 9
-12 1 -12 -7 0 -15 9 -18 21 -9 26 2 69 17 69 9 0 9 -3 0 -12z m58 -33 c0 -12
-8 -29 -17 -36 -15 -11 -16 -11 -5 1 6 8 12 23 12 35 0 12 -6 27 -12 35 -11
12 -10 12 5 1 9 -7 17 -24 17 -36z m-2338 17 c-15 -5 -16 -28 -2 -35 6 -3 5
-4 -2 -3 -7 1 -14 15 -16 29 -3 22 0 26 14 20 11 -4 13 -8 6 -11z m1222 -15
c2 -35 -18 -29 -21 7 -1 16 3 26 9 24 6 -2 12 -16 12 -31z m-1426 -5 c3 -16
-2 -22 -17 -22 -26 0 -37 18 -16 26 13 6 14 9 3 16 -9 7 -8 8 7 6 12 -2 21
-12 23 -26z m49 -7 c-1 -21 -4 -30 -9 -22 -6 9 -10 9 -18 -3 -7 -12 -10 -8
-10 16 0 33 6 44 26 44 7 0 12 -13 11 -35z m61 18 c2 -7 -4 -13 -15 -13 -15 0
-16 -2 -3 -10 13 -8 13 -10 -2 -10 -21 0 -30 13 -22 35 7 18 35 17 42 -2z m51
-10 c-2 -24 -2 -25 -6 -5 -2 12 -8 22 -13 22 -5 0 -11 -10 -13 -22 -4 -20 -4
-19 -6 5 -1 21 4 27 19 27 15 0 20 -6 19 -27z m111 12 c0 -8 -8 -15 -17 -16
-15 0 -15 -2 2 -9 16 -7 17 -9 3 -9 -21 -1 -32 15 -24 34 7 20 36 19 36 0z
m168 -7 c-5 -34 -38 -37 -38 -4 0 20 5 26 21 26 15 0 20 -5 17 -22z m55 15 c3
-5 -6 -9 -19 -9 -13 -1 -21 2 -18 7 6 11 31 12 37 2z m55 -21 c3 -17 -2 -22
-17 -22 -25 0 -28 18 -5 27 13 5 13 8 2 15 -10 8 -10 9 2 5 8 -2 16 -13 18
-25z m58 16 c5 -7 3 -8 -6 -3 -7 4 -16 2 -21 -6 -7 -11 -9 -10 -9 4 0 19 25
23 36 5z m46 -13 c3 -15 1 -25 -6 -25 -6 0 -11 11 -11 25 0 14 3 25 6 25 4 0
9 -11 11 -25z m66 2 c4 -20 -25 -34 -40 -19 -15 15 -1 44 19 40 10 -2 19 -11
21 -21z m110 -5 c3 -17 -2 -22 -17 -22 -25 0 -29 30 -3 31 15 0 14 2 -3 10
l-20 9 20 -3 c12 -1 21 -11 23 -25z m50 11 c-1 -10 1 -23 5 -30 4 -6 3 -14 -3
-18 -5 -3 -10 -1 -10 4 0 6 -5 11 -11 11 -5 0 -7 -4 -4 -10 3 -5 1 -10 -4 -10
-12 0 -15 52 -4 63 13 14 34 7 31 -10z m62 6 c0 -5 -5 -7 -10 -4 -6 3 -14 -4
-19 -17 -10 -23 -10 -22 -10 5 -1 21 4 27 19 27 11 0 20 -5 20 -11z m50 -4 c0
-8 -8 -15 -17 -16 -15 0 -15 -2 2 -9 16 -7 17 -9 3 -9 -21 -1 -32 15 -24 34 7
20 36 19 36 0z m60 0 c0 -8 -5 -15 -11 -15 -5 0 -7 5 -4 10 3 6 1 10 -4 10
-16 0 -13 -16 4 -30 17 -14 20 -30 4 -30 -5 0 -7 5 -4 10 3 6 2 10 -4 10 -5 0
-12 -6 -14 -12 -3 -7 -6 4 -6 25 -1 31 2 37 19 37 11 0 20 -7 20 -15z m58 -13
c3 -16 -2 -22 -17 -22 -26 0 -37 18 -16 26 13 6 14 9 3 16 -9 7 -8 8 7 6 12
-2 21 -12 23 -26z m52 17 c0 -5 -5 -7 -10 -4 -6 3 -14 -4 -19 -17 -10 -23 -10
-22 -10 5 -1 21 4 27 19 27 11 0 20 -5 20 -11z m110 0 c0 -5 -5 -7 -10 -4 -6
3 -14 -4 -19 -17 -10 -23 -10 -22 -10 5 -1 21 4 27 19 27 11 0 20 -5 20 -11z
m58 -6 c2 -7 -4 -13 -15 -13 -15 0 -16 -2 -3 -10 13 -8 13 -10 -2 -10 -21 0
-30 13 -22 35 7 18 35 17 42 -2z m37 8 c-3 -5 -1 -12 5 -16 16 -10 12 -25 -7
-25 -14 0 -15 2 -5 9 11 7 10 9 -3 15 -17 6 -12 26 6 26 6 0 8 -4 4 -9z m130
-1 c3 -6 -1 -7 -9 -4 -12 5 -16 0 -16 -17 0 -17 -3 -20 -11 -12 -7 7 -9 19 -6
27 7 18 33 21 42 6z m37 -15 c3 -15 1 -25 -6 -25 -6 0 -11 11 -11 25 0 14 3
25 6 25 4 0 9 -11 11 -25z m54 13 c-19 -11 -19 -11 -1 -24 16 -12 16 -14 3
-14 -9 0 -20 5 -23 10 -11 17 3 40 22 40 17 -1 16 -2 -1 -12z m62 5 c-21 -5
-24 -29 -5 -36 9 -4 9 -6 0 -6 -6 -1 -15 4 -18 9 -11 17 3 40 22 39 17 -1 17
-2 1 -6z m54 -18 c3 -15 1 -25 -6 -25 -6 0 -11 11 -11 25 0 14 3 25 6 25 4 0
9 -11 11 -25z m66 2 c4 -21 -27 -35 -38 -17 -12 19 0 42 19 38 9 -2 17 -11 19
-21z m59 -7 c1 -22 1 -22 -4 -2 -2 12 -8 22 -13 22 -5 0 -11 -10 -13 -22 -4
-19 -5 -18 -6 5 -1 22 3 28 17 25 10 -2 18 -13 19 -28z m51 12 c2 -7 -5 -12
-15 -12 -15 0 -16 -2 -3 -10 9 -6 10 -10 3 -10 -16 0 -26 18 -19 36 7 17 27
15 34 -4z m44 9 c-11 -7 -10 -9 3 -15 20 -7 10 -26 -13 -26 -13 0 -14 2 -3 9
9 6 10 11 2 15 -17 11 -13 26 7 26 13 0 14 -2 4 -9z m181 -3 c6 -19 -3 -38
-18 -38 -18 0 -28 17 -21 35 7 18 33 20 39 3z m57 2 c0 -5 -6 -7 -14 -4 -9 4
-16 -3 -19 -18 -4 -21 -4 -20 -6 5 -1 21 4 27 19 27 11 0 20 -4 20 -10z m57
-6 c8 -21 -12 -38 -34 -30 -17 7 -17 8 0 21 13 10 15 14 5 18 -8 4 -7 6 5 6
10 1 20 -6 24 -15z m53 5 c0 -5 -5 -7 -10 -4 -6 3 -14 -4 -19 -17 -10 -23 -10
-22 -10 5 -1 21 4 27 19 27 11 0 20 -5 20 -11z m42 -14 c3 -15 1 -25 -6 -25
-6 0 -11 11 -11 25 0 14 3 25 6 25 4 0 9 -11 11 -25z m68 0 c0 -18 -5 -25 -19
-25 -11 0 -21 6 -24 13 -7 20 4 37 24 37 14 0 19 -7 19 -25z m40 15 c-10 -6
-11 -10 -2 -10 6 0 12 -7 12 -15 0 -8 -8 -15 -17 -15 -15 0 -16 2 -3 10 10 6
11 10 3 10 -7 0 -13 7 -13 15 0 8 8 15 18 15 14 0 15 -2 2 -10z m-1207 -57
c-7 -2 -19 -2 -25 0 -7 3 -2 5 12 5 14 0 19 -2 13 -5z m770 0 c-7 -2 -19 -2
-25 0 -7 3 -2 5 12 5 14 0 19 -2 13 -5z m-1891 -88 c2 -21 0 -35 -7 -35 -7 0
-9 14 -7 35 2 19 5 35 7 35 2 0 5 -16 7 -35z m781 12 c15 -6 16 -10 7 -27 -16
-30 -35 -19 -38 21 -1 19 1 29 5 23 4 -6 16 -13 26 -17z m59 -12 c3 -29 1 -35
-15 -35 -16 0 -17 3 -7 15 7 8 10 24 7 35 -3 11 -2 20 3 20 4 0 10 -16 12 -35z
m321 -3 c-3 -8 0 -18 8 -23 10 -6 11 -9 1 -9 -15 0 -32 39 -24 58 4 11 6 11
12 1 5 -7 6 -19 3 -27z m57 28 c-13 -8 -12 -11 4 -23 21 -16 14 -37 -12 -37
-15 0 -15 2 -2 10 13 9 13 12 -4 25 -20 15 -14 35 12 35 15 0 15 -2 2 -10z
m113 -27 c5 -23 3 -33 -6 -33 -9 0 -12 11 -9 36 5 41 7 40 15 -3z m385 18 c-9
-15 -9 -26 0 -48 11 -26 11 -27 -3 -9 -21 27 -17 76 6 76 5 0 4 -9 -3 -19z
m62 -19 c0 -15 -4 -32 -8 -39 -4 -7 -7 8 -7 32 0 23 3 41 8 38 4 -2 7 -16 7
-31z m-338 -2 c3 -16 1 -30 -4 -30 -4 0 -8 6 -8 14 0 8 -3 21 -6 30 -3 9 -2
16 4 16 5 0 12 -13 14 -30z m-1542 -19 c0 -6 -8 -11 -17 -11 -14 0 -15 2 -4 9
9 6 10 11 2 15 -6 4 -11 12 -11 17 0 6 7 4 15 -5 8 -8 15 -19 15 -25z m42 -1
c6 0 8 9 5 20 -3 11 -1 20 5 20 5 0 8 -10 6 -22 -4 -28 -33 -30 -34 -3 -1 15
0 16 3 3 3 -10 9 -18 15 -18z m108 0 c5 0 11 10 13 23 4 18 5 17 6 -6 1 -22
-3 -28 -16 -25 -10 2 -18 12 -19 23 -1 15 0 16 3 3 3 -10 8 -18 13 -18z m53
20 c-3 -12 0 -20 8 -20 7 0 9 -3 6 -6 -11 -11 -36 16 -30 32 8 22 22 17 16 -6z
m69 -5 c3 -15 1 -25 -6 -25 -6 0 -11 11 -11 25 0 14 3 25 6 25 4 0 9 -11 11
-25z m34 9 c0 -9 5 -19 13 -22 10 -3 12 1 8 17 -3 11 -1 21 4 21 13 0 11 -37
-2 -46 -6 -3 -18 0 -26 9 -9 8 -12 20 -9 26 10 16 14 14 12 -5z m64 9 c0 -5
-5 -15 -10 -23 -8 -12 -10 -11 -10 8 0 12 5 22 10 22 6 0 10 -3 10 -7z m80 -3
c0 -5 -7 -7 -15 -4 -17 7 -21 -21 -5 -29 6 -3 5 -4 -2 -3 -7 1 -14 12 -16 24
-3 17 2 22 17 22 12 0 21 -4 21 -10z m45 -30 c-3 -5 -12 -10 -18 -10 -8 0 -8
3 2 9 9 6 10 11 2 15 -6 4 -11 12 -11 17 0 6 7 3 16 -5 8 -9 12 -20 9 -26z
m232 24 c3 -9 -3 -23 -16 -35 l-21 -20 0 36 c0 37 25 50 37 19z m44 7 c-7 -5
-17 -15 -22 -22 -6 -10 -9 -8 -9 9 0 16 6 22 23 22 16 0 18 -3 8 -9z m37 -7
c-2 -10 3 -19 11 -22 10 -3 12 1 8 17 -3 11 -1 21 4 21 13 0 11 -37 -2 -46 -6
-3 -18 0 -26 9 -9 8 -12 20 -9 26 10 16 17 13 14 -5z m167 7 c-3 -5 2 -17 11
-25 13 -14 14 -16 0 -16 -8 0 -18 5 -21 10 -7 12 0 40 10 40 4 0 4 -4 0 -9z
m84 -13 c0 -22 -1 -22 -9 -3 l-9 20 -1 -20 -1 -20 -9 20 c-8 18 -9 18 -9 2 -1
-16 -3 -17 -16 -3 -21 20 -20 22 20 24 31 2 35 0 34 -20z m111 12 c0 -5 -8
-14 -17 -19 -17 -10 -17 -10 0 -11 9 0 17 -7 17 -15 0 -8 -9 -15 -20 -15 -16
0 -20 7 -20 35 0 28 4 35 20 35 11 0 20 -4 20 -10z m41 -10 c6 0 7 5 3 12 -5
7 -3 8 6 3 10 -6 9 -11 -4 -21 -13 -9 -14 -13 -4 -17 8 -3 8 -6 2 -6 -18 -1
-37 27 -28 41 6 9 9 9 12 0 2 -7 8 -12 13 -12z m185 9 c8 -14 -21 -43 -35 -35
-6 4 -11 16 -11 27 0 21 34 27 46 8z m91 -11 c3 12 9 22 14 22 6 0 9 -10 7
-22 -4 -33 -42 -31 -45 2 l-3 25 12 -25 c11 -25 11 -25 15 -2z m115 -3 c3 -15
1 -25 -6 -25 -6 0 -11 11 -11 25 0 14 3 25 6 25 4 0 9 -11 11 -25z m68 6 c0
-26 -17 -36 -35 -21 -18 15 -8 40 16 40 12 0 19 -7 19 -19z m57 -6 c1 -16 1
-16 -3 -2 -3 9 -9 17 -14 17 -5 0 -14 -8 -19 -17 -9 -16 -10 -15 -11 5 0 19 5
23 22 20 14 -2 24 -11 25 -23z m39 10 c18 -17 10 -35 -14 -34 -14 0 -13 2 3 9
18 7 19 8 3 15 -10 4 -18 11 -18 16 0 13 9 11 26 -6z m-1159 -1 c-3 -3 -12 -4
-19 -1 -8 3 -5 6 6 6 11 1 17 -2 13 -5z m-337 -129 c0 -19 -3 -35 -7 -35 -5 0
-8 16 -8 35 0 19 3 35 8 35 4 0 7 -16 7 -35z m-116 0 c-4 -8 -10 -12 -15 -9
-11 6 -2 24 11 24 5 0 7 -7 4 -15z m73 -1 c3 -8 1 -20 -5 -26 -7 -7 -10 -6 -9
3 1 8 -2 14 -8 14 -5 0 -9 -6 -8 -14 1 -9 -2 -10 -10 -2 -7 7 -6 15 3 26 16
19 29 19 37 -1z m148 3 c-11 -9 -15 -19 -10 -28 6 -11 5 -12 -5 -2 -11 10 -11
15 0 28 7 8 17 15 23 15 6 0 3 -6 -8 -13z m65 -18 c0 -28 -15 -23 -16 6 -1 14
2 22 7 19 5 -3 9 -14 9 -25z m60 16 c11 -13 11 -18 1 -28 -10 -9 -12 -8 -9 5
1 9 -1 16 -7 15 -5 -1 -9 -8 -9 -14 1 -7 -2 -13 -7 -13 -10 0 -12 34 -2 43 10
11 19 8 33 -8z m58 -21 c-3 -14 -5 -12 -10 9 -3 19 -2 25 4 19 6 -6 8 -18 6
-28z m57 7 c-3 -3 -10 1 -15 9 -8 12 -10 10 -10 -9 0 -19 -3 -22 -12 -13 -17
17 9 47 29 31 7 -7 11 -14 8 -18z m-308 -13 c-3 -7 -5 -2 -5 12 0 14 2 19 5
13 2 -7 2 -19 0 -25z m33 12 c0 -11 -4 -20 -9 -20 -5 0 -7 9 -4 20 3 11 7 20
9 20 2 0 4 -9 4 -20z m187 -12 c-3 -7 -5 -2 -5 12 0 14 2 19 5 13 2 -7 2 -19
0 -25z m-35 -90 c-16 -16 -15 -50 1 -68 10 -12 9 -12 -5 -1 -21 15 -24 51 -6
69 7 7 14 12 17 12 3 0 0 -5 -7 -12z m1888 -40 c0 -15 -3 -29 -7 -31 -5 -3 -8
14 -8 38 0 24 3 38 7 32 4 -7 8 -24 8 -39z m-1946 9 c1 -15 -2 -27 -6 -27 -4
0 -8 6 -8 14 0 8 -3 22 -7 32 -4 11 -2 15 7 12 7 -2 14 -16 14 -31z m-207 7
c3 -9 -3 -23 -15 -35 -28 -25 -29 -25 -24 16 4 37 28 48 39 19z m59 4 c5 -8 2
-9 -10 -5 -12 5 -19 0 -26 -16 -8 -21 -9 -21 -9 6 -1 20 4 27 18 27 11 0 23
-5 27 -12z m36 -13 c3 -15 1 -25 -6 -25 -6 0 -11 11 -11 25 0 14 3 25 6 25 4
0 9 -11 11 -25z m76 -3 c2 -12 -1 -22 -7 -22 -6 0 -11 9 -11 21 0 11 -5 17
-10 14 -6 -4 -8 -10 -5 -15 3 -5 1 -11 -5 -15 -11 -7 -14 28 -3 39 14 13 38 1
41 -22z m879 -14 c-3 -8 -6 -5 -6 6 -1 11 2 17 5 13 3 -3 4 -12 1 -19z m-955
-243 c2 -19 0 -35 -4 -35 -4 0 -8 16 -8 35 0 19 2 35 4 35 2 0 6 -16 8 -35z
m112 -15 c1 -16 0 -30 -2 -30 -7 0 -21 53 -16 62 9 15 17 1 18 -32z m51 0 c0
-27 -2 -35 -8 -24 -7 13 -2 64 6 64 1 0 2 -18 2 -40z m2235 0 c0 -3 -7 -15
-16 -26 -14 -18 -15 -18 -4 4 8 16 8 28 0 45 -11 21 -10 21 4 3 9 -11 16 -23
16 -26z m-2490 6 c0 -13 -38 -53 -43 -45 -2 2 0 18 4 34 5 25 7 26 8 7 0 -13
5 -20 11 -17 6 4 8 16 4 27 -4 14 -2 18 5 14 6 -4 11 -13 11 -20z m55 14 c3
-5 1 -10 -4 -10 -6 0 -11 5 -11 10 0 6 2 10 4 10 3 0 8 -4 11 -10z m115 -26
c0 -8 -4 -14 -10 -14 -5 0 -10 10 -10 23 0 17 -2 19 -9 7 -6 -8 -7 -18 -5 -22
3 -4 0 -8 -5 -8 -15 0 -14 37 2 43 15 6 37 -11 37 -29z m-140 19 c0 -5 -5 -15
-10 -23 -8 -12 -10 -11 -10 8 0 12 5 22 10 22 6 0 10 -3 10 -7z m2017 -25 c-3
-8 -6 -5 -6 6 -1 11 2 17 5 13 3 -3 4 -12 1 -19z m220 0 c-3 -8 -6 -5 -6 6 -1
11 2 17 5 13 3 -3 4 -12 1 -19z"/>
<path d="M530 1235 c0 -8 5 -15 10 -15 6 0 10 7 10 15 0 8 -4 15 -10 15 -5 0
-10 -7 -10 -15z"/>
<path d="M310 1234 c0 -8 5 -12 10 -9 6 3 10 10 10 16 0 5 -4 9 -10 9 -5 0
-10 -7 -10 -16z"/>
<path d="M1190 1235 c0 -9 5 -15 11 -13 6 2 11 8 11 13 0 5 -5 11 -11 13 -6 2
-11 -4 -11 -13z"/>
<path d="M2636 971 c-4 -7 -5 -15 -2 -18 9 -9 19 4 14 18 -4 11 -6 11 -12 0z"/>
<path d="M2526 971 c-4 -7 -5 -15 -2 -18 9 -9 19 4 14 18 -4 11 -6 11 -12 0z"/>
<path d="M360 970 c0 -5 5 -10 10 -10 6 0 10 5 10 10 0 6 -4 10 -10 10 -5 0
-10 -4 -10 -10z"/>
<path d="M1195 970 c-3 -5 -1 -10 4 -10 6 0 11 5 11 10 0 6 -2 10 -4 10 -3 0
-8 -4 -11 -10z"/>
<path d="M360 830 c0 -5 5 -10 10 -10 6 0 10 5 10 10 0 6 -4 10 -10 10 -5 0
-10 -4 -10 -10z"/>
<path d="M750 825 c0 -8 5 -15 10 -15 6 0 10 7 10 15 0 8 -4 15 -10 15 -5 0
-10 -7 -10 -15z"/>
<path d="M1020 825 c0 -8 7 -15 15 -15 8 0 15 7 15 15 0 8 -7 15 -15 15 -8 0
-15 -7 -15 -15z"/>
<path d="M1195 830 c3 -5 8 -10 11 -10 2 0 4 5 4 10 0 6 -5 10 -11 10 -5 0 -7
-4 -4 -10z"/>
<path d="M2077 834 c-8 -8 1 -24 14 -24 5 0 9 7 9 15 0 15 -12 20 -23 9z"/>
<path d="M2410 825 c0 -9 5 -15 11 -13 6 2 11 8 11 13 0 5 -5 11 -11 13 -6 2
-11 -4 -11 -13z"/>
<path d="M2690 825 c0 -8 5 -15 10 -15 6 0 10 7 10 15 0 8 -4 15 -10 15 -5 0
-10 -7 -10 -15z"/>
<path d="M1190 685 c0 -8 5 -15 10 -15 6 0 10 7 10 15 0 8 -4 15 -10 15 -5 0
-10 -7 -10 -15z"/>
<path d="M1030 685 c0 -8 5 -15 10 -15 6 0 10 7 10 15 0 8 -4 15 -10 15 -5 0
-10 -7 -10 -15z"/>
<path d="M1690 685 c0 -9 5 -15 11 -13 6 2 11 8 11 13 0 5 -5 11 -11 13 -6 2
-11 -4 -11 -13z"/>
<path d="M1970 685 c0 -8 5 -15 10 -15 6 0 10 7 10 15 0 8 -4 15 -10 15 -5 0
-10 -7 -10 -15z"/>
<path d="M530 415 c0 -8 5 -15 10 -15 6 0 10 7 10 15 0 8 -4 15 -10 15 -5 0
-10 -7 -10 -15z"/>
</g>
</svg>
