<?xml version="1.0" standalone="no"?>
<!DOCTYPE svg PUBLIC "-//W3C//DTD SVG 20010904//EN"
 "http://www.w3.org/TR/2001/REC-SVG-20010904/DTD/svg10.dtd">
<svg version="1.0" xmlns="http://www.w3.org/2000/svg"
 width="567.000000pt" height="238.000000pt" viewBox="0 0 567.000000 238.000000"
 preserveAspectRatio="xMidYMid meet">

<g transform="translate(0.000000,238.000000) scale(0.100000,-0.100000)"
fill="#000000" stroke="none">
<path d="M0 1190 l0 -1190 2835 0 2835 0 0 1190 0 1190 -2835 0 -2835 0 0
-1190z m441 977 c-10 -9 -11 -8 -5 6 3 10 9 15 12 12 3 -3 0 -11 -7 -18z m219
3 c0 -5 -4 -10 -10 -10 -5 0 -10 5 -10 10 0 6 5 10 10 10 6 0 10 -4 10 -10z
m93 -3 c3 -8 1 -20 -4 -28 -6 -10 -9 -7 -9 14 0 29 5 35 13 14z m-266 -19 c-3
-8 -6 -5 -6 6 -1 11 2 17 5 13 3 -3 4 -12 1 -19z m319 3 c0 -16 -4 -17 -18
-10 -10 5 -18 12 -18 15 0 3 4 3 9 -1 5 -3 12 -1 16 5 9 14 11 13 11 -9z m57
-1 c-3 -11 -7 -20 -9 -20 -2 0 -4 9 -4 20 0 11 4 20 9 20 5 0 7 -9 4 -20z m74
-12 c-3 -7 -5 -2 -5 12 0 14 2 19 5 13 2 -7 2 -19 0 -25z m90 0 c-3 -7 -5 -2
-5 12 0 14 2 19 5 13 2 -7 2 -19 0 -25z m64 -1 c-10 -9 -11 -8 -5 6 3 10 9 15
12 12 3 -3 0 -11 -7 -18z m-113 -97 c-10 -16 -10 -24 0 -40 7 -11 8 -20 3 -20
-5 0 -13 9 -16 20 -7 23 2 60 16 60 5 0 4 -9 -3 -20z m162 -10 c0 -16 -3 -30
-7 -30 -5 0 -8 14 -8 30 0 17 3 30 8 30 4 0 7 -13 7 -30z m353 -11 c-8 -29
-13 -23 -13 14 0 22 3 28 9 18 5 -7 6 -22 4 -32z m64 -6 c-3 -10 -5 -2 -5 17
0 19 2 27 5 18 2 -10 2 -26 0 -35z m163 7 c0 -16 -3 -31 -7 -33 -5 -3 -8 12
-8 33 0 21 3 36 8 33 4 -2 7 -17 7 -33z m-904 5 c-1 -33 -16 -33 -16 0 0 14 4
25 9 25 5 0 8 -11 7 -25z m-153 -5 c3 -11 1 -20 -4 -20 -5 0 -9 9 -9 20 0 11
2 20 4 20 2 0 6 -9 9 -20z m40 0 c-3 -11 -7 -20 -9 -20 -2 0 -4 9 -4 20 0 11
4 20 9 20 5 0 7 -9 4 -20z m24 -12 c-3 -7 -5 -2 -5 12 0 14 2 19 5 13 2 -7 2
-19 0 -25z m40 0 c-3 -7 -5 -2 -5 12 0 14 2 19 5 13 2 -7 2 -19 0 -25z m300 0
c-3 -7 -5 -2 -5 12 0 14 2 19 5 13 2 -7 2 -19 0 -25z m124 19 c-6 -8 -8 -17
-4 -20 3 -4 1 -7 -5 -7 -7 0 -12 9 -12 20 0 12 7 20 16 20 13 0 14 -3 5 -13z
m144 -11 c0 -37 -15 -44 -15 -8 0 18 4 32 8 32 4 0 8 -11 7 -24z m22 -8 c-3
-7 -5 -2 -5 12 0 14 2 19 5 13 2 -7 2 -19 0 -25z m51 25 c-9 -2 -19 -12 -21
-21 -3 -12 -5 -10 -6 6 -1 17 4 22 22 21 15 -1 17 -3 5 -6z m32 -14 c0 -11 -4
-18 -10 -14 -5 3 -7 12 -3 20 7 21 13 19 13 -6z m30 7 c0 -8 -4 -17 -8 -20 -4
-2 -8 4 -8 15 0 10 4 19 8 19 4 0 8 -6 8 -14z m47 -18 c-3 -7 -5 -2 -5 12 0
14 2 19 5 13 2 -7 2 -19 0 -25z m83 10 c0 -16 -3 -19 -11 -11 -6 6 -8 16 -5
22 11 17 16 13 16 -11z m25 12 c3 -5 1 -10 -4 -10 -6 0 -11 5 -11 10 0 6 2 10
4 10 3 0 8 -4 11 -10z m54 -12 c0 -22 -1 -22 -9 -3 -7 17 -9 17 -9 3 -1 -25
-21 -23 -21 2 0 13 7 20 20 20 14 0 20 -6 19 -22z m-434 -17 c3 -5 1 -12 -5
-16 -5 -3 -10 1 -10 9 0 18 6 21 15 7z m-583 -101 c3 -16 1 -30 -4 -30 -4 0
-8 14 -8 30 0 17 2 30 4 30 2 0 6 -13 8 -30z m53 13 c-2 -10 -4 -25 -5 -33 -1
-10 -4 -9 -9 5 -9 22 -4 45 9 45 5 0 7 -8 5 -17z m255 -4 c0 -6 -4 -7 -10 -4
-5 3 -10 11 -10 16 0 6 5 7 10 4 6 -3 10 -11 10 -16z m62 -9 c3 -16 1 -30 -4
-30 -4 0 -8 14 -8 30 0 17 2 30 4 30 2 0 6 -13 8 -30z m461 -11 c-8 -29 -13
-23 -13 14 0 22 3 28 9 18 5 -7 6 -22 4 -32z m64 -6 c-3 -10 -5 -2 -5 17 0 19
2 27 5 18 2 -10 2 -26 0 -35z m-987 -9 c0 -3 -7 -1 -15 6 -8 7 -15 17 -15 22
0 5 7 3 15 -6 8 -8 15 -18 15 -22z m30 14 c0 -16 -3 -19 -11 -11 -6 6 -8 16
-5 22 11 17 16 13 16 -11z m25 12 c3 -5 1 -10 -4 -10 -6 0 -11 5 -11 10 0 6 2
10 4 10 3 0 8 -4 11 -10z m185 0 c0 -5 -2 -10 -4 -10 -3 0 -8 5 -11 10 -3 6
-1 10 4 10 6 0 11 -4 11 -10z m23 -15 c-7 -21 -12 -19 -10 4 0 11 5 18 9 15 4
-3 5 -11 1 -19z m45 18 c-9 -2 -19 -12 -21 -21 -3 -12 -5 -10 -6 6 -1 17 4 22
22 21 15 -1 17 -3 5 -6z m29 -25 c-3 -7 -5 -2 -5 12 0 14 2 19 5 13 2 -7 2
-19 0 -25z m33 12 c0 -11 -2 -20 -4 -20 -2 0 -6 9 -9 20 -3 11 -1 20 4 20 5 0
9 -9 9 -20z m54 -10 c-6 -6 -10 -3 -10 10 0 13 4 16 10 10 7 -7 7 -13 0 -20z
m73 -2 c-3 -7 -5 -2 -5 12 0 14 2 19 5 13 2 -7 2 -19 0 -25z m90 7 c2 -15 1
-16 -5 -5 -8 17 -32 25 -32 11 0 -5 6 -12 13 -14 7 -3 5 -6 -5 -6 -12 -1 -18
6 -18 20 0 28 44 23 47 -6z m178 0 c-2 -37 -15 -43 -15 -7 0 18 4 32 8 32 4 0
7 -11 7 -25z m22 -7 c-3 -7 -5 -2 -5 12 0 14 2 19 5 13 2 -7 2 -19 0 -25z m51
25 c-9 -2 -19 -12 -21 -21 -3 -12 -5 -10 -6 6 -1 17 4 22 22 21 15 -1 17 -3 5
-6z m32 -14 c0 -11 -4 -18 -10 -14 -5 3 -7 12 -3 20 7 21 13 19 13 -6z m30 7
c0 -8 -4 -17 -8 -20 -4 -2 -8 4 -8 15 0 10 4 19 8 19 4 0 8 -6 8 -14z m47 -18
c-3 -7 -5 -2 -5 12 0 14 2 19 5 13 2 -7 2 -19 0 -25z m83 10 c0 -16 -3 -19
-11 -11 -6 6 -8 16 -5 22 11 17 16 13 16 -11z m25 12 c3 -5 1 -10 -4 -10 -6 0
-11 5 -11 10 0 6 2 10 4 10 3 0 8 -4 11 -10z m54 -12 c0 -22 -1 -22 -9 -3 -7
17 -9 17 -9 3 -1 -25 -21 -23 -21 2 0 13 7 20 20 20 14 0 20 -6 19 -22z m-429
2 c0 -5 -7 -10 -15 -10 -8 0 -15 5 -15 10 0 6 7 10 15 10 8 0 15 -4 15 -10z
m-449 -33 c-10 -9 -11 -8 -5 6 3 10 9 15 12 12 3 -3 0 -11 -7 -18z m915 -207
c8 0 14 -9 13 -22 -1 -17 -2 -19 -6 -5 -2 9 -8 17 -13 17 -5 0 -11 -8 -13 -17
-3 -10 -5 -2 -5 17 0 19 2 29 5 23 2 -7 11 -13 19 -13z m419 -20 c0 -27 -2
-35 -8 -24 -7 13 -2 64 6 64 1 0 2 -18 2 -40z m165 10 c0 -16 -3 -30 -7 -30
-5 0 -8 14 -8 30 0 17 3 30 8 30 4 0 7 -13 7 -30z m53 -11 c-7 -27 -21 -24
-18 4 4 40 5 42 14 28 5 -7 6 -22 4 -32z m53 17 c3 -14 1 -33 -5 -43 -9 -15
-10 -14 -5 10 4 16 1 33 -6 42 -8 10 -9 15 -1 15 6 0 13 -11 17 -24z m-1272
-19 c4 -19 3 -26 -4 -22 -5 3 -10 18 -10 32 0 32 5 28 14 -10z m-564 3 c0 -11
-2 -20 -4 -20 -2 0 -6 9 -9 20 -3 11 -1 20 4 20 5 0 9 -9 9 -20z m25 10 c-3
-5 -1 -10 4 -10 6 0 11 6 12 13 0 9 2 9 6 0 2 -7 -3 -20 -12 -29 -9 -9 -13
-19 -10 -22 3 -4 10 0 15 8 5 8 12 11 17 7 9 -9 -17 -28 -32 -23 -15 4 -14 66
1 66 3 0 2 -4 -1 -10z m73 3 c-9 -2 -19 -12 -21 -21 -3 -12 -5 -10 -6 6 -1 17
4 22 22 21 15 -1 17 -3 5 -6z m35 -13 c-3 -12 -8 -19 -11 -16 -5 6 5 36 12 36
2 0 2 -9 -1 -20z m77 9 c0 -6 -7 -17 -15 -26 -9 -8 -13 -18 -10 -21 3 -4 10 0
14 7 5 8 11 9 15 3 7 -11 -21 -25 -35 -16 -10 6 -12 47 -2 57 10 11 33 8 33
-4z m47 -21 c-3 -7 -5 -2 -5 12 0 14 2 19 5 13 2 -7 2 -19 0 -25z m63 22 c0
-5 -6 -7 -14 -4 -8 3 -16 -2 -19 -13 -4 -14 -5 -14 -6 5 -1 16 5 22 19 22 11
0 20 -4 20 -10z m93 3 c-7 -2 -13 -11 -13 -19 0 -8 -4 -14 -9 -14 -5 0 -7 9
-4 20 3 11 13 20 22 19 10 0 11 -2 4 -6z m51 -35 c8 -6 8 -8 0 -8 -18 0 -37
28 -28 42 6 10 10 8 12 -7 3 -11 9 -23 16 -27z m11 32 c3 -5 1 -10 -4 -10 -6
0 -11 5 -11 10 0 6 2 10 4 10 3 0 8 -4 11 -10z m42 -9 c10 -15 9 -20 -2 -25
-9 -3 -12 0 -8 10 3 7 0 14 -6 14 -6 0 -11 5 -11 10 0 16 14 11 27 -9z m107
11 c-6 -4 -14 -14 -17 -22 -4 -10 -6 -8 -6 8 -1 15 5 22 17 22 10 0 13 -3 6
-8z m49 -12 c3 -11 1 -20 -4 -20 -5 0 -9 9 -9 20 0 11 2 20 4 20 2 0 6 -9 9
-20z m42 10 c-4 -6 -1 -18 6 -26 10 -12 9 -13 -5 -8 -16 6 -21 25 -9 37 10 11
15 8 8 -3z m50 0 c-4 -6 -1 -18 6 -26 10 -12 9 -13 -5 -8 -16 6 -21 25 -9 37
10 11 15 8 8 -3z m67 -13 c3 -14 0 -24 -7 -24 -7 0 -10 10 -7 24 2 13 6 23 7
23 1 0 5 -10 7 -23z m52 -9 c4 6 4 17 1 22 -3 6 -1 10 4 10 16 0 13 -37 -3
-43 -19 -7 -40 18 -30 35 6 9 10 5 14 -12 4 -17 8 -21 14 -12z m65 10 c-1 -17
-2 -19 -6 -5 -2 9 -8 17 -13 17 -5 0 -11 -8 -13 -17 -4 -14 -5 -12 -6 5 -1 16
5 22 19 22 14 0 20 -6 19 -22z m28 16 c-3 -4 -1 -16 5 -28 10 -20 9 -20 -7 -4
-15 14 -14 38 2 38 4 0 3 -3 0 -6z m209 -6 c0 -7 4 -13 9 -13 6 0 9 6 8 14 -1
9 2 10 10 2 7 -7 6 -15 -3 -26 -12 -14 -15 -14 -28 -1 -8 8 -11 19 -8 25 9 15
14 14 12 -1z m84 2 c0 -5 -6 -7 -14 -4 -8 3 -16 -2 -19 -13 -4 -14 -5 -14 -6
5 -1 16 5 22 19 22 11 0 20 -4 20 -10z m50 -9 c0 -19 -23 -35 -34 -24 -11 11
-6 23 10 23 8 0 12 5 9 10 -3 6 -1 10 4 10 6 0 11 -9 11 -19z m37 8 c-9 -6
-15 -14 -12 -20 4 -5 1 -9 -4 -9 -6 0 -11 9 -11 20 0 14 7 20 23 20 20 -1 20
-2 4 -11z m62 -30 c1 -3 -5 -6 -12 -6 -9 0 -12 9 -9 26 5 23 6 24 13 6 4 -11
8 -23 8 -26z m27 29 c0 -7 4 -13 9 -13 6 0 9 6 9 12 -1 7 2 10 7 7 14 -8 11
-31 -5 -37 -17 -7 -40 18 -31 33 8 14 13 13 11 -2z m70 -2 c20 -21 17 -28 -6
-14 -11 7 -20 16 -20 20 0 12 10 9 26 -6z m141 -18 c-3 -7 -5 -2 -5 12 0 14 2
19 5 13 2 -7 2 -19 0 -25z m33 22 c0 -5 -2 -10 -4 -10 -3 0 -8 5 -11 10 -3 6
-1 10 4 10 6 0 11 -4 11 -10z m-1713 -25 c0 -8 -4 -12 -9 -9 -4 3 -8 9 -8 15
0 5 4 9 8 9 5 0 9 -7 9 -15z m263 5 c0 -5 -5 -10 -11 -10 -5 0 -7 5 -4 10 3 6
8 10 11 10 2 0 4 -4 4 -10z m805 -9 c-3 -6 -11 -11 -16 -11 -5 0 -4 6 3 14 14
16 24 13 13 -3z m-682 -28 c-7 -2 -19 -2 -25 0 -7 3 -2 5 12 5 14 0 19 -2 13
-5z m740 0 c-7 -2 -19 -2 -25 0 -7 3 -2 5 12 5 14 0 19 -2 13 -5z m1214 -225
c-3 -8 -6 -5 -6 6 -1 11 2 17 5 13 3 -3 4 -12 1 -19z m-1375 -243 c2 -20 0
-35 -7 -35 -5 0 -10 16 -10 35 0 19 3 35 6 35 4 0 9 -16 11 -35z m214 -21 c-7
-19 -25 -18 -33 1 -3 9 3 24 13 34 18 17 19 17 22 -1 2 -11 1 -26 -2 -34z
m462 31 c-8 -19 -8 -28 2 -40 8 -9 8 -15 2 -15 -17 0 -24 37 -12 60 15 28 22
25 8 -5z m1282 6 c0 -3 -4 -13 -10 -21 -6 -9 -5 -17 3 -22 8 -5 4 -8 -10 -8
-27 0 -30 12 -8 30 12 10 13 16 4 27 -10 11 -9 12 5 7 9 -3 16 -9 16 -13z
m-2545 -26 c0 -14 -1 -25 -2 -25 -7 0 -20 45 -16 53 8 13 16 -1 18 -28z m949
2 c2 -30 -8 -24 -19 12 -5 17 -4 22 6 19 7 -2 13 -16 13 -31z m161 23 c3 -5
-1 -10 -9 -10 -9 0 -16 5 -16 10 0 6 4 10 9 10 6 0 13 -4 16 -10z m737 -20 c3
-17 0 -30 -6 -30 -6 0 -11 14 -11 30 0 17 3 30 6 30 4 0 9 -13 11 -30z m-2001
11 c-7 -5 -17 -15 -22 -22 -6 -10 -9 -8 -9 9 0 16 6 22 23 22 16 0 18 -3 8 -9z
m53 -33 c8 -6 8 -8 0 -8 -18 0 -37 28 -28 42 6 10 10 8 12 -7 3 -11 9 -23 16
-27z m11 33 c3 -5 1 -12 -5 -16 -5 -3 -10 1 -10 9 0 18 6 21 15 7z m31 0 c-3
-5 1 -12 10 -15 19 -7 9 -26 -14 -26 -13 0 -14 2 -3 9 9 6 10 11 2 15 -14 9
-14 26 0 26 5 0 8 -4 5 -9z m129 -1 c3 -5 0 -7 -9 -4 -8 3 -16 -2 -19 -13 -4
-14 -5 -14 -6 5 -1 22 22 31 34 12z m37 -15 c3 -16 1 -25 -7 -25 -8 0 -10 9
-7 25 2 14 6 25 7 25 1 0 5 -11 7 -25z m51 18 c-7 -2 -13 -11 -13 -18 0 -7 6
-16 13 -18 9 -4 9 -6 0 -6 -6 -1 -15 4 -18 9 -9 15 2 40 17 39 10 0 10 -2 1
-6z m47 -3 c-13 -9 -12 -12 4 -25 21 -16 10 -21 -13 -6 -16 10 -8 41 11 41 9
0 9 -3 -2 -10z m62 -15 c3 -15 1 -25 -6 -25 -6 0 -11 11 -11 25 0 14 3 25 6
25 4 0 9 -11 11 -25z m65 9 c3 -8 1 -20 -5 -26 -15 -15 -43 8 -35 28 7 19 32
18 40 -2z m52 -6 c-1 -17 -2 -19 -6 -5 -2 9 -8 17 -13 17 -5 0 -11 -8 -13 -17
-4 -14 -5 -12 -6 5 -1 16 5 22 19 22 14 0 20 -6 19 -22z m111 -4 c0 -17 -24
-29 -40 -19 -8 5 -6 13 7 25 20 19 33 17 33 -6z m38 6 c10 23 11 23 11 4 1
-21 -21 -39 -33 -27 -3 4 -6 16 -5 27 1 18 2 18 9 -4 l7 -25 11 25z m112 -5
c0 -15 -6 -25 -14 -25 -18 0 -30 17 -17 24 5 4 12 0 15 -6 4 -7 4 -3 2 10 -2
12 0 22 5 22 5 0 9 -11 9 -25z m36 16 c-4 -5 -1 -11 6 -13 14 -5 2 -28 -15
-28 -8 0 -8 3 2 9 9 6 10 11 2 15 -14 9 -14 26 0 26 5 0 8 -4 5 -9z m166 -16
c3 -15 1 -25 -6 -25 -6 0 -11 11 -11 25 0 14 3 25 6 25 4 0 9 -11 11 -25z m44
16 c-3 -5 2 -12 11 -15 15 -6 15 -8 3 -16 -8 -6 -19 -10 -25 -10 -5 0 -4 4 4
9 9 6 10 11 2 15 -14 9 -14 26 0 26 5 0 8 -4 5 -9z m116 -16 c3 -15 1 -25 -6
-25 -6 0 -11 11 -11 25 0 14 3 25 6 25 4 0 9 -11 11 -25z m65 0 c2 -17 1 -17
-3 -2 -4 11 -12 16 -20 13 -8 -3 -14 -1 -14 5 0 19 35 4 37 -16z m101 3 c-3
-24 -29 -31 -35 -10 -3 6 3 12 12 12 9 0 13 5 10 10 -3 6 -1 10 5 10 6 0 10
-10 8 -22z m47 -18 c-3 -5 -12 -10 -18 -10 -8 0 -8 3 2 9 9 6 10 11 2 15 -6 4
-11 12 -11 17 0 6 7 3 16 -5 8 -9 12 -20 9 -26z m111 5 c-7 -18 -27 -16 -34 3
-2 7 4 12 13 12 10 0 14 5 9 13 -5 9 -4 9 6 0 7 -6 10 -19 6 -28z m48 -7 c-3
-5 -11 -8 -17 -8 -7 0 -6 4 3 10 12 8 12 10 -3 16 -9 3 -14 10 -11 16 3 5 12
1 19 -9 7 -10 11 -21 9 -25z m48 17 c3 -15 1 -25 -6 -25 -6 0 -11 11 -11 25 0
14 3 25 6 25 4 0 9 -11 11 -25z m61 9 c-4 -11 -8 -12 -13 -4 -5 7 -9 2 -12
-14 -4 -18 -1 -26 9 -26 8 0 11 5 8 10 -3 6 -1 10 5 10 7 0 10 -6 8 -12 -5
-14 -38 -18 -38 -5 0 4 0 18 0 32 0 18 5 25 20 25 14 0 18 -5 13 -16z m56 -6
c-1 -17 -2 -19 -6 -5 -2 9 -8 17 -13 17 -5 0 -11 -8 -13 -17 -4 -14 -5 -12 -6
5 -1 16 5 22 19 22 14 0 20 -6 19 -22z m50 0 c0 -16 -2 -18 -6 -8 -3 8 -11 18
-17 22 -7 5 -4 8 7 8 11 0 17 -7 16 -22z m32 8 c-10 -11 -8 -17 6 -25 10 -6
13 -11 7 -11 -17 0 -37 27 -29 40 3 5 11 10 17 10 7 0 6 -5 -1 -14z m68 -28
c1 -5 -5 -8 -13 -8 -9 0 -12 8 -8 27 5 25 6 25 13 8 4 -11 8 -23 8 -27z m59
20 c-2 -13 -10 -23 -18 -23 -8 0 -16 10 -18 23 -3 17 2 22 18 22 16 0 21 -5
18 -22z m51 0 c-1 -17 -2 -19 -6 -5 -2 9 -8 17 -13 17 -5 0 -11 -8 -13 -17 -4
-14 -5 -12 -6 5 -1 16 5 22 19 22 14 0 20 -6 19 -22z m203 -20 c-13 -13 -35
-1 -26 14 4 6 10 5 15 -3 6 -10 9 -7 10 11 1 19 3 20 6 6 3 -10 0 -23 -5 -28z
m44 33 c-3 -5 2 -12 11 -15 15 -6 15 -8 3 -16 -8 -6 -19 -10 -25 -10 -5 0 -4
4 4 9 9 6 10 11 2 15 -14 9 -14 26 0 26 5 0 8 -4 5 -9z m64 -16 c0 -14 -3 -25
-7 -25 -5 0 -8 11 -8 25 0 14 3 25 8 25 4 0 7 -11 7 -25z m60 15 c0 -6 -7 -13
-15 -16 -8 -4 -15 -12 -15 -20 0 -16 16 -19 23 -4 3 6 4 5 3 -2 -2 -7 -9 -13
-17 -13 -15 0 -24 28 -15 51 6 16 36 19 36 4z m106 -25 c-7 -19 -28 -16 -34 6
-3 11 -2 11 7 -1 10 -13 11 -13 12 0 1 8 1 20 -1 25 -1 6 4 5 11 -2 6 -6 9
-19 5 -28z m35 26 c-12 -8 -13 -12 -1 -25 11 -14 10 -16 -4 -10 -25 10 -19 44
8 44 6 0 5 -4 -3 -9z m61 -16 c3 -15 1 -25 -6 -25 -6 0 -11 11 -11 25 0 14 3
25 6 25 4 0 9 -11 11 -25z m64 14 c3 -6 0 -17 -7 -25 -18 -17 -44 -2 -36 20 7
18 33 21 43 5z m51 -14 c1 -16 1 -16 -3 -2 -3 9 -9 17 -14 17 -5 0 -11 -8 -13
-17 -3 -13 -5 -12 -6 5 -1 30 33 27 36 -3z m93 -22 c-11 -17 -11 -17 -6 0 3
10 6 24 7 30 0 9 2 9 5 0 3 -7 0 -20 -6 -30z m-1476 12 c3 -8 1 -15 -3 -15 -5
0 -11 7 -15 15 -3 8 -1 15 3 15 5 0 11 -7 15 -15z m463 0 c0 -8 -4 -12 -9 -9
-5 3 -6 10 -3 15 9 13 12 11 12 -6z m328 -4 c3 -5 1 -12 -5 -16 -5 -3 -10 1
-10 9 0 18 6 21 15 7z m-1472 -28 c-7 -2 -19 -2 -25 0 -7 3 -2 5 12 5 14 0 19
-2 13 -5z m320 0 c-7 -2 -19 -2 -25 0 -7 3 -2 5 12 5 14 0 19 -2 13 -5z m-537
-63 c8 0 14 -9 13 -22 -1 -17 -2 -19 -6 -5 -2 9 -8 17 -13 17 -5 0 -11 -8 -13
-17 -3 -10 -5 -2 -5 17 0 19 2 29 5 23 2 -7 11 -13 19 -13z m533 -41 c-18 -10
-29 -2 -29 22 0 10 7 19 15 19 8 0 16 6 16 13 1 6 4 -1 6 -17 3 -17 -1 -32 -8
-37z m-687 21 c3 -17 0 -30 -6 -30 -6 0 -11 14 -11 30 0 17 3 30 6 30 4 0 9
-13 11 -30z m530 0 c3 -17 0 -30 -6 -30 -6 0 -11 14 -11 30 0 17 3 30 6 30 4
0 9 -13 11 -30z m308 16 c0 -8 3 -21 6 -30 4 -10 1 -16 -7 -16 -9 0 -14 11
-14 30 0 17 3 30 8 30 4 0 7 -6 7 -14z m742 -16 c3 -17 0 -30 -6 -30 -6 0 -11
14 -11 30 0 17 3 30 6 30 4 0 9 -13 11 -30z m-1782 -5 c0 -15 -6 -25 -14 -25
-20 0 -29 17 -15 26 8 4 9 3 5 -4 -4 -7 -2 -12 3 -12 15 0 14 27 -1 33 -8 3
-6 6 5 6 12 1 17 -7 17 -24z m50 0 c0 -16 -6 -25 -15 -25 -8 0 -15 5 -15 11 0
5 5 7 10 4 6 -3 10 3 10 14 0 12 2 21 5 21 3 0 5 -11 5 -25z m49 -17 c1 -5 -5
-8 -13 -8 -9 0 -12 8 -8 27 5 25 6 25 13 8 4 -11 8 -23 8 -27z m59 20 c-3 -24
-29 -31 -35 -10 -3 6 3 12 12 12 9 0 13 5 10 10 -3 6 -1 10 5 10 6 0 10 -10 8
-22z m249 15 c-21 -5 -17 -30 4 -25 11 3 12 1 2 -9 -10 -10 -16 -10 -24 -2
-16 16 -4 43 18 42 17 -1 17 -2 0 -6z m73 -3 c0 -5 -6 -7 -14 -4 -8 3 -16 -2
-19 -13 -4 -14 -5 -14 -6 5 -1 16 5 22 19 22 11 0 20 -4 20 -10z m46 -25 c-7
-18 -27 -16 -34 3 -2 7 4 12 13 12 10 0 14 5 9 13 -5 9 -4 9 6 0 7 -6 10 -19
6 -28z m54 24 c0 -5 -4 -8 -9 -4 -6 3 -14 -3 -20 -12 -9 -16 -10 -16 -11 5 0
15 6 22 20 22 11 0 20 -5 20 -11z m42 -14 c3 -16 1 -25 -7 -25 -8 0 -10 9 -7
25 2 14 6 25 7 25 1 0 5 -11 7 -25z m65 9 c3 -8 1 -20 -5 -26 -15 -15 -43 8
-35 28 7 19 32 18 40 -2z m255 -9 c3 -15 1 -25 -6 -25 -6 0 -11 11 -11 25 0
14 3 25 6 25 4 0 9 -11 11 -25z m68 -1 c0 -17 -24 -29 -40 -19 -6 3 -7 11 -4
17 4 6 10 5 15 -3 6 -10 9 -8 9 9 0 13 4 20 10 17 6 -3 10 -13 10 -21z m256
-9 c-7 -18 -27 -16 -34 3 -2 7 4 12 13 12 10 0 14 5 9 13 -5 9 -4 9 6 0 7 -6
10 -19 6 -28z m48 -7 c-3 -5 -11 -8 -17 -8 -7 0 -6 4 3 10 12 8 12 10 -3 16
-9 3 -14 10 -11 16 3 5 12 1 19 -9 7 -10 11 -21 9 -25z m48 17 c3 -15 1 -25
-6 -25 -6 0 -11 11 -11 25 0 14 3 25 6 25 4 0 9 -11 11 -25z m61 9 c-5 -13 -7
-13 -14 -2 -6 9 -9 4 -9 -14 0 -16 5 -28 11 -28 5 0 7 5 4 10 -3 6 -1 10 5 10
7 0 10 -6 8 -12 -5 -14 -38 -18 -38 -5 0 4 0 18 0 32 0 18 5 25 20 25 14 0 18
-5 13 -16z m54 -9 c1 -16 1 -16 -3 -2 -3 9 -9 17 -14 17 -5 0 -11 -8 -13 -17
-3 -13 -5 -12 -6 5 -1 30 33 27 36 -3z m53 0 c0 -15 -6 -25 -14 -25 -20 0 -29
17 -15 26 8 4 9 3 5 -4 -4 -7 -2 -12 5 -12 6 0 9 8 6 20 -3 11 -1 20 4 20 5 0
9 -11 9 -25z m31 11 c-10 -11 -8 -17 6 -25 10 -6 13 -11 8 -11 -17 0 -34 21
-28 36 3 8 10 14 15 14 6 0 6 -6 -1 -14z m61 -11 c3 -16 1 -25 -7 -25 -8 0
-10 9 -7 25 2 14 6 25 7 25 1 0 5 -11 7 -25z m66 3 c-2 -13 -10 -23 -18 -23
-8 0 -16 10 -18 23 -3 17 2 22 18 22 16 0 21 -5 18 -22z m51 0 c-1 -17 -2 -19
-6 -5 -2 9 -8 17 -13 17 -5 0 -11 -8 -13 -17 -4 -14 -5 -12 -6 5 -1 16 5 22
19 22 14 0 20 -6 19 -22z m-579 4 c0 -5 -7 -9 -15 -9 -8 0 -15 4 -15 9 0 4 7
8 15 8 8 0 15 -4 15 -8z m-913 -34 c-3 -8 -6 -5 -6 6 -1 11 2 17 5 13 3 -3 4
-12 1 -19z m524 -1 c-10 -9 -11 -8 -5 6 3 10 9 15 12 12 3 -3 0 -11 -7 -18z
m-678 -94 c5 -23 3 -33 -6 -33 -9 0 -12 11 -9 36 5 41 7 40 15 -3z m263 17 c8
0 14 -9 13 -22 -1 -17 -2 -19 -6 -5 -2 9 -8 17 -13 17 -5 0 -11 -8 -13 -17 -3
-10 -5 -2 -5 17 0 19 2 29 5 23 2 -7 11 -13 19 -13z m533 -41 c-18 -10 -29 -2
-29 22 0 10 7 19 15 19 8 0 16 6 16 13 1 6 4 -1 6 -17 3 -17 -1 -32 -8 -37z
m-688 17 c-9 -11 -9 -15 1 -19 8 -3 6 -6 -5 -6 -12 -1 -16 4 -13 12 3 6 9 21
13 32 4 12 8 15 11 7 2 -7 -1 -19 -7 -26z m539 20 c0 -8 -5 -18 -11 -22 -8 -4
-7 -9 2 -15 10 -6 8 -9 -9 -9 -21 0 -22 1 -7 23 8 13 12 27 8 30 -3 4 -1 7 5
7 7 0 12 -6 12 -14z m307 -16 c-1 -17 -8 -30 -15 -30 -8 0 -11 6 -8 13 3 6 9
20 12 30 9 25 13 21 11 -13z m740 0 c-1 -17 -8 -30 -15 -30 -8 0 -11 6 -8 13
3 6 9 20 12 30 9 25 13 21 11 -13z m-1787 -5 c0 -15 -6 -25 -14 -25 -20 0 -29
17 -15 26 8 4 9 3 5 -4 -4 -7 -2 -12 3 -12 15 0 14 27 -1 33 -8 3 -6 6 5 6 12
1 17 -7 17 -24z m50 0 c0 -16 -6 -25 -15 -25 -8 0 -15 5 -15 11 0 5 5 7 10 4
6 -3 10 3 10 14 0 12 2 21 5 21 3 0 5 -11 5 -25z m110 -1 c0 -18 -5 -25 -17
-22 -23 4 -29 28 -6 28 15 0 16 2 3 10 -13 8 -12 10 3 10 12 0 17 -8 17 -26z
m260 16 c0 -5 -7 -7 -16 -3 -12 4 -15 2 -12 -8 3 -8 12 -13 19 -11 11 3 12 1
2 -9 -17 -17 -38 3 -30 25 7 17 37 22 37 6z m60 0 c0 -5 -6 -7 -14 -4 -8 3
-16 -2 -19 -13 -4 -14 -5 -14 -6 5 -1 16 5 22 19 22 11 0 20 -4 20 -10z m45
-16 c0 -21 -26 -26 -32 -6 -3 6 3 12 14 12 15 0 16 2 3 11 -13 9 -13 10 0 6 8
-2 15 -12 15 -23z m55 15 c0 -5 -4 -8 -9 -4 -6 3 -14 -3 -20 -12 -9 -16 -10
-16 -11 5 0 15 6 22 20 22 11 0 20 -5 20 -11z m42 -14 c3 -15 1 -25 -6 -25 -6
0 -11 11 -11 25 0 14 3 25 6 25 4 0 9 -11 11 -25z m65 9 c3 -8 1 -20 -5 -26
-15 -15 -43 8 -35 28 7 19 32 18 40 -2z m255 -9 c3 -15 1 -25 -6 -25 -6 0 -11
11 -11 25 0 14 3 25 6 25 4 0 9 -11 11 -25z m64 -1 c3 -17 -20 -29 -36 -19 -8
5 -6 13 7 25 20 19 26 18 29 -6z m259 0 c0 -21 -26 -26 -32 -6 -3 6 3 12 14
12 15 0 16 2 3 11 -13 9 -13 10 0 6 8 -2 15 -12 15 -23z m31 17 c-3 -5 1 -12
10 -15 17 -6 10 -26 -9 -26 -8 0 -8 3 1 9 11 7 10 9 -3 15 -14 5 -13 26 1 26
3 0 3 -4 0 -9z m66 -16 c3 -15 1 -25 -6 -25 -6 0 -11 11 -11 25 0 14 3 25 6
25 4 0 9 -11 11 -25z m61 9 c-5 -13 -7 -13 -14 -2 -6 9 -9 4 -9 -14 0 -16 5
-28 11 -28 5 0 7 5 3 12 -5 7 -3 8 5 3 17 -10 -2 -30 -22 -22 -22 8 -10 67 14
67 13 0 16 -5 12 -16z m54 -9 c1 -16 1 -16 -3 -2 -3 9 -9 17 -14 17 -5 0 -11
-8 -13 -17 -3 -13 -5 -12 -6 5 -1 30 33 27 36 -3z m53 0 c0 -15 -6 -25 -14
-25 -22 0 -30 19 -12 26 9 3 13 10 10 15 -3 5 0 9 5 9 6 0 11 -11 11 -25z m36
13 c-19 -11 -19 -11 -1 -24 10 -8 14 -14 9 -14 -17 0 -33 22 -27 36 3 8 13 14
22 14 13 -1 13 -2 -3 -12z m56 -13 c3 -16 1 -25 -7 -25 -8 0 -10 9 -7 25 2 14
6 25 7 25 1 0 5 -11 7 -25z m66 3 c-2 -13 -10 -23 -18 -23 -8 0 -16 10 -18 23
-3 17 2 22 18 22 16 0 21 -5 18 -22z m51 0 c-1 -17 -2 -19 -6 -5 -2 9 -8 17
-13 17 -5 0 -11 -8 -13 -17 -4 -14 -5 -12 -6 5 -1 16 5 22 19 22 14 0 20 -6
19 -22z m-579 4 c0 -5 -7 -9 -15 -9 -8 0 -15 4 -15 9 0 4 7 8 15 8 8 0 15 -4
15 -8z m-913 -34 c-3 -8 -6 -5 -6 6 -1 11 2 17 5 13 3 -3 4 -12 1 -19z m524
-1 c-10 -9 -11 -8 -5 6 3 10 9 15 12 12 3 -3 0 -11 -7 -18z m-206 -96 c0 -21
-3 -37 -7 -34 -10 5 -10 35 -2 57 9 23 10 20 9 -23z m167 4 c2 -20 0 -35 -7
-35 -5 0 -10 16 -10 35 0 19 3 35 6 35 4 0 9 -16 11 -35z m470 0 c2 -20 0 -35
-7 -35 -5 0 -10 16 -10 35 0 19 3 35 6 35 4 0 9 -16 11 -35z m435 -17 c-4 -9
-6 -7 -6 5 -1 9 -5 17 -10 17 -5 0 -12 -8 -14 -17 -3 -10 -5 -3 -6 15 l-1 33
21 -20 c12 -11 19 -25 16 -33z m619 32 c8 0 14 -9 13 -22 -1 -17 -2 -19 -6 -5
-2 9 -8 17 -13 17 -5 0 -11 -8 -13 -17 -3 -10 -5 -2 -5 17 0 19 2 29 5 23 2
-7 11 -13 19 -13z m694 -15 c0 -25 -4 -35 -15 -35 -24 0 -29 29 -9 50 25 25
24 25 24 -15z m419 -26 c-30 -18 -41 25 -11 47 15 11 17 10 20 -13 2 -14 -2
-29 -9 -34z m211 14 c0 -12 -3 -24 -7 -26 -5 -3 -8 12 -8 34 -1 22 2 33 7 26
4 -6 8 -22 8 -34z m-2748 7 c3 -17 0 -30 -6 -30 -6 0 -11 14 -11 30 0 17 3 30
6 30 4 0 9 -13 11 -30z m478 0 c-7 -13 -6 -20 3 -23 6 -3 2 -6 -10 -6 -26 -1
-30 11 -8 29 8 7 12 17 8 23 -3 6 -1 7 5 3 9 -5 9 -13 2 -26z m682 0 c3 -17 0
-30 -6 -30 -6 0 -11 14 -11 30 0 17 3 30 6 30 4 0 9 -13 11 -30z m638 1 c-5
-10 -6 -21 -3 -25 3 -3 -1 -6 -10 -6 -21 0 -22 14 -2 30 8 7 12 17 8 23 -3 6
-1 7 5 3 8 -5 9 -13 2 -25z m472 -1 c3 -17 0 -30 -6 -30 -6 0 -11 14 -11 30 0
17 3 30 6 30 4 0 9 -13 11 -30z m425 0 c-1 -17 -8 -30 -15 -30 -8 0 -11 6 -8
13 3 6 9 20 12 30 9 25 13 21 11 -13z m-2894 -1 c6 -23 -18 -38 -35 -21 -8 8
-7 13 5 18 9 3 14 10 11 15 -3 5 -1 9 4 9 5 0 12 -9 15 -21z m46 1 l11 25 -3
-25 c-1 -14 -8 -25 -17 -25 -9 0 -16 10 -17 25 l-2 25 8 -25 8 -25 12 25z
m111 -5 c0 -15 -6 -25 -14 -25 -22 0 -30 19 -12 26 9 3 13 10 10 15 -3 5 0 9
5 9 6 0 11 -11 11 -25z m315 -1 c0 -10 -8 -20 -17 -22 -11 -2 -18 3 -18 12 0
9 8 16 18 16 15 0 15 2 2 11 -13 9 -13 10 0 6 8 -2 15 -12 15 -23z m35 -14 c5
0 11 10 13 23 4 18 5 17 6 -6 1 -22 -3 -28 -16 -25 -10 2 -18 12 -19 23 -1 15
0 16 3 3 3 -10 8 -18 13 -18z m125 14 c0 -10 -8 -20 -17 -22 -11 -2 -18 3 -18
12 0 9 8 16 18 16 15 0 15 2 2 11 -13 9 -13 10 0 6 8 -2 15 -12 15 -23z m423
4 c-2 -13 -10 -23 -18 -23 -8 0 -16 10 -18 23 -3 17 2 22 18 22 16 0 21 -5 18
-22z m43 13 c-7 -5 -17 -15 -22 -22 -6 -10 -9 -8 -9 9 0 16 6 22 23 22 16 0
18 -3 8 -9z m59 -16 c0 -15 -6 -25 -14 -25 -22 0 -30 19 -11 26 13 6 14 8 3
15 -10 7 -9 9 5 9 12 0 17 -8 17 -25z m60 15 c0 -5 -6 -7 -14 -4 -8 3 -16 -2
-19 -13 -4 -14 -5 -14 -6 5 -1 16 5 22 19 22 11 0 20 -4 20 -10z m40 -21 c0
-10 -3 -19 -7 -19 -5 0 -8 11 -8 24 0 13 3 22 8 19 4 -2 7 -13 7 -24z m63 17
c8 -20 -20 -43 -35 -28 -14 14 -3 42 16 42 7 0 16 -6 19 -14z m370 0 c8 -20
-20 -43 -35 -28 -14 14 -3 42 16 42 7 0 16 -6 19 -14z m52 4 c3 -5 0 -7 -9 -4
-8 3 -16 -2 -19 -13 -4 -14 -5 -14 -6 5 -1 22 22 31 34 12z m50 -16 c0 -10 -8
-20 -17 -22 -11 -2 -18 3 -18 12 0 9 8 16 18 16 15 0 15 2 2 11 -13 9 -13 10
0 6 8 -2 15 -12 15 -23z m55 15 c0 -5 -4 -8 -9 -4 -6 3 -14 -3 -20 -12 -9 -16
-10 -16 -11 5 0 15 6 22 20 22 11 0 20 -5 20 -11z m42 -14 c3 -15 1 -25 -6
-25 -6 0 -11 11 -11 25 0 14 3 25 6 25 4 0 9 -11 11 -25z m65 9 c3 -8 1 -20
-6 -27 -14 -14 -47 15 -37 32 10 16 36 13 43 -5z m405 -9 c3 -16 1 -25 -7 -25
-8 0 -10 9 -7 25 2 14 6 25 7 25 1 0 5 -11 7 -25z m68 0 c0 -15 -6 -25 -14
-25 -22 0 -30 19 -11 26 13 6 14 8 3 15 -10 7 -9 9 5 9 12 0 17 -8 17 -25z
m360 -6 c0 -10 -4 -19 -9 -19 -5 0 -8 11 -7 24 1 28 16 24 16 -5z m60 6 c0
-15 -6 -25 -14 -25 -20 0 -29 17 -15 26 8 4 9 3 5 -4 -4 -7 -2 -12 3 -12 15 0
14 27 -1 33 -8 3 -6 6 5 6 12 1 17 -7 17 -24z m-1960 -234 c10 -20 -4 -80 -16
-68 -3 3 -1 15 6 26 8 15 8 27 0 41 -6 11 -8 20 -6 20 3 0 10 -9 16 -19z
m-1108 -21 c3 -17 0 -30 -6 -30 -6 0 -11 14 -11 30 0 17 3 30 6 30 4 0 9 -13
11 -30z m623 20 c3 -5 1 -10 -4 -10 -6 0 -11 5 -11 10 0 6 2 10 4 10 3 0 8 -4
11 -10z m110 -24 c0 -19 -3 -32 -7 -29 -14 8 -8 63 6 63 1 0 1 -15 1 -34z
m-1153 -1 c3 -15 1 -25 -6 -25 -6 0 -11 11 -11 25 0 14 3 25 6 25 4 0 9 -11
11 -25z m151 18 c-7 -2 -13 -11 -13 -18 0 -7 6 -16 13 -18 9 -4 9 -6 0 -6 -6
-1 -15 4 -18 9 -9 15 2 40 17 39 10 0 10 -2 1 -6z m57 -13 l8 25 1 -28 c1 -22
-3 -28 -16 -25 -11 2 -19 14 -20 28 l-3 25 11 -25 12 -25 7 25z m65 10 c3 -5
0 -7 -9 -4 -9 4 -16 -2 -19 -18 -4 -21 -4 -20 -6 5 -1 27 21 38 34 17z m37 1
c-11 -7 -10 -9 3 -15 20 -7 10 -26 -13 -26 -13 0 -14 2 -3 9 9 6 10 11 2 15
-13 9 -5 26 12 26 8 0 8 -3 -1 -9z m68 -10 c0 -11 -5 -23 -11 -27 -15 -9 -33
12 -26 30 9 23 37 20 37 -3z m366 -5 c2 -12 1 -13 -3 -1 -6 20 -23 19 -23 -2
0 -9 -3 -14 -6 -10 -4 3 -4 13 0 22 8 21 30 14 32 -9z m101 18 c-3 -3 -12 -4
-19 -1 -8 3 -5 6 6 6 11 1 17 -2 13 -5z m268 -4 c4 -6 -1 -7 -11 -3 -14 5 -16
2 -11 -17 4 -16 3 -20 -5 -12 -12 12 -4 42 11 42 5 0 13 -4 16 -10z m91 -2
c-19 -11 -19 -11 -1 -24 10 -8 14 -14 9 -14 -17 0 -33 22 -27 36 3 8 13 14 22
14 13 -1 13 -2 -3 -12z m54 -28 c5 0 11 9 14 20 5 17 6 17 4 -2 -4 -28 -33
-31 -34 -3 -1 15 0 16 3 3 3 -10 8 -18 13 -18z m70 29 c0 -5 -4 -8 -9 -4 -6 3
-14 -3 -20 -12 -9 -16 -10 -16 -11 5 0 15 6 22 20 22 11 0 20 -5 20 -11z m35
2 c-3 -5 -1 -12 5 -16 13 -8 3 -25 -13 -25 -7 0 -6 4 3 10 10 6 11 10 3 10 -7
0 -13 7 -13 15 0 8 5 15 11 15 5 0 8 -4 4 -9z m70 -16 c0 -11 -7 -21 -16 -23
-18 -3 -33 23 -23 39 10 17 39 5 39 -16z m37 16 c-11 -7 -10 -9 3 -15 20 -7
10 -26 -13 -25 -14 0 -14 2 2 8 18 7 18 8 2 14 -18 7 -13 27 7 27 8 0 8 -3 -1
-9z m-805 -23 c-3 -8 -6 -5 -6 6 -1 11 2 17 5 13 3 -3 4 -12 1 -19z m210 0
c-3 -8 -6 -5 -6 6 -1 11 2 17 5 13 3 -3 4 -12 1 -19z m130 -10 c-3 -8 -6 -5
-6 6 -1 11 2 17 5 13 3 -3 4 -12 1 -19z m-957 -3 c0 -8 -4 -15 -10 -15 -5 0
-7 7 -4 15 4 8 8 15 10 15 2 0 4 -7 4 -15z m1380 -110 c0 -25 -3 -45 -7 -45
-5 0 -8 20 -8 45 0 25 3 45 8 45 4 0 7 -20 7 -45z m-950 10 c-7 -8 -9 -19 -5
-25 3 -5 -1 -10 -10 -10 -10 0 -14 5 -11 13 3 6 9 20 12 29 4 10 10 15 16 12
5 -3 4 -11 -2 -19z m842 -5 c3 -17 0 -30 -6 -30 -6 0 -11 14 -11 30 0 17 3 30
6 30 4 0 9 -13 11 -30z m-1116 8 c-19 -11 -19 -11 -1 -24 16 -12 16 -14 3 -14
-9 0 -18 6 -21 13 -7 19 4 37 22 37 13 -1 13 -2 -3 -12z m62 -13 c13 20 13 20
10 0 -2 -11 -11 -21 -21 -23 -13 -3 -17 3 -16 25 1 28 1 28 8 3 7 -24 7 -24
19 -5z m62 15 c0 -5 -6 -7 -14 -4 -9 4 -16 -3 -19 -18 -4 -21 -4 -20 -6 5 -1
21 4 27 19 27 11 0 20 -4 20 -10z m35 1 c-3 -5 -1 -12 5 -16 13 -8 3 -25 -13
-25 -8 0 -8 3 1 9 11 7 10 9 -3 15 -17 6 -12 26 6 26 6 0 8 -4 4 -9z m68 -3
c6 -19 -3 -38 -18 -38 -18 0 -28 17 -21 35 7 18 33 20 39 3z m300 5 c-19 -7
-16 -31 5 -36 15 -4 15 -5 0 -6 -9 0 -20 4 -23 9 -9 15 2 40 17 39 10 0 10 -2
1 -6z m67 -19 c0 -19 -5 -25 -17 -22 -10 2 -18 10 -19 18 0 9 1 10 3 3 7 -20
23 -15 23 7 0 11 2 20 5 20 3 0 5 -12 5 -26z m55 16 c3 -5 0 -7 -9 -4 -8 3
-16 -2 -19 -13 -4 -14 -5 -14 -6 5 -1 22 22 31 34 12z m37 1 c-11 -7 -10 -9 3
-15 20 -7 10 -26 -13 -25 -14 0 -14 2 2 8 18 7 18 8 2 14 -18 7 -13 27 7 27 8
0 8 -3 -1 -9z m68 -10 c0 -11 -5 -23 -11 -27 -15 -9 -33 12 -26 30 9 23 37 20
37 -3z m35 9 c-3 -5 -1 -10 4 -10 6 0 11 -7 11 -15 0 -8 -8 -15 -17 -15 -14 0
-15 2 -4 9 9 6 10 11 2 15 -14 9 -14 26 0 26 5 0 7 -4 4 -10z m218 -27 c-5
-11 -8 -12 -13 -2 -5 7 -6 19 -3 26 5 11 8 12 13 2 5 -7 6 -19 3 -26z m-103
-3 c0 -5 -7 -10 -16 -10 -8 0 -12 5 -9 10 3 6 10 10 16 10 5 0 9 -4 9 -10z
m-55 -20 c3 -5 2 -10 -4 -10 -5 0 -13 5 -16 10 -3 6 -2 10 4 10 5 0 13 -4 16
-10z m-683 -57 c-6 -2 -10 -8 -7 -13 3 -4 1 -19 -4 -32 -9 -22 -10 -22 -10 8
-1 33 5 45 23 43 6 0 5 -3 -2 -6z m588 -28 c0 -25 -4 -35 -15 -35 -24 0 -29
29 -9 50 25 25 24 25 24 -15z m618 16 c-9 -15 -9 -26 0 -48 11 -26 11 -27 -3
-9 -18 24 -19 48 -3 64 17 17 20 15 6 -7z m794 -16 c2 -20 0 -35 -7 -35 -5 0
-10 16 -10 35 0 19 3 35 6 35 4 0 9 -16 11 -35z m218 0 c0 -25 -4 -35 -15 -35
-24 0 -29 29 -9 50 25 25 24 25 24 -15z m1420 -12 c0 -12 -3 -24 -7 -26 -5 -3
-8 12 -8 34 -1 22 2 33 7 26 4 -6 8 -22 8 -34z m-3362 -1 c-2 -9 -11 -18 -21
-20 -13 -3 -17 3 -17 28 0 28 2 30 21 20 11 -6 19 -19 17 -28z m362 23 c0 -8
-5 -14 -11 -12 -6 1 -14 -4 -17 -12 -3 -10 0 -12 12 -8 9 4 16 2 16 -4 0 -14
-32 -7 -37 7 -2 7 3 19 12 28 20 20 25 20 25 1z m31 1 c-9 -11 -8 -18 4 -30 9
-9 12 -16 7 -16 -5 0 -15 6 -21 14 -12 15 -5 46 11 46 6 0 6 -5 -1 -14z m224
-21 c0 -14 -2 -25 -6 -25 -8 0 -18 48 -11 55 9 8 15 -4 17 -30z m260 0 c0 -14
-1 -25 -2 -25 -7 0 -20 45 -16 53 8 13 16 -1 18 -28z m267 17 c-16 -5 -15 -29
1 -35 9 -4 9 -6 -1 -6 -13 -1 -33 39 -26 51 3 4 12 4 21 1 11 -4 13 -8 5 -11z
m950 0 c-15 -5 -16 -28 -2 -35 6 -3 5 -4 -2 -3 -7 1 -14 15 -16 29 -3 22 0 26
14 20 11 -4 13 -8 6 -11z m160 0 c-16 -5 -15 -29 1 -35 9 -4 9 -6 -1 -6 -13
-1 -33 39 -26 51 3 4 12 4 21 1 11 -4 13 -8 5 -11z m580 -12 c3 -17 0 -30 -6
-30 -6 0 -11 14 -11 30 0 17 3 30 6 30 4 0 9 -13 11 -30z m428 16 c0 -8 -5
-18 -11 -22 -8 -4 -7 -9 2 -15 10 -6 7 -9 -10 -9 -24 0 -24 0 -5 21 16 17 16
22 4 29 -13 8 -12 10 3 10 9 0 17 -6 17 -14z m-3705 -5 c-3 -5 -1 -12 5 -16
13 -8 3 -25 -13 -25 -7 0 -6 4 3 10 10 6 11 10 3 10 -7 0 -13 7 -13 15 0 8 5
15 11 15 5 0 8 -4 4 -9z m70 -1 c3 -6 -1 -13 -10 -16 -13 -6 -14 -8 -3 -15 10
-7 9 -9 -4 -9 -18 0 -28 18 -20 38 5 15 28 16 37 2z m212 -6 c3 -9 -3 -23 -16
-35 l-21 -20 0 36 c0 37 25 50 37 19z m53 6 c0 -5 -6 -7 -14 -4 -9 4 -16 -3
-19 -18 -4 -21 -4 -20 -6 5 -1 21 4 27 19 27 11 0 20 -4 20 -10z m50 -9 c0
-11 -5 -23 -11 -27 -15 -9 -33 12 -26 30 9 23 37 20 37 -3z m158 1 c2 -7 -5
-12 -15 -12 -15 0 -16 -2 -3 -10 9 -6 10 -10 3 -10 -16 0 -26 18 -19 36 7 17
27 15 34 -4z m49 -2 c-2 -25 -17 -27 -18 -2 -1 11 -4 9 -9 -8 l-8 -25 -1 28
c-1 20 4 27 18 27 14 0 19 -6 18 -20z m111 -8 c3 -17 -2 -22 -17 -22 -25 0
-28 18 -5 27 13 5 13 8 2 15 -10 8 -10 9 2 5 8 -2 16 -13 18 -25z m209 12 c8
-21 -13 -42 -28 -27 -13 13 -5 43 11 43 6 0 13 -7 17 -16z m52 -11 l-1 -28 -7
25 c-7 24 -7 24 -19 5 -9 -15 -11 -16 -12 -4 0 19 9 29 27 29 8 0 13 -11 12
-27z m36 17 c-3 -5 -1 -10 4 -10 6 0 11 -7 11 -15 0 -8 -8 -15 -17 -15 -14 0
-15 2 -4 9 9 6 10 11 2 15 -14 9 -14 26 0 26 5 0 7 -4 4 -10z m125 -1 c0 -5
-5 -7 -10 -4 -6 3 -14 -4 -19 -17 -10 -23 -10 -22 -10 5 -1 21 4 27 19 27 11
0 20 -5 20 -11z m50 -14 c0 -15 -6 -25 -14 -25 -22 0 -30 19 -11 26 13 6 14 8
3 15 -10 7 -9 9 5 9 12 0 17 -8 17 -25z m42 0 c3 -15 1 -25 -6 -25 -6 0 -11
11 -11 25 0 14 3 25 6 25 4 0 9 -11 11 -25z m65 -5 c1 -22 1 -22 -4 -2 -2 12
-8 22 -13 22 -5 0 -11 -10 -13 -22 -4 -19 -5 -18 -6 5 -1 22 3 28 17 25 10 -2
18 -13 19 -28z m158 20 c3 -5 0 -7 -9 -4 -9 4 -16 -2 -19 -18 -4 -21 -4 -20
-6 5 -1 27 21 38 34 17z m53 -8 c2 -7 -5 -12 -15 -12 -15 0 -16 -2 -3 -10 9
-6 10 -10 3 -10 -16 0 -26 18 -19 36 7 17 27 15 34 -4z m37 9 c-3 -5 -1 -12 5
-16 13 -8 3 -25 -13 -25 -7 0 -6 4 3 10 10 6 11 10 3 10 -7 0 -13 7 -13 15 0
8 5 15 11 15 5 0 8 -4 4 -9z m125 -1 c0 -5 -6 -7 -14 -4 -9 4 -16 -3 -19 -18
-4 -21 -4 -20 -6 5 -1 21 4 27 19 27 11 0 20 -4 20 -10z m43 -20 c3 -11 0 -20
-6 -20 -7 0 -12 11 -12 24 0 28 10 26 18 -4z m43 18 c-19 -11 -19 -11 -1 -24
16 -12 16 -14 3 -14 -9 0 -19 4 -22 9 -10 15 5 41 23 41 13 -1 13 -2 -3 -12z
m57 5 c-7 -2 -13 -11 -13 -18 0 -7 6 -16 13 -18 9 -4 9 -6 0 -6 -6 -1 -15 4
-18 9 -9 15 2 40 17 39 10 0 10 -2 1 -6z m49 -18 c3 -16 1 -25 -7 -25 -8 0
-10 9 -7 25 2 14 6 25 7 25 1 0 5 -11 7 -25z m68 6 c0 -11 -5 -23 -11 -27 -15
-9 -33 12 -26 30 9 23 37 20 37 -3z m49 -8 l-1 -28 -7 25 c-7 24 -7 24 -19 5
-9 -15 -11 -16 -12 -4 0 19 9 29 27 29 8 0 13 -11 12 -27z m109 -1 c3 -17 -2
-22 -17 -22 -25 0 -28 18 -5 27 13 5 13 8 2 15 -10 8 -10 9 2 5 8 -2 16 -13
18 -25z m32 -12 c5 0 11 10 13 23 4 18 5 17 6 -6 1 -22 -3 -28 -16 -25 -10 2
-18 12 -19 23 -1 15 0 16 3 3 3 -10 8 -18 13 -18z m128 12 c3 -17 -2 -22 -17
-22 -12 0 -21 6 -21 15 0 8 8 15 18 15 15 0 15 2 2 11 -13 9 -13 10 0 6 8 -2
16 -13 18 -25z m37 19 c-3 -5 -1 -12 5 -16 13 -8 3 -25 -13 -25 -8 0 -8 3 1 9
11 7 10 9 -3 15 -17 6 -12 26 6 26 6 0 8 -4 4 -9z m157 -16 c3 -16 1 -25 -7
-25 -8 0 -10 9 -7 25 2 14 6 25 7 25 1 0 5 -11 7 -25z m53 16 c-3 -5 -1 -12 5
-16 13 -8 3 -25 -13 -25 -8 0 -8 3 1 9 11 7 10 9 -3 15 -17 6 -12 26 6 26 6 0
8 -4 4 -9z m107 -16 c3 -15 1 -25 -6 -25 -6 0 -11 11 -11 25 0 14 3 25 6 25 4
0 9 -11 11 -25z m65 -5 c1 -22 1 -22 -4 -2 -2 12 -8 22 -13 22 -5 0 -11 -10
-13 -22 -4 -19 -5 -18 -6 5 -1 22 3 28 17 25 10 -2 18 -13 19 -28z m106 9 c6
-23 -18 -38 -35 -21 -8 8 -7 13 6 18 14 5 15 9 4 15 -10 7 -9 9 3 9 9 0 19 -9
22 -21z m39 12 c-11 -7 -10 -9 3 -15 20 -7 10 -26 -13 -26 -13 0 -14 2 -3 9 9
6 10 11 2 15 -13 9 -5 26 12 26 8 0 8 -3 -1 -9z m211 2 c-7 -2 -13 -11 -13
-18 0 -7 6 -16 13 -18 9 -4 9 -6 0 -6 -6 -1 -15 4 -18 9 -9 15 2 40 17 39 10
0 10 -2 1 -6z m47 -33 c5 0 11 10 13 23 4 18 5 17 6 -6 1 -22 -3 -28 -16 -25
-10 2 -18 12 -19 23 -1 15 0 16 3 3 3 -10 8 -18 13 -18z m70 29 c0 -5 -4 -8
-9 -4 -6 3 -14 -3 -20 -12 -9 -15 -10 -15 -11 -2 0 9 3 19 7 22 10 11 33 8 33
-4z m40 1 c-10 -6 -11 -10 -2 -10 6 0 12 -7 12 -15 0 -8 -8 -15 -17 -15 -14 0
-15 2 -4 9 9 6 10 11 2 15 -17 11 -13 26 7 26 14 0 15 -2 2 -10z m67 -6 c8
-21 -13 -42 -28 -27 -13 13 -5 43 11 43 6 0 13 -7 17 -16z m196 9 c-7 -2 -13
-11 -13 -18 0 -7 6 -16 13 -18 9 -4 9 -6 0 -6 -6 -1 -15 4 -18 9 -9 15 2 40
17 39 10 0 10 -2 1 -6z m47 -33 c5 0 11 10 13 23 4 18 5 17 6 -6 1 -22 -3 -28
-16 -25 -10 2 -18 12 -19 23 -1 15 0 16 3 3 3 -10 8 -18 13 -18z m75 30 c3 -5
0 -7 -9 -4 -9 4 -16 -2 -19 -18 -4 -21 -4 -20 -6 5 -1 27 21 38 34 17z m37 1
c-11 -7 -10 -9 3 -15 20 -7 10 -26 -13 -25 -14 0 -14 2 2 8 18 7 18 8 2 14
-18 7 -13 27 7 27 8 0 8 -3 -1 -9z m65 -7 c8 -21 -13 -42 -28 -27 -13 13 -5
43 11 43 6 0 13 -7 17 -16z m-3542 -24 c3 -5 -1 -10 -10 -10 -9 0 -13 5 -10
10 3 6 8 10 10 10 2 0 7 -4 10 -10z m370 0 c3 -5 -1 -10 -10 -10 -9 0 -13 5
-10 10 3 6 8 10 10 10 2 0 7 -4 10 -10z m2375 -4 c0 -3 -4 -8 -10 -11 -5 -3
-10 -1 -10 4 0 6 5 11 10 11 6 0 10 -2 10 -4z m-837 -23 c-7 -2 -21 -2 -30 0
-10 3 -4 5 12 5 17 0 24 -2 18 -5z m310 0 c-7 -2 -19 -2 -25 0 -7 3 -2 5 12 5
14 0 19 -2 13 -5z"/>
<path d="M1700 1105 c0 -8 5 -15 10 -15 6 0 10 7 10 15 0 8 -4 15 -10 15 -5 0
-10 -7 -10 -15z"/>
<path d="M1227 1114 c-8 -8 1 -24 14 -24 5 0 9 7 9 15 0 15 -12 20 -23 9z"/>
<path d="M2650 1105 c0 -8 5 -15 10 -15 6 0 10 7 10 15 0 8 -4 15 -10 15 -5 0
-10 -7 -10 -15z"/>
<path d="M3332 1109 c2 -6 8 -10 13 -10 5 0 11 4 13 10 2 6 -4 11 -13 11 -9 0
-15 -5 -13 -11z"/>
<path d="M1650 974 c0 -8 5 -12 10 -9 6 3 10 10 10 16 0 5 -4 9 -10 9 -5 0
-10 -7 -10 -16z"/>
<path d="M1440 975 c0 -8 5 -15 10 -15 6 0 10 7 10 15 0 8 -4 15 -10 15 -5 0
-10 -7 -10 -15z"/>
<path d="M2440 975 c0 -8 5 -15 10 -15 6 0 10 7 10 15 0 8 -4 15 -10 15 -5 0
-10 -7 -10 -15z"/>
<path d="M1650 844 c0 -8 5 -12 10 -9 6 3 10 10 10 16 0 5 -4 9 -10 9 -5 0
-10 -7 -10 -16z"/>
<path d="M1440 845 c0 -8 5 -15 10 -15 6 0 10 7 10 15 0 8 -4 15 -10 15 -5 0
-10 -7 -10 -15z"/>
<path d="M2440 845 c0 -8 5 -15 10 -15 6 0 10 7 10 15 0 8 -4 15 -10 15 -5 0
-10 -7 -10 -15z"/>
<path d="M3700 715 c0 -8 5 -15 10 -15 6 0 10 7 10 15 0 8 -4 15 -10 15 -5 0
-10 -7 -10 -15z"/>
<path d="M4130 714 c0 -8 5 -12 10 -9 6 3 10 10 10 16 0 5 -4 9 -10 9 -5 0
-10 -7 -10 -16z"/>
<path d="M2440 715 c0 -8 5 -15 10 -15 6 0 10 7 10 15 0 8 -4 15 -10 15 -5 0
-10 -7 -10 -15z"/>
<path d="M2700 715 c0 -9 5 -15 11 -13 6 2 11 8 11 13 0 5 -5 11 -11 13 -6 2
-11 -4 -11 -13z"/>
<path d="M3070 715 c0 -9 5 -15 11 -13 6 2 11 8 11 13 0 5 -5 11 -11 13 -6 2
-11 -4 -11 -13z"/>
<path d="M3337 724 c-8 -8 1 -24 14 -24 5 0 9 7 9 15 0 15 -12 20 -23 9z"/>
<path d="M1120 455 c0 -8 5 -15 10 -15 6 0 10 7 10 15 0 8 -4 15 -10 15 -5 0
-10 -7 -10 -15z"/>
<path d="M2177 464 c-8 -8 1 -24 14 -24 5 0 9 7 9 15 0 15 -12 20 -23 9z"/>
<path d="M1170 325 c0 -9 5 -15 11 -13 6 2 11 8 11 13 0 5 -5 11 -11 13 -6 2
-11 -4 -11 -13z"/>
<path d="M1700 325 c0 -8 5 -15 10 -15 6 0 10 7 10 15 0 8 -4 15 -10 15 -5 0
-10 -7 -10 -15z"/>
<path d="M1700 195 c0 -8 5 -15 10 -15 6 0 10 7 10 15 0 8 -4 15 -10 15 -5 0
-10 -7 -10 -15z"/>
<path d="M3336 201 c-4 -7 -5 -15 -2 -18 9 -9 19 4 14 18 -4 11 -6 11 -12 0z"/>
<path d="M1390 194 c0 -8 5 -12 10 -9 6 3 10 10 10 16 0 5 -4 9 -10 9 -5 0
-10 -7 -10 -16z"/>
<path d="M1230 195 c0 -8 5 -15 10 -15 6 0 10 7 10 15 0 8 -4 15 -10 15 -5 0
-10 -7 -10 -15z"/>
<path d="M1330 195 c0 -8 5 -15 10 -15 6 0 10 7 10 15 0 8 -4 15 -10 15 -5 0
-10 -7 -10 -15z"/>
<path d="M1860 195 c0 -8 5 -15 10 -15 6 0 10 7 10 15 0 8 -4 15 -10 15 -5 0
-10 -7 -10 -15z"/>
<path d="M2860 195 c0 -8 5 -15 10 -15 6 0 10 7 10 15 0 8 -4 15 -10 15 -5 0
-10 -7 -10 -15z"/>
<path d="M4180 195 c0 -8 5 -15 10 -15 6 0 10 7 10 15 0 8 -4 15 -10 15 -5 0
-10 -7 -10 -15z"/>
<path d="M4600 195 c0 -8 5 -15 10 -15 6 0 10 7 10 15 0 8 -4 15 -10 15 -5 0
-10 -7 -10 -15z"/>
</g>
</svg>
