<?xml version="1.0" encoding="UTF-8"?>
<svg version="1.1" xmlns="http://www.w3.org/2000/svg" width="567" height="289">
<path d="M0 0 C187.11 0 374.22 0 567 0 C567 95.37 567 190.74 567 289 C379.89 289 192.78 289 0 289 C0 193.63 0 98.26 0 0 Z " fill="#1A1A1A" transform="translate(0,0)"/>
<path d="M0 0 C0.66 0 1.32 0 2 0 C2 2.31 2 4.62 2 7 C2.66 7 3.32 7 4 7 C4.33 5.35 4.66 3.7 5 2 C7.64 2 10.28 2 13 2 C13 1.34 13 0.68 13 0 C13.66 0 14.32 0 15 0 C15.33 1.32 15.66 2.64 16 4 C16.33 3.34 16.66 2.68 17 2 C18.65 2 20.3 2 22 2 C21.67 3.32 21.34 4.64 21 6 C21.99 5.67 22.98 5.34 24 5 C24.33 4.01 24.66 3.02 25 2 C26.32 2.33 27.64 2.66 29 3 C29 4.65 29 6.3 29 8 C27.10507254 8.19644384 25.20899097 8.38177288 23.3125 8.5625 C21.72888672 8.71912109 21.72888672 8.71912109 20.11328125 8.87890625 C17.18573914 8.99277552 14.82868856 8.70848415 12 8 C12.33 6.68 12.66 5.36 13 4 C12.34 4 11.68 4 11 4 C11 5.65 11 7.3 11 9 C8.37472811 9.05382106 5.75055287 9.09358313 3.125 9.125 C2.37863281 9.14175781 1.63226563 9.15851562 0.86328125 9.17578125 C-1.09194461 9.1933959 -3.04742021 9.10320189 -5 9 C-7 7 -7 7 -7.125 4.375 C-7.08375 3.59125 -7.0425 2.8075 -7 2 C-6.34 1.67 -5.68 1.34 -5 1 C-4.34 1.66 -3.68 2.32 -3 3 C-3.66 3 -4.32 3 -5 3 C-5 4.32 -5 5.64 -5 7 C-3.02 7 -1.04 7 1 7 C0.4740625 5.824375 0.4740625 5.824375 -0.0625 4.625 C-0.371875 3.75875 -0.68125 2.8925 -1 2 C-0.67 1.34 -0.34 0.68 0 0 Z " fill="#254F41" transform="translate(104,22)"/>
<path d="M0 0 C0.66 0 1.32 0 2 0 C1.67 1.32 1.34 2.64 1 4 C2.98491642 3.73323796 2.98491642 3.73323796 5 3 C5.33 2.01 5.66 1.02 6 0 C8.83967231 0 11.23735711 0.40267181 14 1 C15.15837626 5.05431692 14.83691257 7.21812119 13 11 C11.6078125 10.7215625 11.6078125 10.7215625 10.1875 10.4375 C6.98656229 9.75876119 6.98656229 9.75876119 4 11 C4 10.34 4 9.68 4 9 C3.34 9 2.68 9 2 9 C2 9.66 2 10.32 2 11 C1.34 11 0.68 11 0 11 C-1.56633048 8.51229865 -2.04100928 7.34447796 -1.6875 4.375 C-1 2 -1 2 0 0 Z " fill="#573056" transform="translate(506,161)"/>
<path d="M0 0 C0.99 0.33 1.98 0.66 3 1 C3.33 1.99 3.66 2.98 4 4 C5.98 3.67 7.96 3.34 10 3 C10 4.65 10 6.3 10 8 C6.53777385 9.06723961 3.35960734 9.10173486 -0.25 9.0625 C-1.32765625 9.05347656 -2.4053125 9.04445312 -3.515625 9.03515625 C-4.33546875 9.02355469 -5.1553125 9.01195312 -6 9 C-6.66 7.68 -7.32 6.36 -8 5 C-6 3 -6 3 -2.875 2.875 C-1.92625 2.91625 -0.9775 2.9575 0 3 C0 2.01 0 1.02 0 0 Z " fill="#4C6A7D" transform="translate(248,238)"/>
<path d="M0 0 C0.66 0 1.32 0 2 0 C2 2.31 2 4.62 2 7 C2.66 7 3.32 7 4 7 C4 7.66 4 8.32 4 9 C0 9 -4 9 -8 9 C-8.845625 9.020625 -9.69125 9.04125 -10.5625 9.0625 C-13 9 -13 9 -14 8 C-14.04063832 6.33382885 -14.042721 4.66611905 -14 3 C-13.34 3 -12.68 3 -12 3 C-12 4.32 -12 5.64 -12 7 C-11.34 7 -10.68 7 -10 7 C-10 5.35 -10 3.7 -10 2 C-6.66666667 2 -3.33333333 2 0 2 C0 1.34 0 0.68 0 0 Z " fill="#1B1A1E" transform="translate(442,161)"/>
<path d="M0 0 C4.08718695 -0.24042276 7.17679443 0.57741188 11 2 C10.67 3.65 10.34 5.3 10 7 C9.34 7 8.68 7 8 7 C8 7.99 8 8.98 8 10 C7.34 10 6.68 10 6 10 C6 9.01 6 8.02 6 7 C5.05125 7 4.1025 7 3.125 7 C0.08333333 7 -2.95833333 7 -6 7 C-6 5.35 -6 3.7 -6 2 C-4.68 1.67 -3.36 1.34 -2 1 C-2 1.66 -2 2.32 -2 3 C-1.34 3 -0.68 3 0 3 C0 2.01 0 1.02 0 0 Z " fill="#2B6F5D" transform="translate(84,23)"/>
<path d="M0 0 C0 0.66 0 1.32 0 2 C0.99 1.34 1.98 0.68 3 0 C3.99 0 4.98 0 6 0 C6 0.66 6 1.32 6 2 C5.34 2 4.68 2 4 2 C4 2.99 4 3.98 4 5 C4.66 5 5.32 5 6 5 C6 5.66 6 6.32 6 7 C1.71 7 -2.58 7 -7 7 C-7 5.35 -7 3.7 -7 2 C-7.66 2 -8.32 2 -9 2 C-9 3.32 -9 4.64 -9 6 C-9.66 6 -10.32 6 -11 6 C-11 4.35 -11 2.7 -11 1 C-10.05125 1.020625 -9.1025 1.04125 -8.125 1.0625 C-4.96309465 0.99926189 -3.14866406 0 0 0 Z " fill="#4E7487" transform="translate(245,163)"/>
<path d="M0 0 C0.99 0 1.98 0 3 0 C3 2.31 3 4.62 3 7 C3.66 7 4.32 7 5 7 C5 5.68 5 4.36 5 3 C6.65614657 2.61781233 8.32457024 2.28604898 10 2 C11 3 11 3 11.0625 5.5625 C11.041875 6.366875 11.02125 7.17125 11 8 C-1.66970387 9.51708428 -1.66970387 9.51708428 -7 7 C-7 5.35 -7 3.7 -7 2 C-6.34 2 -5.68 2 -5 2 C-5 3.65 -5 5.3 -5 7 C-4.34 7 -3.68 7 -3 7 C-3 5.35 -3 3.7 -3 2 C-2.34 2 -1.68 2 -1 2 C-1 3.65 -1 5.3 -1 7 C-0.34 7 0.32 7 1 7 C0.67 4.69 0.34 2.38 0 0 Z " fill="#567F95" transform="translate(147,223)"/>
<path d="M0 0 C0.33 2.97 0.66 5.94 1 9 C-2.3 9 -5.6 9 -9 9 C-10.125 3.25 -10.125 3.25 -9 1 C-5.99083491 -0.07470182 -3.17106439 -0.08808512 0 0 Z " fill="#273C4C" transform="translate(19,22)"/>
<path d="M0 0 C0.99 0 1.98 0 3 0 C3 3.3 3 6.6 3 10 C1.35 10.33 -0.3 10.66 -2 11 C-2 10.34 -2 9.68 -2 9 C-3.65 9 -5.3 9 -7 9 C-7.33 7.35 -7.66 5.7 -8 4 C-4.25 2.875 -4.25 2.875 -2 4 C-2 3.34 -2 2.68 -2 2 C-1.34 2 -0.68 2 0 2 C0 1.34 0 0.68 0 0 Z " fill="#222627" transform="translate(117,269)"/>
<path d="M0 0 C0.33 2.97 0.66 5.94 1 9 C-5.8359375 9.1953125 -5.8359375 9.1953125 -8 9 C-8.66 8.34 -9.32 7.68 -10 7 C-9.9375 4.5 -9.9375 4.5 -9 2 C-5.72271751 0.13992075 -3.8340246 0 0 0 Z " fill="#2A3724" transform="translate(31,6)"/>
<path d="M0 0 C0.9075 0.185625 1.815 0.37125 2.75 0.5625 C5.68314324 0.95734621 7.2644657 0.94691572 10 0 C10 1.65 10 3.3 10 5 C9.34 5 8.68 5 8 5 C8 6.32 8 7.64 8 9 C5.03 9 2.06 9 -1 9 C-1.125 2.25 -1.125 2.25 0 0 Z " fill="#232120" transform="translate(273,269)"/>
<path d="M0 0 C0.8146875 0.00257813 1.629375 0.00515625 2.46875 0.0078125 C3.2834375 0.00523437 4.098125 0.00265625 4.9375 0 C6.96875 0.1328125 6.96875 0.1328125 7.96875 1.1328125 C8.00938832 2.79898365 8.011471 4.46669345 7.96875 6.1328125 C7.63875 4.8128125 7.30875 3.4928125 6.96875 2.1328125 C6.30875 2.1328125 5.64875 2.1328125 4.96875 2.1328125 C4.96875 3.7828125 4.96875 5.4328125 4.96875 7.1328125 C2.39661866 8.75230261 1.29205841 9.17690001 -1.78125 8.7578125 C-2.895 8.4484375 -2.895 8.4484375 -4.03125 8.1328125 C-3.02130712 0.197547 -3.02130712 0.197547 0 0 Z " fill="#597D8E" transform="translate(344.03125,162.8671875)"/>
<path d="M0 0 C0.99 0 1.98 0 3 0 C2.67 2.31 2.34 4.62 2 7 C2.66 7 3.32 7 4 7 C4 7.66 4 8.32 4 9 C0.37 9 -3.26 9 -7 9 C-7 6.69 -7 4.38 -7 2 C-4.3333581 0.66667905 -2.83319697 1.32897967 0 2 C0 1.34 0 0.68 0 0 Z " fill="#39505C" transform="translate(135,161)"/>
<path d="M0 0 C0.66 0 1.32 0 2 0 C2 2.31 2 4.62 2 7 C2.66 7 3.32 7 4 7 C4.33 5.35 4.66 3.7 5 2 C6.65 2 8.3 2 10 2 C10 3.98 10 5.96 10 8 C5.0858728 9.00802609 0.00527017 9.59062188 -5 9 C-7 7 -7 7 -7.125 4.375 C-7.08375 3.59125 -7.0425 2.8075 -7 2 C-6.34 1.67 -5.68 1.34 -5 1 C-4.34 1.66 -3.68 2.32 -3 3 C-3.66 3 -4.32 3 -5 3 C-5 4.32 -5 5.64 -5 7 C-3.02 7 -1.04 7 1 7 C0.4740625 5.824375 0.4740625 5.824375 -0.0625 4.625 C-0.371875 3.75875 -0.68125 2.8925 -1 2 C-0.67 1.34 -0.34 0.68 0 0 Z " fill="#2D7165" transform="translate(104,22)"/>
<path d="M0 0 C1.64574566 -0.02688151 3.29161413 -0.04634123 4.9375 -0.0625 C5.85402344 -0.07410156 6.77054687 -0.08570313 7.71484375 -0.09765625 C10 0 10 0 11 1 C11 2.65 11 4.3 11 6 C7.37 6.33 3.74 6.66 0 7 C0 4.69 0 2.38 0 0 Z " fill="#3F5355" transform="translate(109,225)"/>
<path d="M0 0 C1.32 0 2.64 0 4 0 C4.33 2.97 4.66 5.94 5 9 C1.7 9 -1.6 9 -5 9 C-5.38218767 7.34385343 -5.71395102 5.67542976 -6 4 C-5 3 -5 3 -2.4375 2.9375 C-1.2309375 2.9684375 -1.2309375 2.9684375 0 3 C0 2.01 0 1.02 0 0 Z " fill="#262122" transform="translate(196,68)"/>
<path d="M0 0 C6.75 1.75 6.75 1.75 9 4 C8.625 6.125 8.625 6.125 8 8 C6.0625 8.5625 6.0625 8.5625 4 9 C3.67 8.67 3.34 8.34 3 8 C2.01 9.485 2.01 9.485 1 11 C-0.32 10.67 -1.64 10.34 -3 10 C-2.01 10 -1.02 10 0 10 C0 8.02 0 6.04 0 4 C-0.99 4 -1.98 4 -3 4 C-3 3.34 -3 2.68 -3 2 C-2.01 2 -1.02 2 0 2 C0 1.34 0 0.68 0 0 Z " fill="#714E3E" transform="translate(162,68)"/>
<path d="M0 0 C4 0 8 0 12 0 C12 1.98 12 3.96 12 6 C8.04 6 4.08 6 0 6 C0 4.02 0 2.04 0 0 Z " fill="#527E96" transform="translate(202,272)"/>
<path d="M0 0 C0.66 0 1.32 0 2 0 C2 2.31 2 4.62 2 7 C2.66 7 3.32 7 4 7 C3.7215625 5.824375 3.7215625 5.824375 3.4375 4.625 C3 2 3 2 4 0 C4.66 0 5.32 0 6 0 C6.33 2.97 6.66 5.94 7 9 C3.7 9 0.4 9 -3 9 C-3.33 7.35 -3.66 5.7 -4 4 C-2.68 3.67 -1.36 3.34 0 3 C0 2.01 0 1.02 0 0 Z " fill="#6C493B" transform="translate(382,68)"/>
<path d="M0 0 C3.63 0 7.26 0 11 0 C12 3 12 3 11 6 C7.37 6 3.74 6 0 6 C0 4.02 0 2.04 0 0 Z " fill="#8D8461" transform="translate(134,40)"/>
<path d="M0 0 C3 1 3 1 5 3 C7.60280568 2.67958603 7.60280568 2.67958603 10 2 C10 4.64 10 7.28 10 10 C8.35 10 6.7 10 5 10 C5 9.34 5 8.68 5 8 C4.34 8 3.68 8 3 8 C3 7.34 3 6.68 3 6 C1.68 6.33 0.36 6.66 -1 7 C-0.67 4.69 -0.34 2.38 0 0 Z " fill="#436036" transform="translate(60,7)"/>
<path d="M0 0 C0.66 0 1.32 0 2 0 C2.33 2.64 2.66 5.28 3 8 C-0.3 8 -3.6 8 -7 8 C-7.38218767 6.34385343 -7.71395102 4.67542976 -8 3 C-7 2 -7 2 -3.4375 1.9375 C-2.303125 1.958125 -1.16875 1.97875 0 2 C0 1.34 0 0.68 0 0 Z " fill="#374B57" transform="translate(117,146)"/>
<path d="M0 0 C3.3 0 6.6 0 10 0 C10 1.98 10 3.96 10 6 C9.67 4.68 9.34 3.36 9 2 C8.34 2 7.68 2 7 2 C7 3.65 7 5.3 7 7 C4.69 7 2.38 7 0 7 C-1.125 2.25 -1.125 2.25 0 0 Z " fill="#4A6F82" transform="translate(260,163)"/>
<path d="M0 0 C1.67542976 0.28604898 3.34385343 0.61781233 5 1 C6.15837626 5.05431692 5.83691257 7.21812119 4 11 C2.35 10.67 0.7 10.34 -1 10 C-1.02689216 8.52093108 -1.04634621 7.04172517 -1.0625 5.5625 C-1.07410156 4.73878906 -1.08570313 3.91507813 -1.09765625 3.06640625 C-1 1 -1 1 0 0 Z " fill="#514313" transform="translate(515,161)"/>
<path d="M0 0 C0.66 0 1.32 0 2 0 C2 0.66 2 1.32 2 2 C1.34 2 0.68 2 0 2 C0 2.66 0 3.32 0 4 C0.99 3.67 1.98 3.34 3 3 C3 3.66 3 4.32 3 5 C3.66 5 4.32 5 5 5 C5.33 3.68 5.66 2.36 6 1 C7.32 1 8.64 1 10 1 C9.67 2.32 9.34 3.64 9 5 C8.67 4.34 8.34 3.68 8 3 C7.67 3.99 7.34 4.98 7 6 C7.99 6.33 8.98 6.66 10 7 C9.67 7.99 9.34 8.98 9 10 C7.35 9.67 5.7 9.34 4 9 C4 8.34 4 7.68 4 7 C2.02 7 0.04 7 -2 7 C-1.125 1.125 -1.125 1.125 0 0 Z " fill="#358670" transform="translate(48,23)"/>
<path d="M0 0 C0.66 0 1.32 0 2 0 C2 1.65 2 3.3 2 5 C2.66 5 3.32 5 4 5 C4 3.35 4 1.7 4 0 C6.33294775 -0.04241723 8.66702567 -0.04092937 11 0 C12 1 12 1 12 6 C8.04 6 4.08 6 0 6 C0 4.02 0 2.04 0 0 Z " fill="#5B8BA4" transform="translate(259,225)"/>
<path d="M0 0 C0.66 0 1.32 0 2 0 C2 2.64 2 5.28 2 8 C-1.63 8 -5.26 8 -9 8 C-9.33 7.01 -9.66 6.02 -10 5 C-9.01 4.67 -8.02 4.34 -7 4 C-7.66 3.34 -8.32 2.68 -9 2 C-6.03 2 -3.06 2 0 2 C0 1.34 0 0.68 0 0 Z " fill="#5A8593" transform="translate(269,177)"/>
<path d="M0 0 C0.66 0 1.32 0 2 0 C2 2.31 2 4.62 2 7 C2.66 7 3.32 7 4 7 C4.33 5.68 4.66 4.36 5 3 C6.9375 2.4375 6.9375 2.4375 9 2 C10 3 10 3 10.125 5.5 C10 8 10 8 9 9 C7.31391034 9.07205511 5.62499341 9.08386068 3.9375 9.0625 C3.01839844 9.05347656 2.09929687 9.04445312 1.15234375 9.03515625 C0.44207031 9.02355469 -0.26820313 9.01195312 -1 9 C-1 8.34 -1 7.68 -1 7 C-0.34 7 0.32 7 1 7 C1 6.01 1 5.02 1 4 C0.34 4 -0.32 4 -1 4 C-0.67 2.68 -0.34 1.36 0 0 Z " fill="#50788A" transform="translate(367,161)"/>
<path d="M0 0 C0.99 0 1.98 0 3 0 C3 0.99 3 1.98 3 3 C3.4125 2.484375 3.825 1.96875 4.25 1.4375 C4.8275 0.963125 5.405 0.48875 6 0 C8.1875 0.3125 8.1875 0.3125 10 1 C10.042721 2.66611905 10.04063832 4.33382885 10 6 C9 7 9 7 6.71484375 7.09765625 C5.34005859 7.08025391 5.34005859 7.08025391 3.9375 7.0625 C3.01839844 7.05347656 2.09929687 7.04445312 1.15234375 7.03515625 C0.44207031 7.02355469 -0.26820313 7.01195312 -1 7 C-1 3 -1 3 0 0 Z " fill="#4B6E7A" transform="translate(411,163)"/>
<path d="M0 0 C3.63 0 7.26 0 11 0 C11.33 0.99 11.66 1.98 12 3 C11.01 3.33 10.02 3.66 9 4 C9.66 4.66 10.32 5.32 11 6 C7.37 6 3.74 6 0 6 C0 4.02 0 2.04 0 0 Z " fill="#805847" transform="translate(146,71)"/>
<path d="M0 0 C0.9590625 0.2784375 0.9590625 0.2784375 1.9375 0.5625 C2.9584375 0.7790625 2.9584375 0.7790625 4 1 C4.33 0.67 4.66 0.34 5 0 C6.66617115 -0.04063832 8.33388095 -0.042721 10 0 C10 1.98 10 3.96 10 6 C9.67 4.68 9.34 3.36 9 2 C8.34 2 7.68 2 7 2 C7 3.65 7 5.3 7 7 C4.69 7 2.38 7 0 7 C-1.125 2.25 -1.125 2.25 0 0 Z " fill="#51798E" transform="translate(448,163)"/>
<path d="M0 0 C0.66 0 1.32 0 2 0 C2.33 2.64 2.66 5.28 3 8 C-0.3 8 -3.6 8 -7 8 C-7.38218767 6.34385343 -7.71395102 4.67542976 -8 3 C-7 2 -7 2 -4.5 1.875 C-2 2 -2 2 -1 3 C-0.67 2.01 -0.34 1.02 0 0 Z " fill="#394C57" transform="translate(192,146)"/>
<path d="M0 0 C0.66 0 1.32 0 2 0 C2 1.98 2 3.96 2 6 C2.66 6 3.32 6 4 6 C4 4.68 4 3.36 4 2 C5.98 2 7.96 2 10 2 C10 3.98 10 5.96 10 8 C6.37 8 2.74 8 -1 8 C-1.04241723 5.66705225 -1.04092937 3.33297433 -1 1 C-0.67 0.67 -0.34 0.34 0 0 Z " fill="#3A5433" transform="translate(142,7)"/>
<path d="M0 0 C0.99 0 1.98 0 3 0 C3 2.31 3 4.62 3 7 C3.66 7 4.32 7 5 7 C5 5.68 5 4.36 5 3 C6.65614657 2.61781233 8.32457024 2.28604898 10 2 C11 3 11 3 11 8 C7.37 8.33 3.74 8.66 0 9 C0 6.03 0 3.06 0 0 Z " fill="#547B94" transform="translate(291,223)"/>
<path d="M0 0 C3.14737182 0.69941596 6.02588876 1.76078698 9 3 C9 4.65 9 6.3 9 8 C7.35 7.67 5.7 7.34 4 7 C4 6.34 4 5.68 4 5 C3.34 5 2.68 5 2 5 C2 5.99 2 6.98 2 8 C1.01 8 0.02 8 -1 8 C-1.625 5.6875 -1.625 5.6875 -2 3 C-1.34 2.01 -0.68 1.02 0 0 Z " fill="#486572" transform="translate(186,223)"/>
<path d="M0 0 C1.64574566 -0.02688151 3.29161413 -0.04634123 4.9375 -0.0625 C5.85402344 -0.07410156 6.77054688 -0.08570313 7.71484375 -0.09765625 C10 0 10 0 11 1 C11.04063832 2.66617115 11.042721 4.33388095 11 6 C9.54176788 6.0270043 8.08339325 6.04639787 6.625 6.0625 C5.81289062 6.07410156 5.00078125 6.08570313 4.1640625 6.09765625 C2 6 2 6 0 5 C0 3.35 0 1.7 0 0 Z " fill="#5D88A1" transform="translate(178,210)"/>
<path d="M0 0 C0.9075 0.185625 1.815 0.37125 2.75 0.5625 C5.68314324 0.95734621 7.2644657 0.94691572 10 0 C10.33 1.65 10.66 3.3 11 5 C7.60598928 5.77577388 4.48397425 6.2824844 1 6 C0.34 5.34 -0.32 4.68 -1 4 C-0.625 1.875 -0.625 1.875 0 0 Z " fill="#547989" transform="translate(316,272)"/>
<path d="M0 0 C0.99 0 1.98 0 3 0 C3 2.31 3 4.62 3 7 C4.70840281 5.36587557 5.93453047 4.13093906 7 2 C8.32 2.33 9.64 2.66 11 3 C11 4.65 11 6.3 11 8 C7.26562152 8.87867729 3.83225427 9.08912219 0 9 C0 6.03 0 3.06 0 0 Z " fill="#5A8596" transform="translate(97,161)"/>
<path d="M0 0 C2 0.3125 2 0.3125 4 1 C4.33 1.66 4.66 2.32 5 3 C5.33 2.01 5.66 1.02 6 0 C7.32 0.33 8.64 0.66 10 1 C10 3 10 3 9 7 C6.03 6.67 3.06 6.34 0 6 C-0.38218767 4.34385343 -0.71395102 2.67542976 -1 1 C-0.67 0.67 -0.34 0.34 0 0 Z " fill="#445E6F" transform="translate(210,148)"/>
<path d="M0 0 C0.99 0 1.98 0 3 0 C3 1.32 3 2.64 3 4 C3.66 4 4.32 4 5 4 C5 2.68 5 1.36 5 0 C6.98 0 8.96 0 11 0 C11 1.98 11 3.96 11 6 C7.37 6 3.74 6 0 6 C0 4.02 0 2.04 0 0 Z " fill="#825745" transform="translate(260,71)"/>
<path d="M0 0 C3.63 0 7.26 0 11 0 C10.67 0.99 10.34 1.98 10 3 C10 2.34 10 1.68 10 1 C9.34 1 8.68 1 8 1 C8 2.32 8 3.64 8 5 C8.99 5.33 9.98 5.66 11 6 C7.37 6 3.74 6 0 6 C0 4.02 0 2.04 0 0 Z " fill="#6295A6" transform="translate(109,241)"/>
<path d="M0 0 C0.9075 0.185625 1.815 0.37125 2.75 0.5625 C5.68314324 0.95734621 7.2644657 0.94691572 10 0 C10.33 1.65 10.66 3.3 11 5 C7.60169639 5.77675511 4.48880949 6.19382275 1 6 C0 5 0 5 -0.0625 2.4375 C-0.041875 1.633125 -0.02125 0.82875 0 0 Z " fill="#567A88" transform="translate(316,40)"/>
<path d="M0 0 C2.05078125 0.03255208 4.1015625 0.06510417 6.15234375 0.09765625 C6.81234375 2.07765625 7.47234375 4.05765625 8.15234375 6.09765625 C4.85234375 6.09765625 1.55234375 6.09765625 -1.84765625 6.09765625 C-2.22984392 4.44150968 -2.56160727 2.77308601 -2.84765625 1.09765625 C-1.84765625 0.09765625 -1.84765625 0.09765625 0 0 Z " fill="#33462C" transform="translate(174.84765625,8.90234375)"/>
<path d="M0 0 C0.66 0 1.32 0 2 0 C2.33 2.64 2.66 5.28 3 8 C0.03 8 -2.94 8 -6 8 C-6.66 6.02 -7.32 4.04 -8 2 C-5.50907189 0.75453595 -4.58919267 1.2232422 -2 2 C-2 3.32 -2 4.64 -2 6 C-1.34 6 -0.68 6 0 6 C-0.185625 5.38125 -0.37125 4.7625 -0.5625 4.125 C-1 2 -1 2 0 0 Z " fill="#46606B" transform="translate(236,177)"/>
<path d="M0 0 C0.928125 0.2784375 0.928125 0.2784375 1.875 0.5625 C4.04160178 1.23686176 4.04160178 1.23686176 6 0 C7.67654729 0.27942455 9.34608154 0.60828247 11 1 C10.67 2.65 10.34 4.3 10 6 C9.278125 5.814375 8.55625 5.62875 7.8125 5.4375 C4.87173027 4.98004693 2.85896942 5.26483643 0 6 C0 4.02 0 2.04 0 0 Z " fill="#8A8E6C" transform="translate(172,40)"/>
<path d="M0 0 C1.52519276 0.08937803 3.04681929 0.24537146 4.5625 0.4375 C5.80193359 0.59025391 5.80193359 0.59025391 7.06640625 0.74609375 C7.70449219 0.82988281 8.34257813 0.91367188 9 1 C9.33 1.99 9.66 2.98 10 4 C9.01 4 8.02 4 7 4 C7 4.66 7 5.32 7 6 C7.99 6.33 8.98 6.66 10 7 C7.03 7 4.06 7 1 7 C0.34 5.02 -0.32 3.04 -1 1 C-0.67 0.67 -0.34 0.34 0 0 Z " fill="#344329" transform="translate(85,8)"/>
<path d="M0 0 C1.37478516 0.01740234 1.37478516 0.01740234 2.77734375 0.03515625 C3.69644531 0.04417969 4.61554688 0.05320312 5.5625 0.0625 C6.27277344 0.07410156 6.98304688 0.08570312 7.71484375 0.09765625 C8.04484375 0.75765625 8.37484375 1.41765625 8.71484375 2.09765625 C7.72484375 2.09765625 6.73484375 2.09765625 5.71484375 2.09765625 C5.38484375 3.41765625 5.05484375 4.73765625 4.71484375 6.09765625 C2.40484375 6.09765625 0.09484375 6.09765625 -2.28515625 6.09765625 C-2.66734392 4.44150968 -2.99910727 2.77308601 -3.28515625 1.09765625 C-2.28515625 0.09765625 -2.28515625 0.09765625 0 0 Z " fill="#6A473A" transform="translate(400.28515625,70.90234375)"/>
<path d="M0 0 C2.33333333 0 4.66666667 0 7 0 C7 0.66 7 1.32 7 2 C6.01 2 5.02 2 4 2 C4 2.99 4 3.98 4 5 C4.99 5 5.98 5 7 5 C7 5.66 7 6.32 7 7 C6.360625 6.814375 5.72125 6.62875 5.0625 6.4375 C4.0415625 6.2209375 4.0415625 6.2209375 3 6 C2.67 6.33 2.34 6.66 2 7 C-0.5 7.125 -0.5 7.125 -3 7 C-4 6 -4 6 -4.0625 3.4375 C-4.041875 2.633125 -4.02125 1.82875 -4 1 C-3.34 1 -2.68 1 -2 1 C-2 2.32 -2 3.64 -2 5 C-1.34 5 -0.68 5 0 5 C0 3.35 0 1.7 0 0 Z " fill="#558097" transform="translate(432,163)"/>
<path d="M0 0 C0.9590625 0.2784375 0.9590625 0.2784375 1.9375 0.5625 C2.9584375 0.7790625 2.9584375 0.7790625 4 1 C4.33 0.67 4.66 0.34 5 0 C6.66617115 -0.04063832 8.33388095 -0.042721 10 0 C10 1.98 10 3.96 10 6 C9.67 6 9.34 6 9 6 C9 4.35 9 2.7 9 1 C8.34 1 7.68 1 7 1 C7 2.65 7 4.3 7 6 C3.88742431 6 1.89234315 5.82638376 -1 5 C-0.67 3.35 -0.34 1.7 0 0 Z " fill="#57899E" transform="translate(185,241)"/>
<path d="M0 0 C0.66 0 1.32 0 2 0 C2 0.66 2 1.32 2 2 C2.66 2.33 3.32 2.66 4 3 C3.34 3 2.68 3 2 3 C2 3.99 2 4.98 2 6 C2.66 6 3.32 6 4 6 C4 6.66 4 7.32 4 8 C2.0625 7.625 2.0625 7.625 0 7 C-0.33 6.34 -0.66 5.68 -1 5 C-2.32 5 -3.64 5 -5 5 C-5 5.66 -5 6.32 -5 7 C-4.01 7.33 -3.02 7.66 -2 8 C-3.65 7.67 -5.3 7.34 -7 7 C-6.67 5.35 -6.34 3.7 -6 2 C-4.02 2 -2.04 2 0 2 C0 1.34 0 0.68 0 0 Z " fill="#7B5275" transform="translate(72,270)"/>
<path d="M0 0 C0.7425 0.185625 1.485 0.37125 2.25 0.5625 C4.94990963 0.99203108 6.44631077 0.85122974 9 0 C8.67 0.99 8.34 1.98 8 3 C8.66 3 9.32 3 10 3 C9.67 4.32 9.34 5.64 9 7 C6.03 6.67 3.06 6.34 0 6 C0 4 0 2 0 0 Z " fill="#325779" transform="translate(22,24)"/>
<path d="M0 0 C0.66 0 1.32 0 2 0 C2.33 2.64 2.66 5.28 3 8 C-0.3 8 -3.6 8 -7 8 C-7.33 6.35 -7.66 4.7 -8 3 C-6.68 4.32 -5.36 5.64 -4 7 C-4 5.68 -4 4.36 -4 3 C-3.01 3 -2.02 3 -1 3 C-0.67 2.01 -0.34 1.02 0 0 Z " fill="#4E7A90" transform="translate(173,146)"/>
<path d="M0 0 C1.32 0.33 2.64 0.66 4 1 C4 2.98 4 4.96 4 7 C-0.1205746 8.99785435 -3.45194365 9.17835515 -8 9 C-8 8.34 -8 7.68 -8 7 C-5.69 7 -3.38 7 -1 7 C-0.31292445 4.50935112 0 2.62113708 0 0 Z " fill="#557B8B" transform="translate(279,225)"/>
<path d="M0 0 C1.32 0.33 2.64 0.66 4 1 C4 2.98 4 4.96 4 7 C-0.1205746 8.99785435 -3.45194365 9.17835515 -8 9 C-8 8.34 -8 7.68 -8 7 C-5.69 7 -3.38 7 -1 7 C-0.31292445 4.50935112 0 2.62113708 0 0 Z " fill="#557B8B" transform="translate(135,225)"/>
<path d="M0 0 C1.37478516 0.01740234 1.37478516 0.01740234 2.77734375 0.03515625 C3.69644531 0.04417969 4.61554688 0.05320312 5.5625 0.0625 C6.27277344 0.07410156 6.98304688 0.08570312 7.71484375 0.09765625 C6.21484375 3.09765625 6.21484375 3.09765625 4.71484375 6.09765625 C4.05484375 6.09765625 3.39484375 6.09765625 2.71484375 6.09765625 C2.38484375 5.76765625 2.05484375 5.43765625 1.71484375 5.09765625 C-0.33912351 5.50695611 -0.33912351 5.50695611 -2.28515625 6.09765625 C-2.66734392 4.44150968 -2.99910727 2.77308601 -3.28515625 1.09765625 C-2.28515625 0.09765625 -2.28515625 0.09765625 0 0 Z " fill="#588AA7" transform="translate(143.28515625,116.90234375)"/>
<path d="M0 0 C0.66 0 1.32 0 2 0 C4.1642235 3.24633524 4.37569856 4.24301443 4 8 C3.01 9.485 3.01 9.485 2 11 C1.01 11 0.02 11 -1 11 C-1.625 8.1875 -1.625 8.1875 -2 5 C-1.34 4.01 -0.68 3.02 0 2 C0 1.34 0 0.68 0 0 Z " fill="#5B4E12" transform="translate(329,37)"/>
<path d="M0 0 C0.9075 0.185625 1.815 0.37125 2.75 0.5625 C5.68314324 0.95734621 7.2644657 0.94691572 10 0 C11.125 3.75 11.125 3.75 10 6 C8.35 5.67 6.7 5.34 5 5 C5 4.34 5 3.68 5 3 C3.68 2.67 2.36 2.34 1 2 C0.67 3.32 0.34 4.64 0 6 C0 4.02 0 2.04 0 0 Z " fill="#5E91A5" transform="translate(197,225)"/>
<path d="M0 0 C0.66 0 1.32 0 2 0 C2 1.32 2 2.64 2 4 C2.66 4 3.32 4 4 4 C4 2.68 4 1.36 4 0 C8 0 8 0 11 1 C10.01 1.495 10.01 1.495 9 2 C9 2.66 9 3.32 9 4 C9.66 4.66 10.32 5.32 11 6 C10.360625 5.814375 9.72125 5.62875 9.0625 5.4375 C8.0415625 5.2209375 8.0415625 5.2209375 7 5 C6.67 5.33 6.34 5.66 6 6 C3.5 6.125 3.5 6.125 1 6 C0 5 0 5 -0.0625 2.4375 C-0.041875 1.633125 -0.02125 0.82875 0 0 Z " fill="#5E8EA5" transform="translate(284,40)"/>
<path d="M0 0 C0.66 0 1.32 0 2 0 C2 2.97 2 5.94 2 9 C0.35 9 -1.3 9 -3 9 C-3.33 7.35 -3.66 5.7 -4 4 C-2.68 3.67 -1.36 3.34 0 3 C0 2.01 0 1.02 0 0 Z " fill="#734C3C" transform="translate(363,68)"/>
<path d="M0 0 C1.2065625 0.0309375 1.2065625 0.0309375 2.4375 0.0625 C2.81883299 2.0539056 3.15075582 4.05529077 3.4375 6.0625 C2.4375 7.0625 2.4375 7.0625 -0.0625 7.1875 C-2.5625 7.0625 -2.5625 7.0625 -3.5625 6.0625 C-3.6875 3.5625 -3.6875 3.5625 -3.5625 1.0625 C-2.5625 0.0625 -2.5625 0.0625 0 0 Z " fill="#3D5665" transform="translate(229.5625,38.9375)"/>
<path d="M0 0 C2.125 0.375 2.125 0.375 4 1 C4.125 3.375 4.125 3.375 4 6 C3.34 6.66 2.68 7.32 2 8 C-0.125 7.625 -0.125 7.625 -2 7 C-2.125 4.625 -2.125 4.625 -2 2 C-1.34 1.34 -0.68 0.68 0 0 Z " fill="#384E2D" transform="translate(123,7)"/>
<path d="M0 0 C1.61949011 2.57213134 2.04408751 3.67669159 1.625 6.75 C1.41875 7.4925 1.2125 8.235 1 9 C-0.65 9 -2.3 9 -4 9 C-4.25 6.75 -4.25 6.75 -4 4 C-2 1.6875 -2 1.6875 0 0 Z " fill="#674B3E" transform="translate(225,68)"/>
<path d="M0 0 C1.2065625 0.0309375 1.2065625 0.0309375 2.4375 0.0625 C2.7675 1.7125 3.0975 3.3625 3.4375 5.0625 C0.30400268 6.10699911 -0.55218256 5.99673645 -3.5625 5.0625 C-3.5625 0.08689024 -3.5625 0.08689024 0 0 Z " fill="#384B53" transform="translate(244.5625,240.9375)"/>
<path d="M0 0 C1.98 0 3.96 0 6 0 C6 1.98 6 3.96 6 6 C4.02 6 2.04 6 0 6 C0 4.02 0 2.04 0 0 Z " fill="#5A8CA4" transform="translate(102,272)"/>
<path d="M0 0 C0.66 0 1.32 0 2 0 C2 2.64 2 5.28 2 8 C0.35 8 -1.3 8 -3 8 C-3.33 6.68 -3.66 5.36 -4 4 C-2.68 3.34 -1.36 2.68 0 2 C0 1.34 0 0.68 0 0 Z " fill="#679AB0" transform="translate(175,223)"/>
<path d="M0 0 C1.98 0 3.96 0 6 0 C6 1.98 6 3.96 6 6 C4.02 6 2.04 6 0 6 C0 4.02 0 2.04 0 0 Z " fill="#5E8BA3" transform="translate(115,210)"/>
<path d="M0 0 C1.98 0 3.96 0 6 0 C6 1.98 6 3.96 6 6 C4.02 6 2.04 6 0 6 C0 4.02 0 2.04 0 0 Z " fill="#5B8EA9" transform="translate(96,179)"/>
<path d="M0 0 C1.98 0 3.96 0 6 0 C6 1.98 6 3.96 6 6 C4.02 6 2.04 6 0 6 C0 4.02 0 2.04 0 0 Z " fill="#5788A1" transform="translate(58,102)"/>
<path d="M0 0 C0.66 0 1.32 0 2 0 C2 2.97 2 5.94 2 9 C0.35 9 -1.3 9 -3 9 C-3 7.02 -3 5.04 -3 3 C-2.01 3 -1.02 3 0 3 C0 2.01 0 1.02 0 0 Z " fill="#315672" transform="translate(37,37)"/>
<path d="M0 0 C1.65 0 3.3 0 5 0 C5 2.31 5 4.62 5 7 C3.35 7.33 1.7 7.66 0 8 C0 5.36 0 2.72 0 0 Z " fill="#6394AA" transform="translate(228,164)"/>
<path d="M0 0 C2.0625 0.4375 2.0625 0.4375 4 1 C4 2.98 4 4.96 4 7 C2.68 7.33 1.36 7.66 0 8 C-0.38063221 5.6739143 -0.71269945 3.33944736 -1 1 C-0.67 0.67 -0.34 0.34 0 0 Z " fill="#6D8066" transform="translate(279,162)"/>
<path d="M0 0 C1.98 0.495 1.98 0.495 4 1 C4 2.98 4 4.96 4 7 C2.0625 7.5625 2.0625 7.5625 0 8 C-0.33 7.67 -0.66 7.34 -1 7 C-0.71269945 4.66055264 -0.38063221 2.3260857 0 0 Z " fill="#6D8267" transform="translate(204,115)"/>
<path d="M0 0 C0.66 0 1.32 0 2 0 C2 2.97 2 5.94 2 9 C0.35 8.67 -1.3 8.34 -3 8 C-3 6.35 -3 4.7 -3 3 C-2.01 3 -1.02 3 0 3 C0 2.01 0 1.02 0 0 Z " fill="#7B503E" transform="translate(300,68)"/>
<path d="M0 0 C0.66 0 1.32 0 2 0 C2 2.97 2 5.94 2 9 C0.35 9 -1.3 9 -3 9 C-3 7.35 -3 5.7 -3 4 C-2.01 3.67 -1.02 3.34 0 3 C0 2.01 0 1.02 0 0 Z " fill="#3D542E" transform="translate(106,6)"/>
<path d="M0 0 C0.99 0 1.98 0 3 0 C3 1.32 3 2.64 3 4 C3.66 4 4.32 4 5 4 C5.33 2.68 5.66 1.36 6 0 C7.65 0.33 9.3 0.66 11 1 C10.67 1.99 10.34 2.98 10 4 C9.01 3.01 8.02 2.02 7 1 C7 2.32 7 3.64 7 5 C4.69 5.33 2.38 5.66 0 6 C0 4.02 0 2.04 0 0 Z " fill="#5B90B0" transform="translate(172,272)"/>
<path d="M0 0 C3.3 0 6.6 0 10 0 C10 1.65 10 3.3 10 5 C9.67 3.68 9.34 2.36 9 1 C8.34 1 7.68 1 7 1 C7 2.65 7 4.3 7 6 C5.68 5.67 4.36 5.34 3 5 C3 3.68 3 2.36 3 1 C1.68 1.99 0.36 2.98 -1 4 C-0.67 2.68 -0.34 1.36 0 0 Z " fill="#999B71" transform="translate(210,40)"/>
<path d="M0 0 C1.67542976 0.28604898 3.34385343 0.61781233 5 1 C4.67 2.65 4.34 4.3 4 6 C2.35 6 0.7 6 -1 6 C-1.042721 4.33388095 -1.04063832 2.66617115 -1 1 C-0.67 0.67 -0.34 0.34 0 0 Z " fill="#6D725B" transform="translate(153,40)"/>
<path d="M0 0 C0.66 0 1.32 0 2 0 C2 2.64 2 5.28 2 8 C0.68 8.33 -0.64 8.66 -2 9 C-2.6875 6.75 -2.6875 6.75 -3 4 C-1.6875 1.6875 -1.6875 1.6875 0 0 Z " fill="#3C5531" transform="translate(187,6)"/>
<path d="M0 0 C0.99 0 1.98 0 3 0 C3 3.3 3 6.6 3 10 C1.35 10.33 -0.3 10.66 -2 11 C-1.01 10.67 -0.02 10.34 1 10 C1 8.02 1 6.04 1 4 C0.01 4 -0.98 4 -2 4 C-2 3.34 -2 2.68 -2 2 C-1.34 2 -0.68 2 0 2 C0 1.34 0 0.68 0 0 Z " fill="#5B8192" transform="translate(117,269)"/>
<path d="M0 0 C1.65 0.33 3.3 0.66 5 1 C4.67 2.65 4.34 4.3 4 6 C2.35 5.67 0.7 5.34 -1 5 C-0.67 3.35 -0.34 1.7 0 0 Z " fill="#527893" transform="translate(197,148)"/>
<path d="M0 0 C1.98 0 3.96 0 6 0 C6 1.98 6 3.96 6 6 C4.02 6 2.04 6 0 6 C0 4.02 0 2.04 0 0 Z " fill="#5E95AE" transform="translate(58,117)"/>
<path d="M0 0 C1.66666667 0 3.33333333 0 5 0 C5 2.64 5 5.28 5 8 C3.33333333 8 1.66666667 8 0 8 C0 5.36 0 2.72 0 0 Z " fill="#326392" transform="translate(165,100)"/>
<path d="M0 0 C1.65 0.33 3.3 0.66 5 1 C4.67 2.65 4.34 4.3 4 6 C2.35 5.67 0.7 5.34 -1 5 C-0.67 3.35 -0.34 1.7 0 0 Z " fill="#547D8B" transform="translate(122,148)"/>
<path d="M0 0 C0.33 0 0.66 0 1 0 C1 2.64 1 5.28 1 8 C-0.65 7.67 -2.3 7.34 -4 7 C-3.67 5.35 -3.34 3.7 -3 2 C-2.01 2 -1.02 2 0 2 C0 1.34 0 0.68 0 0 Z " fill="#5587A3" transform="translate(269,270)"/>
<path d="M0 0 C1.67542976 0.28604898 3.34385343 0.61781233 5 1 C4.67 2.32 4.34 3.64 4 5 C2.68 5.33 1.36 5.66 0 6 C-0.38218767 4.34385343 -0.71395102 2.67542976 -1 1 C-0.67 0.67 -0.34 0.34 0 0 Z " fill="#537D8D" transform="translate(122,272)"/>
<path d="M0 0 C1.67542976 0.28604898 3.34385343 0.61781233 5 1 C4.67 2.65 4.34 4.3 4 6 C2.68 5.67 1.36 5.34 0 5 C-0.5625 3.0625 -0.5625 3.0625 -1 1 C-0.67 0.67 -0.34 0.34 0 0 Z " fill="#537B94" transform="translate(153,241)"/>
<path d="M0 0 C1.67542976 0.28604898 3.34385343 0.61781233 5 1 C4.67 2.65 4.34 4.3 4 6 C2.68 5.67 1.36 5.34 0 5 C-0.5625 3.0625 -0.5625 3.0625 -1 1 C-0.67 0.67 -0.34 0.34 0 0 Z " fill="#537A8E" transform="translate(128,241)"/>
<path d="M0 0 C0.33 0 0.66 0 1 0 C1 2.64 1 5.28 1 8 C-0.65 7.67 -2.3 7.34 -4 7 C-3.67 5.35 -3.34 3.7 -3 2 C-2.01 2 -1.02 2 0 2 C0 1.34 0 0.68 0 0 Z " fill="#5584A2" transform="translate(244,208)"/>
<path d="M0 0 C0.33 0 0.66 0 1 0 C1 2.64 1 5.28 1 8 C-0.65 8 -2.3 8 -4 8 C-3.67 6.02 -3.34 4.04 -3 2 C-2.01 2 -1.02 2 0 2 C0 1.34 0 0.68 0 0 Z " fill="#5485A1" transform="translate(169,161)"/>
<path d="M0 0 C0.33 0 0.66 0 1 0 C1 2.64 1 5.28 1 8 C-0.65 7.67 -2.3 7.34 -4 7 C-3.67 5.35 -3.34 3.7 -3 2 C-2.01 2 -1.02 2 0 2 C0 1.34 0 0.68 0 0 Z " fill="#5689A6" transform="translate(125,115)"/>
<path d="M0 0 C1.67542976 0.28604898 3.34385343 0.61781233 5 1 C4.67 2.65 4.34 4.3 4 6 C2.68 5.67 1.36 5.34 0 5 C-0.5625 3.0625 -0.5625 3.0625 -1 1 C-0.67 0.67 -0.34 0.34 0 0 Z " fill="#527A8C" transform="translate(103,102)"/>
<path d="M0 0 C1.67542976 0.28604898 3.34385343 0.61781233 5 1 C4.67 2.65 4.34 4.3 4 6 C2.68 5.67 1.36 5.34 0 5 C-0.5625 3.0625 -0.5625 3.0625 -1 1 C-0.67 0.67 -0.34 0.34 0 0 Z " fill="#507A8C" transform="translate(78,102)"/>
<path d="M0 0 C0.66 0 1.32 0 2 0 C2 3.3 2 6.6 2 10 C0.35 10.33 -1.3 10.66 -3 11 C-2.01 10.67 -1.02 10.34 0 10 C0 8.02 0 6.04 0 4 C-0.99 4 -1.98 4 -3 4 C-3 3.34 -3 2.68 -3 2 C-2.01 2 -1.02 2 0 2 C0 1.34 0 0.68 0 0 Z " fill="#5D8B9F" transform="translate(74,99)"/>
<path d="M0 0 C1.67542976 0.28604898 3.34385343 0.61781233 5 1 C4.67 2.65 4.34 4.3 4 6 C2.68 6 1.36 6 0 6 C-0.38218767 4.34385343 -0.71395102 2.67542976 -1 1 C-0.67 0.67 -0.34 0.34 0 0 Z " fill="#745041" transform="translate(191,71)"/>
<path d="M0 0 C2.475 0.495 2.475 0.495 5 1 C4.67 2.65 4.34 4.3 4 6 C3.01 6 2.02 6 1 6 C0.67 6.66 0.34 7.32 0 8 C0 5.36 0 2.72 0 0 Z " fill="#7F5644" transform="translate(247,71)"/>
<path d="M0 0 C1.67542976 0.28604898 3.34385343 0.61781233 5 1 C4.67 2.32 4.34 3.64 4 5 C2.68 5.33 1.36 5.66 0 6 C-0.38218767 4.34385343 -0.71395102 2.67542976 -1 1 C-0.67 0.67 -0.34 0.34 0 0 Z " fill="#744F3F" transform="translate(304,71)"/>
<path d="M0 0 C1.67542976 0.28604898 3.34385343 0.61781233 5 1 C4.67 2.65 4.34 4.3 4 6 C2.68 5.67 1.36 5.34 0 5 C-0.5625 3.0625 -0.5625 3.0625 -1 1 C-0.67 0.67 -0.34 0.34 0 0 Z " fill="#53798D" transform="translate(272,40)"/>
<path d="M0 0 C1.67542976 0.28604898 3.34385343 0.61781233 5 1 C4.67 2.65 4.34 4.3 4 6 C2.68 5.67 1.36 5.34 0 5 C-0.5625 3.0625 -0.5625 3.0625 -1 1 C-0.67 0.67 -0.34 0.34 0 0 Z " fill="#7A7C5D" transform="translate(103,40)"/>
<path d="M0 0 C2.475 0.495 2.475 0.495 5 1 C4.67 2.65 4.34 4.3 4 6 C3.01 6 2.02 6 1 6 C0.67 6.66 0.34 7.32 0 8 C0 5.36 0 2.72 0 0 Z " fill="#405C33" transform="translate(128,9)"/>
<path d="M0 0 C2.0625 0.4375 2.0625 0.4375 4 1 C4 2.65 4 4.3 4 6 C2.35 6.33 0.7 6.66 -1 7 C-1.04254356 5.00045254 -1.04080783 2.99958364 -1 1 C-0.67 0.67 -0.34 0.34 0 0 Z " fill="#5D879B" transform="translate(173,163)"/>
<path d="M0 0 C1.67542976 0.28604898 3.34385343 0.61781233 5 1 C4.67 2.65 4.34 4.3 4 6 C2.68 5.67 1.36 5.34 0 5 C-0.5625 3.0625 -0.5625 3.0625 -1 1 C-0.67 0.67 -0.34 0.34 0 0 Z " fill="#2F5476" transform="translate(172,102)"/>
<path d="M0 0 C1.65 0.33 3.3 0.66 5 1 C4.67 2.65 4.34 4.3 4 6 C2.35 5.67 0.7 5.34 -1 5 C-0.67 3.35 -0.34 1.7 0 0 Z " fill="#7E7F61" transform="translate(141,40)"/>
<path d="M0 0 C1.32 0.66 2.64 1.32 4 2 C3.67 3.98 3.34 5.96 3 8 C1.68 8 0.36 8 -1 8 C-1.04241723 5.66705225 -1.04092937 3.33297433 -1 1 C-0.67 0.67 -0.34 0.34 0 0 Z " fill="#466438" transform="translate(10,7)"/>
<path d="M0 0 C1.65 0.33 3.3 0.66 5 1 C4.67 2.65 4.34 4.3 4 6 C2.35 5.67 0.7 5.34 -1 5 C-0.67 3.35 -0.34 1.7 0 0 Z " fill="#3E5833" transform="translate(47,9)"/>
<path d="M0 0 C2.475 0.495 2.475 0.495 5 1 C4.67 2.65 4.34 4.3 4 6 C2.68 6 1.36 6 0 6 C0 4.02 0 2.04 0 0 Z " fill="#557C8C" transform="translate(222,241)"/>
<path d="M0 0 C0.66 0.33 1.32 0.66 2 1 C1.62875 1.53625 1.2575 2.0725 0.875 2.625 C-0.34857383 5.94612897 0.69536989 7.81090417 2 11 C0.68 11 -0.64 11 -2 11 C-2.94693195 7.2983569 -3.30443767 5.60887535 -1.5625 2.125 C-1.046875 1.42375 -0.53125 0.7225 0 0 Z " fill="#887510" transform="translate(206,161)"/>
<path d="M0 0 C1.98 0.495 1.98 0.495 4 1 C4 2.98 4 4.96 4 7 C2.35 6.67 0.7 6.34 -1 6 C-1 2 -1 2 0 0 Z " fill="#5F8B9E" transform="translate(323,163)"/>
<path d="M0 0 C2.475 0.495 2.475 0.495 5 1 C5 2.65 5 4.3 5 6 C3.35 6 1.7 6 0 6 C0 4.02 0 2.04 0 0 Z " fill="#5E8899" transform="translate(103,117)"/>
<path d="M0 0 C1.65 0 3.3 0 5 0 C5 1.65 5 3.3 5 5 C3.0625 5.5625 3.0625 5.5625 1 6 C0 5 0 5 -0.0625 2.4375 C-0.041875 1.633125 -0.02125 0.82875 0 0 Z " fill="#547A92" transform="translate(134,102)"/>
<path d="M0 0 C1.32 0 2.64 0 4 0 C4 1.65 4 3.3 4 5 C2.68 5.33 1.36 5.66 0 6 C-0.38218767 4.34385343 -0.71395102 2.67542976 -1 1 C-0.67 0.67 -0.34 0.34 0 0 Z " fill="#567F8D" transform="translate(254,241)"/>
<path d="M0 0 C1.65 0.33 3.3 0.66 5 1 C4.67 2.65 4.34 4.3 4 6 C2.35 5.67 0.7 5.34 -1 5 C-0.67 3.35 -0.34 1.7 0 0 Z " fill="#5A8899" transform="translate(291,210)"/>
<path d="M0 0 C1.32 0 2.64 0 4 0 C4 1.65 4 3.3 4 5 C2.68 5.33 1.36 5.66 0 6 C-0.38218767 4.34385343 -0.71395102 2.67542976 -1 1 C-0.67 0.67 -0.34 0.34 0 0 Z " fill="#714D6F" transform="translate(66,148)"/>
<path d="M0 0 C1.98 0.495 1.98 0.495 4 1 C4 2.98 4 4.96 4 7 C2.68 7 1.36 7 0 7 C-1.125 2.25 -1.125 2.25 0 0 Z " fill="#5B8394" transform="translate(66,101)"/>
<path d="M0 0 C1.32 0 2.64 0 4 0 C4 1.65 4 3.3 4 5 C2.68 5.33 1.36 5.66 0 6 C-0.38218767 4.34385343 -0.71395102 2.67542976 -1 1 C-0.67 0.67 -0.34 0.34 0 0 Z " fill="#735141" transform="translate(348,71)"/>
<path d="M0 0 C2.475 0.495 2.475 0.495 5 1 C4.67 2.65 4.34 4.3 4 6 C2.68 5.67 1.36 5.34 0 5 C0 3.35 0 1.7 0 0 Z " fill="#764F40" transform="translate(103,71)"/>
<path d="M0 0 C1.32 0 2.64 0 4 0 C4 1.65 4 3.3 4 5 C2.68 5.33 1.36 5.66 0 6 C-0.38218767 4.34385343 -0.71395102 2.67542976 -1 1 C-0.67 0.67 -0.34 0.34 0 0 Z " fill="#557F92" transform="translate(304,40)"/>
<path d="M0 0 C0.66 0 1.32 0 2 0 C2 1.32 2 2.64 2 4 C2.66 4 3.32 4 4 4 C4 2.68 4 1.36 4 0 C4.66 0 5.32 0 6 0 C6 1.98 6 3.96 6 6 C4.33388095 6.042721 2.66617115 6.04063832 1 6 C0 5 0 5 -0.0625 2.4375 C-0.041875 1.633125 -0.02125 0.82875 0 0 Z " fill="#888566" transform="translate(190,40)"/>
<path d="M0 0 C0.66 0 1.32 0 2 0 C2 3.3 2 6.6 2 10 C0.68 10.33 -0.64 10.66 -2 11 C-1.34 10.67 -0.68 10.34 0 10 C0 8.02 0 6.04 0 4 C-0.66 4 -1.32 4 -2 4 C-2 3.34 -2 2.68 -2 2 C-1.34 2 -0.68 2 0 2 C0 1.34 0 0.68 0 0 Z " fill="#8D916C" transform="translate(149,37)"/>
<path d="M0 0 C0.99 0 1.98 0 3 0 C3 1.65 3 3.3 3 5 C2.34 5 1.68 5 1 5 C1 6.32 1 7.64 1 9 C0.34 9 -0.32 9 -1 9 C-1.625 6.1875 -1.625 6.1875 -2 3 C-1.34 2.01 -0.68 1.02 0 0 Z " fill="#608B9B" transform="translate(249,37)"/>
<path d="M0 0 C0.66 0 1.32 0 2 0 C2 0.66 2 1.32 2 2 C1.34 2 0.68 2 0 2 C0 2.66 0 3.32 0 4 C0.99 3.67 1.98 3.34 3 3 C3 3.66 3 4.32 3 5 C3.66 5 4.32 5 5 5 C4.67 6.32 4.34 7.64 4 9 C4 8.34 4 7.68 4 7 C2.02 7 0.04 7 -2 7 C-1.125 1.125 -1.125 1.125 0 0 Z " fill="#308A79" transform="translate(48,23)"/>
<path d="M0 0 C0.99 0 1.98 0 3 0 C3 1.65 3 3.3 3 5 C2.34 5 1.68 5 1 5 C1 6.32 1 7.64 1 9 C0.34 9 -0.32 9 -1 9 C-1.80967438 6.08517222 -2.21845993 4.53886783 -1.0625 1.6875 C-0.711875 1.130625 -0.36125 0.57375 0 0 Z " fill="#5C8AA2" transform="translate(280,269)"/>
<path d="M0 0 C1.66611905 -0.042721 3.33382885 -0.04063832 5 0 C6 1 6 1 6.0625 3.5625 C6.041875 4.366875 6.02125 5.17125 6 6 C5.34 6 4.68 6 4 6 C3.67 4.68 3.34 3.36 3 2 C2.67 3.32 2.34 4.64 2 6 C1.34 6 0.68 6 0 6 C0 4.02 0 2.04 0 0 Z " fill="#7B527A" transform="translate(146,148)"/>
<path d="M0 0 C1.98 0.495 1.98 0.495 4 1 C3.67 2.65 3.34 4.3 3 6 C1.68 5.67 0.36 5.34 -1 5 C-0.67 3.35 -0.34 1.7 0 0 Z " fill="#56809A" transform="translate(91,148)"/>
<path d="M0 0 C0.66 0 1.32 0 2 0 C2 2.31 2 4.62 2 7 C2.66 7 3.32 7 4 7 C4 7.66 4 8.32 4 9 C2.35 9 0.7 9 -1 9 C-1.125 2.25 -1.125 2.25 0 0 Z " fill="#517E98" transform="translate(129,99)"/>
<path d="M0 0 C0.99 0 1.98 0 3 0 C3 2.31 3 4.62 3 7 C3.66 7 4.32 7 5 7 C5 7.66 5 8.32 5 9 C3.35 9 1.7 9 0 9 C0 6.03 0 3.06 0 0 Z " fill="#6F5446" transform="translate(460,68)"/>
<path d="M0 0 C0.99 0 1.98 0 3 0 C3.33 2.97 3.66 5.94 4 9 C2.35 9 0.7 9 -1 9 C-1 8.34 -1 7.68 -1 7 C-0.34 7 0.32 7 1 7 C0.67 4.69 0.34 2.38 0 0 Z " fill="#818360" transform="translate(204,37)"/>
<path d="M0 0 C1.98 0 3.96 0 6 0 C6 1.65 6 3.3 6 5 C4.02 5 2.04 5 0 5 C0 3.35 0 1.7 0 0 Z " fill="#466635" transform="translate(146,9)"/>
<path d="M0 0 C2.475 0.495 2.475 0.495 5 1 C5 2.65 5 4.3 5 6 C3.35 6 1.7 6 0 6 C0.185625 5.38125 0.37125 4.7625 0.5625 4.125 C1.23686176 1.95839822 1.23686176 1.95839822 0 0 Z " fill="#6591A2" transform="translate(247,272)"/>
<path d="M0 0 C1.65 0 3.3 0 5 0 C5 1.98 5 3.96 5 6 C3.35 5.67 1.7 5.34 0 5 C0 3.35 0 1.7 0 0 Z " fill="#84526F" transform="translate(78,272)"/>
<path d="M0 0 C0.99 0.33 1.98 0.66 3 1 C3.33 3.64 3.66 6.28 4 9 C2.35 9 0.7 9 -1 9 C-0.34 8.67 0.32 8.34 1 8 C1 6.68 1 5.36 1 4 C0.34 3.67 -0.32 3.34 -1 3 C-0.67 2.01 -0.34 1.02 0 0 Z " fill="#5B828E" transform="translate(179,238)"/>
<path d="M0 0 C0.99 0 1.98 0 3 0 C4.125 3.75 4.125 3.75 3 6 C1.35 5.67 -0.3 5.34 -2 5 C-1.125 1.125 -1.125 1.125 0 0 Z " fill="#5D8AA7" transform="translate(223,225)"/>
<path d="M0 0 C2.475 0.495 2.475 0.495 5 1 C5 2.65 5 4.3 5 6 C3.35 6 1.7 6 0 6 C0 4.02 0 2.04 0 0 Z " fill="#558EAB" transform="translate(209,225)"/>
<path d="M0 0 C0.99 0 1.98 0 3 0 C3.33 2.97 3.66 5.94 4 9 C2.35 9 0.7 9 -1 9 C-1 8.34 -1 7.68 -1 7 C-0.34 7 0.32 7 1 7 C0.67 4.69 0.34 2.38 0 0 Z " fill="#5B859C" transform="translate(423,161)"/>
<path d="M0 0 C0.99 0 1.98 0 3 0 C2.67 2.31 2.34 4.62 2 7 C2.66 7 3.32 7 4 7 C4 7.66 4 8.32 4 9 C2.35 9 0.7 9 -1 9 C-1 8.34 -1 7.68 -1 7 C-0.34 7 0.32 7 1 7 C1 6.01 1 5.02 1 4 C0.34 4 -0.32 4 -1 4 C-0.67 2.68 -0.34 1.36 0 0 Z " fill="#6E4E72" transform="translate(392,161)"/>
<path d="M0 0 C0.99 0 1.98 0 3 0 C2.67 2.31 2.34 4.62 2 7 C2.66 7 3.32 7 4 7 C4 7.66 4 8.32 4 9 C2.35 9 0.7 9 -1 9 C-1 8.34 -1 7.68 -1 7 C-0.34 7 0.32 7 1 7 C1 6.01 1 5.02 1 4 C0.34 4 -0.32 4 -1 4 C-0.67 2.68 -0.34 1.36 0 0 Z " fill="#537E97" transform="translate(135,161)"/>
<path d="M0 0 C0.99 0 1.98 0 3 0 C3.33 2.97 3.66 5.94 4 9 C2.35 9 0.7 9 -1 9 C-1 8.34 -1 7.68 -1 7 C-0.34 7 0.32 7 1 7 C0.67 4.69 0.34 2.38 0 0 Z " fill="#5D8193" transform="translate(110,99)"/>
<path d="M0 0 C2.475 0.495 2.475 0.495 5 1 C5 2.65 5 4.3 5 6 C3.35 5.67 1.7 5.34 0 5 C0 3.35 0 1.7 0 0 Z " fill="#355F86" transform="translate(184,102)"/>
<path d="M0 0 C2.475 0.495 2.475 0.495 5 1 C5 2.65 5 4.3 5 6 C3.35 6 1.7 6 0 6 C0.185625 5.38125 0.37125 4.7625 0.5625 4.125 C1.23686176 1.95839822 1.23686176 1.95839822 0 0 Z " fill="#8A5A45" transform="translate(285,71)"/>
<path d="M0 0 C0.66 0 1.32 0 2 0 C2.66 2.97 3.32 5.94 4 9 C2.35 9 0.7 9 -1 9 C-1 8.34 -1 7.68 -1 7 C-0.34 7 0.32 7 1 7 C0.67 4.69 0.34 2.38 0 0 Z " fill="#7B5242" transform="translate(273,68)"/>
<path d="M0 0 C0.99 0 1.98 0 3 0 C3.33 2.97 3.66 5.94 4 9 C2.35 9 0.7 9 -1 9 C-1 8.34 -1 7.68 -1 7 C-0.34 7 0.32 7 1 7 C0.67 4.69 0.34 2.38 0 0 Z " fill="#814F3D" transform="translate(129,68)"/>
<path d="M0 0 C0.99 0.33 1.98 0.66 3 1 C2.34 1 1.68 1 1 1 C1 1.66 1 2.32 1 3 C1.66 3 2.32 3 3 3 C3 3.66 3 4.32 3 5 C2.34 5 1.68 5 1 5 C1 6.32 1 7.64 1 9 C0.34 9 -0.32 9 -1 9 C-1.625 6.1875 -1.625 6.1875 -2 3 C-1.34 2.01 -0.68 1.02 0 0 Z " fill="#885C47" transform="translate(393,68)"/>
<path d="M0 0 C1.32 0 2.64 0 4 0 C4 1.98 4 3.96 4 6 C2.35 5.67 0.7 5.34 -1 5 C-0.67 3.35 -0.34 1.7 0 0 Z " fill="#805A4A" transform="translate(66,71)"/>
<path d="M0 0 C2.0625 0.4375 2.0625 0.4375 4 1 C4 2.65 4 4.3 4 6 C2.35 6 0.7 6 -1 6 C-1.042721 4.33388095 -1.04063832 2.66617115 -1 1 C-0.67 0.67 -0.34 0.34 0 0 Z " fill="#348571" transform="translate(129,24)"/>
<path d="M0 0 C2.475 0.495 2.475 0.495 5 1 C5 2.65 5 4.3 5 6 C3.35 6 1.7 6 0 6 C0 4.02 0 2.04 0 0 Z " fill="#2F8271" transform="translate(65,24)"/>
<path d="M0 0 C0.66 0 1.32 0 2 0 C2.144375 1.11375 2.28875 2.2275 2.4375 3.375 C2.78372035 6.82142047 2.78372035 6.82142047 4 9 C2.35 9 0.7 9 -1 9 C-1.125 2.25 -1.125 2.25 0 0 Z " fill="#53839F" transform="translate(273,269)"/>
<path d="M0 0 C0.66 0 1.32 0 2 0 C2 2.97 2 5.94 2 9 C0.35 9.33 -1.3 9.66 -3 10 C-2.01 9.67 -1.02 9.34 0 9 C0 7.02 0 5.04 0 3 C-0.66 2.67 -1.32 2.34 -2 2 C-1.34 2 -0.68 2 0 2 C0 1.34 0 0.68 0 0 Z " fill="#6797A1" transform="translate(124,239)"/>
<path d="M0 0 C1.98 0.495 1.98 0.495 4 1 C4 2.65 4 4.3 4 6 C2.35 6 0.7 6 -1 6 C-0.67 4.02 -0.34 2.04 0 0 Z " fill="#6898A5" transform="translate(223,210)"/>
<path d="M0 0 C1.98 0.495 1.98 0.495 4 1 C4 2.65 4 4.3 4 6 C2.35 6 0.7 6 -1 6 C-0.67 4.02 -0.34 2.04 0 0 Z " fill="#6597AB" transform="translate(204,210)"/>
<path d="M0 0 C1.98 0.495 1.98 0.495 4 1 C4 2.65 4 4.3 4 6 C2.35 6 0.7 6 -1 6 C-0.67 4.02 -0.34 2.04 0 0 Z " fill="#6796AC" transform="translate(129,210)"/>
<path d="M0 0 C1.98 0.495 1.98 0.495 4 1 C4 2.65 4 4.3 4 6 C2.35 6 0.7 6 -1 6 C-0.67 4.02 -0.34 2.04 0 0 Z " fill="#6795AC" transform="translate(273,179)"/>
<path d="M0 0 C1.98 0.495 1.98 0.495 4 1 C4 2.65 4 4.3 4 6 C2.35 6 0.7 6 -1 6 C-0.67 4.02 -0.34 2.04 0 0 Z " fill="#6393AE" transform="translate(185,179)"/>
<path d="M0 0 C1.98 0.495 1.98 0.495 4 1 C4 2.65 4 4.3 4 6 C2.35 6 0.7 6 -1 6 C-0.67 4.02 -0.34 2.04 0 0 Z " fill="#6795AD" transform="translate(129,179)"/>
<path d="M0 0 C1.98 0 3.96 0 6 0 C6 1.32 6 2.64 6 4 C4.02 4 2.04 4 0 4 C0 2.68 0 1.36 0 0 Z " fill="#5D5D5C" transform="translate(146,180)"/>
<path d="M0 0 C1.32 0 2.64 0 4 0 C4 4 4 4 3 7 C1.68 7 0.36 7 -1 7 C-0.67 4.69 -0.34 2.38 0 0 Z " fill="#717874" transform="translate(498,163)"/>
<path d="M0 0 C2.0625 0.4375 2.0625 0.4375 4 1 C3.67 2.65 3.34 4.3 3 6 C1.68 6 0.36 6 -1 6 C-1.042721 4.33388095 -1.04063832 2.66617115 -1 1 C-0.67 0.67 -0.34 0.34 0 0 Z " fill="#808182" transform="translate(492,163)"/>
<path d="M0 0 C0.66 0 1.32 0 2 0 C2.33 2.97 2.66 5.94 3 9 C1.68 9 0.36 9 -1 9 C-1.125 2.25 -1.125 2.25 0 0 Z " fill="#59879E" transform="translate(148,161)"/>
<path d="M0 0 C1.98 0.495 1.98 0.495 4 1 C4 2.65 4 4.3 4 6 C2.35 5.67 0.7 5.34 -1 5 C-0.67 3.35 -0.34 1.7 0 0 Z " fill="#6090A5" transform="translate(210,148)"/>
<path d="M0 0 C2.0625 0.4375 2.0625 0.4375 4 1 C3.67 2.65 3.34 4.3 3 6 C1.68 6 0.36 6 -1 6 C-1.042721 4.33388095 -1.04063832 2.66617115 -1 1 C-0.67 0.67 -0.34 0.34 0 0 Z " fill="#648E99" transform="translate(173,117)"/>
<path d="M0 0 C2.0625 0.4375 2.0625 0.4375 4 1 C3.67 2.65 3.34 4.3 3 6 C1.68 6 0.36 6 -1 6 C-1.042721 4.33388095 -1.04063832 2.66617115 -1 1 C-0.67 0.67 -0.34 0.34 0 0 Z " fill="#648C9F" transform="translate(154,117)"/>
<path d="M0 0 C1.32 0 2.64 0 4 0 C4 1.98 4 3.96 4 6 C2.35 5.67 0.7 5.34 -1 5 C-0.67 3.35 -0.34 1.7 0 0 Z " fill="#8C604C" transform="translate(467,71)"/>
<path d="M0 0 C1.65 0.33 3.3 0.66 5 1 C5 1.66 5 2.32 5 3 C3.68 3 2.36 3 1 3 C1 3.66 1 4.32 1 5 C1.99 5.33 2.98 5.66 4 6 C2.35 5.67 0.7 5.34 -1 5 C-0.67 3.35 -0.34 1.7 0 0 Z " fill="#425F37" transform="translate(72,9)"/>
<path d="M0 0 C0.99 0 1.98 0 3 0 C3.144375 1.11375 3.28875 2.2275 3.4375 3.375 C3.78372035 6.82142047 3.78372035 6.82142047 5 9 C3.35 9 1.7 9 0 9 C0 6.03 0 3.06 0 0 Z " fill="#578CA6" transform="translate(153,269)"/>
<path d="M0 0 C1.32 0 2.64 0 4 0 C4 1.98 4 3.96 4 6 C2.35 5.67 0.7 5.34 -1 5 C-0.67 3.35 -0.34 1.7 0 0 Z " fill="#6697AF" transform="translate(210,272)"/>
<path d="M0 0 C1.98 0.495 1.98 0.495 4 1 C4 2.65 4 4.3 4 6 C2.35 5.67 0.7 5.34 -1 5 C-0.67 3.35 -0.34 1.7 0 0 Z " fill="#6697AE" transform="translate(229,272)"/>
<path d="M0 0 C1.98 0 3.96 0 6 0 C6 0.66 6 1.32 6 2 C5.34 2 4.68 2 4 2 C4.66 3.32 5.32 4.64 6 6 C4.02 6 2.04 6 0 6 C0.33 5.01 0.66 4.02 1 3 C0.67 2.01 0.34 1.02 0 0 Z " fill="#5D8DAB" transform="translate(121,225)"/>
<path d="M0 0 C2.475 0.495 2.475 0.495 5 1 C4.67 2.65 4.34 4.3 4 6 C2.68 5.67 1.36 5.34 0 5 C0 3.35 0 1.7 0 0 Z " fill="#628F9C" transform="translate(272,210)"/>
<path d="M0 0 C0.99 0 1.98 0 3 0 C3 0.66 3 1.32 3 2 C2.34 2 1.68 2 1 2 C1 2.66 1 3.32 1 4 C1.66 4.33 2.32 4.66 3 5 C2.34 5 1.68 5 1 5 C1 6.32 1 7.64 1 9 C0.34 9 -0.32 9 -1 9 C-1.80967438 6.08517222 -2.21845993 4.53886783 -1.0625 1.6875 C-0.711875 1.130625 -0.36125 0.57375 0 0 Z " fill="#6291A9" transform="translate(255,207)"/>
<path d="M0 0 C0.33 0.66 0.66 1.32 1 2 C1.66 2 2.32 2 3 2 C3 3.65 3 5.3 3 7 C1.68 7 0.36 7 -1 7 C-1.04254356 5.00045254 -1.04080783 2.99958364 -1 1 C-0.67 0.67 -0.34 0.34 0 0 Z " fill="#18110E" transform="translate(239,176)"/>
<path d="M0 0 C0.66 0 1.32 0 2 0 C2.33 2.97 2.66 5.94 3 9 C1.68 9 0.36 9 -1 9 C-1.125 2.25 -1.125 2.25 0 0 Z " fill="#5D8AA0" transform="translate(336,161)"/>
<path d="M0 0 C0.99 0 1.98 0 3 0 C3.33 1.98 3.66 3.96 4 6 C2.35 6.33 0.7 6.66 -1 7 C-1 3 -1 3 0 0 Z " fill="#5D8796" transform="translate(179,163)"/>
<path d="M0 0 C0.99 0 1.98 0 3 0 C3.33 2.97 3.66 5.94 4 9 C2.68 9 1.36 9 0 9 C0 6.03 0 3.06 0 0 Z " fill="#7C7E86" transform="translate(479,161)"/>
<path d="M0 0 C1.32 0 2.64 0 4 0 C3.67 1.32 3.34 2.64 3 4 C3.66 4.33 4.32 4.66 5 5 C5 5.66 5 6.32 5 7 C3.35 7 1.7 7 0 7 C0.2784375 6.1028125 0.2784375 6.1028125 0.5625 5.1875 C1.22093687 2.83591238 1.22093687 2.83591238 0 0 Z " fill="#577E90" transform="translate(153,163)"/>
<path d="M0 0 C0.99 0 1.98 0 3 0 C3.33 1.98 3.66 3.96 4 6 C2.35 6.33 0.7 6.66 -1 7 C-1 3 -1 3 0 0 Z " fill="#57849B" transform="translate(110,163)"/>
<path d="M0 0 C1.32 0 2.64 0 4 0 C4 1.65 4 3.3 4 5 C2.35 4.67 0.7 4.34 -1 4 C-0.67 2.68 -0.34 1.36 0 0 Z " fill="#537D97" transform="translate(260,164)"/>
<path d="M0 0 C0.66 0 1.32 0 2 0 C2 2.31 2 4.62 2 7 C2.66 7 3.32 7 4 7 C4 7.66 4 8.32 4 9 C2.35 9 0.7 9 -1 9 C-1 8.34 -1 7.68 -1 7 C-0.34 7 0.32 7 1 7 C1 6.01 1 5.02 1 4 C0.34 4 -0.32 4 -1 4 C-0.67 2.68 -0.34 1.36 0 0 Z " fill="#5B879A" transform="translate(223,161)"/>
<path d="M0 0 C0.99 0 1.98 0 3 0 C3.33 2.97 3.66 5.94 4 9 C2.68 9 1.36 9 0 9 C0 6.03 0 3.06 0 0 Z " fill="#5E91A2" transform="translate(141,161)"/>
<path d="M0 0 C0.66 0 1.32 0 2 0 C2 2.31 2 4.62 2 7 C2.66 7 3.32 7 4 7 C4 7.66 4 8.32 4 9 C2.35 9 0.7 9 -1 9 C-1 8.34 -1 7.68 -1 7 C-0.34 7 0.32 7 1 7 C1 6.01 1 5.02 1 4 C0.34 4 -0.32 4 -1 4 C-0.67 2.68 -0.34 1.36 0 0 Z " fill="#53829B" transform="translate(442,161)"/>
<path d="M0 0 C0.99 0 1.98 0 3 0 C3 0.66 3 1.32 3 2 C2.34 2 1.68 2 1 2 C1.33 2.99 1.66 3.98 2 5 C1.5625 7.1875 1.5625 7.1875 1 9 C0.34 9 -0.32 9 -1 9 C-1.80967438 6.08517222 -2.21845993 4.53886783 -1.0625 1.6875 C-0.711875 1.130625 -0.36125 0.57375 0 0 Z " fill="#86597F" transform="translate(61,145)"/>
<path d="M0 0 C1.65 0 3.3 0 5 0 C5.33 1.32 5.66 2.64 6 4 C4.02 4 2.04 4 0 4 C0 2.68 0 1.36 0 0 Z " fill="#5F605E" transform="translate(190,118)"/>
<path d="M0 0 C0.66 0 1.32 0 2 0 C2.33 2.97 2.66 5.94 3 9 C1.68 8.67 0.36 8.34 -1 8 C-1.125 2.25 -1.125 2.25 0 0 Z " fill="#815A4A" transform="translate(386,68)"/>
<path d="M0 0 C0.66 0 1.32 0 2 0 C2.33 2.97 2.66 5.94 3 9 C1.68 8.67 0.36 8.34 -1 8 C-1.125 2.25 -1.125 2.25 0 0 Z " fill="#805A49" transform="translate(98,68)"/>
<path d="M0 0 C1.67542976 0.28604898 3.34385343 0.61781233 5 1 C5 1.66 5 2.32 5 3 C4.01 3.33 3.02 3.66 2 4 C2.66 4.66 3.32 5.32 4 6 C2.68 5.67 1.36 5.34 0 5 C-0.5625 3.0625 -0.5625 3.0625 -1 1 C-0.67 0.67 -0.34 0.34 0 0 Z " fill="#825C4D" transform="translate(316,71)"/>
<path d="M0 0 C1.32 0 2.64 0 4 0 C4 1.98 4 3.96 4 6 C2.35 5.67 0.7 5.34 -1 5 C-0.67 3.35 -0.34 1.7 0 0 Z " fill="#8D614F" transform="translate(448,71)"/>
<path d="M0 0 C1.32 0 2.64 0 4 0 C4 1.98 4 3.96 4 6 C2.35 5.67 0.7 5.34 -1 5 C-0.67 3.35 -0.34 1.7 0 0 Z " fill="#8E624D" transform="translate(135,71)"/>
<path d="M0 0 C0.99 0.33 1.98 0.66 3 1 C2.34 1 1.68 1 1 1 C1.7734375 1.61875 1.7734375 1.61875 2.5625 2.25 C3.036875 2.8275 3.51125 3.405 4 4 C3.6875 6.1875 3.6875 6.1875 3 8 C1.68 8 0.36 8 -1 8 C-1 7.34 -1 6.68 -1 6 C-0.34 5.67 0.32 5.34 1 5 C0.34 3.68 -0.32 2.36 -1 1 C-0.67 0.67 -0.34 0.34 0 0 Z " fill="#8B604D" transform="translate(60,69)"/>
<path d="M0 0 C0.99 0.33 1.98 0.66 3 1 C3.33 3.64 3.66 6.28 4 9 C2.35 9 0.7 9 -1 9 C-0.7525 7.329375 -0.7525 7.329375 -0.5 5.625 C0.0455458 2.27967967 0.0455458 2.27967967 0 0 Z " fill="#618D9E" transform="translate(279,37)"/>
<path d="M0 0 C1.32 0 2.64 0 4 0 C4 1.98 4 3.96 4 6 C2.35 5.67 0.7 5.34 -1 5 C-0.67 3.35 -0.34 1.7 0 0 Z " fill="#949A72" transform="translate(116,40)"/>
<path d="M0 0 C2.0625 0.4375 2.0625 0.4375 4 1 C3.67 2.65 3.34 4.3 3 6 C1.68 6 0.36 6 -1 6 C-1.042721 4.33388095 -1.04063832 2.66617115 -1 1 C-0.67 0.67 -0.34 0.34 0 0 Z " fill="#358871" transform="translate(60,24)"/>
<path d="M0 0 C1.32 0 2.64 0 4 0 C4 1.98 4 3.96 4 6 C2.35 5.67 0.7 5.34 -1 5 C-0.67 3.35 -0.34 1.7 0 0 Z " fill="#44663A" transform="translate(166,9)"/>
<path d="M0 0 C1.98 0 3.96 0 6 0 C5.67 0.66 5.34 1.32 5 2 C4.34 1.67 3.68 1.34 3 1 C3 2.65 3 4.3 3 6 C2.01 6 1.02 6 0 6 C0 4.02 0 2.04 0 0 Z " fill="#6B486E" transform="translate(58,272)"/>
<path d="M0 0 C0.66 0 1.32 0 2 0 C2 0.66 2 1.32 2 2 C2.66 2.33 3.32 2.66 4 3 C3.34 3 2.68 3 2 3 C2 3.99 2 4.98 2 6 C2.66 6 3.32 6 4 6 C4 6.66 4 7.32 4 8 C2.68 7.67 1.36 7.34 0 7 C-1.125 2.25 -1.125 2.25 0 0 Z " fill="#5E8EA8" transform="translate(310,270)"/>
<path d="M0 0 C1.65 0 3.3 0 5 0 C5 1.98 5 3.96 5 6 C3.35 6 1.7 6 0 6 C0 4.02 0 2.04 0 0 Z " fill="#64A4BE" transform="translate(109,225)"/>
<path d="M0 0 C0.99 0 1.98 0 3 0 C3.33 2.97 3.66 5.94 4 9 C2.68 8.67 1.36 8.34 0 8 C0 5.36 0 2.72 0 0 Z " fill="#6094A9" transform="translate(216,207)"/>
<path d="M0 0 C0.99 0 1.98 0 3 0 C3.33 2.97 3.66 5.94 4 9 C2.68 8.67 1.36 8.34 0 8 C0 5.36 0 2.72 0 0 Z " fill="#6093A6" transform="translate(141,207)"/>
<path d="M0 0 C0.66 0 1.32 0 2 0 C2 0.66 2 1.32 2 2 C1.34 2 0.68 2 0 2 C0 2.66 0 3.32 0 4 C0.66 4.33 1.32 4.66 2 5 C1.34 5 0.68 5 0 5 C0 6.32 0 7.64 0 9 C-0.66 9 -1.32 9 -2 9 C-2.6875 6.75 -2.6875 6.75 -3 4 C-1.6875 1.6875 -1.6875 1.6875 0 0 Z " fill="#7C5B86" transform="translate(93,207)"/>
<path d="M0 0 C0.99 0.33 1.98 0.66 3 1 C3.33 3.64 3.66 6.28 4 9 C2.35 9 0.7 9 -1 9 C-0.34 8.67 0.32 8.34 1 8 C0.67 5.36 0.34 2.72 0 0 Z " fill="#959468" transform="translate(160,176)"/>
<path d="M0 0 C0.99 0 1.98 0 3 0 C3.33 2.97 3.66 5.94 4 9 C2.68 8.67 1.36 8.34 0 8 C0 5.36 0 2.72 0 0 Z " fill="#608CA7" transform="translate(122,176)"/>
<path d="M0 0 C1.98 0.495 1.98 0.495 4 1 C4 2.65 4 4.3 4 6 C2.35 6 0.7 6 -1 6 C-1 2 -1 2 0 0 Z " fill="#6597AE" transform="translate(85,163)"/>
<path d="M0 0 C0.99 0 1.98 0 3 0 C3 1.98 3 3.96 3 6 C1.68 6.33 0.36 6.66 -1 7 C-1.04254356 5.00045254 -1.04080783 2.99958364 -1 1 C-0.67 0.67 -0.34 0.34 0 0 Z " fill="#5D8497" transform="translate(217,163)"/>
<path d="M0 0 C1.65 0 3.3 0 5 0 C5 1.98 5 3.96 5 6 C4.67 4.68 4.34 3.36 4 2 C3.34 2 2.68 2 2 2 C2 3.32 2 4.64 2 6 C1.34 6 0.68 6 0 6 C0 4.02 0 2.04 0 0 Z " fill="#5793AC" transform="translate(378,163)"/>
<path d="M0 0 C0.99 0.33 1.98 0.66 3 1 C2.34 1 1.68 1 1 1 C1 1.66 1 2.32 1 3 C1.66 3 2.32 3 3 3 C3 3.66 3 4.32 3 5 C2.34 5 1.68 5 1 5 C1 5.99 1 6.98 1 8 C0.34 8 -0.32 8 -1 8 C-1.625 5.6875 -1.625 5.6875 -2 3 C-1.34 2.01 -0.68 1.02 0 0 Z " fill="#855A81" transform="translate(299,161)"/>
<path d="M0 0 C1.32 0.33 2.64 0.66 4 1 C4.33 2.32 4.66 3.64 5 5 C3.35 5.33 1.7 5.66 0 6 C0 4.02 0 2.04 0 0 Z " fill="#7E5747" transform="translate(435,71)"/>
<path d="M0 0 C1.32 0.33 2.64 0.66 4 1 C4.33 2.32 4.66 3.64 5 5 C3.35 5.33 1.7 5.66 0 6 C0 4.02 0 2.04 0 0 Z " fill="#7E5846" transform="translate(341,71)"/>
<path d="M0 0 C0.99 0 1.98 0 3 0 C3.33 2.97 3.66 5.94 4 9 C2.68 8.67 1.36 8.34 0 8 C0 5.36 0 2.72 0 0 Z " fill="#835C4A" transform="translate(72,68)"/>
<path d="M0 0 C0.66 0 1.32 0 2 0 C2 0.66 2 1.32 2 2 C2.66 2.33 3.32 2.66 4 3 C3.34 3 2.68 3 2 3 C2 3.99 2 4.98 2 6 C2.66 6 3.32 6 4 6 C4 6.66 4 7.32 4 8 C2.68 7.67 1.36 7.34 0 7 C-1.125 2.25 -1.125 2.25 0 0 Z " fill="#895C48" transform="translate(423,69)"/>
<path d="M0 0 C0.66 0 1.32 0 2 0 C2 0.66 2 1.32 2 2 C2.66 2.33 3.32 2.66 4 3 C3.34 3 2.68 3 2 3 C2 3.99 2 4.98 2 6 C2.66 6 3.32 6 4 6 C4 6.66 4 7.32 4 8 C2.68 7.67 1.36 7.34 0 7 C-1.125 2.25 -1.125 2.25 0 0 Z " fill="#845C48" transform="translate(254,69)"/>
<path d="M0 0 C0.99 0 1.98 0 3 0 C2.979375 1.11375 2.95875 2.2275 2.9375 3.375 C2.73619282 6.83215921 2.73619282 6.83215921 4 9 C2.35 9 0.7 9 -1 9 C-0.34 7.35 0.32 5.7 1 4 C0.34 3.67 -0.32 3.34 -1 3 C-0.67 2.01 -0.34 1.02 0 0 Z " fill="#59899D" transform="translate(298,37)"/>
<path d="M0 0 C1.32 0 2.64 0 4 0 C4 0.99 4 1.98 4 3 C3.01 3 2.02 3 1 3 C1 3.66 1 4.32 1 5 C1.99 5.33 2.98 5.66 4 6 C2.35 5.67 0.7 5.34 -1 5 C-0.67 3.35 -0.34 1.7 0 0 Z " fill="#5D90A9" transform="translate(235,40)"/>
<path d="M0 0 C1.65 0 3.3 0 5 0 C5 1.98 5 3.96 5 6 C3.35 6 1.7 6 0 6 C0 4.02 0 2.04 0 0 Z " fill="#329880" transform="translate(109,24)"/>
<path d="M0 0 C0.99 0 1.98 0 3 0 C3.33 2.97 3.66 5.94 4 9 C2.68 8.67 1.36 8.34 0 8 C0 5.36 0 2.72 0 0 Z " fill="#426136" transform="translate(28,6)"/>
<path d="M0 0 C0.66 0 1.32 0 2 0 C2 1.32 2 2.64 2 4 C2.66 4 3.32 4 4 4 C4.33 2.68 4.66 1.36 5 0 C5 1.98 5 3.96 5 6 C3.35 5.67 1.7 5.34 0 5 C0 3.35 0 1.7 0 0 Z " fill="#5B98B9" transform="translate(234,272)"/>
<path d="M0 0 C1.98 0.495 1.98 0.495 4 1 C4 1.66 4 2.32 4 3 C3.01 3 2.02 3 1 3 C1 3.66 1 4.32 1 5 C1.99 5.33 2.98 5.66 4 6 C2.35 5.67 0.7 5.34 -1 5 C-0.67 3.35 -0.34 1.7 0 0 Z " fill="#6294A9" transform="translate(110,272)"/>
<path d="M0 0 C0.66 0 1.32 0 2 0 C2 1.32 2 2.64 2 4 C2.66 4 3.32 4 4 4 C4.33 2.68 4.66 1.36 5 0 C5 1.98 5 3.96 5 6 C3.35 5.67 1.7 5.34 0 5 C0 3.35 0 1.7 0 0 Z " fill="#659AAC" transform="translate(159,272)"/>
<path d="M0 0 C0.66 0 1.32 0 2 0 C2 0.66 2 1.32 2 2 C2.66 2.33 3.32 2.66 4 3 C3.34 3 2.68 3 2 3 C2 3.99 2 4.98 2 6 C2.66 6 3.32 6 4 6 C4 6.66 4 7.32 4 8 C2.68 7.67 1.36 7.34 0 7 C0 4.69 0 2.38 0 0 Z " fill="#7F567E" transform="translate(72,270)"/>
<path d="M0 0 C0.66 0 1.32 0 2 0 C2 1.32 2 2.64 2 4 C2.66 4 3.32 4 4 4 C4.33 2.68 4.66 1.36 5 0 C5 1.98 5 3.96 5 6 C3.35 5.67 1.7 5.34 0 5 C0 3.35 0 1.7 0 0 Z " fill="#679DA9" transform="translate(234,241)"/>
<path d="M0 0 C0.99 0.33 1.98 0.66 3 1 C3.33 3.64 3.66 6.28 4 9 C2.68 8.67 1.36 8.34 0 8 C0 5.36 0 2.72 0 0 Z " fill="#6596A2" transform="translate(160,238)"/>
<path d="M0 0 C2.475 0.495 2.475 0.495 5 1 C5 2.65 5 4.3 5 6 C4.67 4.68 4.34 3.36 4 2 C3.34 2 2.68 2 2 2 C2 3.32 2 4.64 2 6 C1.34 6 0.68 6 0 6 C0 4.02 0 2.04 0 0 Z " fill="#639AAA" transform="translate(253,225)"/>
<path d="M0 0 C2.0625 0.4375 2.0625 0.4375 4 1 C4 1.66 4 2.32 4 3 C3.34 3 2.68 3 2 3 C2 3.99 2 4.98 2 6 C2.66 6.33 3.32 6.66 4 7 C2.68 6.67 1.36 6.34 0 6 C-0.38218767 4.34385343 -0.71395102 2.67542976 -1 1 C-0.67 0.67 -0.34 0.34 0 0 Z " fill="#6093A7" transform="translate(216,224)"/>
<path d="M0 0 C0.99 0.33 1.98 0.66 3 1 C3.33 3.31 3.66 5.62 4 8 C2.35 8 0.7 8 -1 8 C-0.34 7.67 0.32 7.34 1 7 C0.67 4.69 0.34 2.38 0 0 Z " fill="#835573" transform="translate(85,208)"/>
<path d="M0 0 C0.99 0 1.98 0 3 0 C3 2.31 3 4.62 3 7 C1.68 7 0.36 7 -1 7 C-1 3 -1 3 0 0 Z " fill="#5E8899" transform="translate(411,163)"/>
<path d="M0 0 C0.99 0 1.98 0 3 0 C3 4 3 4 2 7 C1.01 7 0.02 7 -1 7 C-1.04254356 5.00045254 -1.04080783 2.99958364 -1 1 C-0.67 0.67 -0.34 0.34 0 0 Z " fill="#5E8699" transform="translate(330,163)"/>
<path d="M0 0 C2.475 0.495 2.475 0.495 5 1 C5 2.65 5 4.3 5 6 C4.67 4.68 4.34 3.36 4 2 C3.34 2 2.68 2 2 2 C2 3.32 2 4.64 2 6 C1.34 6 0.68 6 0 6 C0 4.02 0 2.04 0 0 Z " fill="#85587E" transform="translate(397,163)"/>
<path d="M0 0 C0.66 0 1.32 0 2 0 C1.67 2.31 1.34 4.62 1 7 C1.66 7 2.32 7 3 7 C3 7.66 3 8.32 3 9 C1.35 9 -0.3 9 -2 9 C-2 8.34 -2 7.68 -2 7 C-1.34 7 -0.68 7 0 7 C-0.2784375 5.824375 -0.2784375 5.824375 -0.5625 4.625 C-1 2 -1 2 0 0 Z " fill="#5B8A9C" transform="translate(255,161)"/>
<path d="M0 0 C0.66 0 1.32 0 2 0 C2 1.32 2 2.64 2 4 C2.66 4 3.32 4 4 4 C4.33 2.68 4.66 1.36 5 0 C5 1.98 5 3.96 5 6 C3.35 5.67 1.7 5.34 0 5 C0 3.35 0 1.7 0 0 Z " fill="#6298AE" transform="translate(115,102)"/>
<path d="M0 0 C0.99 0 1.98 0 3 0 C3 4 3 4 2 7 C1.01 7 0.02 7 -1 7 C-1.04254356 5.00045254 -1.04080783 2.99958364 -1 1 C-0.67 0.67 -0.34 0.34 0 0 Z " fill="#5C859C" transform="translate(98,101)"/>
<path d="M0 0 C0.33 1.32 0.66 2.64 1 4 C1.66 4 2.32 4 3 4 C3 2.68 3 1.36 3 0 C3.66 0 4.32 0 5 0 C5 1.65 5 3.3 5 5 C3.35 5.33 1.7 5.66 0 6 C0 4.02 0 2.04 0 0 Z " fill="#935A42" transform="translate(454,71)"/>
<path d="M0 0 C0.33 1.32 0.66 2.64 1 4 C1.66 4 2.32 4 3 4 C3 2.68 3 1.36 3 0 C3.66 0 4.32 0 5 0 C5 1.65 5 3.3 5 5 C3.35 5.33 1.7 5.66 0 6 C0 4.02 0 2.04 0 0 Z " fill="#915B44" transform="translate(335,71)"/>
<path d="M0 0 C0.33 1.32 0.66 2.64 1 4 C1.66 4 2.32 4 3 4 C3 2.68 3 1.36 3 0 C3.66 0 4.32 0 5 0 C5 1.98 5 3.96 5 6 C3.35 5.67 1.7 5.34 0 5 C0 3.35 0 1.7 0 0 Z " fill="#88604B" transform="translate(203,71)"/>
<path d="M0 0 C1.32 0 2.64 0 4 0 C4 0.99 4 1.98 4 3 C3.01 3 2.02 3 1 3 C1 3.66 1 4.32 1 5 C1.66 5.33 2.32 5.66 3 6 C1.68 5.67 0.36 5.34 -1 5 C-0.67 3.35 -0.34 1.7 0 0 Z " fill="#885F4E" transform="translate(398,71)"/>
<path d="M0 0 C1.98 0.495 1.98 0.495 4 1 C4 1.66 4 2.32 4 3 C3.01 3 2.02 3 1 3 C1 3.66 1 4.32 1 5 C1.99 5.33 2.98 5.66 4 6 C2.35 5.67 0.7 5.34 -1 5 C-0.67 3.35 -0.34 1.7 0 0 Z " fill="#386691" transform="translate(41,40)"/>
<path d="M0 0 C2.475 0.495 2.475 0.495 5 1 C5 2.65 5 4.3 5 6 C4.34 6 3.68 6 3 6 C3 4.68 3 3.36 3 2 C2.34 2 1.68 2 1 2 C0.67 3.32 0.34 4.64 0 6 C0 4.02 0 2.04 0 0 Z " fill="#328D74" transform="translate(153,24)"/>
<path d="M0 0 C0.99 0.33 1.98 0.66 3 1 C2.67 1.66 2.34 2.32 2 3 C2.99 3 3.98 3 5 3 C4.67 3.66 4.34 4.32 4 5 C1.4375 5.625 1.4375 5.625 -1 6 C-1.042721 4.33388095 -1.04063832 2.66617115 -1 1 C-0.67 0.67 -0.34 0.34 0 0 Z " fill="#337C6F" transform="translate(79,24)"/>
<path d="M0 0 C1.98 0.495 1.98 0.495 4 1 C4 1.66 4 2.32 4 3 C3.01 3 2.02 3 1 3 C1 3.66 1 4.32 1 5 C1.99 5.33 2.98 5.66 4 6 C2.35 5.67 0.7 5.34 -1 5 C-0.67 3.35 -0.34 1.7 0 0 Z " fill="#456639" transform="translate(110,9)"/>
<path d="M0 0 C1.98 0.495 1.98 0.495 4 1 C4 1.66 4 2.32 4 3 C3.01 3 2.02 3 1 3 C1 3.66 1 4.32 1 5 C1.99 5.33 2.98 5.66 4 6 C2.35 5.67 0.7 5.34 -1 5 C-0.67 3.35 -0.34 1.7 0 0 Z " fill="#456639" transform="translate(91,9)"/>
<path d="M0 0 C0.99 0.33 1.98 0.66 3 1 C3 2.65 3 4.3 3 6 C1.35 6 -0.3 6 -2 6 C-1.67 5.01 -1.34 4.02 -1 3 C-0.34 3 0.32 3 1 3 C0.67 2.01 0.34 1.02 0 0 Z " fill="#669BAE" transform="translate(117,225)"/>
<path d="M0 0 C0.99 0.33 1.98 0.66 3 1 C2.34 1 1.68 1 1 1 C1 1.66 1 2.32 1 3 C1.66 3.33 2.32 3.66 3 4 C2.34 4 1.68 4 1 4 C1 5.32 1 6.64 1 8 C0.34 8 -0.32 8 -1 8 C-1.625 5.6875 -1.625 5.6875 -2 3 C-1.34 2.01 -0.68 1.02 0 0 Z " fill="#69A1C0" transform="translate(186,223)"/>
<path d="M0 0 C1.32 0 2.64 0 4 0 C4 1.98 4 3.96 4 6 C2.68 6 1.36 6 0 6 C0.185625 5.38125 0.37125 4.7625 0.5625 4.125 C1.23686176 1.95839822 1.23686176 1.95839822 0 0 Z " fill="#669CB7" transform="translate(147,210)"/>
<path d="M0 0 C0.66 0 1.32 0 2 0 C2.33 2.64 2.66 5.28 3 8 C1.35 8 -0.3 8 -2 8 C-1.34 7.67 -0.68 7.34 0 7 C-0.2784375 5.824375 -0.2784375 5.824375 -0.5625 4.625 C-1 2 -1 2 0 0 Z " fill="#6797A5" transform="translate(117,146)"/>
<path d="M0 0 C0.99 0.33 1.98 0.66 3 1 C2.34 1 1.68 1 1 1 C1 1.66 1 2.32 1 3 C1.66 3.33 2.32 3.66 3 4 C2.34 4 1.68 4 1 4 C1 5.32 1 6.64 1 8 C0.34 8 -0.32 8 -1 8 C-1.625 5.6875 -1.625 5.6875 -2 3 C-1.34 2.01 -0.68 1.02 0 0 Z " fill="#67A0BB" transform="translate(136,115)"/>
<path d="M0 0 C2.475 0.495 2.475 0.495 5 1 C5 1.66 5 2.32 5 3 C4.01 3.33 3.02 3.66 2 4 C2.66 4.66 3.32 5.32 4 6 C2.68 5.67 1.36 5.34 0 5 C0 3.35 0 1.7 0 0 Z " fill="#8D604C" transform="translate(410,71)"/>
<path d="M0 0 C2.475 0.495 2.475 0.495 5 1 C5 1.66 5 2.32 5 3 C4.01 3.33 3.02 3.66 2 4 C2.66 4.66 3.32 5.32 4 6 C2.68 5.67 1.36 5.34 0 5 C0 3.35 0 1.7 0 0 Z " fill="#8D614D" transform="translate(366,71)"/>
<path d="M0 0 C2.475 0.495 2.475 0.495 5 1 C5 1.66 5 2.32 5 3 C4.01 3.33 3.02 3.66 2 4 C2.66 4.66 3.32 5.32 4 6 C2.68 5.67 1.36 5.34 0 5 C0 3.35 0 1.7 0 0 Z " fill="#8C604D" transform="translate(78,71)"/>
<path d="M0 0 C2.475 0.495 2.475 0.495 5 1 C5 1.66 5 2.32 5 3 C4.01 3.33 3.02 3.66 2 4 C2.66 4.66 3.32 5.32 4 6 C2.68 5.67 1.36 5.34 0 5 C0 3.35 0 1.7 0 0 Z " fill="#969570" transform="translate(78,40)"/>
<path d="M0 0 C0.66 0 1.32 0 2 0 C2.33 2.64 2.66 5.28 3 8 C1.68 7.67 0.36 7.34 -1 7 C-0.67 4.69 -0.34 2.38 0 0 Z " fill="#338970" transform="translate(142,22)"/>
<path d="M0 0 C0.66 0 1.32 0 2 0 C2 0.66 2 1.32 2 2 C2.66 2.33 3.32 2.66 4 3 C3.34 3 2.68 3 2 3 C2 4.32 2 5.64 2 7 C2.66 7.33 3.32 7.66 4 8 C2.68 7.67 1.36 7.34 0 7 C-1.125 2.25 -1.125 2.25 0 0 Z " fill="#476538" transform="translate(135,7)"/>
<path d="M0 0 C1.32 0 2.64 0 4 0 C4 2 4 4 4 6 C2.68 5.67 1.36 5.34 0 5 C0 3.35 0 1.7 0 0 Z " fill="#608898" transform="translate(304,225)"/>
<path d="M0 0 C1.32 0 2.64 0 4 0 C4 2 4 4 4 6 C2.68 5.67 1.36 5.34 0 5 C0 3.35 0 1.7 0 0 Z " fill="#608899" transform="translate(160,225)"/>
<path d="M0 0 C0.66 0 1.32 0 2 0 C2.33 2.64 2.66 5.28 3 8 C1.68 7.67 0.36 7.34 -1 7 C-0.67 4.69 -0.34 2.38 0 0 Z " fill="#5D8DB1" transform="translate(248,208)"/>
<path d="M0 0 C1.32 0.33 2.64 0.66 4 1 C4.33 2.32 4.66 3.64 5 5 C3.35 5.33 1.7 5.66 0 6 C0.66 5.34 1.32 4.68 2 4 C1.34 3.67 0.68 3.34 0 3 C0 2.01 0 1.02 0 0 Z " fill="#6592A8" transform="translate(297,210)"/>
<path d="M0 0 C1.32 0.33 2.64 0.66 4 1 C4.33 2.32 4.66 3.64 5 5 C3.35 5.33 1.7 5.66 0 6 C0.66 5.34 1.32 4.68 2 4 C1.34 3.67 0.68 3.34 0 3 C0 2.01 0 1.02 0 0 Z " fill="#6593A9" transform="translate(153,210)"/>
<path d="M0 0 C0.66 0 1.32 0 2 0 C2.33 2.64 2.66 5.28 3 8 C1.68 7.67 0.36 7.34 -1 7 C-0.67 4.69 -0.34 2.38 0 0 Z " fill="#6696AB" transform="translate(236,177)"/>
<path d="M0 0 C0.66 0 1.32 0 2 0 C2.33 2.64 2.66 5.28 3 8 C1.68 7.67 0.36 7.34 -1 7 C-0.67 4.69 -0.34 2.38 0 0 Z " fill="#5D8EB3" transform="translate(248,177)"/>
<path d="M0 0 C1.32 0.33 2.64 0.66 4 1 C4 2.65 4 4.3 4 6 C3.01 6.495 3.01 6.495 2 7 C2 6.34 2 5.68 2 5 C1.34 5 0.68 5 0 5 C0 3.35 0 1.7 0 0 Z " fill="#292735" transform="translate(256,163)"/>
<path d="M0 0 C0.33 0 0.66 0 1 0 C0.67 2.97 0.34 5.94 0 9 C-0.33 8.01 -0.66 7.02 -1 6 C-1.66 5.67 -2.32 5.34 -3 5 C-2.03114628 3.31503702 -1.03013277 1.64821244 0 0 Z " fill="#261717" transform="translate(208,161)"/>
<path d="M0 0 C0.99 0 1.98 0 3 0 C3 1.65 3 3.3 3 5 C1.68 5 0.36 5 -1 5 C-0.67 3.35 -0.34 1.7 0 0 Z " fill="#13100E" transform="translate(139,163)"/>
<path d="M0 0 C0.99 0.33 1.98 0.66 3 1 C3.6875 3.0625 3.6875 3.0625 4 5 C2.35 5.33 0.7 5.66 -1 6 C-1 3 -1 3 0 0 Z " fill="#6191A9" transform="translate(160,148)"/>
<path d="M0 0 C0.66 0 1.32 0 2 0 C2.33 2.64 2.66 5.28 3 8 C1.68 7.67 0.36 7.34 -1 7 C-0.67 4.69 -0.34 2.38 0 0 Z " fill="#6598B0" transform="translate(192,146)"/>
<path d="M0 0 C0.66 0 1.32 0 2 0 C2.33 2.64 2.66 5.28 3 8 C1.68 7.67 0.36 7.34 -1 7 C-0.67 4.69 -0.34 2.38 0 0 Z " fill="#895C83" transform="translate(142,146)"/>
<path d="M0 0 C0.66 0.33 1.32 0.66 2 1 C2 2.98 2 4.96 2 7 C2.66 7.33 3.32 7.66 4 8 C2.35 8 0.7 8 -1 8 C-1.125 2.25 -1.125 2.25 0 0 Z " fill="#5A92B3" transform="translate(129,115)"/>
<path d="M0 0 C1.98 0.495 1.98 0.495 4 1 C4 2.66666667 4 4.33333333 4 6 C2.35 6 0.7 6 -1 6 C-0.649375 5.38125 -0.29875 4.7625 0.0625 4.125 C0.371875 3.42375 0.68125 2.7225 1 2 C0.67 1.34 0.34 0.68 0 0 Z " fill="#7F5846" transform="translate(279,71)"/>
<path d="M0 0 C0.66 0 1.32 0 2 0 C2 2.31 2 4.62 2 7 C2.66 7 3.32 7 4 7 C4 7.66 4 8.32 4 9 C2.35 9 0.7 9 -1 9 C-1 8.34 -1 7.68 -1 7 C-0.34 7 0.32 7 1 7 C0.67 4.69 0.34 2.38 0 0 Z " fill="#8A5F4D" transform="translate(323,68)"/>
<path d="M0 0 C1.98 0.495 1.98 0.495 4 1 C3.01 1 2.02 1 1 1 C1 1.99 1 2.98 1 4 C1.99 4 2.98 4 4 4 C4 4.66 4 5.32 4 6 C2.35 5.67 0.7 5.34 -1 5 C-0.67 3.35 -0.34 1.7 0 0 Z " fill="#888868" transform="translate(85,40)"/>
<path d="M0 0 C0.66 0 1.32 0 2 0 C2.33 2.31 2.66 4.62 3 7 C2.01 7 1.02 7 0 7 C0 4.69 0 2.38 0 0 Z " fill="#1B2223" transform="translate(277,37)"/>
<path d="M0 0 C1.98 0.495 1.98 0.495 4 1 C3.01 1 2.02 1 1 1 C1 1.99 1 2.98 1 4 C1.99 4 2.98 4 4 4 C4 4.66 4 5.32 4 6 C2.35 5.67 0.7 5.34 -1 5 C-0.67 3.35 -0.34 1.7 0 0 Z " fill="#888C67" transform="translate(91,40)"/>
<path d="M0 0 C0.33 0.66 0.66 1.32 1 2 C1.66 2 2.32 2 3 2 C3 3.65 3 5.3 3 7 C2.34 7 1.68 7 1 7 C0.731875 6.38125 0.46375 5.7625 0.1875 5.125 C-0.95556848 2.7004767 -0.95556848 2.7004767 -4 1 C-2.68 0.67 -1.36 0.34 0 0 Z " fill="#131113" transform="translate(70,37)"/>
<path d="M0 0 C1.32 0 2.64 0 4 0 C4 0.66 4 1.32 4 2 C3.01 2 2.02 2 1 2 C1 2.99 1 3.98 1 5 C1.99 5.33 2.98 5.66 4 6 C2.35 5.67 0.7 5.34 -1 5 C-0.67 3.35 -0.34 1.7 0 0 Z " fill="#318068" transform="translate(135,24)"/>
<path d="M0 0 C0.66 0 1.32 0 2 0 C2.33 2.64 2.66 5.28 3 8 C1.68 7.67 0.36 7.34 -1 7 C-0.67 4.69 -0.34 2.38 0 0 Z " fill="#358A6C" transform="translate(117,22)"/>
<path d="M0 0 C1.98 0.495 1.98 0.495 4 1 C4 2.32 4 3.64 4 5 C2.35 5.33 0.7 5.66 -1 6 C-0.67 4.02 -0.34 2.04 0 0 Z " fill="#4B6D3C" transform="translate(35,9)"/>
<path d="M0 0 C0.99 0 1.98 0 3 0 C3 1.98 3 3.96 3 6 C2.01 6 1.02 6 0 6 C0 4.02 0 2.04 0 0 Z " fill="#121020" transform="translate(121,242)"/>
<path d="M0 0 C1.98 0 3.96 0 6 0 C6 0.99 6 1.98 6 3 C4.02 3 2.04 3 0 3 C0 2.01 0 1.02 0 0 Z " fill="#6F7272" transform="translate(240,227)"/>
<path d="M0 0 C1.32 0.66 2.64 1.32 4 2 C3.34 2 2.68 2 2 2 C2 3.32 2 4.64 2 6 C2.66 6.33 3.32 6.66 4 7 C2.68 6.67 1.36 6.34 0 6 C-0.38218767 4.34385343 -0.71395102 2.67542976 -1 1 C-0.67 0.67 -0.34 0.34 0 0 Z " fill="#669CB4" transform="translate(285,209)"/>
<path d="M0 0 C0.66 0 1.32 0 2 0 C2 0.66 2 1.32 2 2 C2.99 2.33 3.98 2.66 5 3 C4.01 3.495 4.01 3.495 3 4 C2.67 4.99 2.34 5.98 2 7 C1.34 7 0.68 7 0 7 C0 4.69 0 2.38 0 0 Z " fill="#1E2B39" transform="translate(145,209)"/>
<path d="M0 0 C0.99 0.33 1.98 0.66 3 1 C3.6875 3.0625 3.6875 3.0625 4 5 C2.35 5.33 0.7 5.66 -1 6 C-0.34 5.34 0.32 4.68 1 4 C0.34 3.67 -0.32 3.34 -1 3 C-0.67 2.01 -0.34 1.02 0 0 Z " fill="#6597B1" transform="translate(279,179)"/>
<path d="M0 0 C0.99 0.33 1.98 0.66 3 1 C3.6875 3.0625 3.6875 3.0625 4 5 C2.35 5.33 0.7 5.66 -1 6 C-0.34 5.34 0.32 4.68 1 4 C0.34 3.67 -0.32 3.34 -1 3 C-0.67 2.01 -0.34 1.02 0 0 Z " fill="#6597B1" transform="translate(135,179)"/>
<path d="M0 0 C1.98 0 3.96 0 6 0 C6 0.99 6 1.98 6 3 C4.02 3 2.04 3 0 3 C0 2.01 0 1.02 0 0 Z " fill="#737370" transform="translate(190,165)"/>
<path d="M0 0 C0.33 0.66 0.66 1.32 1 2 C1.66 2 2.32 2 3 2 C3 2.99 3 3.98 3 5 C1.02 5 -0.96 5 -3 5 C-3 4.01 -3 3.02 -3 2 C-2.01 2 -1.02 2 0 2 C0 1.34 0 0.68 0 0 Z " fill="#111117" transform="translate(252,163)"/>
<path d="M0 0 C1.32 0.66 2.64 1.32 4 2 C3.34 2 2.68 2 2 2 C2 3.32 2 4.64 2 6 C2.66 6.33 3.32 6.66 4 7 C2.68 6.67 1.36 6.34 0 6 C-0.38218767 4.34385343 -0.71395102 2.67542976 -1 1 C-0.67 0.67 -0.34 0.34 0 0 Z " fill="#679DBC" transform="translate(166,116)"/>
<path d="M0 0 C0.99 0.33 1.98 0.66 3 1 C2.67 1.33 2.34 1.66 2 2 C2.66 2.33 3.32 2.66 4 3 C3.67 3.99 3.34 4.98 3 6 C1.68 5.67 0.36 5.34 -1 5 C-0.67 3.35 -0.34 1.7 0 0 Z " fill="#6096B0" transform="translate(110,117)"/>
<path d="M0 0 C0.66 0 1.32 0 2 0 C3 3 3 3 2.0625 5.1875 C1.5365625 6.0846875 1.5365625 6.0846875 1 7 C-0.65 7 -2.3 7 -4 7 C-2.68 6.67 -1.36 6.34 0 6 C0 4.02 0 2.04 0 0 Z " fill="#1B222B" transform="translate(101,117)"/>
<path d="M0 0 C0.99 0.33 1.98 0.66 3 1 C2.34 1 1.68 1 1 1 C1 1.99 1 2.98 1 4 C1.99 4 2.98 4 4 4 C4 4.66 4 5.32 4 6 C2.35 5.67 0.7 5.34 -1 5 C-0.67 3.35 -0.34 1.7 0 0 Z " fill="#805A46" transform="translate(85,71)"/>
<path d="M0 0 C1.98 0 3.96 0 6 0 C6 0.99 6 1.98 6 3 C4.02 3 2.04 3 0 3 C0 2.01 0 1.02 0 0 Z " fill="#141313" transform="translate(92,72)"/>
<path d="M0 0 C1.32 0 2.64 0 4 0 C3.67 1.65 3.34 3.3 3 5 C2.01 4.67 1.02 4.34 0 4 C0 2.68 0 1.36 0 0 Z " fill="#63654D" transform="translate(179,41)"/>
<path d="M0 0 C1.98 0 3.96 0 6 0 C6 0.99 6 1.98 6 3 C4.02 3 2.04 3 0 3 C0 2.01 0 1.02 0 0 Z " fill="#171111" transform="translate(136,26)"/>
<path d="M0 0 C0.66 0 1.32 0 2 0 C2 1.65 2 3.3 2 5 C0.68 5 -0.64 5 -2 5 C-1.125 1.125 -1.125 1.125 0 0 Z " fill="#436676" transform="translate(173,225)"/>
<path d="M0 0 C0.66 0 1.32 0 2 0 C2.33 2.64 2.66 5.28 3 8 C1.68 7.67 0.36 7.34 -1 7 C-0.34 7 0.32 7 1 7 C1 6.01 1 5.02 1 4 C0.34 4 -0.32 4 -1 4 C-0.67 2.68 -0.34 1.36 0 0 Z " fill="#6097B1" transform="translate(179,223)"/>
<path d="M0 0 C0.99 0 1.98 0 3 0 C3 0.66 3 1.32 3 2 C2.34 2 1.68 2 1 2 C1 2.99 1 3.98 1 5 C1.66 5.33 2.32 5.66 3 6 C1.68 6 0.36 6 -1 6 C-1.042721 4.33388095 -1.04063832 2.66617115 -1 1 C-0.67 0.67 -0.34 0.34 0 0 Z " fill="#5E859A" transform="translate(248,163)"/>
<path d="M0 0 C0.99 0.33 1.98 0.66 3 1 C3 2.66666667 3 4.33333333 3 6 C1.68 5.67 0.36 5.34 -1 5 C-0.67 3.35 -0.34 1.7 0 0 Z " fill="#6399B5" transform="translate(85,148)"/>
<path d="M0 0 C0.99 0 1.98 0 3 0 C3.33 2.97 3.66 5.94 4 9 C2.68 8.67 1.36 8.34 0 8 C0.33 7.67 0.66 7.34 1 7 C1.19149081 3.36805359 1.19149081 3.36805359 0 0 Z " fill="#91644E" transform="translate(197,68)"/>
<path d="M0 0 C0.99 0 1.98 0 3 0 C3.66 1.98 4.32 3.96 5 6 C3.35 6 1.7 6 0 6 C0 4.02 0 2.04 0 0 Z " fill="#90926B" transform="translate(97,40)"/>
<path d="M0 0 C1.32 0 2.64 0 4 0 C4 0.99 4 1.98 4 3 C4.66 3.33 5.32 3.66 6 4 C3.50907189 5.24546405 2.58919267 4.7767578 0 4 C0 2.68 0 1.36 0 0 Z " fill="#4B4338" transform="translate(67,41)"/>
<path d="M0 0 C0.99 0 1.98 0 3 0 C2.6875 1.9375 2.6875 1.9375 2 4 C1.01 4.33 0.02 4.66 -1 5 C-1.66 4.34 -2.32 3.68 -3 3 C-2.34 3 -1.68 3 -1 3 C-0.67 2.01 -0.34 1.02 0 0 Z " fill="#1F262F" transform="translate(296,41)"/>
<path d="M0 0 C1.98 0.99 1.98 0.99 4 2 C3.34 2 2.68 2 2 2 C2 3.32 2 4.64 2 6 C2.66 6.33 3.32 6.66 4 7 C2.68 6.67 1.36 6.34 0 6 C0 4.02 0 2.04 0 0 Z " fill="#35927A" transform="translate(72,23)"/>
<path d="M0 0 C0.99 0.33 1.98 0.66 3 1 C2.67 2.98 2.34 4.96 2 7 C1.34 7 0.68 7 0 7 C-1.125 2.25 -1.125 2.25 0 0 Z " fill="#254C45" transform="translate(148,22)"/>
<path d="M0 0 C1.32 0.33 2.64 0.66 4 1 C4 2.66666667 4 4.33333333 4 6 C2.68 6 1.36 6 0 6 C0.185625 5.38125 0.37125 4.7625 0.5625 4.125 C1.23686176 1.95839822 1.23686176 1.95839822 0 0 Z " fill="#466236" transform="translate(160,9)"/>
</svg>
