<?xml version="1.0" encoding="UTF-8"?>
<svg version="1.1" xmlns="http://www.w3.org/2000/svg" width="567" height="238">
<path d="M0 0 C187.11 0 374.22 0 567 0 C567 78.54 567 157.08 567 238 C379.89 238 192.78 238 0 238 C0 159.46 0 80.92 0 0 Z " fill="#1A1A1A" transform="translate(0,0)"/>
<path d="M0 0 C0.66 0 1.32 0 2 0 C2.33 1.98 2.66 3.96 3 6 C3.33 5.01 3.66 4.02 4 3 C5.98 2.67 7.96 2.34 10 2 C10 1.34 10 0.68 10 0 C10.99 0 11.98 0 13 0 C13 0.66 13 1.32 13 2 C14.32 1.67 15.64 1.34 17 1 C17.66 3.31 18.32 5.62 19 8 C22.63 8 26.26 8 30 8 C30.268125 8.94875 30.53625 9.8975 30.8125 10.875 C31.74986588 14.25267273 31.74986588 14.25267273 35 16 C34.625 17.9375 34.625 17.9375 34 20 C31.14675563 21.42662219 29.16545451 21.31033868 26 21 C23.125 19 23.125 19 21 17 C21 18.32 21 19.64 21 21 C19.35 21 17.7 21 16 21 C16 21.66 16 22.32 16 23 C15.34 23 14.68 23 14 23 C13.67 21.68 13.34 20.36 13 19 C12.01 19 11.02 19 10 19 C9.67 19.66 9.34 20.32 9 21 C7.68 21 6.36 21 5 21 C4.34 19.02 3.68 17.04 3 15 C3 16.98 3 18.96 3 21 C1.68 21 0.36 21 -1 21 C-1.05395478 19.37536158 -1.09277195 17.75021459 -1.125 16.125 C-1.14820313 15.22007813 -1.17140625 14.31515625 -1.1953125 13.3828125 C-1 11 -1 11 1 9 C0.34 8.67 -0.32 8.34 -1 8 C-1.125 2.25 -1.125 2.25 0 0 Z " fill="#292F30" transform="translate(65,31)"/>
<path d="M0 0 C1.32 0 2.64 0 4 0 C4 1.65 4 3.3 4 5 C3.67 3.68 3.34 2.36 3 1 C2.34 1 1.68 1 1 1 C0.67 2.32 0.34 3.64 0 5 C-5 5 -10 5 -15 5 C-15.625 3.125 -15.625 3.125 -16 1 C-10.88231889 -4.11768111 -6.1614025 -3.08070125 0 0 Z " fill="#47493D" transform="translate(127,125)"/>
<path d="M0 0 C1.91015625 0.23046875 1.91015625 0.23046875 3.91015625 2.23046875 C6.01836422 1.91195105 6.01836422 1.91195105 7.91015625 1.23046875 C7.91015625 2.88046875 7.91015625 4.53046875 7.91015625 6.23046875 C5.92447917 6.16536458 3.93880208 6.10026042 1.953125 6.03515625 C-0.40344094 6.09792413 -0.40344094 6.09792413 -3.08984375 8.23046875 C-4.40984375 8.23046875 -5.72984375 8.23046875 -7.08984375 8.23046875 C-7.13226098 5.897521 -7.13077312 3.56344308 -7.08984375 1.23046875 C-5.19495423 -0.66442077 -2.51845229 0.05027763 0 0 Z " fill="#506E78" transform="translate(313.08984375,123.76953125)"/>
<path d="M0 0 C2.31 0.66 4.62 1.32 7 2 C7.33 3.65 7.66 5.3 8 7 C3.02002366 8.32799369 -1.85853736 8 -7 8 C-7 6.35 -7 4.7 -7 3 C-5.5459375 2.5359375 -5.5459375 2.5359375 -4.0625 2.0625 C-1.15934208 1.30476658 -1.15934208 1.30476658 0 0 Z " fill="#476167" transform="translate(139,135)"/>
<path d="M0 0 C0.66 0 1.32 0 2 0 C2 0.66 2 1.32 2 2 C2.99 2.33 3.98 2.66 5 3 C4.67 4.32 4.34 5.64 4 7 C-0.62 7 -5.24 7 -10 7 C-10 5.35 -10 3.7 -10 2 C-3.84765625 1.12109375 -3.84765625 1.12109375 -2 1 C-1.67 1.33 -1.34 1.66 -1 2 C-0.67 1.34 -0.34 0.68 0 0 Z " fill="#4C6C94" transform="translate(137,214)"/>
<path d="M0 0 C0.66 0 1.32 0 2 0 C2.66 0.66 3.32 1.32 4 2 C5.67004829 1.68404492 7.33637583 1.34820041 9 1 C11.8125 1.4375 11.8125 1.4375 14 2 C14 3.65 14 5.3 14 7 C13.0409375 6.7525 13.0409375 6.7525 12.0625 6.5 C10.19173179 5.96073333 10.19173179 5.96073333 9 6 C8.67 6.99 8.34 7.98 8 9 C6.68 8.67 5.36 8.34 4 8 C4 7.34 4 6.68 4 6 C2.35 6 0.7 6 -1 6 C-0.67 4.02 -0.34 2.04 0 0 Z " fill="#415F36" transform="translate(54,6)"/>
<path d="M0 0 C0.66 0 1.32 0 2 0 C2 0.66 2 1.32 2 2 C3.670625 1.7215625 3.670625 1.7215625 5.375 1.4375 C9 1 9 1 11 2 C12.66619446 2.0396713 14.33391013 2.04384447 16 2 C16 2.66 16 3.32 16 4 C15.34 4 14.68 4 14 4 C13.67 4.99 13.34 5.98 13 7 C8.71 7 4.42 7 0 7 C0 4.69 0 2.38 0 0 Z " fill="#66473A" transform="translate(374,97)"/>
<path d="M0 0 C0.66 0 1.32 0 2 0 C2 0.66 2 1.32 2 2 C3.670625 1.7215625 3.670625 1.7215625 5.375 1.4375 C9 1 9 1 11 2 C12.66619446 2.0396713 14.33391013 2.04384447 16 2 C16 2.66 16 3.32 16 4 C15.34 4 14.68 4 14 4 C13.67 4.99 13.34 5.98 13 7 C8.71 7 4.42 7 0 7 C0 4.69 0 2.38 0 0 Z " fill="#64473C" transform="translate(200,97)"/>
<path d="M0 0 C4 0 4 0 7 1 C6.01 1.33 5.02 1.66 4 2 C4 3.32 4 4.64 4 6 C4.5775 5.34 5.155 4.68 5.75 4 C8 2 8 2 12 2 C11.67 3.65 11.34 5.3 11 7 C6.71 7 2.42 7 -2 7 C-2.33 5.68 -2.66 4.36 -3 3 C-2.01 2.67 -1.02 2.34 0 2 C0 1.34 0 0.68 0 0 Z " fill="#737671" transform="translate(177,214)"/>
<path d="M0 0 C0.66 0 1.32 0 2 0 C2.33 0.33 2.66 0.66 3 1 C4.99950636 1.04443347 7.00038436 1.03920815 9 1 C10.32 1 11.64 1 13 1 C13.33 1.99 13.66 2.98 14 4 C13.67 4.66 13.34 5.32 13 6 C8.38 6 3.76 6 -1 6 C-1 3 -1 3 0 0 Z " fill="#7C5141" transform="translate(355,98)"/>
<path d="M0 0 C4.62 0 9.24 0 14 0 C14.33 1.65 14.66 3.3 15 5 C10.38 5 5.76 5 1 5 C0.67 3.35 0.34 1.7 0 0 Z " fill="#328470" transform="translate(153,190)"/>
<path d="M0 0 C0.680625 -0.01417969 1.36125 -0.02835938 2.0625 -0.04296875 C4 0.1875 4 0.1875 7 2.1875 C7.33 3.1775 7.66 4.1675 8 5.1875 C6.35 5.5175 4.7 5.8475 3 6.1875 C2.34 5.1975 1.68 4.2075 1 3.1875 C0.67 4.1775 0.34 5.1675 0 6.1875 C-1.98 6.1875 -3.96 6.1875 -6 6.1875 C-6.33 4.5375 -6.66 2.8875 -7 1.1875 C-4.35559361 0.3060312 -2.71939248 0.02575182 0 0 Z " fill="#568194" transform="translate(102,188.8125)"/>
<path d="M0 0 C2 3 2 3 2 6 C2.66 6 3.32 6 4 6 C3.67 4.02 3.34 2.04 3 0 C3.99 0 4.98 0 6 0 C6 1.65 6 3.3 6 5 C6.66 5 7.32 5 8 5 C8 4.01 8 3.02 8 2 C8.99 2.33 9.98 2.66 11 3 C11 4.32 11 5.64 11 7 C6.71 7 2.42 7 -2 7 C-2.33 5.35 -2.66 3.7 -3 2 C-2.01 2 -1.02 2 0 2 C0 1.34 0 0.68 0 0 Z " fill="#83835F" transform="translate(172,123)"/>
<path d="M0 0 C0.66 0 1.32 0 2 0 C2 2.64 2 5.28 2 8 C-1.3 8 -4.6 8 -8 8 C-8 6.02 -8 4.04 -8 2 C-6.865625 1.855625 -5.73125 1.71125 -4.5625 1.5625 C-1.19222799 1.38828522 -1.19222799 1.38828522 0 0 Z " fill="#5C3F34" transform="translate(472,96)"/>
<path d="M0 0 C0 0.99 0 1.98 0 3 C0.66 3 1.32 3 2 3 C2 2.01 2 1.02 2 0 C4.97 0.495 4.97 0.495 8 1 C8.33 2.32 8.66 3.64 9 5 C8.01 5.495 8.01 5.495 7 6 C7 5.01 7 4.02 7 3 C6.34 3 5.68 3 5 3 C5.33 3.99 5.66 4.98 6 6 C4.68 6 3.36 6 2 6 C2 5.34 2 4.68 2 4 C1.34 4 0.68 4 0 4 C0 4.66 0 5.32 0 6 C-1.65 6.33 -3.3 6.66 -5 7 C-5.33 5.35 -5.66 3.7 -6 2 C-2.25 0 -2.25 0 0 0 Z " fill="#328973" transform="translate(75,19)"/>
<path d="M0 0 C0.33 0 0.66 0 1 0 C1 2.31 1 4.62 1 7 C-3.62 7 -8.24 7 -13 7 C-13 5.35 -13 3.7 -13 2 C-8.71 2 -4.42 2 0 2 C0 1.34 0 0.68 0 0 Z " fill="#32587F" transform="translate(362,162)"/>
<path d="M0 0 C11.25 0 11.25 0 15 1 C14.67 1.99 14.34 2.98 14 4 C14 3.34 14 2.68 14 2 C13.34 2 12.68 2 12 2 C12 2.99 12 3.98 12 5 C11.34 5 10.68 5 10 5 C10 4.34 10 3.68 10 3 C9.34 3 8.68 3 8 3 C7.67 3.66 7.34 4.32 7 5 C5.125 5.5625 5.125 5.5625 3 6 C2.01 6.33 1.02 6.66 0 7 C0 4.69 0 2.38 0 0 Z " fill="#537B8C" transform="translate(132,46)"/>
<path d="M0 0 C4.62 0 9.24 0 14 0 C14 1.65 14 3.3 14 5 C12.741875 5.020625 11.48375 5.04125 10.1875 5.0625 C9.47980469 5.07410156 8.77210938 5.08570313 8.04296875 5.09765625 C6 5 6 5 3 4 C2.01 4.33 1.02 4.66 0 5 C0 3.35 0 1.7 0 0 Z " fill="#757559" transform="translate(238,216)"/>
<path d="M0 0 C2.05078125 0.03255208 4.1015625 0.06510417 6.15234375 0.09765625 C6.15234375 1.74765625 6.15234375 3.39765625 6.15234375 5.09765625 C4.83234375 5.42765625 3.51234375 5.75765625 2.15234375 6.09765625 C2.15234375 6.75765625 2.15234375 7.41765625 2.15234375 8.09765625 C0.50234375 8.09765625 -1.14765625 8.09765625 -2.84765625 8.09765625 C-2.89007348 5.7647085 -2.88858562 3.43063058 -2.84765625 1.09765625 C-1.84765625 0.09765625 -1.84765625 0.09765625 0 0 Z " fill="#5E3E32" transform="translate(303.84765625,97.90234375)"/>
<path d="M0 0 C1.84765625 0.33984375 1.84765625 0.33984375 4.0625 0.9375 C5.16271484 1.22947266 5.16271484 1.22947266 6.28515625 1.52734375 C7.13400391 1.76130859 7.13400391 1.76130859 8 2 C7.814375 2.639375 7.62875 3.27875 7.4375 3.9375 C7.293125 4.618125 7.14875 5.29875 7 6 C7.33 6.33 7.66 6.66 8 7 C7.67 7.99 7.34 8.98 7 10 C6.443125 9.855625 5.88625 9.71125 5.3125 9.5625 C2.88615805 8.97230872 0.45093655 8.476571 -2 8 C-1.34 7.67 -0.68 7.34 0 7 C-0.185625 6.030625 -0.37125 5.06125 -0.5625 4.0625 C-0.706875 3.051875 -0.85125 2.04125 -1 1 C-0.67 0.67 -0.34 0.34 0 0 Z " fill="#517281" transform="translate(234,122)"/>
<path d="M0 0 C0.66 0 1.32 0 2 0 C2.33 0.99 2.66 1.98 3 3 C3.66 2.34 4.32 1.68 5 1 C5.99 1 6.98 1 8 1 C8 3.31 8 5.62 8 8 C6.68 8.33 5.36 8.66 4 9 C3.34 7.68 2.68 6.36 2 5 C0.02 5.99 0.02 5.99 -2 7 C-1.125 1.125 -1.125 1.125 0 0 Z " fill="#307B69" transform="translate(44,19)"/>
<path d="M0 0 C2.31 0.66 4.62 1.32 7 2 C7.33 3.65 7.66 5.3 8 7 C7.01 7.33 6.02 7.66 5 8 C5 8.66 5 9.32 5 10 C4.34 10 3.68 10 3 10 C2.67 9.34 2.34 8.68 2 8 C1.01 8 0.02 8 -1 8 C-0.67 5.36 -0.34 2.72 0 0 Z " fill="#554238" transform="translate(487,96)"/>
<path d="M0 0 C0.33 0.66 0.66 1.32 1 2 C5.62 2 10.24 2 15 2 C14.67 2.66 14.34 3.32 14 4 C13.34 3.67 12.68 3.34 12 3 C12 3.99 12 4.98 12 6 C7.545 6.495 7.545 6.495 3 7 C3 5.68 3 4.36 3 3 C2.34 3 1.68 3 1 3 C0.67 3.99 0.34 4.98 0 6 C0 4.02 0 2.04 0 0 Z " fill="#7E8462" transform="translate(169,71)"/>
<path d="M0 0 C0.33 2.64 0.66 5.28 1 8 C-1.31 8 -3.62 8 -6 8 C-5.67 6.68 -5.34 5.36 -5 4 C-5.66 4 -6.32 4 -7 4 C-7.33 4.99 -7.66 5.98 -8 7 C-8 5.02 -8 3.04 -8 1 C-5.23735711 0.40267181 -2.83967231 0 0 0 Z " fill="#43626F" transform="translate(156,31)"/>
<path d="M0 0 C0.66 0 1.32 0 2 0 C2.66 0.66 3.32 1.32 4 2 C4.33 1.34 4.66 0.68 5 0 C5.99 0.33 6.98 0.66 8 1 C8 3.31 8 5.62 8 8 C6.68 8.33 5.36 8.66 4 9 C4 8.34 4 7.68 4 7 C3.34 7 2.68 7 2 7 C2 7.66 2 8.32 2 9 C1.34 9 0.68 9 0 9 C0 6.03 0 3.06 0 0 Z " fill="#5D4538" transform="translate(470,214)"/>
<path d="M0 0 C1.23556641 0.01740234 1.23556641 0.01740234 2.49609375 0.03515625 C3.32238281 0.04417969 4.14867187 0.05320313 5 0.0625 C5.63808594 0.07410156 6.27617187 0.08570313 6.93359375 0.09765625 C6.93359375 1.74765625 6.93359375 3.39765625 6.93359375 5.09765625 C6.60359375 3.77765625 6.27359375 2.45765625 5.93359375 1.09765625 C5.27359375 1.09765625 4.61359375 1.09765625 3.93359375 1.09765625 C3.93359375 2.41765625 3.93359375 3.73765625 3.93359375 5.09765625 C0.93359375 7.09765625 0.93359375 7.09765625 -3.06640625 7.09765625 C-3.10894981 5.09810879 -3.10721408 3.09723989 -3.06640625 1.09765625 C-2.06640625 0.09765625 -2.06640625 0.09765625 0 0 Z " fill="#6094AA" transform="translate(219.06640625,150.90234375)"/>
<path d="M0 0 C1.23556641 0.01740234 1.23556641 0.01740234 2.49609375 0.03515625 C3.32238281 0.04417969 4.14867187 0.05320313 5 0.0625 C5.63808594 0.07410156 6.27617187 0.08570313 6.93359375 0.09765625 C6.60359375 1.41765625 6.27359375 2.73765625 5.93359375 4.09765625 C5.93359375 3.10765625 5.93359375 2.11765625 5.93359375 1.09765625 C5.27359375 1.09765625 4.61359375 1.09765625 3.93359375 1.09765625 C3.93359375 2.41765625 3.93359375 3.73765625 3.93359375 5.09765625 C0.93359375 7.09765625 0.93359375 7.09765625 -3.06640625 7.09765625 C-3.10894981 5.09810879 -3.10721408 3.09723989 -3.06640625 1.09765625 C-2.06640625 0.09765625 -2.06640625 0.09765625 0 0 Z " fill="#578197" transform="translate(219.06640625,137.90234375)"/>
<path d="M0 0 C3.3 0 6.6 0 10 0 C10 1.65 10 3.3 10 5 C7.03 5 4.06 5 1 5 C0.67 3.35 0.34 1.7 0 0 Z " fill="#5E8CA4" transform="translate(148,216)"/>
<path d="M0 0 C2.64 0 5.28 0 8 0 C8.33 1.65 8.66 3.3 9 5 C5.88228073 6.60339848 4.60988311 7.18974141 1.1875 6.125 C0.465625 5.75375 -0.25625 5.3825 -1 5 C-0.67 3.35 -0.34 1.7 0 0 Z " fill="#686950" transform="translate(154,124)"/>
<path d="M0 0 C3.125 -0.1875 3.125 -0.1875 6 0 C6.33 2.64 6.66 5.28 7 8 C5.0625 7.6875 5.0625 7.6875 3 7 C2.67 6.01 2.34 5.02 2 4 C1.67 5.32 1.34 6.64 1 8 C0.34 8 -0.32 8 -1 8 C-1.625 5.6875 -1.625 5.6875 -2 3 C-1.34 2.01 -0.68 1.02 0 0 Z " fill="#543E36" transform="translate(150,96)"/>
<path d="M0 0 C2.64 0.33 5.28 0.66 8 1 C8.5625 2.9375 8.5625 2.9375 9 5 C8 6 8 6 5.93359375 6.09765625 C5.10988281 6.08605469 4.28617187 6.07445312 3.4375 6.0625 C2.61121094 6.05347656 1.78492188 6.04445312 0.93359375 6.03515625 C0.29550781 6.02355469 -0.34257812 6.01195312 -1 6 C-0.67 4.02 -0.34 2.04 0 0 Z " fill="#4C6C7B" transform="translate(291,124)"/>
<path d="M0 0 C0.66 0 1.32 0 2 0 C2 0.66 2 1.32 2 2 C4.64 2 7.28 2 10 2 C9.67 3.65 9.34 5.3 9 7 C6.03 7 3.06 7 0 7 C0 4.69 0 2.38 0 0 Z " fill="#507D94" transform="translate(237,162)"/>
<path d="M0 0 C2.31 0.33 4.62 0.66 7 1 C7 2.65 7 4.3 7 6 C7.66 6.33 8.32 6.66 9 7 C8.2575 6.814375 7.515 6.62875 6.75 6.4375 C4.05009037 6.00796892 2.55368923 6.14877026 0 7 C-0.93423645 3.98968256 -1.04449911 3.13349732 0 0 Z " fill="#3D5E71" transform="translate(270,162)"/>
<path d="M0 0 C0.99 0 1.98 0 3 0 C3 0.66 3 1.32 3 2 C4.65 2 6.3 2 8 2 C8.33 3.32 8.66 4.64 9 6 C8.67 5.34 8.34 4.68 8 4 C7.34 4 6.68 4 6 4 C6 4.99 6 5.98 6 7 C4.02 7.33 2.04 7.66 0 8 C0 5.36 0 2.72 0 0 Z " fill="#2A6353" transform="translate(101,18)"/>
<path d="M0 0 C1.32 0.33 2.64 0.66 4 1 C4 1.99 4 2.98 4 4 C3.34 4 2.68 4 2 4 C2 4.66 2 5.32 2 6 C2.66 6.33 3.32 6.66 4 7 C1.69 7 -0.62 7 -3 7 C-3 5.68 -3 4.36 -3 3 C-3.66 3 -4.32 3 -5 3 C-5.33 4.32 -5.66 5.64 -6 7 C-6 5.35 -6 3.7 -6 2 C-4.35 2 -2.7 2 -1 2 C-0.67 1.34 -0.34 0.68 0 0 Z " fill="#4D7586" transform="translate(254,149)"/>
<path d="M0 0 C2.72869407 0.03287583 5.2966618 0.56397771 8 1 C7.125 4.875 7.125 4.875 6 6 C3.66702567 6.04092937 1.33294775 6.04241723 -1 6 C-1.625 4.125 -1.625 4.125 -2 2 C-1.34 1.34 -0.68 0.68 0 0 Z " fill="#727556" transform="translate(144,72)"/>
<path d="M0 0 C2.97 0 5.94 0 9 0 C9.33 1.65 9.66 3.3 10 5 C6.7 5 3.4 5 0 5 C0 3.35 0 1.7 0 0 Z " fill="#7F7C59" transform="translate(285,216)"/>
<path d="M0 0 C0.99 0.33 1.98 0.66 3 1 C3.33 1.99 3.66 2.98 4 4 C5.32 3.34 6.64 2.68 8 2 C9.125 5.75 9.125 5.75 8 8 C5.36 8 2.72 8 0 8 C0 5.36 0 2.72 0 0 Z " fill="#4F7682" transform="translate(101,44)"/>
<path d="M0 0 C1.52519276 0.08937803 3.04681929 0.24537146 4.5625 0.4375 C5.80193359 0.59025391 5.80193359 0.59025391 7.06640625 0.74609375 C7.70449219 0.82988281 8.34257812 0.91367187 9 1 C9 2.32 9 3.64 9 5 C8.2575 4.979375 7.515 4.95875 6.75 4.9375 C4.29537721 4.99328688 2.33890739 5.3069904 0 6 C-0.38218767 4.34385343 -0.71395102 2.67542976 -1 1 C-0.67 0.67 -0.34 0.34 0 0 Z " fill="#5E93AD" transform="translate(159,46)"/>
<path d="M0 0 C0.33 2.64 0.66 5.28 1 8 C0.401875 7.814375 -0.19625 7.62875 -0.8125 7.4375 C-3.16408762 6.77906313 -3.16408762 6.77906313 -6 8 C-5.67 6.68 -5.34 5.36 -5 4 C-5.66 4 -6.32 4 -7 4 C-7.33 4.99 -7.66 5.98 -8 7 C-8 5.02 -8 3.04 -8 1 C-5.23735711 0.40267181 -2.83967231 0 0 0 Z " fill="#517D8D" transform="translate(156,44)"/>
<path d="M0 0 C1.52519276 0.08937803 3.04681929 0.24537146 4.5625 0.4375 C5.80193359 0.59025391 5.80193359 0.59025391 7.06640625 0.74609375 C7.70449219 0.82988281 8.34257812 0.91367187 9 1 C9 2.32 9 3.64 9 5 C8.2575 4.979375 7.515 4.95875 6.75 4.9375 C4.29537721 4.99328688 2.33890739 5.3069904 0 6 C-0.38218767 4.34385343 -0.71395102 2.67542976 -1 1 C-0.67 0.67 -0.34 0.34 0 0 Z " fill="#5E92AD" transform="translate(159,33)"/>
<path d="M0 0 C0.99 0 1.98 0 3 0 C3.33 0.66 3.66 1.32 4 2 C5.32 1.34 6.64 0.68 8 0 C9 1 9 1 9.0625 3.5625 C9.041875 4.366875 9.02125 5.17125 9 6 C6.03 6 3.06 6 0 6 C0 4.02 0 2.04 0 0 Z " fill="#52798C" transform="translate(101,33)"/>
<path d="M0 0 C0.66 0 1.32 0 2 0 C2.33 2.64 2.66 5.28 3 8 C1.02 8 -0.96 8 -3 8 C-3 6.68 -3 5.36 -3 4 C-3.66 4 -4.32 4 -5 4 C-5.33 4.99 -5.66 5.98 -6 7 C-6 5.68 -6 4.36 -6 3 C-4.02 2.67 -2.04 2.34 0 2 C0 1.34 0 0.68 0 0 Z " fill="#6C6C55" transform="translate(75,31)"/>
<path d="M0 0 C1.23556641 0.01740234 1.23556641 0.01740234 2.49609375 0.03515625 C3.32238281 0.04417969 4.14867187 0.05320312 5 0.0625 C5.63808594 0.07410156 6.27617187 0.08570312 6.93359375 0.09765625 C6.05859375 3.97265625 6.05859375 3.97265625 4.93359375 5.09765625 C2.60061942 5.13858562 0.2665415 5.14007348 -2.06640625 5.09765625 C-2.62890625 3.16015625 -2.62890625 3.16015625 -3.06640625 1.09765625 C-2.06640625 0.09765625 -2.06640625 0.09765625 0 0 Z " fill="#4E788A" transform="translate(266.06640625,124.90234375)"/>
<path d="M0 0 C3.3 0 6.6 0 10 0 C10 0.66 10 1.32 10 2 C9.34 2 8.68 2 8 2 C8.33 3.32 8.66 4.64 9 6 C5.72724974 6 3.153368 5.70074844 0 5 C0 3.35 0 1.7 0 0 Z " fill="#2D6856" transform="translate(58,20)"/>
<path d="M0 0 C0 3 0 3 -2 6 C-5.125 6.1875 -5.125 6.1875 -8 6 C-8.33 4.35 -8.66 2.7 -9 1 C-5.8035914 -0.06546953 -3.34252724 -0.07427838 0 0 Z " fill="#4D7387" transform="translate(109,202)"/>
<path d="M0 0 C0.66 0.33 1.32 0.66 2 1 C2.625 4.0625 2.625 4.0625 3 7 C0.03 7 -2.94 7 -6 7 C-6 4 -6 4 -5 1 C-3.02 1.495 -3.02 1.495 -1 2 C-0.67 1.34 -0.34 0.68 0 0 Z " fill="#4B6B7C" transform="translate(212,136)"/>
<path d="M0 0 C0.66 0 1.32 0 2 0 C2.33 2.31 2.66 4.62 3 7 C0.36 7 -2.28 7 -5 7 C-5.33 5.02 -5.66 3.04 -6 1 C-4.68 1 -3.36 1 -2 1 C-1.67 1.66 -1.34 2.32 -1 3 C-0.67 2.01 -0.34 1.02 0 0 Z " fill="#6B6C52" transform="translate(191,123)"/>
<path d="M0 0 C0 0.99 0 1.98 0 3 C-0.66 2.67 -1.32 2.34 -2 2 C-2 3.32 -2 4.64 -2 6 C-3.98 6 -5.96 6 -8 6 C-8.33 4.35 -8.66 2.7 -9 1 C-5.8035914 -0.06546953 -3.34252724 -0.07427838 0 0 Z " fill="#6D4C3D" transform="translate(531,98)"/>
<path d="M0 0 C2.64 0 5.28 0 8 0 C8.33 1.65 8.66 3.3 9 5 C7.68 5.33 6.36 5.66 5 6 C5 5.01 5 4.02 5 3 C4.01 4.485 4.01 4.485 3 6 C1.68 5.67 0.36 5.34 -1 5 C-0.67 3.35 -0.34 1.7 0 0 Z " fill="#747256" transform="translate(154,72)"/>
<path d="M0 0 C0.99 0 1.98 0 3 0 C2.34 2.31 1.68 4.62 1 7 C0.34 7 -0.32 7 -1 7 C-1.33 6.34 -1.66 5.68 -2 5 C-2.33 5.99 -2.66 6.98 -3 8 C-4.32 7.67 -5.64 7.34 -7 7 C-6.67 5.35 -6.34 3.7 -6 2 C-4.35 2 -2.7 2 -1 2 C-0.67 1.34 -0.34 0.68 0 0 Z " fill="#315374" transform="translate(44,31)"/>
<path d="M0 0 C4.455 0.99 4.455 0.99 9 2 C8.67 2.66 8.34 3.32 8 4 C7.34 3.67 6.68 3.34 6 3 C6 4.32 6 5.64 6 7 C4.35 7 2.7 7 1 7 C-0.0625 4.625 -0.0625 4.625 -1 2 C-0.67 1.34 -0.34 0.68 0 0 Z " fill="#6A6B50" transform="translate(254,214)"/>
<path d="M0 0 C2.31 0.66 4.62 1.32 7 2 C7.33 3.32 7.66 4.64 8 6 C6.68 6.33 5.36 6.66 4 7 C3.67 6.01 3.34 5.02 3 4 C2.34 4 1.68 4 1 4 C1 4.99 1 5.98 1 7 C0.34 7 -0.32 7 -1 7 C-1.04254356 5.00045254 -1.04080783 2.99958364 -1 1 C-0.67 0.67 -0.34 0.34 0 0 Z " fill="#734D6E" transform="translate(76,201)"/>
<path d="M0 0 C0.33 1.98 0.66 3.96 1 6 C-1.97 6 -4.94 6 -8 6 C-8 4.35 -8 2.7 -8 1 C-5.23735711 0.40267181 -2.83967231 0 0 0 Z " fill="#446678" transform="translate(388,163)"/>
<path d="M0 0 C2.97 0 5.94 0 9 0 C8.67 1.65 8.34 3.3 8 5 C5.03 5 2.06 5 -1 5 C-0.67 3.35 -0.34 1.7 0 0 Z " fill="#5A8494" transform="translate(75,138)"/>
<path d="M0 0 C1.23556641 0.01740234 1.23556641 0.01740234 2.49609375 0.03515625 C3.32238281 0.04417969 4.14867187 0.05320313 5 0.0625 C5.63808594 0.07410156 6.27617187 0.08570313 6.93359375 0.09765625 C6.93359375 1.74765625 6.93359375 3.39765625 6.93359375 5.09765625 C6.60359375 3.77765625 6.27359375 2.45765625 5.93359375 1.09765625 C5.27359375 1.09765625 4.61359375 1.09765625 3.93359375 1.09765625 C3.93359375 2.41765625 3.93359375 3.73765625 3.93359375 5.09765625 C1.95359375 5.09765625 -0.02640625 5.09765625 -2.06640625 5.09765625 C-2.62890625 3.16015625 -2.62890625 3.16015625 -3.06640625 1.09765625 C-2.06640625 0.09765625 -2.06640625 0.09765625 0 0 Z " fill="#4E7B95" transform="translate(245.06640625,137.90234375)"/>
<path d="M0 0 C2.97 0.33 5.94 0.66 9 1 C8.67 1.66 8.34 2.32 8 3 C7.34 2.67 6.68 2.34 6 2 C6 3.32 6 4.64 6 6 C4.02 6 2.04 6 0 6 C-1 3 -1 3 0 0 Z " fill="#787E63" transform="translate(80,72)"/>
<path d="M0 0 C0.66 0 1.32 0 2 0 C1.34 2.64 0.68 5.28 0 8 C-0.66 8 -1.32 8 -2 8 C-2 7.01 -2 6.02 -2 5 C-2.66 5.66 -3.32 6.32 -4 7 C-4.99 7.33 -5.98 7.66 -7 8 C-7.33 6.35 -7.66 4.7 -8 3 C-5.66666667 3 -3.33333333 3 -1 3 C-0.67 2.01 -0.34 1.02 0 0 Z " fill="#33597D" transform="translate(45,70)"/>
<path d="M0 0 C3.27275026 0 5.846632 0.29925156 9 1 C9 1.66 9 2.32 9 3 C8.34 3 7.68 3 7 3 C6.67 3.66 6.34 4.32 6 5 C2.9375 5.625 2.9375 5.625 0 6 C-0.38218767 4.34385343 -0.71395102 2.67542976 -1 1 C-0.67 0.67 -0.34 0.34 0 0 Z " fill="#395230" transform="translate(112,7)"/>
<path d="M0 0 C2.97 0 5.94 0 9 0 C9 1.65 9 3.3 9 5 C6.03 5 3.06 5 0 5 C0 3.33333333 0 1.66666667 0 0 Z " fill="#5A889E" transform="translate(138,164)"/>
<path d="M0 0 C0.33 1.98 0.66 3.96 1 6 C-1.97 6 -4.94 6 -8 6 C-7.67 4.35 -7.34 2.7 -7 1 C-4.50935112 0.31292445 -2.62113708 0 0 0 Z " fill="#52778E" transform="translate(161,163)"/>
<path d="M0 0 C0.99 0 1.98 0 3 0 C3.33 0.66 3.66 1.32 4 2 C5.32 1.34 6.64 0.68 8 0 C8.33 1.65 8.66 3.3 9 5 C5.8035914 6.06546953 3.34252724 6.07427838 0 6 C0 4 0 2 0 0 Z " fill="#5C7F8E" transform="translate(217,72)"/>
<path d="M0 0 C0.66 0 1.32 0 2 0 C2.33 2.31 2.66 4.62 3 7 C0.03 7 -2.94 7 -6 7 C-6 5.35 -6 3.7 -6 2 C-4.68 2 -3.36 2 -2 2 C-3 4 -3 4 -4 5 C-3.01 5 -2.02 5 -1 5 C-0.67 3.35 -0.34 1.7 0 0 Z " fill="#4B6F82" transform="translate(328,162)"/>
<path d="M0 0 C0.99 0.33 1.98 0.66 3 1 C3 2.65 3 4.3 3 6 C1.02 6 -0.96 6 -3 6 C-3 4.68 -3 3.36 -3 2 C-3.66 2 -4.32 2 -5 2 C-5.33 2.99 -5.66 3.98 -6 5 C-6 3.68 -6 2.36 -6 1 C-4.7934375 1.0309375 -4.7934375 1.0309375 -3.5625 1.0625 C-1.06645115 1.29633621 -1.06645115 1.29633621 0 0 Z " fill="#567F94" transform="translate(249,124)"/>
<path d="M0 0 C0.78375 0.04125 1.5675 0.0825 2.375 0.125 C2.375 0.785 2.375 1.445 2.375 2.125 C3.365 2.455 4.355 2.785 5.375 3.125 C5.375 3.785 5.375 4.445 5.375 5.125 C2.075 5.125 -1.225 5.125 -4.625 5.125 C-4.625 1.22254579 -3.95783286 0.18846823 0 0 Z " fill="#737558" transform="translate(210.625,124.875)"/>
<path d="M0 0 C1.23556641 0.01740234 1.23556641 0.01740234 2.49609375 0.03515625 C3.32238281 0.04417969 4.14867187 0.05320312 5 0.0625 C5.63808594 0.07410156 6.27617187 0.08570312 6.93359375 0.09765625 C6.93359375 1.74765625 6.93359375 3.39765625 6.93359375 5.09765625 C6.60359375 3.77765625 6.27359375 2.45765625 5.93359375 1.09765625 C5.27359375 1.09765625 4.61359375 1.09765625 3.93359375 1.09765625 C3.60359375 2.41765625 3.27359375 3.73765625 2.93359375 5.09765625 C1.28359375 5.09765625 -0.36640625 5.09765625 -2.06640625 5.09765625 C-2.62890625 3.16015625 -2.62890625 3.16015625 -3.06640625 1.09765625 C-2.06640625 0.09765625 -2.06640625 0.09765625 0 0 Z " fill="#808362" transform="translate(124.06640625,124.90234375)"/>
<path d="M0 0 C0.99 0.33 1.98 0.66 3 1 C3.66 0.67 4.32 0.34 5 0 C6.32 0 7.64 0 9 0 C9 1.65 9 3.3 9 5 C6.03 5 3.06 5 0 5 C0 3.35 0 1.7 0 0 Z " fill="#547C94" transform="translate(454,216)"/>
<path d="M0 0 C1.23556641 0.01740234 1.23556641 0.01740234 2.49609375 0.03515625 C3.32238281 0.04417969 4.14867187 0.05320313 5 0.0625 C5.63808594 0.07410156 6.27617187 0.08570313 6.93359375 0.09765625 C6.93359375 0.75765625 6.93359375 1.41765625 6.93359375 2.09765625 C6.27359375 2.09765625 5.61359375 2.09765625 4.93359375 2.09765625 C4.60359375 3.08765625 4.27359375 4.07765625 3.93359375 5.09765625 C1.95359375 5.09765625 -0.02640625 5.09765625 -2.06640625 5.09765625 C-2.62890625 3.16015625 -2.62890625 3.16015625 -3.06640625 1.09765625 C-2.06640625 0.09765625 -2.06640625 0.09765625 0 0 Z " fill="#567E8C" transform="translate(309.06640625,163.90234375)"/>
<path d="M0 0 C1.98 0 3.96 0 6 0 C6 0.99 6 1.98 6 3 C6.66 3 7.32 3 8 3 C8.33 2.01 8.66 1.02 9 0 C9 1.65 9 3.3 9 5 C6.03 5 3.06 5 0 5 C0 3.33333333 0 1.66666667 0 0 Z " fill="#7D5443" transform="translate(428,99)"/>
<path d="M0 0 C2.97 0 5.94 0 9 0 C9 1.65 9 3.3 9 5 C8.67 3.68 8.34 2.36 8 1 C7.34 1 6.68 1 6 1 C6 2.32 6 3.64 6 5 C4.02 5 2.04 5 0 5 C0 3.33333333 0 1.66666667 0 0 Z " fill="#345D85" transform="translate(217,164)"/>
<path d="M0 0 C2.97 0 5.94 0 9 0 C9.33 1.65 9.66 3.3 10 5 C8.35 5 6.7 5 5 5 C5 4.01 5 3.02 5 2 C4.34 2 3.68 2 3 2 C2.67 2.99 2.34 3.98 2 5 C1.34 5 0.68 5 0 5 C0 3.35 0 1.7 0 0 Z " fill="#714E76" transform="translate(95,164)"/>
<path d="M0 0 C1.23556641 0.01740234 1.23556641 0.01740234 2.49609375 0.03515625 C3.32238281 0.04417969 4.14867188 0.05320313 5 0.0625 C5.63808594 0.07410156 6.27617188 0.08570313 6.93359375 0.09765625 C6.60359375 0.75765625 6.27359375 1.41765625 5.93359375 2.09765625 C5.27359375 1.76765625 4.61359375 1.43765625 3.93359375 1.09765625 C3.93359375 2.41765625 3.93359375 3.73765625 3.93359375 5.09765625 C1.95359375 5.09765625 -0.02640625 5.09765625 -2.06640625 5.09765625 C-2.62890625 3.16015625 -2.62890625 3.16015625 -3.06640625 1.09765625 C-2.06640625 0.09765625 -2.06640625 0.09765625 0 0 Z " fill="#547A92" transform="translate(119.06640625,137.90234375)"/>
<path d="M0 0 C0 1.65 0 3.3 0 5 C-3 5 -6 5 -9 5 C-9 3.35 -9 1.7 -9 0 C-3.375 -1.125 -3.375 -1.125 0 0 Z " fill="#808765" transform="translate(204,125)"/>
<path d="M0 0 C0.66 0 1.32 0 2 0 C2.33 2.31 2.66 4.62 3 7 C0.03 7 -2.94 7 -6 7 C-6 5.35 -6 3.7 -6 2 C-5.01 3.485 -5.01 3.485 -4 5 C-3.67 4.01 -3.34 3.02 -3 2 C-2.34 2 -1.68 2 -1 2 C-0.67 1.34 -0.34 0.68 0 0 Z " fill="#7E7D5C" transform="translate(149,123)"/>
<path d="M0 0 C0.66 0 1.32 0 2 0 C3.125 3.75 3.125 3.75 2 6 C0.68 5.67 -0.64 5.34 -2 5 C-2 4.34 -2 3.68 -2 3 C-2.66 3 -3.32 3 -4 3 C-4.33 3.99 -4.66 4.98 -5 6 C-5.66 6 -6.32 6 -7 6 C-7 4.35 -7 2.7 -7 1 C-5.5459375 1.0309375 -5.5459375 1.0309375 -4.0625 1.0625 C-1.12534105 1.35618499 -1.12534105 1.35618499 0 0 Z " fill="#7A8163" transform="translate(102,72)"/>
<path d="M0 0 C0.99 0.33 1.98 0.66 3 1 C3.66 0.67 4.32 0.34 5 0 C6.32 0 7.64 0 9 0 C8.67 1.65 8.34 3.3 8 5 C5.36 5 2.72 5 0 5 C0 3.35 0 1.7 0 0 Z " fill="#578399" transform="translate(412,216)"/>
<path d="M0 0 C1.98 0 3.96 0 6 0 C5 3 5 3 3 6 C-0.125 6.1875 -0.125 6.1875 -3 6 C-3 4.35 -3 2.7 -3 1 C-2.01 2.485 -2.01 2.485 -1 4 C-0.67 2.68 -0.34 1.36 0 0 Z " fill="#53768C" transform="translate(204,189)"/>
<path d="M0 0 C0.33 0 0.66 0 1 0 C1.33 2.31 1.66 4.62 2 7 C-1 7 -4 7 -7 7 C-7 5.35 -7 3.7 -7 2 C-4.525 2.495 -4.525 2.495 -2 3 C-1.34 2.01 -0.68 1.02 0 0 Z " fill="#4D7485" transform="translate(139,149)"/>
<path d="M0 0 C0.804375 0.185625 1.60875 0.37125 2.4375 0.5625 C3.283125 0.706875 4.12875 0.85125 5 1 C5.33 0.67 5.66 0.34 6 0 C7.32 0 8.64 0 10 0 C10 1.65 10 3.3 10 5 C7.69 5 5.38 5 3 5 C3 3.68 3 2.36 3 1 C2.34 1 1.68 1 1 1 C0.67 1.99 0.34 2.98 0 4 C0 2.68 0 1.36 0 0 Z " fill="#5A85A0" transform="translate(311,125)"/>
<path d="M0 0 C2.31 0 4.62 0 7 0 C6.34 1.65 5.68 3.3 5 5 C2.69 5 0.38 5 -2 5 C-2 4.01 -2 3.02 -2 2 C-1.34 2 -0.68 2 0 2 C0 1.34 0 0.68 0 0 Z " fill="#774F3F" transform="translate(219,99)"/>
<path d="M0 0 C1.32 0 2.64 0 4 0 C4 2.31 4 4.62 4 7 C2.0625 7.5625 2.0625 7.5625 0 8 C-0.33 7.67 -0.66 7.34 -1 7 C-0.71269945 4.66055264 -0.38063221 2.3260857 0 0 Z " fill="#7F7F60" transform="translate(59,72)"/>
<path d="M0 0 C0.66 0 1.32 0 2 0 C2 1.65 2 3.3 2 5 C3.65 5 5.3 5 7 5 C6.67 6.32 6.34 7.64 6 9 C5.01 9 4.02 9 3 9 C3 8.34 3 7.68 3 7 C1.35 7 -0.3 7 -2 7 C-1.34 6.67 -0.68 6.34 0 6 C-0.2784375 4.7934375 -0.2784375 4.7934375 -0.5625 3.5625 C-0.706875 2.716875 -0.85125 1.87125 -1 1 C-0.67 0.67 -0.34 0.34 0 0 Z " fill="#54696A" transform="translate(97,136)"/>
<path d="M0 0 C1.11375 0.2475 1.11375 0.2475 2.25 0.5 C5.19006578 1.11925696 5.19006578 1.11925696 9 1 C9 2.65 9 4.3 9 6 C6.03824877 5.38722388 4.61941217 4.74627478 2 3 C1.34 3 0.68 3 0 3 C0 2.01 0 1.02 0 0 Z " fill="#3B4E2E" transform="translate(59,7)"/>
<path d="M0 0 C2.97 0 5.94 0 9 0 C9 1.32 9 2.64 9 4 C8.01 4.33 7.02 4.66 6 5 C5.67 4.01 5.34 3.02 5 2 C4.34 2 3.68 2 3 2 C2.67 2.99 2.34 3.98 2 5 C1.34 5 0.68 5 0 5 C0 3.35 0 1.7 0 0 Z " fill="#7C537B" transform="translate(74,164)"/>
<path d="M0 0 C0 1.98 0 3.96 0 6 C-4.75 7 -4.75 7 -7 7 C-7 5.35 -7 3.7 -7 2 C-1.125 0 -1.125 0 0 0 Z " fill="#3A5664" transform="translate(139,136)"/>
<path d="M0 0 C1.32 0.33 2.64 0.66 4 1 C4 2.32 4 3.64 4 5 C0.17010894 6.80230168 -2.78121808 7.19622241 -7 7 C-7 6.34 -7 5.68 -7 5 C-5.02 5 -3.04 5 -1 5 C-0.67 3.35 -0.34 1.7 0 0 Z " fill="#737357" transform="translate(138,125)"/>
<path d="M0 0 C0.66 0 1.32 0 2 0 C2.33 1.32 2.66 2.64 3 4 C4.32 3.67 5.64 3.34 7 3 C6.01 3.495 6.01 3.495 5 4 C5.99 5.32 6.98 6.64 8 8 C5.03 8 2.06 8 -1 8 C-0.67 5.36 -0.34 2.72 0 0 Z " fill="#797958" transform="translate(102,122)"/>
<path d="M0 0 C2.475 0.495 2.475 0.495 5 1 C4.67 2.65 4.34 4.3 4 6 C3.34 6 2.68 6 2 6 C2 6.66 2 7.32 2 8 C1.34 8 0.68 8 0 8 C0 5.36 0 2.72 0 0 Z " fill="#4F7381" transform="translate(79,46)"/>
<path d="M0 0 C1.67542976 0.28604898 3.34385343 0.61781233 5 1 C5 2.98 5 4.96 5 7 C3.35 7 1.7 7 0 7 C0.20625 6.38125 0.4125 5.7625 0.625 5.125 C0.74875 4.42375 0.8725 3.7225 1 3 C0.34 2.34 -0.32 1.68 -1 1 C-0.67 0.67 -0.34 0.34 0 0 Z " fill="#435C62" transform="translate(96,149)"/>
<path d="M0 0 C1.32 0 2.64 0 4 0 C4.33 1.98 4.66 3.96 5 6 C3.35 6.33 1.7 6.66 0 7 C0 4.69 0 2.38 0 0 Z " fill="#838665" transform="translate(74,73)"/>
<path d="M0 0 C2.375 -0.125 2.375 -0.125 5 0 C5.66 0.66 6.32 1.32 7 2 C7.66 2 8.32 2 9 2 C9 2.99 9 3.98 9 5 C6.36 5 3.72 5 1 5 C0.67 3.35 0.34 1.7 0 0 Z " fill="#2C735F" transform="translate(153,190)"/>
<path d="M0 0 C1.258125 -0.04125 2.51625 -0.0825 3.8125 -0.125 C4.52019531 -0.14820313 5.22789063 -0.17140625 5.95703125 -0.1953125 C8 0 8 0 11 2 C11.33 2.99 11.66 3.98 12 5 C10.35 5.33 8.7 5.66 7 6 C6.67 5.01 6.34 4.02 6 3 C6.33 2.34 6.66 1.68 7 1 C4.69 1 2.38 1 0 1 C0 0.67 0 0.34 0 0 Z " fill="#3B5260" transform="translate(98,189)"/>
<path d="M0 0 C-0.66 0 -1.32 0 -2 0 C-2 0.99 -2 1.98 -2 3 C-1.34 3.33 -0.68 3.66 0 4 C-0.61875 3.814375 -1.2375 3.62875 -1.875 3.4375 C-4.04160178 2.76313824 -4.04160178 2.76313824 -6 4 C-6 2.68 -6 1.36 -6 0 C-6.66 0 -7.32 0 -8 0 C-8.33 1.32 -8.66 2.64 -9 4 C-9 2.35 -9 0.7 -9 -1 C-5.22102349 -2.0497157 -3.35080929 -2.10976881 0 0 Z " fill="#868987" transform="translate(231,217)"/>
<path d="M0 0 C2.475 0.495 2.475 0.495 5 1 C4.67 2.32 4.34 3.64 4 5 C3.34 5 2.68 5 2 5 C2 5.66 2 6.32 2 7 C1.34 7 0.68 7 0 7 C0 4.69 0 2.38 0 0 Z " fill="#507494" transform="translate(121,216)"/>
<path d="M0 0 C-0.99 0 -1.98 0 -3 0 C-3 1.32 -3 2.64 -3 4 C-4.65 4.33 -6.3 4.66 -8 5 C-8 3.35 -8 1.7 -8 0 C-4.94736336 -0.98120464 -3.05263664 -0.98120464 0 0 Z " fill="#3D5664" transform="translate(135,216)"/>
<path d="M0 0 C0.66 0 1.32 0 2 0 C2 2.31 2 4.62 2 7 C0.35 6.67 -1.3 6.34 -3 6 C-2.67 4.68 -2.34 3.36 -2 2 C-1.34 2 -0.68 2 0 2 C0 1.34 0 0.68 0 0 Z " fill="#80785B" transform="translate(335,214)"/>
<path d="M0 0 C1.98 0.495 1.98 0.495 4 1 C4 2.98 4 4.96 4 7 C3.01 7 2.02 7 1 7 C1 6.34 1 5.68 1 5 C0.34 4.67 -0.32 4.34 -1 4 C-0.67 2.68 -0.34 1.36 0 0 Z " fill="#584C11" transform="translate(432,162)"/>
<path d="M0 0 C0.66 0 1.32 0 2 0 C2 2.31 2 4.62 2 7 C0.35 6.67 -1.3 6.34 -3 6 C-2.67 4.68 -2.34 3.36 -2 2 C-1.34 2 -0.68 2 0 2 C0 1.34 0 0.68 0 0 Z " fill="#537F94" transform="translate(414,162)"/>
<path d="M0 0 C0.66 0 1.32 0 2 0 C2 2.31 2 4.62 2 7 C0.35 6.67 -1.3 6.34 -3 6 C-2.67 4.68 -2.34 3.36 -2 2 C-1.34 2 -0.68 2 0 2 C0 1.34 0 0.68 0 0 Z " fill="#517E95" transform="translate(166,149)"/>
<path d="M0 0 C0.66 0 1.32 0 2 0 C2 2.31 2 4.62 2 7 C0.35 6.67 -1.3 6.34 -3 6 C-2.67 4.68 -2.34 3.36 -2 2 C-1.34 2 -0.68 2 0 2 C0 1.34 0 0.68 0 0 Z " fill="#517D95" transform="translate(166,136)"/>
<path d="M0 0 C0.33 0 0.66 0 1 0 C1 1.65 1 3.3 1 5 C1.66 5 2.32 5 3 5 C3 4.01 3 3.02 3 2 C3.99 2.33 4.98 2.66 6 3 C6 4.32 6 5.64 6 7 C4.35 7 2.7 7 1 7 C0.34 5.02 -0.32 3.04 -1 1 C-0.67 0.67 -0.34 0.34 0 0 Z " fill="#655E43" transform="translate(177,123)"/>
<path d="M0 0 C0 1.98 0 3.96 0 6 C-1.32 6.33 -2.64 6.66 -4 7 C-4.33 5.35 -4.66 3.7 -5 2 C-1.125 0 -1.125 0 0 0 Z " fill="#2B635A" transform="translate(74,19)"/>
<path d="M0 0 C0.99 0 1.98 0 3 0 C3.33 1.98 3.66 3.96 4 6 C2.35 5.67 0.7 5.34 -1 5 C-0.67 3.35 -0.34 1.7 0 0 Z " fill="#6E4C3F" transform="translate(444,98)"/>
<path d="M0 0 C3.11257569 0 5.10765685 0.17361624 8 1 C7.67 1.99 7.34 2.98 7 4 C7 3.34 7 2.68 7 2 C6.34 2 5.68 2 5 2 C5 2.99 5 3.98 5 5 C4.34 5 3.68 5 3 5 C3 4.34 3 3.68 3 3 C2.34 3 1.68 3 1 3 C0.34 3.66 -0.32 4.32 -1 5 C-0.67 3.35 -0.34 1.7 0 0 Z " fill="#5E8D96" transform="translate(139,33)"/>
<path d="M0 0 C1.98 0.495 1.98 0.495 4 1 C3.67 2.65 3.34 4.3 3 6 C1.68 5.67 0.36 5.34 -1 5 C-0.67 3.35 -0.34 1.7 0 0 Z " fill="#384E2E" transform="translate(138,7)"/>
<path d="M0 0 C1.65 0 3.3 0 5 0 C5 1.65 5 3.3 5 5 C4.67 3.68 4.34 2.36 4 1 C3.34 1 2.68 1 2 1 C2 2.32 2 3.64 2 5 C0.68 4.67 -0.64 4.34 -2 4 C-2.33 4.66 -2.66 5.32 -3 6 C-3 4.35 -3 2.7 -3 1 C-2.01 1.495 -2.01 1.495 -1 2 C-0.67 1.34 -0.34 0.68 0 0 Z " fill="#4F6F84" transform="translate(221,151)"/>
<path d="M0 0 C2.31 0.66 4.62 1.32 7 2 C6.360625 2.2475 5.72125 2.495 5.0625 2.75 C2.81258459 3.81562433 2.81258459 3.81562433 2.25 6.125 C2.1675 6.74375 2.085 7.3625 2 8 C1.01 7.67 0.02 7.34 -1 7 C-0.67 4.69 -0.34 2.38 0 0 Z " fill="#605F47" transform="translate(118,122)"/>
<path d="M0 0 C1.32 0 2.64 0 4 0 C4 1.98 4 3.96 4 6 C2.68 6.33 1.36 6.66 0 7 C0 4.69 0 2.38 0 0 Z " fill="#865C4A" transform="translate(301,99)"/>
<path d="M0 0 C1.65 0 3.3 0 5 0 C5 1.65 5 3.3 5 5 C3.35 5 1.7 5 0 5 C0 3.35 0 1.7 0 0 Z " fill="#835442" transform="translate(464,99)"/>
<path d="M0 0 C0.66 0 1.32 0 2 0 C3.44754255 1.44754255 3.55733561 3.03962913 4 5 C5.65 5 7.3 5 9 5 C9 5.33 9 5.66 9 6 C5.7 6 2.4 6 -1 6 C-1 3 -1 3 0 0 Z " fill="#674B3F" transform="translate(355,98)"/>
<path d="M0 0 C0.66 0.33 1.32 0.66 2 1 C2.625 3.5625 2.625 3.5625 3 6 C1.68 6.33 0.36 6.66 -1 7 C-1.625 5.1875 -1.625 5.1875 -2 3 C-1.34 2.01 -0.68 1.02 0 0 Z " fill="#704F40" transform="translate(102,97)"/>
<path d="M0 0 C2.475 0.99 2.475 0.99 5 2 C4.67 3.32 4.34 4.64 4 6 C2.68 6.33 1.36 6.66 0 7 C0 4.69 0 2.38 0 0 Z " fill="#568699" transform="translate(95,45)"/>
<path d="M0 0 C1.98 0.495 1.98 0.495 4 1 C3.67 2.65 3.34 4.3 3 6 C1.68 5.67 0.36 5.34 -1 5 C-0.67 3.35 -0.34 1.7 0 0 Z " fill="#315576" transform="translate(22,20)"/>
<path d="M0 0 C1.98 0.495 1.98 0.495 4 1 C3.67 2.65 3.34 4.3 3 6 C1.68 5.67 0.36 5.34 -1 5 C-0.67 3.35 -0.34 1.7 0 0 Z " fill="#3A5231" transform="translate(96,7)"/>
<path d="M0 0 C2.475 0.495 2.475 0.495 5 1 C5 2.32 5 3.64 5 5 C3.35 4.67 1.7 4.34 0 4 C0 2.68 0 1.36 0 0 Z " fill="#537884" transform="translate(148,216)"/>
<path d="M0 0 C0.66 0.33 1.32 0.66 2 1 C2.40729228 3.32156597 2.74438677 5.6568787 3 8 C1.68 7.67 0.36 7.34 -1 7 C-1.04254356 5.00045254 -1.04080783 2.99958364 -1 1 C-0.67 0.67 -0.34 0.34 0 0 Z " fill="#6A5812" transform="translate(134,162)"/>
<path d="M0 0 C0.66 0 1.32 0 2 0 C2 0.66 2 1.32 2 2 C2.99 2 3.98 2 5 2 C5 3.32 5 4.64 5 6 C3.35 6.33 1.7 6.66 0 7 C0 4.69 0 2.38 0 0 Z " fill="#7A5344" transform="translate(374,97)"/>
<path d="M0 0 C0 1.65 0 3.3 0 5 C-1.32 5.33 -2.64 5.66 -4 6 C-4.33 4.35 -4.66 2.7 -5 1 C-1.125 0 -1.125 0 0 0 Z " fill="#4E382E" transform="translate(169,98)"/>
<path d="M0 0 C0.99 0 1.98 0 3 0 C4 3 4 3 3 6 C1.68 5.67 0.36 5.34 -1 5 C-0.67 3.35 -0.34 1.7 0 0 Z " fill="#527888" transform="translate(59,46)"/>
<path d="M0 0 C0.99 0.33 1.98 0.66 3 1 C3 2.65 3 4.3 3 6 C1.68 5.67 0.36 5.34 -1 5 C-1 1 -1 1 0 0 Z " fill="#3B5230" transform="translate(44,7)"/>
<path d="M0 0 C0.99 0.33 1.98 0.66 3 1 C3 1.99 3 2.98 3 4 C3.66 4 4.32 4 5 4 C5 4.66 5 5.32 5 6 C3.02 6.33 1.04 6.66 -1 7 C-0.34 5.68 0.32 4.36 1 3 C0.34 2.34 -0.32 1.68 -1 1 C-0.67 0.67 -0.34 0.34 0 0 Z " fill="#51737E" transform="translate(465,214)"/>
<path d="M0 0 C1.32 0 2.64 0 4 0 C3.67 1.65 3.34 3.3 3 5 C1.68 4.67 0.36 4.34 -1 4 C-0.67 2.68 -0.34 1.36 0 0 Z " fill="#527B8F" transform="translate(333,164)"/>
<path d="M0 0 C1.32 0 2.64 0 4 0 C3.67 1.65 3.34 3.3 3 5 C1.68 4.67 0.36 4.34 -1 4 C-0.67 2.68 -0.34 1.36 0 0 Z " fill="#4D768D" transform="translate(243,151)"/>
<path d="M0 0 C1.32 0 2.64 0 4 0 C3.67 1.65 3.34 3.3 3 5 C1.68 4.67 0.36 4.34 -1 4 C-0.67 2.68 -0.34 1.36 0 0 Z " fill="#517A8D" transform="translate(143,151)"/>
<path d="M0 0 C1.32 0 2.64 0 4 0 C3.67 1.65 3.34 3.3 3 5 C1.68 4.67 0.36 4.34 -1 4 C-0.67 2.68 -0.34 1.36 0 0 Z " fill="#517A8D" transform="translate(143,138)"/>
<path d="M0 0 C1.98 0 3.96 0 6 0 C6 0.99 6 1.98 6 3 C5.01 3 4.02 3 3 3 C2.67 3.99 2.34 4.98 2 6 C1.34 5.67 0.68 5.34 0 5 C0 3.35 0 1.7 0 0 Z " fill="#34352F" transform="translate(203,124)"/>
<path d="M0 0 C0.99 0.33 1.98 0.66 3 1 C3 2.65 3 4.3 3 6 C1.68 6 0.36 6 -1 6 C-1.042721 4.33388095 -1.04063832 2.66617115 -1 1 C-0.67 0.67 -0.34 0.34 0 0 Z " fill="#7F8160" transform="translate(186,72)"/>
<path d="M0 0 C0.99 0.33 1.98 0.66 3 1 C3 2.65 3 4.3 3 6 C1.68 6 0.36 6 -1 6 C-1.042721 4.33388095 -1.04063832 2.66617115 -1 1 C-0.67 0.67 -0.34 0.34 0 0 Z " fill="#7A7D63" transform="translate(54,72)"/>
<path d="M0 0 C0.99 0 1.98 0 3 0 C3.33 2.64 3.66 5.28 4 8 C2.68 8 1.36 8 0 8 C0 5.36 0 2.72 0 0 Z " fill="#4D748E" transform="translate(111,31)"/>
<path d="M0 0 C1.32 0.33 2.64 0.66 4 1 C3.67 2.65 3.34 4.3 3 6 C2.01 6 1.02 6 0 6 C0 4.02 0 2.04 0 0 Z " fill="#3E5632" transform="translate(122,7)"/>
<path d="M0 0 C1.98 0.495 1.98 0.495 4 1 C3.67 2.65 3.34 4.3 3 6 C2.01 6 1.02 6 0 6 C-1.125 2.25 -1.125 2.25 0 0 Z " fill="#3D5331" transform="translate(80,7)"/>
<path d="M0 0 C0.33 0 0.66 0 1 0 C1 2.31 1 4.62 1 7 C-0.32 7 -1.64 7 -3 7 C-2.67 5.35 -2.34 3.7 -2 2 C-1.34 2 -0.68 2 0 2 C0 1.34 0 0.68 0 0 Z " fill="#7D7E79" transform="translate(172,214)"/>
<path d="M0 0 C1.98 0.495 1.98 0.495 4 1 C3.67 2.32 3.34 3.64 3 5 C1.68 4.67 0.36 4.34 -1 4 C-0.67 2.68 -0.34 1.36 0 0 Z " fill="#567B90" transform="translate(117,203)"/>
<path d="M0 0 C1.98 0.495 1.98 0.495 4 1 C3.67 2.32 3.34 3.64 3 5 C1.68 4.67 0.36 4.34 -1 4 C-0.67 2.68 -0.34 1.36 0 0 Z " fill="#724B67" transform="translate(59,190)"/>
<path d="M0 0 C1.98 0.495 1.98 0.495 4 1 C3.67 2.32 3.34 3.64 3 5 C1.68 4.67 0.36 4.34 -1 4 C-0.67 2.68 -0.34 1.36 0 0 Z " fill="#547C8D" transform="translate(217,190)"/>
<path d="M0 0 C1.98 0.495 1.98 0.495 4 1 C3.67 2.32 3.34 3.64 3 5 C1.68 4.67 0.36 4.34 -1 4 C-0.67 2.68 -0.34 1.36 0 0 Z " fill="#567B84" transform="translate(270,164)"/>
<path d="M0 0 C1.98 0.495 1.98 0.495 4 1 C3.67 2.32 3.34 3.64 3 5 C1.68 4.67 0.36 4.34 -1 4 C-0.67 2.68 -0.34 1.36 0 0 Z " fill="#325576" transform="translate(117,164)"/>
<path d="M0 0 C1.98 0.495 1.98 0.495 4 1 C3.67 2.32 3.34 3.64 3 5 C1.68 4.67 0.36 4.34 -1 4 C-0.67 2.68 -0.34 1.36 0 0 Z " fill="#54788D" transform="translate(117,151)"/>
<path d="M0 0 C1.98 0.495 1.98 0.495 4 1 C3.67 2.32 3.34 3.64 3 5 C1.68 4.67 0.36 4.34 -1 4 C-0.67 2.68 -0.34 1.36 0 0 Z " fill="#744D3D" transform="translate(175,99)"/>
<path d="M0 0 C0.99 0.33 1.98 0.66 3 1 C3 2.65 3 4.3 3 6 C1.68 5.67 0.36 5.34 -1 5 C-0.67 3.35 -0.34 1.7 0 0 Z " fill="#755445" transform="translate(286,98)"/>
<path d="M0 0 C1.32 0.33 2.64 0.66 4 1 C4 2.98 4 4.96 4 7 C3.34 6.34 2.68 5.68 2 5 C1.01 5.495 1.01 5.495 0 6 C0 4.02 0 2.04 0 0 Z " fill="#825C49" transform="translate(53,97)"/>
<path d="M0 0 C0.99 0.33 1.98 0.66 3 1 C3.33 3.31 3.66 5.62 4 8 C2.68 8 1.36 8 0 8 C0 5.36 0 2.72 0 0 Z " fill="#547B8A" transform="translate(64,44)"/>
<path d="M0 0 C0.66 0 1.32 0 2 0 C2.33 2.64 2.66 5.28 3 8 C1.68 8 0.36 8 -1 8 C-1.125 2.25 -1.125 2.25 0 0 Z " fill="#777859" transform="translate(65,31)"/>
<path d="M0 0 C0.99 0.33 1.98 0.66 3 1 C3 2.65 3 4.3 3 6 C1.68 6 0.36 6 -1 6 C-1.042721 4.33388095 -1.04063832 2.66617115 -1 1 C-0.67 0.67 -0.34 0.34 0 0 Z " fill="#2F7567" transform="translate(91,20)"/>
<path d="M0 0 C0.99 0.33 1.98 0.66 3 1 C3 2.65 3 4.3 3 6 C1.68 5.67 0.36 5.34 -1 5 C-0.67 3.35 -0.34 1.7 0 0 Z " fill="#307361" transform="translate(54,20)"/>
<path d="M0 0 C0.99 0.33 1.98 0.66 3 1 C3 2.65 3 4.3 3 6 C1.68 5.67 0.36 5.34 -1 5 C-0.67 3.35 -0.34 1.7 0 0 Z " fill="#3D5834" transform="translate(33,7)"/>
<path d="M0 0 C2.475 0.495 2.475 0.495 5 1 C4.67 1.99 4.34 2.98 4 4 C1.9375 4.6875 1.9375 4.6875 0 5 C0 3.35 0 1.7 0 0 Z " fill="#65664C" transform="translate(238,216)"/>
<path d="M0 0 C0.33 0.66 0.66 1.32 1 2 C1.99 2.33 2.98 2.66 4 3 C3.67 4.32 3.34 5.64 3 7 C2.01 7 1.02 7 0 7 C0 4.69 0 2.38 0 0 Z " fill="#5D8285" transform="translate(138,214)"/>
<path d="M0 0 C1.32 0 2.64 0 4 0 C4 1.65 4 3.3 4 5 C2.68 5 1.36 5 0 5 C0 3.35 0 1.7 0 0 Z " fill="#527791" transform="translate(169,203)"/>
<path d="M0 0 C0.33 0 0.66 0 1 0 C1 2.31 1 4.62 1 7 C-0.32 6.67 -1.64 6.34 -3 6 C-2.67 4.68 -2.34 3.36 -2 2 C-1.34 2 -0.68 2 0 2 C0 1.34 0 0.68 0 0 Z " fill="#5487A3" transform="translate(372,162)"/>
<path d="M0 0 C1.98 0.495 1.98 0.495 4 1 C3.67 2.32 3.34 3.64 3 5 C1.68 4.67 0.36 4.34 -1 4 C-0.67 2.68 -0.34 1.36 0 0 Z " fill="#537C8B" transform="translate(333,125)"/>
<path d="M0 0 C1.0625 1.875 1.0625 1.875 2 4 C1.67 4.66 1.34 5.32 1 6 C-0.98 6 -2.96 6 -5 6 C-5 5.34 -5 4.68 -5 4 C-4.360625 3.71125 -3.72125 3.4225 -3.0625 3.125 C-0.84793921 2.17176549 -0.84793921 2.17176549 0 0 Z " fill="#41473F" transform="translate(168,126)"/>
<path d="M0 0 C1.32 0 2.64 0 4 0 C4 1.65 4 3.3 4 5 C2.35 4.67 0.7 4.34 -1 4 C-0.67 2.68 -0.34 1.36 0 0 Z " fill="#7E5544" transform="translate(391,99)"/>
<path d="M0 0 C0.99 0.33 1.98 0.66 3 1 C3 2.65 3 4.3 3 6 C1.68 6 0.36 6 -1 6 C-1.042721 4.33388095 -1.04063832 2.66617115 -1 1 C-0.67 0.67 -0.34 0.34 0 0 Z " fill="#7F5545" transform="translate(455,98)"/>
<path d="M0 0 C1.65 0 3.3 0 5 0 C5 1.32 5 2.64 5 4 C3.35 4 1.7 4 0 4 C0 2.68 0 1.36 0 0 Z " fill="#8F5844" transform="translate(343,99)"/>
<path d="M0 0 C0.99 0.33 1.98 0.66 3 1 C3 2.65 3 4.3 3 6 C1.68 5.67 0.36 5.34 -1 5 C-0.67 3.35 -0.34 1.7 0 0 Z " fill="#785241" transform="translate(123,98)"/>
<path d="M0 0 C0.66 0 1.32 0 2 0 C2 0.66 2 1.32 2 2 C2.99 2 3.98 2 5 2 C4.67 3.32 4.34 4.64 4 6 C4 5.01 4 4.02 4 3 C3.34 3 2.68 3 2 3 C2 4.32 2 5.64 2 7 C1.34 7 0.68 7 0 7 C0 4.69 0 2.38 0 0 Z " fill="#7F5443" transform="translate(200,97)"/>
<path d="M0 0 C0.66 0 1.32 0 2 0 C1.67 2.64 1.34 5.28 1 8 C0.34 8 -0.32 8 -1 8 C-1.625 5.6875 -1.625 5.6875 -2 3 C-1.34 2.01 -0.68 1.02 0 0 Z " fill="#7A5444" transform="translate(150,96)"/>
<path d="M0 0 C1.32 0 2.64 0 4 0 C3.67 1.65 3.34 3.3 3 5 C2.01 5.33 1.02 5.66 0 6 C0 4.02 0 2.04 0 0 Z " fill="#815340" transform="translate(491,99)"/>
<path d="M0 0 C0.99 0 1.98 0 3 0 C3.33 1.65 3.66 3.3 4 5 C2.33333333 5 0.66666667 5 -1 5 C-0.67 3.35 -0.34 1.7 0 0 Z " fill="#7A5140" transform="translate(233,98)"/>
<path d="M0 0 C0.99 0 1.98 0 3 0 C3 1.65 3 3.3 3 5 C1.68 5.33 0.36 5.66 -1 6 C-1.042721 4.33388095 -1.04063832 2.66617115 -1 1 C-0.67 0.67 -0.34 0.34 0 0 Z " fill="#507382" transform="translate(54,46)"/>
<path d="M0 0 C1.65 0 3.3 0 5 0 C5 1.32 5 2.64 5 4 C3.35 4 1.7 4 0 4 C0 2.68 0 1.36 0 0 Z " fill="#6396A0" transform="translate(111,47)"/>
<path d="M0 0 C0.99 0.33 1.98 0.66 3 1 C3 2.65 3 4.3 3 6 C1.68 5.67 0.36 5.34 -1 5 C-0.67 3.35 -0.34 1.7 0 0 Z " fill="#4D7383" transform="translate(159,46)"/>
<path d="M0 0 C0.99 0.33 1.98 0.66 3 1 C3 2.65 3 4.3 3 6 C1.68 5.67 0.36 5.34 -1 5 C-0.67 3.35 -0.34 1.7 0 0 Z " fill="#4D7383" transform="translate(159,33)"/>
<path d="M0 0 C0.66 0 1.32 0 2 0 C2 0.99 2 1.98 2 3 C2.66 3 3.32 3 4 3 C4.33 2.01 4.66 1.02 5 0 C5 1.98 5 3.96 5 6 C4.67 5.34 4.34 4.68 4 4 C3.34 4 2.68 4 2 4 C2 4.66 2 5.32 2 6 C1.34 6 0.68 6 0 6 C0 4.02 0 2.04 0 0 Z " fill="#456839" transform="translate(105,6)"/>
<path d="M0 0 C0.99 0.33 1.98 0.66 3 1 C3.33 3.31 3.66 5.62 4 8 C2.68 8 1.36 8 0 8 C0 5.36 0 2.72 0 0 Z " fill="#3D552F" transform="translate(27,5)"/>
<path d="M0 0 C1.32 0.33 2.64 0.66 4 1 C4 2.32 4 3.64 4 5 C2.68 5 1.36 5 0 5 C0 3.35 0 1.7 0 0 Z " fill="#7B7C56" transform="translate(359,216)"/>
<path d="M0 0 C1.98 0.495 1.98 0.495 4 1 C4 2.32 4 3.64 4 5 C2.35 5 0.7 5 -1 5 C-0.67 3.35 -0.34 1.7 0 0 Z " fill="#857E79" transform="translate(212,216)"/>
<path d="M0 0 C1.32 0 2.64 0 4 0 C3.67 1.65 3.34 3.3 3 5 C2.01 5 1.02 5 0 5 C0 3.35 0 1.7 0 0 Z " fill="#717070" transform="translate(185,216)"/>
<path d="M0 0 C1.32 0.33 2.64 0.66 4 1 C3.814375 1.61875 3.62875 2.2375 3.4375 2.875 C2.76313824 5.04160178 2.76313824 5.04160178 4 7 C2.68 7 1.36 7 0 7 C0.66 5.35 1.32 3.7 2 2 C1.34 2 0.68 2 0 2 C0 1.34 0 0.68 0 0 Z " fill="#608998" transform="translate(122,201)"/>
<path d="M0 0 C1.98 0.495 1.98 0.495 4 1 C4 2.32 4 3.64 4 5 C2.35 5 0.7 5 -1 5 C-0.67 3.35 -0.34 1.7 0 0 Z " fill="#33826A" transform="translate(175,190)"/>
<path d="M0 0 C0.99 0.33 1.98 0.66 3 1 C2.67 2.98 2.34 4.96 2 7 C1.34 7 0.68 7 0 7 C-1.125 2.25 -1.125 2.25 0 0 Z " fill="#7B5172" transform="translate(54,188)"/>
<path d="M0 0 C1.32 0 2.64 0 4 0 C4 1.65 4 3.3 4 5 C2.68 4.67 1.36 4.34 0 4 C0 2.68 0 1.36 0 0 Z " fill="#537A89" transform="translate(111,190)"/>
<path d="M0 0 C1.32 0.33 2.64 0.66 4 1 C3.814375 1.61875 3.62875 2.2375 3.4375 2.875 C2.76313824 5.04160178 2.76313824 5.04160178 4 7 C2.68 7 1.36 7 0 7 C0.66 5.35 1.32 3.7 2 2 C1.34 2 0.68 2 0 2 C0 1.34 0 0.68 0 0 Z " fill="#5E8CA0" transform="translate(206,162)"/>
<path d="M0 0 C1.32 0.33 2.64 0.66 4 1 C3.814375 1.61875 3.62875 2.2375 3.4375 2.875 C2.76313824 5.04160178 2.76313824 5.04160178 4 7 C2.68 7 1.36 7 0 7 C0.66 5.35 1.32 3.7 2 2 C1.34 2 0.68 2 0 2 C0 1.34 0 0.68 0 0 Z " fill="#618D9D" transform="translate(338,162)"/>
<path d="M0 0 C0.66 0 1.32 0 2 0 C1.47731534 2.76276177 0.89130413 5.3260876 0 8 C-0.66 8 -1.32 8 -2 8 C-1.125 1.125 -1.125 1.125 0 0 Z " fill="#345B7E" transform="translate(66,122)"/>
<path d="M0 0 C0.99 0 1.98 0 3 0 C3.33 2.31 3.66 4.62 4 7 C2.68 6.67 1.36 6.34 0 6 C0 4.02 0 2.04 0 0 Z " fill="#577F8D" transform="translate(259,123)"/>
<path d="M0 0 C1.32 0.33 2.64 0.66 4 1 C3.814375 1.61875 3.62875 2.2375 3.4375 2.875 C2.76313824 5.04160178 2.76313824 5.04160178 4 7 C2.68 7 1.36 7 0 7 C0.66 5.35 1.32 3.7 2 2 C1.34 2 0.68 2 0 2 C0 1.34 0 0.68 0 0 Z " fill="#5C8B9F" transform="translate(343,123)"/>
<path d="M0 0 C1.32 0 2.64 0 4 0 C4 1.65 4 3.3 4 5 C2.35 4.67 0.7 4.34 -1 4 C-0.67 2.68 -0.34 1.36 0 0 Z " fill="#815644" transform="translate(275,99)"/>
<path d="M0 0 C1.32 0.66 2.64 1.32 4 2 C3.67 3.32 3.34 4.64 3 6 C1.68 5.67 0.36 5.34 -1 5 C-0.67 3.35 -0.34 1.7 0 0 Z " fill="#7B5646" transform="translate(191,98)"/>
<path d="M0 0 C0.99 0.33 1.98 0.66 3 1 C3 2.65 3 4.3 3 6 C1.68 5.67 0.36 5.34 -1 5 C-0.67 3.35 -0.34 1.7 0 0 Z " fill="#7B5647" transform="translate(502,98)"/>
<path d="M0 0 C0.99 0.33 1.98 0.66 3 1 C3.33 3.31 3.66 5.62 4 8 C2.68 7.67 1.36 7.34 0 7 C0 4.69 0 2.38 0 0 Z " fill="#7A5342" transform="translate(475,96)"/>
<path d="M0 0 C0.99 0 1.98 0 3 0 C4 2 4 2 5 5 C3.35 5.33 1.7 5.66 0 6 C0 4 0 2 0 0 Z " fill="#507386" transform="translate(217,72)"/>
<path d="M0 0 C1.98 0 3.96 0 6 0 C5.67 0.66 5.34 1.32 5 2 C4.34 1.67 3.68 1.34 3 1 C3 2.32 3 3.64 3 5 C2.01 5 1.02 5 0 5 C0 3.35 0 1.7 0 0 Z " fill="#737355" transform="translate(83,73)"/>
<path d="M0 0 C0.99 0.33 1.98 0.66 3 1 C3 2.65 3 4.3 3 6 C1.68 5.67 0.36 5.34 -1 5 C-0.67 3.35 -0.34 1.7 0 0 Z " fill="#838162" transform="translate(70,72)"/>
<path d="M0 0 C0.99 0 1.98 0 3 0 C2.34 2.31 1.68 4.62 1 7 C0.34 7 -0.32 7 -1 7 C-1.625 5.1875 -1.625 5.1875 -2 3 C-1.34 2.01 -0.68 1.02 0 0 Z " fill="#5C8494" transform="translate(234,70)"/>
<path d="M0 0 C0.99 0.33 1.98 0.66 3 1 C2.67 2.65 2.34 4.3 2 6 C1.01 5.67 0.02 5.34 -1 5 C-0.67 3.35 -0.34 1.7 0 0 Z " fill="#5A7E86" transform="translate(107,46)"/>
<path d="M0 0 C0.99 0 1.98 0 3 0 C2.34 2.31 1.68 4.62 1 7 C0.34 7 -0.32 7 -1 7 C-1.625 5.1875 -1.625 5.1875 -2 3 C-1.34 2.01 -0.68 1.02 0 0 Z " fill="#5A859A" transform="translate(118,31)"/>
<path d="M0 0 C1.98 0.495 1.98 0.495 4 1 C4 2.32 4 3.64 4 5 C2.35 4.67 0.7 4.34 -1 4 C-0.67 2.68 -0.34 1.36 0 0 Z " fill="#8F8F6E" transform="translate(317,216)"/>
<path d="M0 0 C1.32 0 2.64 0 4 0 C4 1.65 4 3.3 4 5 C2.68 5 1.36 5 0 5 C0 3.35 0 1.7 0 0 Z " fill="#848585" transform="translate(164,216)"/>
<path d="M0 0 C1.98 0.495 1.98 0.495 4 1 C4 2.32 4 3.64 4 5 C2.35 4.67 0.7 4.34 -1 4 C-0.67 2.68 -0.34 1.36 0 0 Z " fill="#928D68" transform="translate(370,216)"/>
<path d="M0 0 C1.98 0.495 1.98 0.495 4 1 C3.67 2.32 3.34 3.64 3 5 C1.68 4.67 0.36 4.34 -1 4 C-0.67 2.68 -0.34 1.36 0 0 Z " fill="#31816F" transform="translate(143,190)"/>
<path d="M0 0 C1.98 0.495 1.98 0.495 4 1 C4 2.32 4 3.64 4 5 C2.35 4.67 0.7 4.34 -1 4 C-0.67 2.68 -0.34 1.36 0 0 Z " fill="#618DA2" transform="translate(317,164)"/>
<path d="M0 0 C1.32 0 2.64 0 4 0 C4 1.65 4 3.3 4 5 C2.68 5 1.36 5 0 5 C0 3.35 0 1.7 0 0 Z " fill="#618FA6" transform="translate(201,164)"/>
<path d="M0 0 C1.32 0 2.64 0 4 0 C4 1.65 4 3.3 4 5 C2.68 5 1.36 5 0 5 C0 3.35 0 1.7 0 0 Z " fill="#6292A4" transform="translate(185,164)"/>
<path d="M0 0 C1.98 0.495 1.98 0.495 4 1 C4 2.32 4 3.64 4 5 C2.35 4.67 0.7 4.34 -1 4 C-0.67 2.68 -0.34 1.36 0 0 Z " fill="#618CA3" transform="translate(254,164)"/>
<path d="M0 0 C1.32 0 2.64 0 4 0 C4 1.65 4 3.3 4 5 C2.68 5 1.36 5 0 5 C0 3.35 0 1.7 0 0 Z " fill="#618FA5" transform="translate(201,151)"/>
<path d="M0 0 C1.32 0 2.64 0 4 0 C4 1.65 4 3.3 4 5 C2.68 5 1.36 5 0 5 C0 3.35 0 1.7 0 0 Z " fill="#608EA6" transform="translate(127,151)"/>
<path d="M0 0 C1.32 0 2.64 0 4 0 C4 1.65 4 3.3 4 5 C2.68 5 1.36 5 0 5 C0 3.35 0 1.7 0 0 Z " fill="#608EA4" transform="translate(201,138)"/>
<path d="M0 0 C1.32 0 2.64 0 4 0 C4 1.65 4 3.3 4 5 C2.68 5 1.36 5 0 5 C0 3.35 0 1.7 0 0 Z " fill="#608EA5" transform="translate(127,138)"/>
<path d="M0 0 C0.66 0 1.32 0 2 0 C2.33 2.31 2.66 4.62 3 7 C1.68 6.67 0.36 6.34 -1 6 C-1.042721 4.33388095 -1.04063832 2.66617115 -1 1 C-0.67 0.67 -0.34 0.34 0 0 Z " fill="#598093" transform="translate(302,123)"/>
<path d="M0 0 C1.32 0 2.64 0 4 0 C4 1.65 4 3.3 4 5 C2.68 5 1.36 5 0 5 C0 3.35 0 1.7 0 0 Z " fill="#618FA2" transform="translate(222,125)"/>
<path d="M0 0 C1.98 0.495 1.98 0.495 4 1 C4 2.32 4 3.64 4 5 C2.35 4.67 0.7 4.34 -1 4 C-0.67 2.68 -0.34 1.36 0 0 Z " fill="#825746" transform="translate(312,99)"/>
<path d="M0 0 C0.66 0 1.32 0 2 0 C2.33 2.31 2.66 4.62 3 7 C1.68 6.67 0.36 6.34 -1 6 C-1.042721 4.33388095 -1.04063832 2.66617115 -1 1 C-0.67 0.67 -0.34 0.34 0 0 Z " fill="#81815D" transform="translate(123,71)"/>
<path d="M0 0 C0.66 0 1.32 0 2 0 C2.33 2.64 2.66 5.28 3 8 C2.01 8 1.02 8 0 8 C0 5.36 0 2.72 0 0 Z " fill="#537F8F" transform="translate(154,31)"/>
<path d="M0 0 C1.32 0 2.64 0 4 0 C3.67 1.65 3.34 3.3 3 5 C2.01 5 1.02 5 0 5 C0 3.35 0 1.7 0 0 Z " fill="#496A3B" transform="translate(11,7)"/>
<path d="M0 0 C0.66 0 1.32 0 2 0 C2.33 2.64 2.66 5.28 3 8 C1.68 8 0.36 8 -1 8 C-1 7.34 -1 6.68 -1 6 C-0.34 6 0.32 6 1 6 C0.67 4.02 0.34 2.04 0 0 Z " fill="#3E5731" transform="translate(133,5)"/>
<path d="M0 0 C0.66 0 1.32 0 2 0 C2.33 2.31 2.66 4.62 3 7 C1.68 6.67 0.36 6.34 -1 6 C-0.67 4.02 -0.34 2.04 0 0 Z " fill="#898565" transform="translate(339,214)"/>
<path d="M0 0 C0.66 0 1.32 0 2 0 C2.33 2.31 2.66 4.62 3 7 C1.68 6.67 0.36 6.34 -1 6 C-0.67 4.02 -0.34 2.04 0 0 Z " fill="#8B8560" transform="translate(281,214)"/>
<path d="M0 0 C0.66 0 1.32 0 2 0 C2.33 2.31 2.66 4.62 3 7 C1.68 6.67 0.36 6.34 -1 6 C-0.67 4.02 -0.34 2.04 0 0 Z " fill="#878667" transform="translate(265,214)"/>
<path d="M0 0 C0.66 0 1.32 0 2 0 C2.33 2.31 2.66 4.62 3 7 C1.68 6.67 0.36 6.34 -1 6 C-0.67 4.02 -0.34 2.04 0 0 Z " fill="#5D8A9D" transform="translate(186,201)"/>
<path d="M0 0 C1.32 0 2.64 0 4 0 C4 1.65 4 3.3 4 5 C2.68 5 1.36 5 0 5 C0 3.35 0 1.7 0 0 Z " fill="#34806D" transform="translate(185,190)"/>
<path d="M0 0 C0.66 0 1.32 0 2 0 C2.33 2.31 2.66 4.62 3 7 C1.68 6.67 0.36 6.34 -1 6 C-0.67 4.02 -0.34 2.04 0 0 Z " fill="#785277" transform="translate(128,188)"/>
<path d="M0 0 C1.32 0 2.64 0 4 0 C4 1.65 4 3.3 4 5 C2.68 5 1.36 5 0 5 C0 3.35 0 1.7 0 0 Z " fill="#6394AA" transform="translate(380,164)"/>
<path d="M0 0 C0.66 0 1.32 0 2 0 C2.33 2.31 2.66 4.62 3 7 C1.68 6.67 0.36 6.34 -1 6 C-0.67 4.02 -0.34 2.04 0 0 Z " fill="#5D8496" transform="translate(376,162)"/>
<path d="M0 0 C0.66 0 1.32 0 2 0 C2.33 2.31 2.66 4.62 3 7 C1.68 6.67 0.36 6.34 -1 6 C-0.67 4.02 -0.34 2.04 0 0 Z " fill="#5D8A9A" transform="translate(418,162)"/>
<path d="M0 0 C0.66 0 1.32 0 2 0 C2.33 2.31 2.66 4.62 3 7 C1.68 6.67 0.36 6.34 -1 6 C-0.67 4.02 -0.34 2.04 0 0 Z " fill="#5D8599" transform="translate(265,162)"/>
<path d="M0 0 C1.32 0 2.64 0 4 0 C4 1.65 4 3.3 4 5 C2.68 5 1.36 5 0 5 C0 3.35 0 1.7 0 0 Z " fill="#6290A6" transform="translate(90,151)"/>
<path d="M0 0 C1.98 0.495 1.98 0.495 4 1 C3.67 2.32 3.34 3.64 3 5 C1.68 4.67 0.36 4.34 -1 4 C-0.67 2.68 -0.34 1.36 0 0 Z " fill="#6492A2" transform="translate(175,151)"/>
<path d="M0 0 C1.32 0 2.64 0 4 0 C4 1.65 4 3.3 4 5 C2.68 5 1.36 5 0 5 C0 3.35 0 1.7 0 0 Z " fill="#618FA5" transform="translate(90,138)"/>
<path d="M0 0 C1.98 0.495 1.98 0.495 4 1 C3.67 2.32 3.34 3.64 3 5 C1.68 4.67 0.36 4.34 -1 4 C-0.67 2.68 -0.34 1.36 0 0 Z " fill="#6491A2" transform="translate(175,138)"/>
<path d="M0 0 C0.66 0 1.32 0 2 0 C2.33 2.31 2.66 4.62 3 7 C1.68 6.67 0.36 6.34 -1 6 C-1.042721 4.33388095 -1.04063832 2.66617115 -1 1 C-0.67 0.67 -0.34 0.34 0 0 Z " fill="#628B91" transform="translate(255,136)"/>
<path d="M0 0 C0.66 0 1.32 0 2 0 C2.33 2.31 2.66 4.62 3 7 C1.68 6.67 0.36 6.34 -1 6 C-1.042721 4.33388095 -1.04063832 2.66617115 -1 1 C-0.67 0.67 -0.34 0.34 0 0 Z " fill="#628D93" transform="translate(181,136)"/>
<path d="M0 0 C1.98 0.495 1.98 0.495 4 1 C3.67 2.32 3.34 3.64 3 5 C1.68 4.67 0.36 4.34 -1 4 C-0.67 2.68 -0.34 1.36 0 0 Z " fill="#366186" transform="translate(59,125)"/>
<path d="M0 0 C0.66 0 1.32 0 2 0 C2.33 2.31 2.66 4.62 3 7 C1.68 6.67 0.36 6.34 -1 6 C-1.042721 4.33388095 -1.04063832 2.66617115 -1 1 C-0.67 0.67 -0.34 0.34 0 0 Z " fill="#60899A" transform="translate(276,123)"/>
<path d="M0 0 C0.66 0 1.32 0 2 0 C2.33 2.31 2.66 4.62 3 7 C1.68 6.67 0.36 6.34 -1 6 C-0.67 4.02 -0.34 2.04 0 0 Z " fill="#597F97" transform="translate(228,71)"/>
<path d="M0 0 C0.99 0 1.98 0 3 0 C3 1.65 3 3.3 3 5 C1.68 5.33 0.36 5.66 -1 6 C-0.34 5.67 0.32 5.34 1 5 C1 4.34 1 3.68 1 3 C0.34 3 -0.32 3 -1 3 C-0.67 2.01 -0.34 1.02 0 0 Z " fill="#79785B" transform="translate(207,72)"/>
<path d="M0 0 C0.99 0.33 1.98 0.66 3 1 C3 2.65 3 4.3 3 6 C2.01 6 1.02 6 0 6 C0 4.02 0 2.04 0 0 Z " fill="#516B70" transform="translate(107,33)"/>
<path d="M0 0 C0.99 0.33 1.98 0.66 3 1 C3 2.98 3 4.96 3 7 C2.01 6.67 1.02 6.34 0 6 C0 4.02 0 2.04 0 0 Z " fill="#84825E" transform="translate(80,32)"/>
<path d="M0 0 C0.99 0 1.98 0 3 0 C2.34 2.31 1.68 4.62 1 7 C0.34 7 -0.32 7 -1 7 C-0.67 4.69 -0.34 2.38 0 0 Z " fill="#345E85" transform="translate(44,31)"/>
<path d="M0 0 C0.99 0.33 1.98 0.66 3 1 C2.67 1.66 2.34 2.32 2 3 C2.66 3 3.32 3 4 3 C3.67 3.99 3.34 4.98 3 6 C2.01 6 1.02 6 0 6 C0 4.02 0 2.04 0 0 Z " fill="#335576" transform="translate(27,20)"/>
<path d="M0 0 C2.475 0.495 2.475 0.495 5 1 C5 1.66 5 2.32 5 3 C4.34 3 3.68 3 3 3 C2.67 3.66 2.34 4.32 2 5 C1.34 5 0.68 5 0 5 C0 3.35 0 1.7 0 0 Z " fill="#2D7464" transform="translate(95,20)"/>
<path d="M0 0 C1.32 0 2.64 0 4 0 C4 1.65 4 3.3 4 5 C2.68 5 1.36 5 0 5 C0 3.35 0 1.7 0 0 Z " fill="#2D7C6A" transform="translate(58,20)"/>
</svg>
