<?xml version="1.0" encoding="UTF-8"?>
<svg version="1.1" xmlns="http://www.w3.org/2000/svg" width="567" height="128">
<path d="M0 0 C187.11 0 374.22 0 567 0 C567 42.24 567 84.48 567 128 C379.89 128 192.78 128 0 128 C0 85.76 0 43.52 0 0 Z " fill="#1A1919" transform="translate(0,0)"/>
<path d="M0 0 C0.33 0.99 0.66 1.98 1 3 C1.99 2.67 2.98 2.34 4 2 C4 1.34 4 0.68 4 0 C4.66 0 5.32 0 6 0 C6 1.32 6 2.64 6 4 C6.33 3.34 6.66 2.68 7 2 C9.32156597 1.59270772 11.6568787 1.25561323 14 1 C14 2.65 14 4.3 14 6 C-3.45728024 7.1460817 -3.45728024 7.1460817 -11.99609375 6.9375 C-14.0736269 6.86218285 -14.0736269 6.86218285 -16 8 C-16 6.02 -16 4.04 -16 2 C-14.8553125 2.2784375 -14.8553125 2.2784375 -13.6875 2.5625 C-10.25143565 3.12185931 -8.19560962 2.06786456 -4.9375 0.9375 C-2 0 -2 0 0 0 Z " fill="#384D5A" transform="translate(30,94)"/>
<path d="M0 0 C0.66 0 1.32 0 2 0 C2.33 0.99 2.66 1.98 3 3 C4.32 2.67 5.64 2.34 7 2 C7.33 2.66 7.66 3.32 8 4 C7.67 4.99 7.34 5.98 7 7 C6.30132812 6.98839844 5.60265625 6.97679688 4.8828125 6.96484375 C3.97273438 6.95582031 3.06265625 6.94679688 2.125 6.9375 C1.22007812 6.92589844 0.31515625 6.91429688 -0.6171875 6.90234375 C-3.0168585 6.83750743 -3.0168585 6.83750743 -5 8 C-5 7.34 -5 6.68 -5 6 C-9.29 6 -13.58 6 -18 6 C-18.33 4.68 -18.66 3.36 -19 2 C-15.05352382 1.01155049 -11.72607036 1.03808095 -7.6875 1.4375 C-6.08455078 1.59025391 -6.08455078 1.59025391 -4.44921875 1.74609375 C-3.23685547 1.87177734 -3.23685547 1.87177734 -2 2 C-1.67 2.99 -1.34 3.98 -1 5 C-0.34 5 0.32 5 1 5 C0.67 3.35 0.34 1.7 0 0 Z " fill="#765041" transform="translate(447,83)"/>
<path d="M0 0 C3.63 0.33 7.26 0.66 11 1 C11.33 2.32 11.66 3.64 12 5 C12.99 4.01 13.98 3.02 15 2 C14.34 1.67 13.68 1.34 13 1 C14.85625 1.0309375 14.85625 1.0309375 16.75 1.0625 C19.6640825 1.06766681 22.20953327 0.93015558 25 0 C25 0.99 25 1.98 25 3 C24.01 3 23.02 3 22 3 C21.34 4.32 20.68 5.64 20 7 C17.03 7 14.06 7 11 7 C11 6.34 11 5.68 11 5 C9.02 5.66 7.04 6.32 5 7 C4.34 6.34 3.68 5.68 3 5 C3 4.01 3 3.02 3 2 C2.01 2 1.02 2 0 2 C0 1.34 0 0.68 0 0 Z " fill="#69483A" transform="translate(144,94)"/>
<path d="M0 0 C0.33 0.66 0.66 1.32 1 2 C1.99 2.33 2.98 2.66 4 3 C4 3.66 4 4.32 4 5 C4.66 5 5.32 5 6 5 C5.67 3.35 5.34 1.7 5 0 C5.66 0 6.32 0 7 0 C7.33 0.99 7.66 1.98 8 3 C8.7425 2.835 9.485 2.67 10.25 2.5 C13 2 13 2 17 2 C17 3.32 17 4.64 17 6 C10.06590689 7.73352328 1.99597239 7.53853335 -5 6 C-5.66 5.34 -6.32 4.68 -7 4 C-7.66 4.66 -8.32 5.32 -9 6 C-9 4.68 -9 3.36 -9 2 C-6.36 2 -3.72 2 -1 2 C-0.67 1.34 -0.34 0.68 0 0 Z " fill="#28584A" transform="translate(121,6)"/>
<path d="M0 0 C0.66 0 1.32 0 2 0 C2.33 0.99 2.66 1.98 3 3 C3.33 2.67 3.66 2.34 4 2 C6.33297433 1.95907063 8.66705225 1.95758277 11 2 C11.33 3.32 11.66 4.64 12 6 C11.360625 6.12375 10.72125 6.2475 10.0625 6.375 C9.381875 6.58125 8.70125 6.7875 8 7 C7.67 7.66 7.34 8.32 7 9 C5.56206608 8.68950274 4.1246682 8.3765224 2.6875 8.0625 C1.88699219 7.88847656 1.08648437 7.71445313 0.26171875 7.53515625 C-2 7 -2 7 -5 6 C-4.67 4.35 -4.34 2.7 -4 1 C-3.34 1 -2.68 1 -2 1 C-1.67 1.66 -1.34 2.32 -1 3 C-0.67 2.01 -0.34 1.02 0 0 Z " fill="#6A4A3D" transform="translate(144,83)"/>
<path d="M0 0 C0.66 0 1.32 0 2 0 C2 1.65 2 3.3 2 5 C2.66 5 3.32 5 4 5 C4 4.01 4 3.02 4 2 C8.29 2 12.58 2 17 2 C17 2.66 17 3.32 17 4 C16.01 4 15.02 4 14 4 C13.67 4.66 13.34 5.32 13 6 C10.525 5.505 10.525 5.505 8 5 C8 5.99 8 6.98 8 8 C4.7 7.67 1.4 7.34 -2 7 C-2 6.34 -2 5.68 -2 5 C-2.99 5.33 -3.98 5.66 -5 6 C-4.67 4.35 -4.34 2.7 -4 1 C-3.34 1 -2.68 1 -2 1 C-1.67 2.32 -1.34 3.64 -1 5 C-0.34 5 0.32 5 1 5 C0.67 3.35 0.34 1.7 0 0 Z " fill="#765142" transform="translate(487,83)"/>
<path d="M0 0 C0.66 0.66 1.32 1.32 2 2 C3.93681136 2.27654388 3.93681136 2.27654388 6.1328125 2.1953125 C6.93847656 2.18886719 7.74414062 2.18242187 8.57421875 2.17578125 C9.41597656 2.15902344 10.25773437 2.14226563 11.125 2.125 C11.97449219 2.11597656 12.82398437 2.10695313 13.69921875 2.09765625 C15.79959884 2.07405647 17.89983444 2.03818483 20 2 C19.34 3.32 18.68 4.64 18 6 C15.03 6 12.06 6 9 6 C9 6.66 9 7.32 9 8 C8.34 8 7.68 8 7 8 C7 7.34 7 6.68 7 6 C4.36 6.33 1.72 6.66 -1 7 C-0.67 4.69 -0.34 2.38 0 0 Z " fill="#714C70" transform="translate(78,6)"/>
<path d="M0 0 C0.66 0 1.32 0 2 0 C2.33 0.99 2.66 1.98 3 3 C3.33 2.67 3.66 2.34 4 2 C6.33297433 1.95907063 8.66705225 1.95758277 11 2 C11 3.32 11 4.64 11 6 C7.91214401 7.83166003 6.04199685 8.19090024 2.5 7.6875 C1.37078125 7.53861328 1.37078125 7.53861328 0.21875 7.38671875 C-1.88821634 7.01948342 -3.93378882 6.54942434 -6 6 C-5.67 4.35 -5.34 2.7 -5 1 C-2.00667261 1.9977758 -1.05233685 2.7522025 1 5 C0.67 3.35 0.34 1.7 0 0 Z " fill="#704D41" transform="translate(269,83)"/>
<path d="M0 0 C0 0.99 0 1.98 0 3 C-1.32 3 -2.64 3 -4 3 C-4.33 4.32 -4.66 5.64 -5 7 C-5.66 7 -6.32 7 -7 7 C-7.33 6.34 -7.66 5.68 -8 5 C-8.33 5.33 -8.66 5.66 -9 6 C-11.67058851 6.14115161 -14.32432238 6.04247107 -17 6 C-17 5.01 -17 4.02 -17 3 C-17.66 3 -18.32 3 -19 3 C-18.67 3.99 -18.34 4.98 -18 6 C-18.66 6 -19.32 6 -20 6 C-20.33 4.68 -20.66 3.36 -21 2 C-19 1 -19 1 -15.9375 1.5625 C-11.79840943 2.02239895 -8.98043113 1.51930962 -5.015625 0.47265625 C-3 0 -3 0 0 0 Z " fill="#855A49" transform="translate(249,83)"/>
<path d="M0 0 C0.66 0 1.32 0 2 0 C2.33 1.32 2.66 2.64 3 4 C3.33 3.34 3.66 2.68 4 2 C4.99 2 5.98 2 7 2 C7 3.32 7 4.64 7 6 C1.62915894 6.68201156 -3.58500559 7.11521265 -9 7 C-9 5.33333333 -9 3.66666667 -9 2 C-6.36 2 -3.72 2 -1 2 C-0.67 1.34 -0.34 0.68 0 0 Z " fill="#547885" transform="translate(15,50)"/>
<path d="M0 0 C6.49090909 0.89090909 6.49090909 0.89090909 9.625 1.5625 C12.13195919 2.02430827 14.45661228 2.07266822 17 2 C16.34 3.32 15.68 4.64 15 6 C12.66666667 6 10.33333333 6 8 6 C8 6.66 8 7.32 8 8 C6.68 8 5.36 8 4 8 C3.67 7.34 3.34 6.68 3 6 C2.34 6 1.68 6 1 6 C0.67 4.02 0.34 2.04 0 0 Z " fill="#724E3F" transform="translate(206,83)"/>
<path d="M0 0 C3.31133524 0.18244271 6.59795449 0.52175166 9.8984375 0.84375 C13.03535675 1.19019182 13.03535675 1.19019182 16 0 C16 1.65 16 3.3 16 5 C9.9453125 5.1953125 9.9453125 5.1953125 8 5 C7.34 4.34 6.68 3.68 6 3 C5.5875 3.495 5.175 3.99 4.75 4.5 C3 6 3 6 -1 6 C-1.042721 4.33388095 -1.04063832 2.66617115 -1 1 C-0.67 0.67 -0.34 0.34 0 0 Z " fill="#745141" transform="translate(64,84)"/>
<path d="M0 0 C0.66 0.66 1.32 1.32 2 2 C4.68839385 2.26991906 7.29141936 2.08737357 10 2 C10 3.32 10 4.64 10 6 C3.25 7.125 3.25 7.125 1 6 C-0.37342831 5.9310528 -1.75002102 5.91532292 -3.125 5.9375 C-5.043125 5.9684375 -5.043125 5.9684375 -7 6 C-7 4.68 -7 3.36 -7 2 C-6.21625 2.04125 -5.4325 2.0825 -4.625 2.125 C-1.83883881 2.28728734 -1.83883881 2.28728734 0 0 Z " fill="#2C705F" transform="translate(146,105)"/>
<path d="M0 0 C0.33 0 0.66 0 1 0 C1.33 1.65 1.66 3.3 2 5 C2.33 3.35 2.66 1.7 3 0 C3.33 0 3.66 0 4 0 C4.33 2.31 4.66 4.62 5 7 C-0.41499441 7.11521265 -5.62915894 6.68201156 -11 6 C-11 4.68 -11 3.36 -11 2 C-7.37 2 -3.74 2 0 2 C0 1.34 0 0.68 0 0 Z " fill="#4B7288" transform="translate(177,105)"/>
<path d="M0 0 C0.33 0 0.66 0 1 0 C1 1.65 1 3.3 1 5 C1.66 5 2.32 5 3 5 C3.33 4.01 3.66 3.02 4 2 C4.99 2.33 5.98 2.66 7 3 C6.34 3 5.68 3 5 3 C5.33 3.99 5.66 4.98 6 6 C2.91701949 7.02766017 0.66869574 7.16598738 -2.5625 7.1875 C-4.01849609 7.20876953 -4.01849609 7.20876953 -5.50390625 7.23046875 C-8 7 -8 7 -10 5 C-10 3.68 -10 2.36 -10 1 C-9.01 1.33 -8.02 1.66 -7 2 C-7.33 2.99 -7.66 3.98 -8 5 C-7.34 5 -6.68 5 -6 5 C-6 4.01 -6 3.02 -6 2 C-4.68 2 -3.36 2 -2 2 C-1.67 2.33 -1.34 2.66 -1 3 C-0.67 2.01 -0.34 1.02 0 0 Z " fill="#6F4D40" transform="translate(519,83)"/>
<path d="M0 0 C3.96 0.33 7.92 0.66 12 1 C11.67 2.65 11.34 4.3 11 6 C9.35425434 6.02688151 7.70838587 6.04634123 6.0625 6.0625 C5.14597656 6.07410156 4.22945312 6.08570312 3.28515625 6.09765625 C1 6 1 6 0 5 C0 3.35 0 1.7 0 0 Z " fill="#7A5142" transform="translate(166,84)"/>
<path d="M0 0 C0.66 0 1.32 0 2 0 C2.33 0.99 2.66 1.98 3 3 C3.763125 2.814375 4.52625 2.62875 5.3125 2.4375 C8 2 8 2 11 3 C11 4.32 11 5.64 11 7 C7.04 7 3.08 7 -1 7 C-0.67 4.69 -0.34 2.38 0 0 Z " fill="#68493C" transform="translate(122,83)"/>
<path d="M0 0 C3.96 0.33 7.92 0.66 12 1 C12 2.32 12 3.64 12 5 C8.32307787 6.17661508 4.8361222 6.14475933 1 6 C0.67 5.67 0.34 5.34 0 5 C0 3.35 0 1.7 0 0 Z " fill="#7C5342" transform="translate(291,84)"/>
<path d="M0 0 C1.65322266 0.01740234 1.65322266 0.01740234 3.33984375 0.03515625 C4.99693359 0.04869141 4.99693359 0.04869141 6.6875 0.0625 C7.54214844 0.07410156 8.39679687 0.08570313 9.27734375 0.09765625 C8.40234375 3.97265625 8.40234375 3.97265625 7.27734375 5.09765625 C5.75806337 5.16945589 4.23566893 5.18157632 2.71484375 5.16015625 C1.88855469 5.15113281 1.06226563 5.14210938 0.2109375 5.1328125 C-0.42714844 5.12121094 -1.06523437 5.10960937 -1.72265625 5.09765625 C-2.38265625 3.77765625 -3.04265625 2.45765625 -3.72265625 1.09765625 C-2.72265625 0.09765625 -2.72265625 0.09765625 0 0 Z " fill="#23423D" transform="translate(30.72265625,7.90234375)"/>
<path d="M0 0 C3.3 0.33 6.6 0.66 10 1 C10 1.66 10 2.32 10 3 C10.66 3 11.32 3 12 3 C12.33 2.34 12.66 1.68 13 1 C14.32 1 15.64 1 17 1 C17 2.65 17 4.3 17 6 C15.35 6 13.7 6 12 6 C12 5.34 12 4.68 12 4 C11.34 4 10.68 4 10 4 C9.67 4.66 9.34 5.32 9 6 C7.35 5.67 5.7 5.34 4 5 C4 4.01 4 3.02 4 2 C2.68 2 1.36 2 0 2 C0 1.34 0 0.68 0 0 Z " fill="#6F4E40" transform="translate(45,50)"/>
<path d="M0 0 C4.29 0 8.58 0 13 0 C13 1.32 13 2.64 13 4 C10.36 4.66 7.72 5.32 5 6 C5 5.34 5 4.68 5 4 C3.35 4 1.7 4 0 4 C0 2.68 0 1.36 0 0 Z " fill="#74507D" transform="translate(9,19)"/>
<path d="M0 0 C0.66 0 1.32 0 2 0 C2 0.66 2 1.32 2 2 C4.97 2 7.94 2 11 2 C11 3.32 11 4.64 11 6 C6.71 6 2.42 6 -2 6 C-1.34 5.67 -0.68 5.34 0 5 C-0.66 4.67 -1.32 4.34 -2 4 C-2 3.34 -2 2.68 -2 2 C-1.34 2 -0.68 2 0 2 C0 1.34 0 0.68 0 0 Z " fill="#2B6958" transform="translate(52,17)"/>
<path d="M0 0 C0.99 0 1.98 0 3 0 C3 0.99 3 1.98 3 3 C2.01 3 1.02 3 0 3 C-0.33 3.99 -0.66 4.98 -1 6 C-3.64 6 -6.28 6 -9 6 C-9.33 4.68 -9.66 3.36 -10 2 C-6.91600325 1.08622319 -4.20134157 1 -1 1 C-0.67 0.67 -0.34 0.34 0 0 Z " fill="#6F4D3F" transform="translate(166,61)"/>
<path d="M0 0 C1.65322266 0.01740234 1.65322266 0.01740234 3.33984375 0.03515625 C4.99693359 0.04869141 4.99693359 0.04869141 6.6875 0.0625 C7.54214844 0.07410156 8.39679688 0.08570312 9.27734375 0.09765625 C8.61734375 1.74765625 7.95734375 3.39765625 7.27734375 5.09765625 C4.30734375 5.09765625 1.33734375 5.09765625 -1.72265625 5.09765625 C-2.38265625 3.77765625 -3.04265625 2.45765625 -3.72265625 1.09765625 C-2.72265625 0.09765625 -2.72265625 0.09765625 0 0 Z " fill="#466474" transform="translate(253.72265625,106.90234375)"/>
<path d="M0 0 C0.66 0 1.32 0 2 0 C2 1.32 2 2.64 2 4 C2.33 3.34 2.66 2.68 3 2 C5.32156597 1.59270772 7.6568787 1.25561323 10 1 C10 2.65 10 4.3 10 6 C6.04 6 2.08 6 -2 6 C-2 4.68 -2 3.36 -2 2 C-1.34 2 -0.68 2 0 2 C0 1.34 0 0.68 0 0 Z " fill="#57849A" transform="translate(34,94)"/>
<path d="M0 0 C0 0.66 0 1.32 0 2 C-1.32 2 -2.64 2 -4 2 C-4.33 3.65 -4.66 5.3 -5 7 C-7.31 6.67 -9.62 6.34 -12 6 C-12.33 4.68 -12.66 3.36 -13 2 C-12.2575 1.855625 -11.515 1.71125 -10.75 1.5625 C-9.13600307 1.23236426 -7.52686625 0.87096352 -5.9375 0.4375 C-4 0 -4 0 0 0 Z " fill="#765042" transform="translate(129,61)"/>
<path d="M0 0 C1.299375 0.2475 1.299375 0.2475 2.625 0.5 C5.81225199 0.97218548 8.78485027 1.07655118 12 1 C11.34 2.65 10.68 4.3 10 6 C8.52093108 6.02689216 7.04172517 6.04634621 5.5625 6.0625 C4.32693359 6.07990234 4.32693359 6.07990234 3.06640625 6.09765625 C1 6 1 6 0 5 C-0.04063832 3.33382885 -0.042721 1.66611905 0 0 Z " fill="#694A3C" transform="translate(349,84)"/>
<path d="M0 0 C0 0.66 0 1.32 0 2 C-1.32 2 -2.64 2 -4 2 C-4.33 3.32 -4.66 4.64 -5 6 C-7.31 6 -9.62 6 -12 6 C-12.33 4.68 -12.66 3.36 -13 2 C-12.2575 1.855625 -11.515 1.71125 -10.75 1.5625 C-9.13600307 1.23236426 -7.52686625 0.87096352 -5.9375 0.4375 C-4 0 -4 0 0 0 Z " fill="#7F5747" transform="translate(89,61)"/>
<path d="M0 0 C0.33 1.32 0.66 2.64 1 4 C1.66 4 2.32 4 3 4 C3 2.68 3 1.36 3 0 C6 0 9 0 12 0 C12.33 1.65 12.66 3.3 13 5 C11.948125 4.979375 10.89625 4.95875 9.8125 4.9375 C6.66676527 4.98906942 4.05114124 5.37182386 1 6 C0 5 0 5 -0.0625 2.4375 C-0.041875 1.633125 -0.02125 0.82875 0 0 Z " fill="#825847" transform="translate(94,95)"/>
<path d="M0 0 C2.64 0.33 5.28 0.66 8 1 C8 2.32 8 3.64 8 5 C8.66 5 9.32 5 10 5 C9.67 3.35 9.34 1.7 9 0 C9.66 0 10.32 0 11 0 C11.33 2.31 11.66 4.62 12 7 C8.65747276 7.07427838 6.1964086 7.06546953 3 6 C3 4.68 3 3.36 3 2 C2.01 2 1.02 2 0 2 C0 1.34 0 0.68 0 0 Z " fill="#7C5241" transform="translate(126,72)"/>
<path d="M0 0 C0 1.65 0 3.3 0 5 C-0.804375 4.814375 -1.60875 4.62875 -2.4375 4.4375 C-3.283125 4.293125 -4.12875 4.14875 -5 4 C-5.33 4.33 -5.66 4.66 -6 5 C-7.99958364 5.04080783 -10.00045254 5.04254356 -12 5 C-11.67 3.35 -11.34 1.7 -11 0 C-3.375 -1.125 -3.375 -1.125 0 0 Z " fill="#547A94" transform="translate(44,107)"/>
<path d="M0 0 C0.33 0 0.66 0 1 0 C1 1.65 1 3.3 1 5 C1.37125 4.505 1.7425 4.01 2.125 3.5 C4.74694393 1.40244486 6.73842472 1.78256165 10 2 C10.5625 3.9375 10.5625 3.9375 11 6 C10 7 10 7 7.49609375 7.09765625 C5.98208984 7.08025391 5.98208984 7.08025391 4.4375 7.0625 C3.42558594 7.05347656 2.41367188 7.04445313 1.37109375 7.03515625 C0.58863281 7.02355469 -0.19382812 7.01195313 -1 7 C-0.67 4.69 -0.34 2.38 0 0 Z " fill="#4E6F7E" transform="translate(11,72)"/>
<path d="M0 0 C1.65 0 3.3 0 5 0 C5.33 2.31 5.66 4.62 6 7 C3.36 6.67 0.72 6.34 -2 6 C-2 4.68 -2 3.36 -2 2 C-1.34 2 -0.68 2 0 2 C0 1.34 0 0.68 0 0 Z " fill="#3C5262" transform="translate(25,105)"/>
<path d="M0 0 C0.99 0 1.98 0 3 0 C3 0.99 3 1.98 3 3 C1.68 3 0.36 3 -1 3 C-1.33 4.32 -1.66 5.64 -2 7 C-2.66 7 -3.32 7 -4 7 C-4.33 6.34 -4.66 5.68 -5 5 C-6.32 5.33 -7.64 5.66 -9 6 C-9 4.68 -9 3.36 -9 2 C-6.94921875 1.77213542 -4.8984375 1.54427083 -2.84765625 1.31640625 C-0.98859771 1.18113386 -0.98859771 1.18113386 0 0 Z " fill="#604338" transform="translate(411,83)"/>
<path d="M0 0 C0.33 1.32 0.66 2.64 1 4 C1.66 4 2.32 4 3 4 C3.33 2.68 3.66 1.36 4 0 C5.32 0 6.64 0 8 0 C8.66 0.99 9.32 1.98 10 3 C10 2.01 10 1.02 10 0 C10.99 0.33 11.98 0.66 13 1 C12.67 2.32 12.34 3.64 12 5 C10.18818595 5.19401633 8.37551468 5.38004375 6.5625 5.5625 C5.04849609 5.71912109 5.04849609 5.71912109 3.50390625 5.87890625 C2.67761719 5.91886719 1.85132812 5.95882812 1 6 C0 5 0 5 -0.0625 2.4375 C-0.041875 1.633125 -0.02125 0.82875 0 0 Z " fill="#7F5746" transform="translate(85,51)"/>
<path d="M0 0 C3.63 0.33 7.26 0.66 11 1 C11.33 2.65 11.66 4.3 12 6 C8.625 6.625 8.625 6.625 5 7 C4.34 6.34 3.68 5.68 3 5 C3 4.01 3 3.02 3 2 C2.01 2 1.02 2 0 2 C0 1.34 0 0.68 0 0 Z " fill="#704D41" transform="translate(144,94)"/>
<path d="M0 0 C0.33 0.66 0.66 1.32 1 2 C4.96 2 8.92 2 13 2 C13 2.66 13 3.32 13 4 C12.01 4 11.02 4 10 4 C9.67 4.66 9.34 5.32 9 6 C6.03 6 3.06 6 0 6 C0 4.02 0 2.04 0 0 Z " fill="#4D7990" transform="translate(5,61)"/>
<path d="M0 0 C3.96 0 7.92 0 12 0 C12 1.32 12 2.64 12 4 C5.9453125 4.1953125 5.9453125 4.1953125 4 4 C3.34 3.34 2.68 2.68 2 2 C1.34 2.66 0.68 3.32 0 4 C0 2.68 0 1.36 0 0 Z " fill="#754E73" transform="translate(10,8)"/>
<path d="M0 0 C0.99 0 1.98 0 3 0 C3.33 1.32 3.66 2.64 4 4 C4 2.68 4 1.36 4 0 C5.32 0 6.64 0 8 0 C8.042721 1.66611905 8.04063832 3.33382885 8 5 C7 6 7 6 5.15234375 6.09765625 C3.1015625 6.06510417 1.05078125 6.03255208 -1 6 C-0.649375 5.38125 -0.29875 4.7625 0.0625 4.125 C0.371875 3.42375 0.68125 2.7225 1 2 C0.67 1.34 0.34 0.68 0 0 Z " fill="#546150" transform="translate(233,95)"/>
<path d="M0 0 C1.32 0 2.64 0 4 0 C4 0.99 4 1.98 4 3 C4.556875 2.67 5.11375 2.34 5.6875 2 C8.30284522 0.8690399 10.1806646 0.84337026 13 1 C12.34 2.32 11.68 3.64 11 5 C8.36 5 5.72 5 3 5 C3 4.34 3 3.68 3 3 C2.34 3 1.68 3 1 3 C0.67 3.66 0.34 4.32 0 5 C0 3.35 0 1.7 0 0 Z " fill="#825644" transform="translate(85,73)"/>
<path d="M0 0 C2.33944736 0.28730055 4.6739143 0.61936779 7 1 C7 2.32 7 3.64 7 5 C4.69 5.33 2.38 5.66 0 6 C-0.38218767 4.34385343 -0.71395102 2.67542976 -1 1 C-0.67 0.67 -0.34 0.34 0 0 Z " fill="#32442A" transform="translate(15,40)"/>
<path d="M0 0 C1.134375 0.020625 2.26875 0.04125 3.4375 0.0625 C3.1075 1.7125 2.7775 3.3625 2.4375 5.0625 C0.4575 5.0625 -1.5225 5.0625 -3.5625 5.0625 C-4.125 3.125 -4.125 3.125 -4.5625 1.0625 C-3.5625 0.0625 -3.5625 0.0625 0 0 Z " fill="#486573" transform="translate(49.5625,106.9375)"/>
<path d="M0 0 C0 0.99 0 1.98 0 3 C-1.32 3 -2.64 3 -4 3 C-4.33 4.32 -4.66 5.64 -5 7 C-5.66 7 -6.32 7 -7 7 C-7.33 6.34 -7.66 5.68 -8 5 C-8.99 5 -9.98 5 -11 5 C-11 4.34 -11 3.68 -11 3 C-9.73160474 2.49384702 -8.46016898 1.99530901 -7.1875 1.5 C-6.12595703 1.08234375 -6.12595703 1.08234375 -5.04296875 0.65625 C-3 0 -3 0 0 0 Z " fill="#543B32" transform="translate(249,83)"/>
<path d="M0 0 C0.33 0.66 0.66 1.32 1 2 C1.66 2.33 2.32 2.66 3 3 C2.34 3 1.68 3 1 3 C1 3.66 1 4.32 1 5 C1.66 5.33 2.32 5.66 3 6 C-3.0546875 6.1953125 -3.0546875 6.1953125 -5 6 C-5.66 5.34 -6.32 4.68 -7 4 C-7.66 4.66 -8.32 5.32 -9 6 C-9 4.68 -9 3.36 -9 2 C-6.36 2 -3.72 2 -1 2 C-0.67 1.34 -0.34 0.68 0 0 Z " fill="#2E7966" transform="translate(121,6)"/>
<path d="M0 0 C2.64 0 5.28 0 8 0 C8 1.65 8 3.3 8 5 C5.36 5.33 2.72 5.66 0 6 C0.66 4.35 1.32 2.7 2 1 C1.34 0.67 0.68 0.34 0 0 Z " fill="#62735A" transform="translate(197,106)"/>
<path d="M0 0 C2.31 0 4.62 0 7 0 C7.33 1.65 7.66 3.3 8 5 C6.68 5 5.36 5 4 5 C2.65835921 5.2981424 1.32148827 5.62243192 0 6 C0.185625 5.38125 0.37125 4.7625 0.5625 4.125 C1.23686176 1.95839822 1.23686176 1.95839822 0 0 Z " fill="#64775D" transform="translate(215,106)"/>
<path d="M0 0 C2.64 0 5.28 0 8 0 C8 1.65 8 3.3 8 5 C5.36 5 2.72 5 0 5 C0 3.35 0 1.7 0 0 Z " fill="#815645" transform="translate(197,62)"/>
<path d="M0 0 C0.86625 0.2784375 0.86625 0.2784375 1.75 0.5625 C4.20692525 1.04023546 5.64397534 0.75729364 8 0 C8 1.32 8 2.64 8 4 C5.36 4.33 2.72 4.66 0 5 C0 3.35 0 1.7 0 0 Z " fill="#4C6F7E" transform="translate(112,107)"/>
<path d="M0 0 C0 0.99 0 1.98 0 3 C-5.25714286 7 -5.25714286 7 -8 7 C-8 5.02 -8 3.04 -8 1 C-5.10765685 0.17361624 -3.11257569 0 0 0 Z " fill="#543E34" transform="translate(71,50)"/>
<path d="M0 0 C0.33 0.66 0.66 1.32 1 2 C2.65 2 4.3 2 6 2 C5.67 3.32 5.34 4.64 5 6 C2.69 6 0.38 6 -2 6 C-1.125 1.125 -1.125 1.125 0 0 Z " fill="#39502F" transform="translate(65,39)"/>
<path d="M0 0 C2.33944736 0.28730055 4.6739143 0.61936779 7 1 C6.375 2.9375 6.375 2.9375 5 5 C1.875 5.75 1.875 5.75 -1 6 C-1.042721 4.33388095 -1.04063832 2.66617115 -1 1 C-0.67 0.67 -0.34 0.34 0 0 Z " fill="#275B4F" transform="translate(46,7)"/>
<path d="M0 0 C0.66 0 1.32 0 2 0 C2.33 0.66 2.66 1.32 3 2 C4.32 2 5.64 2 7 2 C6.67 3.32 6.34 4.64 6 6 C3.69 6.33 1.38 6.66 -1 7 C-0.67 4.69 -0.34 2.38 0 0 Z " fill="#634768" transform="translate(278,105)"/>
<path d="M0 0 C0.66 0 1.32 0 2 0 C2.33 2.31 2.66 4.62 3 7 C0.69 7 -1.62 7 -4 7 C-4.33 5.35 -4.66 3.7 -5 2 C-4.67 2.99 -4.34 3.98 -4 5 C-3.34 5 -2.68 5 -2 5 C-1.67 4.01 -1.34 3.02 -1 2 C-0.67 1.34 -0.34 0.68 0 0 Z " fill="#496E85" transform="translate(59,94)"/>
<path d="M0 0 C1.1446875 0.2784375 1.1446875 0.2784375 2.3125 0.5625 C5.08967375 1.22819173 5.08967375 1.22819173 8 0 C8 1.32 8 2.64 8 4 C5.36 4.66 2.72 5.32 0 6 C0 4.02 0 2.04 0 0 Z " fill="#578198" transform="translate(14,96)"/>
<path d="M0 0 C0.99 0 1.98 0 3 0 C3 0.99 3 1.98 3 3 C3.33 2.01 3.66 1.02 4 0 C4.99 0.33 5.98 0.66 7 1 C6.67 2.32 6.34 3.64 6 5 C4.02 5 2.04 5 0 5 C-0.5625 3.0625 -0.5625 3.0625 -1 1 C-0.67 0.67 -0.34 0.34 0 0 Z " fill="#69493D" transform="translate(104,74)"/>
<path d="M0 0 C0.86625 0.2784375 0.86625 0.2784375 1.75 0.5625 C4.20692525 1.04023546 5.64397534 0.75729364 8 0 C8 1.32 8 2.64 8 4 C5.36 4.33 2.72 4.66 0 5 C0 3.35 0 1.7 0 0 Z " fill="#4F7182" transform="translate(304,107)"/>
<path d="M0 0 C-0.33 1.32 -0.66 2.64 -1 4 C-4.01031744 4.93423645 -4.86650268 5.04449911 -8 4 C-8 2.68 -8 1.36 -8 0 C-4.71303767 -0.79953138 -3.28976808 -1.09658936 0 0 Z " fill="#4C6F80" transform="translate(191,107)"/>
<path d="M0 0 C0.33 0 0.66 0 1 0 C1 1.98 1 3.96 1 6 C-1.64 6 -4.28 6 -7 6 C-6.67 4.68 -6.34 3.36 -6 2 C-4.7934375 1.7834375 -4.7934375 1.7834375 -3.5625 1.5625 C-1.07896294 1.25864751 -1.07896294 1.25864751 0 0 Z " fill="#795242" transform="translate(476,83)"/>
<path d="M0 0 C0.66 0 1.32 0 2 0 C2.33 0.66 2.66 1.32 3 2 C4.32 2 5.64 2 7 2 C6.67 3.32 6.34 4.64 6 6 C6 5.01 6 4.02 6 3 C5.34 3 4.68 3 4 3 C3.67 3.99 3.34 4.98 3 6 C1.35 5.67 -0.3 5.34 -2 5 C-1.34 3.35 -0.68 1.7 0 0 Z " fill="#724E40" transform="translate(100,83)"/>
<path d="M0 0 C0.66 0 1.32 0 2 0 C2.33 2.31 2.66 4.62 3 7 C0.36 6.67 -2.28 6.34 -5 6 C-4.67 4.68 -4.34 3.36 -4 2 C-3.01 2.33 -2.02 2.66 -1 3 C-0.67 2.01 -0.34 1.02 0 0 Z " fill="#3B512F" transform="translate(104,39)"/>
<path d="M0 0 C2.64 0 5.28 0 8 0 C7.34 1.65 6.68 3.3 6 5 C4.35 5 2.7 5 1 5 C0.67 3.35 0.34 1.7 0 0 Z " fill="#4C7387" transform="translate(295,107)"/>
<path d="M0 0 C2.64 0 5.28 0 8 0 C7.34 1.65 6.68 3.3 6 5 C4.35 5 2.7 5 1 5 C0.67 3.35 0.34 1.7 0 0 Z " fill="#497086" transform="translate(103,107)"/>
<path d="M0 0 C1.32 0.33 2.64 0.66 4 1 C3.67 2.65 3.34 4.3 3 6 C0.03 6 -2.94 6 -6 6 C-4.68 5.34 -3.36 4.68 -2 4 C-1.34 4.33 -0.68 4.66 0 5 C0 3.35 0 1.7 0 0 Z " fill="#473630" transform="translate(107,95)"/>
<path d="M0 0 C2.31 0.33 4.62 0.66 7 1 C6.67 2.32 6.34 3.64 6 5 C3.69 5.33 1.38 5.66 -1 6 C-0.67 4.02 -0.34 2.04 0 0 Z " fill="#6A4E41" transform="translate(55,84)"/>
<path d="M0 0 C2.64 0 5.28 0 8 0 C8 1.65 8 3.3 8 5 C5.36 4.67 2.72 4.34 0 4 C0 2.68 0 1.36 0 0 Z " fill="#734E3F" transform="translate(54,74)"/>
<path d="M0 0 C0.66 0.66 1.32 1.32 2 2 C3.32 2 4.64 2 6 2 C5.3125 3.9375 5.3125 3.9375 4 6 C1.375 6.75 1.375 6.75 -1 7 C-1.625 4.625 -1.625 4.625 -2 2 C-1.34 1.34 -0.68 0.68 0 0 Z " fill="#724F41" transform="translate(141,72)"/>
<path d="M0 0 C2.31 0 4.62 0 7 0 C6.67 1.32 6.34 2.64 6 4 C5.01 3.67 4.02 3.34 3 3 C3 3.66 3 4.32 3 5 C1.68 5 0.36 5 -1 5 C-0.67 3.35 -0.34 1.7 0 0 Z " fill="#7F5746" transform="translate(104,62)"/>
<path d="M0 0 C0.66 0 1.32 0 2 0 C2 0.99 2 1.98 2 3 C2.66 2.34 3.32 1.68 4 1 C4.99 0.67 5.98 0.34 7 0 C7 1.65 7 3.3 7 5 C5.68 5 4.36 5 3 5 C1.65835921 5.2981424 0.32148827 5.62243192 -1 6 C-0.67 4.02 -0.34 2.04 0 0 Z " fill="#745244" transform="translate(131,51)"/>
<path d="M0 0 C0.66 0 1.32 0 2 0 C2 1.98 2 3.96 2 6 C1.34 5.67 0.68 5.34 0 5 C0.33 4.34 0.66 3.68 1 3 C0.34 3 -0.32 3 -1 3 C-1 4.32 -1 5.64 -1 7 C-2.32 6.67 -3.64 6.34 -5 6 C-4.67 4.68 -4.34 3.36 -4 2 C-2.68 2 -1.36 2 0 2 C0 1.34 0 0.68 0 0 Z " fill="#344529" transform="translate(95,39)"/>
<path d="M0 0 C0.33 1.32 0.66 2.64 1 4 C1.66 4 2.32 4 3 4 C3.33 2.68 3.66 1.36 4 0 C5.32 0.33 6.64 0.66 8 1 C7.34 1 6.68 1 6 1 C6 1.99 6 2.98 6 4 C6.66 4 7.32 4 8 4 C8 4.66 8 5.32 8 6 C7.4225 5.835 6.845 5.67 6.25 5.5 C3.73335631 4.85537969 3.73335631 4.85537969 0 5 C0 3.35 0 1.7 0 0 Z " fill="#7C5746" transform="translate(201,95)"/>
<path d="M0 0 C2.31 0 4.62 0 7 0 C7.33 1.32 7.66 2.64 8 4 C7.01 4.33 6.02 4.66 5 5 C4.67 4.34 4.34 3.68 4 3 C2.68 3.33 1.36 3.66 0 4 C0 2.68 0 1.36 0 0 Z " fill="#4E7183" transform="translate(23,85)"/>
<path d="M0 0 C0.66 0 1.32 0 2 0 C2 1.32 2 2.64 2 4 C2.66 4 3.32 4 4 4 C4 3.01 4 2.02 4 1 C5.32 1 6.64 1 8 1 C8 2.32 8 3.64 8 5 C5.6739143 5.38063221 3.33944736 5.71269945 1 6 C0 5 0 5 -0.0625 2.4375 C-0.041875 1.633125 -0.02125 0.82875 0 0 Z " fill="#694A3F" transform="translate(45,73)"/>
<path d="M0 0 C0.86625 0.2784375 0.86625 0.2784375 1.75 0.5625 C4.20692525 1.04023546 5.64397534 0.75729364 8 0 C8 1.32 8 2.64 8 4 C5.36 4 2.72 4 0 4 C0 2.68 0 1.36 0 0 Z " fill="#4F7386" transform="translate(72,107)"/>
<path d="M0 0 C0.66 0.33 1.32 0.66 2 1 C1.67 1.66 1.34 2.32 1 3 C1.433125 2.505 1.86625 2.01 2.3125 1.5 C4 0 4 0 7 0 C7 1.32 7 2.64 7 4 C4.69 4.33 2.38 4.66 0 5 C-0.5625 3.0625 -0.5625 3.0625 -1 1 C-0.67 0.67 -0.34 0.34 0 0 Z " fill="#517685" transform="translate(6,96)"/>
<path d="M0 0 C-0.33 0.99 -0.66 1.98 -1 3 C-4.0625 4.1875 -4.0625 4.1875 -7 5 C-7 3.35 -7 1.7 -7 0 C-4.3333581 -1.33332095 -2.83319697 -0.67102033 0 0 Z " fill="#67473A" transform="translate(281,86)"/>
<path d="M0 0 C1.2065625 0.0309375 1.2065625 0.0309375 2.4375 0.0625 C2.7675 2.0425 3.0975 4.0225 3.4375 6.0625 C2.7775 6.0625 2.1175 6.0625 1.4375 6.0625 C1.4375 5.0725 1.4375 4.0825 1.4375 3.0625 C0.98375 3.5575 0.53 4.0525 0.0625 4.5625 C-1.5625 6.0625 -1.5625 6.0625 -3.5625 6.0625 C-3.605221 4.39638095 -3.60313832 2.72867115 -3.5625 1.0625 C-2.5625 0.0625 -2.5625 0.0625 0 0 Z " fill="#384F2F" transform="translate(31.5625,38.9375)"/>
<path d="M0 0 C2.64 0 5.28 0 8 0 C7.67 1.32 7.34 2.64 7 4 C4.69 4 2.38 4 0 4 C0 2.68 0 1.36 0 0 Z " fill="#2D745E" transform="translate(32,8)"/>
<path d="M0 0 C2.64 0 5.28 0 8 0 C7.34 1.32 6.68 2.64 6 4 C4.02 4 2.04 4 0 4 C0 2.68 0 1.36 0 0 Z " fill="#6E4A69" transform="translate(237,107)"/>
<path d="M0 0 C2.64 0 5.28 0 8 0 C8 1.32 8 2.64 8 4 C6.68 4 5.36 4 4 4 C4 3.34 4 2.68 4 2 C3.01 2 2.02 2 1 2 C0.67 2.66 0.34 3.32 0 4 C0 2.68 0 1.36 0 0 Z " fill="#2D7262" transform="translate(130,107)"/>
<path d="M0 0 C2.33333333 0 4.66666667 0 7 0 C7 1.65 7 3.3 7 5 C5.02 5 3.04 5 1 5 C0.67 3.35 0.34 1.7 0 0 Z " fill="#6A7F68" transform="translate(180,95)"/>
<path d="M0 0 C4.875 0.875 4.875 0.875 6 2 C6.99 2 7.98 2 9 2 C9 2.99 9 3.98 9 5 C6.03 4.505 6.03 4.505 3 4 C3 3.01 3 2.02 3 1 C2.34 1 1.68 1 1 1 C0.67 2.32 0.34 3.64 0 5 C0 3.35 0 1.7 0 0 Z " fill="#7D5949" transform="translate(388,84)"/>
<path d="M0 0 C2.31 0 4.62 0 7 0 C7.33 1.32 7.66 2.64 8 4 C7.01 4.33 6.02 4.66 5 5 C4.67 4.34 4.34 3.68 4 3 C2.68 3.33 1.36 3.66 0 4 C0 2.68 0 1.36 0 0 Z " fill="#527785" transform="translate(32,63)"/>
<path d="M0 0 C0.33 0.66 0.66 1.32 1 2 C1.66 2 2.32 2 3 2 C3.33 1.34 3.66 0.68 4 0 C5.32 0 6.64 0 8 0 C8 1.65 8 3.3 8 5 C6.35 5 4.7 5 3 5 C3 4.34 3 3.68 3 3 C2.34 3 1.68 3 1 3 C0.67 3.66 0.34 4.32 0 5 C0 3.35 0 1.7 0 0 Z " fill="#8F604D" transform="translate(54,51)"/>
<path d="M0 0 C0.33 1.32 0.66 2.64 1 4 C1.66 4 2.32 4 3 4 C3.33 2.68 3.66 1.36 4 0 C5.32 0.33 6.64 0.66 8 1 C7.34 1 6.68 1 6 1 C6 1.99 6 2.98 6 4 C6.66 4.33 7.32 4.66 8 5 C5.6739143 5.38063221 3.33944736 5.71269945 1 6 C0 5 0 5 -0.0625 2.4375 C-0.041875 1.633125 -0.02125 0.82875 0 0 Z " fill="#845844" transform="translate(121,51)"/>
<path d="M0 0 C1.32 0.33 2.64 0.66 4 1 C4 2.32 4 3.64 4 5 C5.32 5.33 6.64 5.66 8 6 C5.66705225 6.04241723 3.33297433 6.04092937 1 6 C0 5 0 5 -0.0625 2.4375 C-0.041875 1.633125 -0.02125 0.82875 0 0 Z " fill="#533C33" transform="translate(291,84)"/>
<path d="M0 0 C1.32 0.33 2.64 0.66 4 1 C4 2.32 4 3.64 4 5 C5.32 5.33 6.64 5.66 8 6 C5.66705225 6.04241723 3.33297433 6.04092937 1 6 C0 5 0 5 -0.0625 2.4375 C-0.041875 1.633125 -0.02125 0.82875 0 0 Z " fill="#503C33" transform="translate(166,84)"/>
<path d="M0 0 C2.0625 0.4375 2.0625 0.4375 4 1 C3.67 2.65 3.34 4.3 3 6 C1.68 6 0.36 6 -1 6 C-1.042721 4.33388095 -1.04063832 2.66617115 -1 1 C-0.67 0.67 -0.34 0.34 0 0 Z " fill="#4C3933" transform="translate(64,84)"/>
<path d="M0 0 C0 1.32 0 2.64 0 4 C-2.31 4.33 -4.62 4.66 -7 5 C-7 3.68 -7 2.36 -7 1 C-4.50935112 0.31292445 -2.62113708 0 0 0 Z " fill="#694463" transform="translate(22,19)"/>
<path d="M0 0 C2.64 0 5.28 0 8 0 C7.34 1.32 6.68 2.64 6 4 C4.02 4 2.04 4 0 4 C0 2.68 0 1.36 0 0 Z " fill="#528096" transform="translate(63,107)"/>
<path d="M0 0 C1.32 0.33 2.64 0.66 4 1 C3.67 2.32 3.34 3.64 3 5 C0.69 5 -1.62 5 -4 5 C-2.68 3.35 -1.36 1.7 0 0 Z " fill="#594238" transform="translate(451,85)"/>
<path d="M0 0 C1.65 0.33 3.3 0.66 5 1 C4.67 2.32 4.34 3.64 4 5 C2.35 4.67 0.7 4.34 -1 4 C-0.67 2.68 -0.34 1.36 0 0 Z " fill="#4D3932" transform="translate(429,84)"/>
<path d="M0 0 C1.98 0 3.96 0 6 0 C6.33 1.32 6.66 2.64 7 4 C4.33333333 4 1.66666667 4 -1 4 C-0.67 2.68 -0.34 1.36 0 0 Z " fill="#795242" transform="translate(363,85)"/>
<path d="M0 0 C2.31 0 4.62 0 7 0 C7.33 1.32 7.66 2.64 8 4 C6.68 4.33 5.36 4.66 4 5 C4 4.34 4 3.68 4 3 C3.01 2.67 2.02 2.34 1 2 C0.67 2.66 0.34 3.32 0 4 C0 2.68 0 1.36 0 0 Z " fill="#4F748A" transform="translate(14,85)"/>
<path d="M0 0 C1.32 0 2.64 0 4 0 C4 1.32 4 2.64 4 4 C4.99 4.33 5.98 4.66 7 5 C4.69 5 2.38 5 0 5 C0 3.33333333 0 1.66666667 0 0 Z " fill="#45637B" transform="translate(6,52)"/>
<path d="M0 0 C2.64 0 5.28 0 8 0 C7.34 1.32 6.68 2.64 6 4 C4.02 4 2.04 4 0 4 C0 2.68 0 1.36 0 0 Z " fill="#3C542F" transform="translate(41,41)"/>
<path d="M0 0 C2.64 0 5.28 0 8 0 C8 1.32 8 2.64 8 4 C6.68 4 5.36 4 4 4 C4 3.34 4 2.68 4 2 C3.34 2 2.68 2 2 2 C1.34 2.66 0.68 3.32 0 4 C0 2.68 0 1.36 0 0 Z " fill="#308671" transform="translate(130,8)"/>
<path d="M0 0 C0.99 0.33 1.98 0.66 3 1 C3 2.32 3 3.64 3 5 C0.69 5 -1.62 5 -4 5 C-3.01 4.67 -2.02 4.34 -1 4 C-0.26676204 1.98491642 -0.26676204 1.98491642 0 0 Z " fill="#553C33" transform="translate(130,85)"/>
<path d="M0 0 C0.66 0 1.32 0 2 0 C2 1.98 2 3.96 2 6 C1.34 6 0.68 6 0 6 C-0.33 5.34 -0.66 4.68 -1 4 C-1.99 4 -2.98 4 -4 4 C-4.33 4.66 -4.66 5.32 -5 6 C-5 4.68 -5 3.36 -5 2 C-3.35 2 -1.7 2 0 2 C0 1.34 0 0.68 0 0 Z " fill="#765041" transform="translate(162,83)"/>
<path d="M0 0 C1.32 0 2.64 0 4 0 C4 1.32 4 2.64 4 4 C1.03 4 -1.94 4 -5 4 C-4.67 3.01 -4.34 2.02 -4 1 C-4 1.66 -4 2.32 -4 3 C-2.68 3 -1.36 3 0 3 C0 2.01 0 1.02 0 0 Z " fill="#307F67" transform="translate(59,19)"/>
<path d="M0 0 C2.64 0.33 5.28 0.66 8 1 C8 2.32 8 3.64 8 5 C6.68 5 5.36 5 4 5 C4 4.01 4 3.02 4 2 C3.34 2 2.68 2 2 2 C1.67 2.99 1.34 3.98 1 5 C0.67 3.35 0.34 1.7 0 0 Z " fill="#5A8697" transform="translate(14,106)"/>
<path d="M0 0 C0.66 0 1.32 0 2 0 C2.33 1.98 2.66 3.96 3 6 C1.35 6 -0.3 6 -2 6 C-2 4.68 -2 3.36 -2 2 C-1.34 2 -0.68 2 0 2 C0 1.34 0 0.68 0 0 Z " fill="#4E7284" transform="translate(34,94)"/>
<path d="M0 0 C2.64 0 5.28 0 8 0 C8 1.32 8 2.64 8 4 C6.68 4 5.36 4 4 4 C3.34 3.34 2.68 2.68 2 2 C1.34 2.66 0.68 3.32 0 4 C0 2.68 0 1.36 0 0 Z " fill="#7C5544" transform="translate(335,85)"/>
<path d="M0 0 C2.64 0 5.28 0 8 0 C7.01 0.495 7.01 0.495 6 1 C6.33 1.99 6.66 2.98 7 4 C4.69 4 2.38 4 0 4 C0 2.68 0 1.36 0 0 Z " fill="#755343" transform="translate(81,85)"/>
<path d="M0 0 C2.31 0 4.62 0 7 0 C6.01 0.495 6.01 0.495 5 1 C5 1.99 5 2.98 5 4 C3.35 4 1.7 4 0 4 C0 2.68 0 1.36 0 0 Z " fill="#587E9E" transform="translate(166,107)"/>
<path d="M0 0 C1.32 0.33 2.64 0.66 4 1 C4 2.65 4 4.3 4 6 C2.02 6 0.04 6 -2 6 C-0.68 4.35 0.64 2.7 2 1 C1.34 0.67 0.68 0.34 0 0 Z " fill="#604137" transform="translate(157,95)"/>
<path d="M0 0 C0.66 0 1.32 0 2 0 C2.33 2.31 2.66 4.62 3 7 C1.02 7 -0.96 7 -3 7 C-3.33 6.01 -3.66 5.02 -4 4 C-1.525 4.495 -1.525 4.495 1 5 C0.67 3.35 0.34 1.7 0 0 Z " fill="#5A4138" transform="translate(135,72)"/>
<path d="M0 0 C1.32 0.33 2.64 0.66 4 1 C3.67 2.65 3.34 4.3 3 6 C2.01 5.67 1.02 5.34 0 5 C0 3.35 0 1.7 0 0 Z " fill="#785141" transform="translate(63,62)"/>
<path d="M0 0 C0 0.66 0 1.32 0 2 C-1.32 2 -2.64 2 -4 2 C-4 2.99 -4 3.98 -4 5 C-4.99 5 -5.98 5 -7 5 C-7.33 3.68 -7.66 2.36 -8 1 C-5.10765685 0.17361624 -3.11257569 0 0 0 Z " fill="#6C493C" transform="translate(89,61)"/>
<path d="M0 0 C0.99 0 1.98 0 3 0 C3 1.98 3 3.96 3 6 C1.68 6 0.36 6 -1 6 C-1.042721 4.33388095 -1.04063832 2.66617115 -1 1 C-0.67 0.67 -0.34 0.34 0 0 Z " fill="#3F5C36" transform="translate(37,41)"/>
<path d="M0 0 C-0.66 0 -1.32 0 -2 0 C-1.67 0.99 -1.34 1.98 -1 3 C-1.66 3 -2.32 3 -3 3 C-3.33 2.34 -3.66 1.68 -4 1 C-4.66 1 -5.32 1 -6 1 C-6 1.66 -6 2.32 -6 3 C-6.66 3 -7.32 3 -8 3 C-8 1.68 -8 0.36 -8 -1 C-3.375 -2.25 -3.375 -2.25 0 0 Z " fill="#754F6F" transform="translate(31,20)"/>
<path d="M0 0 C2.475 0.99 2.475 0.99 5 2 C5 2.99 5 3.98 5 5 C3.02 5 1.04 5 -1 5 C-0.67 3.35 -0.34 1.7 0 0 Z " fill="#4F6B75" transform="translate(33,107)"/>
<path d="M0 0 C0.66 0 1.32 0 2 0 C2 1.98 2 3.96 2 6 C0.68 6 -0.64 6 -2 6 C-2 4.68 -2 3.36 -2 2 C-1.34 2 -0.68 2 0 2 C0 1.34 0 0.68 0 0 Z " fill="#52747B" transform="translate(25,105)"/>
<path d="M0 0 C1.32 0 2.64 0 4 0 C4 1.65 4 3.3 4 5 C2.68 5 1.36 5 0 5 C0 3.35 0 1.7 0 0 Z " fill="#66785E" transform="translate(237,95)"/>
<path d="M0 0 C1.32 0.33 2.64 0.66 4 1 C3.67 2.65 3.34 4.3 3 6 C2.01 5.67 1.02 5.34 0 5 C0 3.35 0 1.7 0 0 Z " fill="#553F36" transform="translate(349,84)"/>
<path d="M0 0 C1.32 0 2.64 0 4 0 C4 1.32 4 2.64 4 4 C2.35 3.67 0.7 3.34 -1 3 C-0.67 2.01 -0.34 1.02 0 0 Z " fill="#31836E" transform="translate(152,107)"/>
<path d="M0 0 C1.32 0 2.64 0 4 0 C4.33 1.65 4.66 3.3 5 5 C3.35 4.67 1.7 4.34 0 4 C0 2.68 0 1.36 0 0 Z " fill="#875843" transform="translate(151,95)"/>
<path d="M0 0 C0 1.65 0 3.3 0 5 C-1.32 5 -2.64 5 -4 5 C-4 3.68 -4 2.36 -4 1 C-2 0 -2 0 0 0 Z " fill="#557B8A" transform="translate(9,73)"/>
<path d="M0 0 C1.32 0.33 2.64 0.66 4 1 C3.67 2.32 3.34 3.64 3 5 C2.01 5 1.02 5 0 5 C0 3.35 0 1.7 0 0 Z " fill="#7C5443" transform="translate(99,51)"/>
<path d="M0 0 C-0.66 1.32 -1.32 2.64 -2 4 C-3.65 3.67 -5.3 3.34 -7 3 C-7 2.34 -7 1.68 -7 1 C-4 0 -4 0 0 0 Z " fill="#6A463A" transform="translate(223,85)"/>
<path d="M0 0 C0.66 0 1.32 0 2 0 C2 2.31 2 4.62 2 7 C1.01 7 0.02 7 -1 7 C-0.67 4.69 -0.34 2.38 0 0 Z " fill="#764F40" transform="translate(457,83)"/>
<path d="M0 0 C0.99 0.33 1.98 0.66 3 1 C3.6875 3.0625 3.6875 3.0625 4 5 C2.35 5 0.7 5 -1 5 C-0.67 3.35 -0.34 1.7 0 0 Z " fill="#795344" transform="translate(264,84)"/>
<path d="M0 0 C0.33 0 0.66 0 1 0 C1 1.98 1 3.96 1 6 C-0.32 6 -1.64 6 -3 6 C-2.67 4.68 -2.34 3.36 -2 2 C-1.34 2 -0.68 2 0 2 C0 1.34 0 0.68 0 0 Z " fill="#795142" transform="translate(467,83)"/>
<path d="M0 0 C0 0.66 0 1.32 0 2 C-0.99 2 -1.98 2 -3 2 C-3.33 2.66 -3.66 3.32 -4 4 C-5.32 3.67 -6.64 3.34 -8 3 C-7.34 3 -6.68 3 -6 3 C-6 2.34 -6 1.68 -6 1 C-4 0 -4 0 0 0 Z " fill="#57839A" transform="translate(18,63)"/>
<path d="M0 0 C1.32 0 2.64 0 4 0 C3.67 1.65 3.34 3.3 3 5 C2.01 5 1.02 5 0 5 C0 3.35 0 1.7 0 0 Z " fill="#415D36" transform="translate(5,40)"/>
<path d="M0 0 C-0.66 1.32 -1.32 2.64 -2 4 C-3.65 3.67 -5.3 3.34 -7 3 C-7 2.34 -7 1.68 -7 1 C-4 0 -4 0 0 0 Z " fill="#67445F" transform="translate(98,8)"/>
<path d="M0 0 C1.32 0 2.64 0 4 0 C3.6875 1.9375 3.6875 1.9375 3 4 C2.01 4.33 1.02 4.66 0 5 C0 3.35 0 1.7 0 0 Z " fill="#2C7165" transform="translate(107,7)"/>
</svg>
