<?xml version="1.0" standalone="no"?>
<!DOCTYPE svg PUBLIC "-//W3C//DTD SVG 20010904//EN"
 "http://www.w3.org/TR/2001/REC-SVG-20010904/DTD/svg10.dtd">
<svg version="1.0" xmlns="http://www.w3.org/2000/svg"
 width="567.000000pt" height="440.000000pt" viewBox="0 0 567.000000 440.000000"
 preserveAspectRatio="xMidYMid meet">

<g transform="translate(0.000000,440.000000) scale(0.100000,-0.100000)"
fill="#000000" stroke="none">
<path d="M0 2200 l0 -2200 2835 0 2835 0 0 2200 0 2200 -2835 0 -2835 0 0
-2200z m329 1945 c-1 -17 -2 -16 -9 5 l-7 25 -11 -25 c-10 -24 -11 -23 -11 12
-1 37 0 37 19 21 11 -10 20 -27 19 -38z m43 20 c2 -19 1 -35 -3 -35 -4 0 -9
16 -11 35 -2 19 -1 35 3 35 4 0 9 -16 11 -35z m320 -5 c-2 -16 -6 -30 -8 -30
-2 0 -4 14 -4 30 0 17 4 30 8 30 5 0 7 -13 4 -30z m165 -17 c-3 -10 -5 -2 -5
17 0 19 2 27 5 18 2 -10 2 -26 0 -35z m70 0 c-3 -10 -5 -2 -5 17 0 19 2 27 5
18 2 -10 2 -26 0 -35z m168 7 c0 -27 -2 -35 -8 -24 -7 13 -2 64 6 64 1 0 2
-18 2 -40z m59 -21 c-8 -17 -9 -13 -9 21 0 34 1 38 9 21 5 -13 5 -29 0 -42z
m-991 10 c-8 -8 -11 -8 -10 2 1 8 -2 15 -8 16 -5 2 -10 -6 -10 -16 0 -11 -3
-23 -7 -27 -5 -4 -8 7 -8 24 0 34 18 46 40 26 10 -10 11 -17 3 -25z m53 29 c4
-7 3 -8 -5 -4 -7 4 -15 -2 -20 -16 -10 -23 -10 -23 -10 -1 -1 12 5 24 12 26 6
3 13 6 14 6 1 1 5 -4 9 -11z m64 -13 c0 -7 -6 -18 -14 -24 -20 -17 -44 13 -26
33 13 17 40 10 40 -9z m165 -4 c-3 -3 -10 1 -15 9 -9 13 -10 13 -11 0 -1 -8
-1 -18 0 -22 0 -5 -3 -8 -9 -8 -14 0 -12 38 3 43 14 5 40 -13 32 -22z m272 7
c-3 -8 -6 -5 -6 6 -1 11 2 17 5 13 3 -3 4 -12 1 -19z m-224 5 c-7 -2 -13 -11
-13 -19 0 -8 -4 -14 -10 -14 -5 0 -10 9 -10 20 0 14 6 20 23 19 12 0 16 -3 10
-6z m260 -13 c-3 -11 -7 -20 -9 -20 -2 0 -4 9 -4 20 0 11 4 20 9 20 5 0 7 -9
4 -20z m134 -2 c-3 -8 -6 -5 -6 6 -1 11 2 17 5 13 3 -3 4 -12 1 -19z m80 -10
c-3 -7 -5 -2 -5 12 0 14 2 19 5 13 2 -7 2 -19 0 -25z m87 24 c-6 -4 -13 -14
-16 -22 -3 -10 -6 -8 -10 8 -5 18 -2 22 15 22 13 0 17 -3 11 -8z m-454 -12 c0
-5 -4 -10 -10 -10 -5 0 -10 5 -10 10 0 6 5 10 10 10 6 0 10 -4 10 -10z m197
-12 c-3 -8 -6 -5 -6 6 -1 11 2 17 5 13 3 -3 4 -12 1 -19z m-434 -394 c-3 -9 0
-20 8 -26 12 -8 11 -9 -1 -5 -17 4 -27 47 -11 47 6 0 8 -7 4 -16z m63 -20 c8
3 14 1 14 -5 0 -20 -35 -4 -36 16 -1 17 0 17 3 2 3 -11 10 -16 19 -13z m74 26
c0 -5 -6 -7 -14 -4 -9 4 -16 -3 -19 -18 -4 -21 -4 -20 -6 5 -1 21 4 27 19 27
11 0 20 -4 20 -10z m54 -32 c-3 -4 -13 -8 -22 -8 -13 0 -14 2 -3 9 9 6 10 11
2 15 -6 4 -11 11 -11 16 0 6 9 2 19 -7 11 -9 18 -20 15 -25z m38 2 c6 0 8 9 5
20 -3 11 -1 20 5 20 5 0 8 -10 6 -22 -4 -28 -33 -30 -34 -3 -1 15 0 16 3 3 3
-10 9 -18 15 -18z m271 24 c-3 -9 0 -20 8 -26 12 -8 11 -9 -1 -5 -17 4 -27 47
-11 47 6 0 8 -7 4 -16z m83 -19 c-6 -17 -36 -20 -36 -4 0 5 5 7 11 4 6 -4 13
3 16 16 4 13 8 18 11 11 2 -7 1 -19 -2 -27z m42 28 c-9 -2 -19 -12 -21 -21 -3
-12 -5 -10 -6 6 -1 17 4 22 22 21 15 -1 17 -3 5 -6z m66 -35 c-3 -4 -13 -8
-22 -8 -13 0 -14 2 -3 9 9 6 10 11 2 15 -6 4 -11 11 -11 16 0 6 9 2 19 -7 11
-9 18 -20 15 -25z m29 21 c-4 -16 -2 -20 8 -17 8 3 12 14 11 24 -3 15 -1 17 9
6 11 -10 10 -15 -4 -29 -20 -20 -44 -5 -34 21 9 24 16 19 10 -5z m81 -21 c-3
-4 -13 -8 -22 -8 -13 0 -14 2 -3 9 9 6 10 11 2 15 -6 4 -11 11 -11 16 0 6 9 2
19 -7 11 -9 18 -20 15 -25z m-564 -109 c0 -16 -3 -29 -7 -29 -5 0 -8 15 -8 34
0 19 3 32 8 29 4 -2 7 -17 7 -34z m278 -30 c-7 -5 -17 -4 -22 1 -4 4 -14 6
-21 4 -7 -3 -14 5 -17 21 -4 20 -2 23 8 15 13 -12 53 6 56 25 0 5 3 -5 5 -24
3 -21 0 -37 -9 -42z m275 30 c3 -24 1 -36 -7 -36 -7 0 -10 14 -8 39 5 46 7 45
15 -3z m124 -16 c-4 -14 -5 -13 -6 5 -1 14 -5 21 -12 16 -6 -3 -9 -15 -6 -25
3 -11 1 -17 -4 -13 -5 3 -9 21 -9 40 l0 35 21 -20 c12 -11 19 -27 16 -38z m43
33 c0 -13 2 -31 5 -39 3 -7 0 -14 -7 -14 -8 0 -13 14 -13 39 0 21 3 38 8 38 4
0 7 -11 7 -24z m110 -1 c-10 -12 -10 -21 -2 -40 7 -15 8 -25 2 -25 -16 0 -23
47 -10 70 6 12 14 19 17 16 3 -3 0 -13 -7 -21z m899 -46 c-31 -19 -40 24 -11
51 16 16 17 15 20 -13 2 -17 -2 -33 -9 -38z m159 54 c-1 -10 2 -27 5 -39 5
-14 3 -21 -5 -21 -11 0 -14 21 -9 70 2 15 10 6 9 -10z m116 -21 c3 -18 -1 -32
-7 -35 -9 -3 -11 7 -9 35 5 45 11 45 16 0z m-2061 14 c20 -15 22 -32 5 -42 -7
-4 -8 -3 -4 4 4 7 4 17 0 23 -5 8 -9 8 -14 -1 -5 -8 -9 -5 -13 9 -6 24 1 26
26 7z m424 -6 c6 -23 23 -27 23 -6 0 8 4 17 10 21 5 3 5 -7 -1 -25 -13 -37
-26 -39 -35 -5 -3 14 -10 25 -14 25 -4 0 -5 -11 -2 -25 2 -15 0 -25 -7 -25 -7
0 -11 6 -9 13 2 6 -2 12 -7 12 -6 0 -9 -6 -9 -12 1 -7 -2 -13 -7 -13 -14 0
-10 22 8 42 21 24 44 23 50 -2z m1863 -20 c0 -16 -3 -31 -7 -33 -5 -3 -8 12
-8 33 0 21 3 36 8 33 4 -2 7 -17 7 -33z m-2440 2 c0 -10 -9 -23 -20 -30 -19
-11 -20 -10 -19 20 1 30 2 31 8 8 5 -18 9 -21 15 -12 4 7 5 20 2 28 -3 9 -1
12 4 9 6 -3 10 -14 10 -23z m55 18 c3 -5 1 -10 -4 -10 -6 0 -11 5 -11 10 0 6
2 10 4 10 3 0 8 -4 11 -10z m52 -21 c1 -22 1 -22 -4 -1 -2 12 -9 22 -14 22 -5
0 -9 -10 -10 -22 0 -13 -3 -17 -6 -10 -7 19 5 44 20 40 6 -3 13 -15 14 -29z
m168 2 c-3 -3 -10 1 -15 9 -8 12 -10 10 -10 -9 0 -19 -3 -22 -12 -13 -17 17 9
47 29 31 7 -7 11 -14 8 -18z m64 -4 c0 -21 -1 -21 -9 -2 l-9 20 -1 -20 -1 -20
-8 20 -8 20 -5 -20 c-5 -19 -6 -19 -7 2 -1 13 6 23 17 26 24 5 32 -1 31 -26z
m329 8 c4 -18 -16 -37 -30 -29 -4 3 -8 11 -8 17 0 7 4 6 11 -3 8 -12 10 -9 6
13 -5 31 16 33 21 2z m57 15 c3 -5 1 -10 -4 -10 -6 0 -11 5 -11 10 0 6 2 10 4
10 3 0 8 -4 11 -10z m103 -26 c-3 -14 -5 -12 -10 9 -3 19 -2 25 4 19 6 -6 8
-18 6 -28z m168 18 c1 -7 0 -8 -3 -2 -9 18 -23 11 -24 -12 0 -13 -3 -17 -6
-10 -7 18 5 44 19 40 6 -2 13 -10 14 -16z m99 4 c-17 -12 -18 -16 -5 -32 13
-18 13 -18 -5 -2 -15 14 -16 20 -5 32 7 9 17 16 23 16 6 0 2 -6 -8 -14z m130
4 c3 -5 1 -10 -4 -10 -6 0 -11 5 -11 10 0 6 2 10 4 10 3 0 8 -4 11 -10z m36 1
c-11 -7 -10 -11 5 -19 10 -6 17 -13 14 -15 -3 -3 -13 1 -24 8 -18 14 -14 35 7
35 8 0 7 -3 -2 -9z m79 -15 c0 -18 -21 -35 -36 -29 -17 6 -18 40 -1 46 17 6
37 -3 37 -17z m160 8 c0 -8 -7 -22 -15 -31 -9 -8 -13 -18 -10 -21 3 -4 10 0
15 8 5 8 12 11 16 7 12 -11 -13 -30 -30 -24 -19 8 -22 63 -3 70 21 9 27 7 27
-9z m56 -2 c1 -7 0 -8 -3 -2 -8 17 -23 11 -23 -9 0 -11 6 -22 13 -24 9 -4 9
-6 -1 -6 -16 -1 -26 24 -18 45 7 17 28 15 32 -4z m57 -12 c3 -11 1 -20 -3 -20
-5 0 -10 10 -13 23 -4 22 -4 22 -15 -3 -10 -24 -11 -24 -11 -3 -1 20 16 35 30
27 4 -2 9 -13 12 -24z m53 12 c1 -7 0 -8 -3 -2 -8 17 -23 11 -23 -9 0 -11 6
-22 13 -24 9 -4 9 -6 -1 -6 -16 -1 -26 24 -18 45 7 17 28 15 32 -4z m59 8 c3
-5 1 -10 -4 -10 -6 0 -11 5 -11 10 0 6 2 10 4 10 3 0 8 -4 11 -10z m52 -21 c1
-19 1 -20 -4 -4 -3 11 -10 24 -17 28 -7 6 -6 7 4 4 8 -2 16 -14 17 -28z m59
19 c4 -7 3 -8 -5 -4 -7 4 -15 -2 -20 -16 -10 -23 -10 -23 -10 -1 -1 12 5 24
12 26 6 3 13 6 14 6 1 1 5 -4 9 -11z m163 -34 c-14 -14 -17 -14 -29 0 -10 13
-10 19 0 32 12 14 15 14 29 0 14 -15 14 -17 0 -32z m69 18 c2 -15 -2 -22 -12
-22 -9 0 -16 8 -17 18 0 14 -2 14 -9 -3 -8 -20 -9 -20 -9 1 -1 26 5 33 27 30
9 -2 18 -13 20 -24z m101 -5 c-1 -20 -2 -20 -9 3 l-7 25 -11 -25 c-10 -23 -11
-24 -11 -3 -1 21 16 35 32 26 4 -2 7 -14 6 -26z m111 18 c10 -12 10 -18 0 -29
-14 -18 -40 -10 -40 13 0 32 20 40 40 16z m-2250 -2 c0 -5 -5 -15 -10 -23 -8
-12 -10 -11 -10 8 0 12 5 22 10 22 6 0 10 -3 10 -7z m670 0 c0 -5 -5 -15 -10
-23 -8 -12 -10 -11 -10 8 0 12 5 22 10 22 6 0 10 -3 10 -7z m437 -25 c-3 -7
-5 -2 -5 12 0 14 2 19 5 13 2 -7 2 -19 0 -25z m33 12 c0 -11 -4 -20 -9 -20 -5
0 -7 9 -4 20 3 11 7 20 9 20 2 0 4 -9 4 -20z m30 0 c0 -11 -4 -20 -9 -20 -5 0
-7 9 -4 20 3 11 7 20 9 20 2 0 4 -9 4 -20z m497 -12 c-3 -7 -5 -2 -5 12 0 14
2 19 5 13 2 -7 2 -19 0 -25z m-1277 -4 c0 -8 -4 -12 -10 -9 -5 3 -10 10 -10
16 0 5 5 9 10 9 6 0 10 -7 10 -16z m390 0 c0 -8 -4 -12 -10 -9 -5 3 -10 10
-10 16 0 5 5 9 10 9 6 0 10 -7 10 -16z m947 1 c0 -8 -4 -12 -9 -9 -4 3 -8 9
-8 15 0 5 4 9 8 9 5 0 9 -7 9 -15z m-377 -4 c0 -6 -4 -12 -8 -15 -5 -3 -9 1
-9 9 0 8 4 15 9 15 4 0 8 -4 8 -9z m513 -28 c-7 -2 -21 -2 -30 0 -10 3 -4 5
12 5 17 0 24 -2 18 -5z m-511 -358 c2 -20 0 -35 -7 -35 -5 0 -10 18 -10 39 -1
48 11 45 17 -4z m-1120 0 c2 -21 0 -35 -7 -35 -7 0 -9 14 -7 35 2 19 5 35 7
35 2 0 5 -16 7 -35z m281 22 c3 -8 -1 -14 -8 -14 -7 0 -11 6 -8 14 3 7 6 13 8
13 2 0 5 -6 8 -13z m551 -11 c-3 -13 0 -35 7 -48 11 -21 11 -22 -4 -9 -18 14
-21 38 -11 65 9 25 15 19 8 -8z m210 -13 c-5 -19 -3 -24 7 -21 8 3 13 13 12
23 -1 12 2 14 10 6 8 -8 7 -15 -5 -27 -21 -22 -38 -10 -38 27 0 18 4 28 10 24
6 -3 7 -18 4 -32z m246 -10 c0 -12 -3 -24 -7 -26 -5 -3 -8 12 -8 34 -1 22 2
33 7 26 4 -6 8 -22 8 -34z m-1568 7 c3 -16 1 -30 -4 -30 -4 0 -8 6 -8 14 0 8
-3 21 -6 30 -3 9 -2 16 4 16 5 0 12 -13 14 -30z m778 20 c0 -5 -4 -10 -10 -10
-5 0 -10 5 -10 10 0 6 5 10 10 10 6 0 10 -4 10 -10z m-984 -26 c3 -17 -20 -29
-36 -19 -6 3 -7 11 -4 17 4 6 10 5 15 -3 6 -10 9 -7 9 10 0 25 12 22 16 -5z
m54 11 c0 -8 -8 -16 -17 -16 -17 -1 -17 -2 0 -6 24 -6 22 -33 -3 -33 -16 0
-20 7 -20 35 0 28 4 35 20 35 11 0 20 -7 20 -15z m44 -27 c8 -6 8 -8 0 -8 -18
0 -37 28 -28 42 6 10 10 8 12 -7 3 -11 9 -23 16 -27z m11 33 c3 -5 2 -12 -3
-15 -5 -3 -9 1 -9 9 0 17 3 19 12 6z m54 -18 c-2 -24 -2 -25 -6 -5 -2 12 -8
22 -13 22 -5 0 -11 -10 -13 -22 -4 -20 -4 -19 -6 5 -1 21 4 27 19 27 15 0 20
-6 19 -27z m87 10 c-2 -10 4 -21 13 -25 14 -6 14 -7 -1 -7 -21 -1 -32 15 -24
34 8 21 15 19 12 -2z m29 8 c3 -5 1 -12 -5 -16 -5 -3 -10 1 -10 9 0 18 6 21
15 7z m115 -17 c0 -17 -24 -29 -40 -19 -6 3 -7 11 -4 17 4 6 10 5 15 -3 6 -10
9 -8 9 9 0 13 4 20 10 17 6 -3 10 -13 10 -21z m30 -14 c5 0 11 10 13 23 4 18
5 17 6 -6 1 -22 -3 -28 -16 -25 -10 2 -18 12 -19 23 -1 15 0 16 3 3 3 -10 8
-18 13 -18z m130 14 c0 -18 -5 -25 -17 -22 -19 3 -31 28 -13 28 6 0 8 -4 5
-10 -3 -5 -1 -10 4 -10 6 0 11 9 11 20 0 11 2 20 5 20 3 0 5 -12 5 -26z m247
-26 c-2 -13 -4 -5 -4 17 -1 22 1 32 4 23 2 -10 2 -28 0 -40z m33 43 c0 -6 -4
-12 -8 -15 -5 -3 -9 1 -9 9 0 8 4 15 9 15 4 0 8 -4 8 -9z m27 -23 c-3 -7 -5
-2 -5 12 0 14 2 19 5 13 2 -7 2 -19 0 -25z m56 12 c-3 -11 -7 -20 -9 -20 -2 0
-4 9 -4 20 0 11 4 20 9 20 5 0 7 -9 4 -20z m24 -12 c-3 -7 -5 -2 -5 12 0 14 2
19 5 13 2 -7 2 -19 0 -25z m233 12 c0 -11 -4 -20 -9 -20 -5 0 -7 9 -4 20 3 11
7 20 9 20 2 0 4 -9 4 -20z m106 -5 c1 -8 -2 -15 -6 -15 -5 0 -8 9 -7 20 1 21
10 18 13 -5z m114 7 c0 -10 -9 -25 -20 -35 -19 -16 -20 -16 -20 18 0 28 4 35
20 35 12 0 20 -7 20 -18z m110 -2 c0 -29 -19 -34 -44 -11 -26 25 -36 26 -36 6
0 -8 -4 -15 -9 -15 -5 0 -7 9 -4 19 7 28 93 29 93 1z m152 -20 c6 0 8 -3 5 -6
-12 -12 -36 17 -29 34 6 14 7 13 10 -5 2 -13 8 -23 14 -23z m13 31 c3 -5 2
-12 -3 -15 -5 -3 -9 1 -9 9 0 17 3 19 12 6z m64 -13 c-1 -21 -2 -21 -7 -3 l-5
20 -8 -20 -8 -20 -1 20 -1 20 -9 -20 c-8 -19 -9 -19 -9 3 -1 17 5 22 24 22 20
0 25 -5 24 -22z m-1072 6 c-3 -3 -12 -4 -19 -1 -8 3 -5 6 6 6 11 1 17 -2 13
-5z m360 -16 c-3 -8 -6 -5 -6 6 -1 11 2 17 5 13 3 -3 4 -12 1 -19z m60 0 c-3
-8 -6 -5 -6 6 -1 11 2 17 5 13 3 -3 4 -12 1 -19z m-754 -35 c-7 -2 -21 -2 -30
0 -10 3 -4 5 12 5 17 0 24 -2 18 -5z m324 -55 c-2 -7 0 -26 4 -42 5 -18 5 -26
0 -20 -14 14 -18 74 -5 74 3 0 4 -6 1 -12z m1004 -20 c-5 -15 -5 -30 0 -41 6
-9 8 -17 5 -17 -16 0 -25 41 -16 66 6 15 13 25 16 22 2 -3 0 -16 -5 -30z m281
-3 c2 -19 1 -35 -3 -35 -4 0 -9 16 -11 35 -2 19 -1 35 3 35 4 0 9 -16 11 -35z
m-1560 8 c10 -9 18 -23 17 -32 0 -10 -5 -6 -11 9 -11 25 -11 25 -15 3 -6 -34
-23 -28 -20 7 2 35 4 36 29 13z m567 -13 c6 -18 6 -28 1 -25 -6 4 -10 13 -10
21 0 8 -5 14 -11 14 -5 0 -7 5 -4 10 9 15 12 13 24 -20z m304 11 c2 -10 1 -25
-4 -32 -6 -10 -9 -4 -9 19 0 36 5 42 13 13z m37 -13 c0 -23 -3 -29 -9 -19 -8
12 -4 51 5 51 2 0 4 -15 4 -32z m577 -15 c-3 -10 -5 -2 -5 17 0 19 2 27 5 18
2 -10 2 -26 0 -35z m253 7 c0 -3 -7 -15 -16 -26 -14 -18 -15 -18 -4 4 8 16 8
28 0 45 -11 21 -10 21 4 3 9 -11 16 -23 16 -26z m-2117 0 c3 -11 2 -20 -3 -20
-4 0 -10 11 -12 25 -6 29 7 25 15 -5z m57 15 c0 -9 -7 -18 -15 -21 -8 -4 -15
-12 -15 -20 0 -16 16 -19 23 -4 3 6 4 5 3 -2 -2 -7 -9 -13 -17 -13 -15 0 -24
37 -15 61 7 19 36 18 36 -1z m55 -14 c-3 -3 -10 1 -15 9 -8 12 -10 10 -10 -9
0 -19 -3 -22 -12 -13 -17 17 9 47 29 31 7 -7 11 -14 8 -18z m54 -4 c-1 -20 -2
-20 -9 3 l-7 25 -11 -25 c-10 -23 -11 -24 -11 -3 -1 21 16 35 32 26 4 -2 7
-14 6 -26z m46 4 c0 -32 -9 -29 -20 7 -4 15 -2 22 7 22 8 0 13 -12 13 -29z
m70 0 c-3 -3 -10 1 -15 9 -9 13 -10 13 -11 0 -1 -8 -1 -18 0 -22 0 -5 -3 -8
-9 -8 -14 0 -12 38 3 43 14 5 40 -13 32 -22z m162 -2 c1 -22 1 -22 -4 -1 -2
12 -9 22 -14 22 -5 0 -9 -10 -10 -22 0 -13 -3 -17 -6 -10 -7 19 5 44 20 40 6
-3 13 -15 14 -29z m110 0 c1 -19 1 -20 -4 -4 -3 11 -10 24 -17 28 -7 6 -6 7 4
4 8 -2 16 -14 17 -28z m59 19 c4 -7 3 -8 -5 -4 -7 4 -15 -2 -20 -16 -10 -23
-10 -23 -10 -1 -1 12 5 24 12 26 6 3 13 6 14 6 1 1 5 -4 9 -11z m112 -15 c4
-25 -22 -37 -38 -17 -10 11 -10 17 0 29 17 20 34 14 38 -12z m432 23 c0 -3 -4
-8 -10 -11 -5 -3 -10 -1 -10 4 0 6 5 11 10 11 6 0 10 -2 10 -4z m573 -37 c-8
-8 -11 -8 -10 2 1 8 -2 15 -8 16 -5 2 -10 -6 -10 -16 0 -11 -3 -23 -7 -27 -5
-4 -8 7 -8 24 0 34 18 46 40 26 10 -10 11 -17 3 -25z m53 29 c4 -7 3 -8 -5 -4
-7 4 -15 -2 -20 -16 -10 -23 -10 -23 -10 -1 -1 12 5 24 12 26 6 3 13 6 14 6 1
1 5 -4 9 -11z m55 -32 c-16 -19 -41 -10 -41 14 0 24 21 31 39 14 11 -10 12
-16 2 -28z m57 8 c-3 -14 -5 -12 -10 9 -3 19 -2 25 4 19 6 -6 8 -18 6 -28z
m144 25 c24 2 28 -1 27 -21 0 -22 -1 -22 -9 -3 l-9 20 -1 -20 -1 -20 -9 20
c-8 19 -9 19 -9 1 -1 -17 -3 -17 -21 4 -23 26 -26 35 -8 23 7 -4 25 -6 40 -4z
m-1565 -31 c-3 -7 -5 -2 -5 12 0 14 2 19 5 13 2 -7 2 -19 0 -25z m500 10 c-3
-8 -6 -5 -6 6 -1 11 2 17 5 13 3 -3 4 -12 1 -19z m110 -10 c-3 -7 -5 -2 -5 12
0 14 2 19 5 13 2 -7 2 -19 0 -25z m30 0 c-3 -7 -5 -2 -5 12 0 14 2 19 5 13 2
-7 2 -19 0 -25z m80 0 c-3 -7 -5 -2 -5 12 0 14 2 19 5 13 2 -7 2 -19 0 -25z
m170 0 c-3 -7 -5 -2 -5 12 0 14 2 19 5 13 2 -7 2 -19 0 -25z m80 0 c-3 -7 -5
-2 -5 12 0 14 2 19 5 13 2 -7 2 -19 0 -25z m36 12 c-3 -11 -7 -20 -9 -20 -2 0
-4 9 -4 20 0 11 4 20 9 20 5 0 7 -9 4 -20z m64 -12 c-3 -7 -5 -2 -5 12 0 14 2
19 5 13 2 -7 2 -19 0 -25z m40 0 c-3 -7 -5 -2 -5 12 0 14 2 19 5 13 2 -7 2
-19 0 -25z m390 0 c-3 -7 -5 -2 -5 12 0 14 2 19 5 13 2 -7 2 -19 0 -25z
m-1142 12 c3 -5 -1 -10 -9 -10 -9 0 -16 5 -16 10 0 6 4 10 9 10 6 0 13 -4 16
-10z m472 -12 c-3 -8 -6 -5 -6 6 -1 11 2 17 5 13 3 -3 4 -12 1 -19z m-1327 2
c0 -5 -4 -10 -10 -10 -5 0 -10 5 -10 10 0 6 5 10 10 10 6 0 10 -4 10 -10z
m560 6 c0 -3 -4 -8 -10 -11 -5 -3 -10 -1 -10 4 0 6 5 11 10 11 6 0 10 -2 10
-4z m390 0 c0 -3 -4 -8 -10 -11 -5 -3 -10 -1 -10 4 0 6 5 11 10 11 6 0 10 -2
10 -4z m-597 -43 c-7 -2 -19 -2 -25 0 -7 3 -2 5 12 5 14 0 19 -2 13 -5z m1885
-69 c-9 -20 -9 -30 2 -47 12 -20 12 -21 -3 -8 -19 16 -21 34 -7 62 16 28 21
23 8 -7z m66 -10 c3 -11 0 -28 -6 -37 -11 -15 -13 -11 -13 28 -1 44 7 48 19 9z
m-2069 -9 c0 -14 -2 -25 -6 -25 -8 0 -18 48 -11 55 9 8 15 -4 17 -30z m277 17
c-15 -5 -16 -28 -2 -35 6 -3 5 -4 -2 -3 -7 1 -14 15 -16 29 -3 22 0 26 14 20
11 -4 13 -8 6 -11z m728 14 c0 -3 -4 -8 -10 -11 -5 -3 -10 -1 -10 4 0 6 5 11
10 11 6 0 10 -2 10 -4z m219 -16 c-6 -5 -9 -15 -6 -25 4 -9 3 -14 -3 -10 -6 3
-10 17 -10 30 0 18 4 23 16 18 12 -4 13 -8 3 -13z m129 -11 c-3 -8 -7 -3 -11
10 -4 17 -3 21 5 13 5 -5 8 -16 6 -23z m-1568 -6 c0 -20 -3 -24 -9 -14 -7 11
-9 11 -13 0 -3 -8 -9 -10 -14 -6 -5 5 -1 14 9 22 13 10 15 14 5 18 -8 4 -7 6
5 6 12 1 17 -7 17 -26z m60 12 c0 -7 -6 -18 -14 -22 -7 -4 -16 -15 -19 -23 -3
-8 -6 -1 -6 16 -1 17 2 34 6 37 12 12 33 7 33 -8z m58 -2 c2 -7 -1 -13 -8 -13
-6 0 -8 5 -5 10 3 6 1 10 -4 10 -6 0 -11 -10 -11 -22 0 -15 -3 -19 -10 -12
-15 15 -1 46 18 42 8 -2 17 -9 20 -15z m49 -13 c1 -22 1 -22 -4 -2 -2 12 -8
22 -13 22 -5 0 -11 -10 -13 -22 -4 -19 -5 -18 -6 5 -1 22 3 28 17 25 10 -2 18
-13 19 -28z m117 15 c3 -8 1 -15 -4 -15 -6 0 -10 5 -10 10 0 6 -4 10 -9 10 -6
0 -8 -10 -6 -22 3 -16 2 -19 -7 -10 -14 14 -3 42 16 42 7 0 16 -7 20 -15z
m113 -1 c3 -8 1 -20 -5 -26 -7 -7 -10 -6 -9 3 1 8 -2 14 -8 14 -5 0 -9 -6 -8
-14 1 -9 -2 -10 -9 -3 -14 14 -3 42 17 42 9 0 18 -7 22 -16z m50 0 c3 -8 1
-20 -5 -26 -8 -8 -9 -5 -5 11 3 11 1 21 -5 21 -6 0 -13 -15 -15 -32 -4 -32 -4
-32 -5 5 -2 27 2 37 13 37 9 0 18 -7 22 -16z m103 -15 c0 -10 -3 -19 -7 -19
-5 0 -8 11 -8 24 0 13 3 22 8 19 4 -2 7 -13 7 -24z m69 4 c-1 -17 -3 -21 -6
-10 -2 9 -11 17 -19 17 -8 0 -14 -8 -15 -17 0 -11 -2 -13 -6 -5 -8 21 5 42 27
42 15 0 20 -6 19 -27z m43 2 c3 -15 1 -25 -6 -25 -6 0 -11 11 -11 25 0 14 3
25 6 25 4 0 9 -11 11 -25z m58 15 c0 -5 -7 -7 -15 -4 -8 4 -15 8 -15 10 0 2 7
4 15 4 8 0 15 -4 15 -10z m68 -18 c2 -12 -1 -22 -7 -22 -6 0 -11 6 -11 13 0 9
-3 8 -9 -2 -6 -9 -11 -10 -15 -2 -4 6 0 14 8 17 9 3 13 11 10 16 -4 6 -1 9 7
6 8 -3 15 -14 17 -26z m39 21 c-13 -3 -17 -11 -13 -25 3 -15 2 -18 -6 -10 -15
15 -2 42 19 41 17 -1 17 -2 0 -6z m55 -18 c3 -14 2 -25 -2 -25 -4 0 -10 11
-12 25 -3 14 -2 25 2 25 4 0 10 -11 12 -25z m68 0 c0 -18 -5 -25 -20 -25 -20
0 -28 28 -13 43 15 16 33 6 33 -18z m57 -5 c1 -22 1 -22 -4 -2 -2 12 -8 22
-13 22 -5 0 -11 -10 -13 -22 -4 -19 -5 -18 -6 5 -1 22 3 28 17 25 10 -2 18
-13 19 -28z m273 13 c0 -15 -2 -16 -10 -3 -8 13 -10 12 -10 -4 0 -11 -3 -17
-6 -13 -9 9 3 37 16 37 5 0 10 -8 10 -17z m55 6 c11 -16 1 -19 -13 -3 -7 8 -8
14 -3 14 5 0 13 -5 16 -11z m63 -25 c-3 -14 -5 -12 -10 9 -3 19 -2 25 4 19 6
-6 8 -18 6 -28z m108 18 c1 -7 0 -8 -3 -2 -8 16 -23 12 -23 -7 0 -9 -3 -14 -6
-10 -4 3 -4 13 0 22 7 18 28 16 32 -3z m259 8 c3 -5 1 -10 -4 -10 -6 0 -11 5
-11 10 0 6 2 10 4 10 3 0 8 -4 11 -10z m63 -26 c-3 -14 -5 -12 -10 9 -3 19 -2
25 4 19 6 -6 8 -18 6 -28z m350 0 c-3 -14 -5 -12 -10 9 -3 19 -2 25 4 19 6 -6
8 -18 6 -28z m-591 -21 c-3 -10 -5 -2 -5 17 0 19 2 27 5 18 2 -10 2 -26 0 -35z
m130 15 c-3 -7 -5 -2 -5 12 0 14 2 19 5 13 2 -7 2 -19 0 -25z m266 12 c3 -11
1 -18 -4 -14 -5 3 -9 12 -9 20 0 20 7 17 13 -6z m104 -2 c-3 -8 -6 -5 -6 6 -1
11 2 17 5 13 3 -3 4 -12 1 -19z m60 -10 c-3 -7 -5 -2 -5 12 0 14 2 19 5 13 2
-7 2 -19 0 -25z m-833 6 c3 -8 2 -12 -4 -9 -6 3 -10 10 -10 16 0 14 7 11 14
-7z m-604 -4 c0 -5 -5 -10 -11 -10 -5 0 -7 5 -4 10 3 6 8 10 11 10 2 0 4 -4 4
-10z m403 3 c-7 -2 -19 -2 -25 0 -7 3 -2 5 12 5 14 0 19 -2 13 -5z m-233 -377
c0 -13 3 -32 7 -42 4 -11 3 -15 -4 -11 -13 8 -23 77 -11 77 4 0 8 -11 8 -24z
m110 -5 c-8 -15 -8 -27 0 -41 6 -11 8 -20 6 -20 -16 0 -25 41 -14 64 6 15 13
24 15 22 3 -2 0 -14 -7 -25z m70 -17 c0 -20 -12 -44 -21 -44 -6 0 -5 9 1 20 7
14 8 26 0 39 -5 11 -10 23 -10 28 1 13 30 -29 30 -43z m-830 -3 c0 -19 -23
-35 -34 -24 -3 4 -6 19 -6 35 0 26 2 28 20 18 11 -6 20 -19 20 -29z m374 -1
c1 -16 0 -30 -2 -30 -7 0 -21 53 -16 62 9 15 17 1 18 -32z m-614 -22 l-25 -20
-3 27 c-4 34 17 50 38 29 13 -14 12 -18 -10 -36z m66 40 c4 -7 3 -8 -5 -4 -7
4 -15 -2 -20 -16 -10 -23 -10 -23 -10 -1 -1 12 5 24 12 26 6 3 13 6 14 6 1 1
5 -4 9 -11z m110 -6 c1 -7 0 -8 -3 -2 -9 18 -23 11 -24 -12 0 -13 -3 -17 -6
-10 -7 18 5 44 19 40 6 -2 13 -10 14 -16z m117 -12 c3 -11 2 -20 -3 -20 -4 0
-10 11 -12 25 -6 29 7 25 15 -5z m117 -5 c0 -7 -6 -15 -13 -18 -18 -7 -43 8
-29 17 6 3 13 0 16 -6 3 -7 4 -1 2 15 -3 22 -1 25 10 16 8 -6 14 -17 14 -24z
m50 20 c0 -9 -7 -18 -15 -21 -8 -4 -15 -12 -15 -20 0 -16 16 -19 23 -4 3 6 4
5 3 -2 -1 -7 -10 -14 -19 -16 -13 -3 -17 4 -17 31 0 18 3 37 7 40 12 13 33 7
33 -8z m60 -6 c0 -13 -18 -11 -23 4 -3 6 -6 2 -6 -10 -1 -12 5 -24 12 -26 7
-4 8 -6 1 -6 -6 -1 -17 6 -24 14 -10 12 -10 18 0 29 12 15 40 11 40 -5z m49
-12 c-1 -20 -2 -20 -9 3 l-7 25 -11 -25 c-10 -23 -11 -24 -11 -3 -1 21 16 35
32 26 4 -2 7 -14 6 -26z m111 18 c7 -9 8 -15 2 -15 -5 0 -12 7 -16 15 -3 8 -4
15 -2 15 2 0 9 -7 16 -15z m120 -21 c0 -24 -17 -15 -22 11 -4 20 -3 23 8 14 8
-6 14 -18 14 -25z m157 5 c1 -19 1 -20 -4 -4 -3 11 -10 24 -17 28 -7 6 -6 7 4
4 8 -2 16 -14 17 -28z m-839 1 c10 23 11 23 11 4 1 -21 -21 -39 -33 -27 -3 4
-6 16 -5 27 1 18 2 18 9 -4 l7 -25 11 25z m537 0 c-3 -5 3 -14 12 -20 17 -11
17 -11 0 -6 -10 3 -21 6 -23 6 -2 0 -4 9 -4 21 0 11 5 17 10 14 6 -4 8 -10 5
-15z m183 0 c10 23 11 23 11 4 1 -21 -21 -39 -33 -27 -3 4 -6 16 -5 27 1 18 2
18 9 -4 l7 -25 11 25z m-571 -15 c0 -8 -4 -12 -9 -9 -4 3 -8 9 -8 15 0 5 4 9
8 9 5 0 9 -7 9 -15z m503 5 c0 -5 -4 -10 -10 -10 -5 0 -10 5 -10 10 0 6 5 10
10 10 6 0 10 -4 10 -10z m167 -5 c0 -8 -4 -12 -9 -9 -4 3 -8 9 -8 15 0 5 4 9
8 9 5 0 9 -7 9 -15z m-594 -32 c-7 -2 -19 -2 -25 0 -7 3 -2 5 12 5 14 0 19 -2
13 -5z m390 0 c-7 -2 -21 -2 -30 0 -10 3 -4 5 12 5 17 0 24 -2 18 -5z m-493
-90 c0 -6 -4 -14 -9 -17 -5 -4 -7 3 -4 14 3 11 1 20 -5 20 -6 0 -13 -10 -15
-22 -3 -14 -5 -9 -6 14 -1 37 -1 37 19 21 11 -10 20 -23 20 -30z m559 -8 c0
-17 -2 -17 -11 5 l-11 25 -7 -25 c-7 -22 -8 -21 -9 12 -1 37 -1 37 19 21 11
-10 20 -27 19 -38z m370 34 c-8 -16 -8 -28 0 -48 11 -24 10 -25 -4 -7 -8 11
-15 24 -15 29 0 11 19 47 26 47 2 0 0 -10 -7 -21z m61 -31 c0 -15 -3 -29 -7
-31 -5 -3 -8 15 -8 38 0 24 3 39 7 32 4 -7 8 -24 8 -39z m-611 22 c-6 -5 -9
-15 -6 -24 4 -9 3 -16 -2 -16 -9 0 -21 47 -14 54 3 3 12 2 20 -1 11 -4 12 -8
2 -13z m-602 -6 c3 -8 0 -21 -7 -27 -9 -9 -11 -8 -8 5 1 9 -1 17 -7 17 -5 0
-10 -8 -10 -18 0 -11 -3 -23 -7 -27 -5 -4 -8 6 -8 23 0 16 3 33 7 36 12 12 33
7 40 -9z m53 5 c0 -5 -5 -7 -10 -4 -6 3 -14 -4 -19 -17 -10 -23 -10 -22 -10 5
-1 21 4 27 19 27 11 0 20 -5 20 -11z m60 -14 c0 -14 -4 -25 -9 -25 -4 0 -6 11
-3 25 2 14 6 25 8 25 2 0 4 -11 4 -25z m48 7 c2 -7 -4 -12 -13 -12 -9 0 -13
-4 -10 -10 3 -5 1 -10 -4 -10 -12 0 -15 33 -4 44 9 9 26 2 31 -12z m111 -9 c0
-16 -3 -22 -6 -15 -2 6 -9 12 -14 12 -6 0 -7 -4 -4 -10 3 -5 1 -10 -4 -10 -17
0 -13 20 5 27 13 5 13 7 2 14 -10 7 -9 9 5 9 12 0 17 -8 16 -27z m119 -1 c2
-12 -1 -22 -7 -22 -6 0 -11 6 -11 13 0 9 -3 8 -9 -2 -6 -9 -11 -10 -15 -2 -4
6 0 14 9 17 13 6 14 9 3 16 -9 7 -8 8 7 6 12 -2 21 -12 23 -26z m52 17 c0 -6
-9 -22 -20 -36 l-20 -26 0 30 c0 16 3 33 7 36 10 11 33 8 33 -4z m58 -6 c2 -7
-3 -13 -12 -13 -9 0 -16 -5 -16 -12 0 -8 -3 -9 -10 -2 -15 15 -1 46 18 42 8
-2 17 -9 20 -15z m51 -10 l-1 -28 -8 25 -7 25 -11 -25 -11 -25 0 28 c-1 21 4
27 19 27 15 0 20 -6 19 -27z m111 12 c10 -13 9 -15 -9 -15 -15 0 -20 -4 -15
-12 5 -10 4 -10 -6 -1 -13 12 -7 43 8 43 5 0 15 -7 22 -15z m168 -13 c3 -17
-2 -22 -17 -22 -14 0 -21 6 -21 18 0 38 33 41 38 4z m57 18 c3 -5 0 -7 -9 -4
-9 4 -16 -2 -19 -18 -4 -21 -4 -20 -6 5 -1 27 21 38 34 17z m55 -15 c0 -18 -5
-25 -20 -25 -24 0 -27 18 -4 27 13 5 13 7 2 14 -10 7 -9 9 5 9 12 0 17 -8 17
-25z m27 -12 c-3 -10 -5 -4 -5 12 0 17 2 24 5 18 2 -7 2 -21 0 -30z m75 12 c3
-15 1 -25 -6 -25 -6 0 -11 11 -11 25 0 14 3 25 6 25 4 0 9 -11 11 -25z m66 -3
c3 -16 -2 -22 -16 -22 -24 0 -35 23 -19 39 16 16 31 8 35 -17z m-1031 -14 c-3
-7 -5 -2 -5 12 0 14 2 19 5 13 2 -7 2 -19 0 -25z m140 -132 c-12 -31 -37 -18
-37 19 l0 36 21 -20 c13 -12 19 -26 16 -35z m762 33 c-8 -16 -8 -28 0 -48 11
-24 10 -25 -4 -7 -8 11 -15 24 -15 29 0 11 19 47 26 47 2 0 0 -10 -7 -21z m71
-24 c0 -6 -7 -20 -15 -31 -14 -18 -15 -17 -4 7 8 20 8 33 -1 50 -11 23 -10 23
4 5 9 -11 16 -25 16 -31z m-566 26 c4 -5 0 -11 -6 -14 -10 -3 -9 -8 2 -22 13
-16 13 -18 0 -13 -17 5 -27 58 -11 58 5 0 12 -4 15 -9z m-486 -22 c2 -9 -9
-24 -23 -33 l-25 -16 0 35 c0 32 3 36 22 33 13 -2 24 -10 26 -19z m52 10 c0
-5 -5 -7 -10 -4 -6 3 -14 -4 -19 -17 -10 -23 -10 -22 -10 5 -1 21 4 27 19 27
11 0 20 -5 20 -11z m48 -9 l11 25 0 -27 c1 -22 -4 -28 -19 -28 -15 0 -20 6
-19 28 l1 27 8 -25 7 -25 11 25z m62 5 c0 -8 -8 -15 -17 -16 -15 0 -15 -2 2
-9 16 -7 17 -9 3 -9 -21 -1 -32 15 -24 34 7 20 36 19 36 0z m110 -10 c0 -15
-6 -25 -14 -25 -22 0 -30 19 -11 26 13 6 14 8 3 15 -10 7 -9 9 5 9 12 0 17 -8
17 -25z m102 0 c3 -15 1 -25 -6 -25 -6 0 -11 11 -11 25 0 14 3 25 6 25 4 0 9
-11 11 -25z m67 -2 c-2 -24 -2 -25 -6 -5 -2 12 -8 22 -13 22 -5 0 -11 -10 -13
-22 -4 -20 -4 -19 -6 5 -1 21 4 27 19 27 15 0 20 -6 19 -27z m111 12 c0 -8 -8
-15 -17 -16 -15 0 -15 -2 2 -9 16 -7 17 -9 3 -9 -21 -1 -32 15 -24 34 7 20 36
19 36 0z m60 0 c0 -8 -5 -15 -11 -15 -5 0 -7 5 -4 10 3 6 1 10 -4 10 -16 0
-13 -16 4 -30 17 -14 20 -30 4 -30 -5 0 -7 5 -4 10 3 6 1 10 -4 10 -6 0 -11
-5 -11 -11 0 -5 -4 -8 -8 -5 -5 3 -7 19 -4 36 3 21 10 30 23 30 11 0 19 -7 19
-15z m55 5 c3 -6 -1 -7 -9 -4 -11 4 -19 -2 -25 -17 -10 -24 -10 -24 -10 4 -1
20 4 27 18 27 11 0 23 -4 26 -10z m53 -18 c3 -17 -2 -22 -17 -22 -12 0 -21 6
-21 15 0 8 8 15 18 15 15 0 15 2 2 11 -13 9 -13 10 0 6 8 -2 16 -13 18 -25z
m45 21 c-7 -2 -13 -11 -13 -18 0 -7 6 -16 13 -18 7 -4 6 -6 -5 -6 -9 -1 -18 5
-21 12 -7 19 4 37 22 36 10 0 11 -2 4 -6z m59 -18 c3 -15 1 -25 -6 -25 -6 0
-11 11 -11 25 0 14 3 25 6 25 4 0 9 -11 11 -25z m66 2 c4 -20 -25 -34 -40 -19
-15 15 -1 44 19 40 10 -2 19 -11 21 -21z m51 -4 c-2 -24 -2 -25 -6 -5 -2 12
-8 22 -13 22 -5 0 -11 -10 -13 -22 -4 -20 -4 -19 -6 5 -1 21 4 27 19 27 15 0
20 -6 19 -27z m-616 -40 c-7 -2 -19 -2 -25 0 -7 3 -2 5 12 5 14 0 19 -2 13 -5z
m159 -358 c2 -19 1 -35 -3 -35 -4 0 -9 16 -11 35 -2 19 -1 35 3 35 4 0 9 -16
11 -35z m1742 3 c-1 -13 -3 -26 -3 -30 -1 -5 -8 -8 -16 -8 -24 0 -29 29 -9 49
23 22 32 19 28 -11z m-2019 -13 c0 -14 -2 -25 -6 -25 -8 0 -18 48 -11 55 9 8
15 -4 17 -30z m1058 28 c4 -3 2 -13 -5 -20 -9 -11 -9 -17 3 -24 10 -6 11 -9 1
-9 -13 0 -33 40 -25 53 5 9 17 9 26 0z m1077 -24 c0 -26 -3 -30 -22 -27 -28 4
-33 21 -13 42 24 24 35 20 35 -15z m35 -9 c1 -23 -2 -34 -7 -27 -12 19 -8 68
6 67 1 0 1 -18 1 -40z m65 7 c0 -12 -4 -28 -8 -34 -5 -7 -8 4 -7 26 0 22 3 37
8 34 4 -2 7 -14 7 -26z m-2450 -4 c0 -20 -3 -24 -9 -14 -7 11 -9 11 -13 0 -3
-8 -9 -10 -14 -6 -5 5 -1 14 9 22 13 10 15 14 5 18 -8 4 -7 6 5 6 12 1 17 -7
17 -26z m60 12 c0 -7 -6 -18 -14 -22 -7 -4 -16 -15 -19 -23 -3 -8 -6 -1 -6 16
-1 17 2 34 6 37 12 12 33 7 33 -8z m58 -2 c2 -7 -1 -13 -8 -13 -6 0 -8 5 -5
10 3 6 1 10 -4 10 -6 0 -11 -10 -11 -22 0 -15 -3 -19 -10 -12 -15 15 -1 46 18
42 8 -2 17 -9 20 -15z m49 -13 c1 -22 1 -22 -4 -2 -2 12 -8 22 -13 22 -5 0
-11 -10 -13 -22 -4 -19 -5 -18 -6 5 -1 22 3 28 17 25 10 -2 18 -13 19 -28z
m117 15 c3 -8 1 -15 -4 -15 -6 0 -10 5 -10 10 0 6 -4 10 -9 10 -6 0 -8 -10 -6
-22 3 -16 2 -19 -7 -10 -14 14 -3 42 16 42 7 0 16 -7 20 -15z m114 -13 c2 -12
-1 -22 -7 -22 -6 0 -11 6 -11 13 0 9 -3 8 -9 -2 -5 -8 -11 -9 -15 -3 -3 5 2
13 11 16 15 6 15 8 3 17 -12 8 -11 9 5 7 12 -2 21 -12 23 -26z m32 -12 c5 0
11 10 13 23 4 19 4 18 6 -5 1 -22 -4 -28 -19 -28 -15 0 -20 6 -19 28 2 23 2
24 6 5 2 -13 8 -23 13 -23z m128 12 c3 -17 -2 -22 -17 -22 -25 0 -28 18 -5 27
13 5 13 8 2 15 -10 8 -10 9 2 5 8 -2 16 -13 18 -25z m117 7 c8 -24 -3 -39 -14
-20 -7 11 -9 11 -13 0 -3 -8 -9 -10 -14 -6 -5 5 -1 14 9 22 13 10 15 14 5 18
-9 4 -7 6 4 6 9 1 20 -8 23 -20z m55 6 c0 -9 -7 -18 -15 -21 -8 -4 -15 -12
-15 -20 0 -8 -4 -14 -9 -14 -8 0 -6 21 5 58 5 17 34 15 34 -3z m55 5 c3 -5 0
-7 -9 -4 -9 4 -16 -2 -19 -18 -4 -21 -4 -20 -6 5 -1 27 21 38 34 17z m53 -8
c2 -7 -4 -12 -13 -12 -9 0 -13 -4 -10 -10 3 -5 1 -10 -4 -10 -12 0 -15 33 -4
44 9 9 26 2 31 -12z m62 3 c0 -9 -7 -18 -15 -21 -8 -4 -15 -12 -15 -20 0 -8
-4 -14 -8 -14 -4 0 -6 16 -4 35 3 26 9 35 23 35 10 0 19 -7 19 -15z m50 -10
c0 -18 -5 -25 -20 -25 -24 0 -27 18 -4 27 13 5 13 7 2 14 -10 7 -9 9 5 9 12 0
17 -8 17 -25z m27 -12 c-3 -10 -5 -4 -5 12 0 17 2 24 5 18 2 -7 2 -21 0 -30z
m143 26 c0 -5 -5 -7 -10 -4 -6 3 -14 -4 -19 -17 -10 -23 -10 -22 -10 5 -1 21
4 27 19 27 11 0 20 -5 20 -11z m58 -6 c2 -7 -4 -13 -13 -13 -9 0 -13 -4 -10
-10 3 -5 2 -10 -4 -10 -15 0 -22 16 -15 35 7 18 35 17 42 -2z m34 8 c-11 -7
-11 -9 2 -14 18 -7 22 -27 5 -27 -5 0 -8 4 -5 9 3 5 -1 12 -10 15 -17 6 -10
26 9 26 8 0 8 -3 -1 -9z m134 -3 c5 -8 2 -9 -10 -5 -12 5 -19 0 -26 -16 -8
-21 -9 -21 -9 -1 -1 33 29 48 45 22z m42 -16 c2 -12 -2 -22 -8 -22 -6 0 -8 5
-5 10 4 6 1 18 -7 27 -11 14 -11 16 2 11 8 -2 16 -14 18 -26z m49 17 c-14 -8
-16 -14 -6 -25 7 -9 8 -14 1 -14 -6 0 -14 5 -17 10 -8 13 12 40 29 40 6 0 3
-5 -7 -11z m60 4 c-13 -3 -17 -11 -14 -24 3 -10 1 -19 -4 -19 -10 0 -12 33 -2
43 3 4 13 6 22 6 12 -1 11 -3 -2 -6z m55 -18 c3 -15 1 -25 -6 -25 -6 0 -11 11
-11 25 0 14 3 25 6 25 4 0 9 -11 11 -25z m70 13 c8 -21 -2 -38 -23 -38 -19 0
-27 29 -12 43 11 11 31 8 35 -5z m55 -18 c1 -22 1 -22 -4 -2 -2 12 -8 22 -13
22 -5 0 -11 -10 -13 -22 -4 -19 -5 -18 -6 5 -1 22 3 28 17 25 10 -2 18 -13 19
-28z m51 12 c2 -7 -4 -12 -13 -12 -9 0 -13 -4 -10 -10 3 -5 1 -10 -4 -10 -12
0 -15 33 -4 44 9 9 26 2 31 -12z m44 9 c-11 -7 -10 -9 3 -15 9 -3 13 -10 10
-16 -4 -6 -12 -5 -21 5 -16 16 -11 35 9 35 8 0 8 -3 -1 -9z m115 2 c-13 -3
-17 -11 -13 -25 3 -15 2 -18 -6 -10 -15 15 -2 42 19 41 17 -1 17 -2 0 -6z m71
-21 c2 -12 -1 -22 -7 -22 -6 0 -11 6 -11 13 0 9 -3 8 -9 -2 -5 -8 -11 -9 -15
-3 -3 5 2 13 11 16 15 6 15 8 3 17 -12 8 -11 9 5 7 12 -2 21 -12 23 -26z m50
0 c2 -14 -2 -22 -11 -22 -9 0 -18 -6 -20 -12 -3 -7 -6 4 -6 25 -1 31 2 38 17
35 9 -2 18 -13 20 -26z m60 0 c2 -12 -2 -22 -8 -22 -6 0 -8 5 -5 10 3 6 2 10
-4 10 -5 0 -12 -6 -14 -12 -4 -10 -6 -10 -6 0 -1 7 6 15 15 19 13 5 13 8 2 15
-10 8 -10 9 2 5 8 -2 16 -13 18 -25z m36 13 c-16 -13 -17 -16 -4 -25 9 -6 10
-10 3 -10 -6 0 -15 5 -18 10 -10 17 3 40 22 40 15 0 15 -2 -3 -15z m61 4 c11
-17 -1 -21 -15 -4 -8 9 -8 15 -2 15 6 0 14 -5 17 -11z m123 -17 c2 -12 -2 -22
-8 -22 -6 0 -8 5 -5 10 3 6 2 10 -4 10 -5 0 -12 -6 -14 -12 -4 -10 -6 -10 -6
0 -1 7 6 15 15 19 13 5 13 8 2 15 -10 8 -10 9 2 5 8 -2 16 -13 18 -25z m-1907
-111 c12 -11 19 -27 16 -38 -4 -14 -5 -13 -6 5 -1 14 -6 22 -13 19 -7 -2 -12
-10 -10 -16 1 -6 -2 -11 -8 -11 -5 0 -8 13 -7 30 2 35 2 35 28 11z m1686 -38
c-4 -15 -5 -14 -6 5 0 12 -5 22 -10 22 -5 0 -12 -10 -14 -22 -3 -14 -5 -8 -6
15 l-1 38 21 -20 c12 -11 19 -27 16 -38z m435 45 c-16 -16 -15 -50 1 -68 10
-12 9 -12 -5 -1 -21 15 -24 51 -6 69 7 7 14 12 17 12 3 0 0 -5 -7 -12z m58
-35 c0 -12 -3 -24 -7 -26 -5 -3 -8 12 -8 34 -1 22 2 33 7 26 4 -6 8 -22 8 -34z
m-2346 4 c1 -15 -2 -27 -6 -27 -4 0 -8 6 -8 14 0 8 -3 22 -7 32 -4 11 -2 15 7
12 7 -2 14 -16 14 -31z m1228 15 c-16 -5 -15 -29 1 -35 9 -4 9 -6 -1 -6 -13
-1 -33 39 -26 51 3 4 12 4 21 1 11 -4 13 -8 5 -11z m-1439 -13 c6 -23 -18 -38
-35 -21 -8 8 -7 13 6 18 14 5 15 9 4 15 -10 7 -9 9 3 9 9 0 19 -9 22 -21z m57
4 c0 -15 -2 -16 -10 -3 -5 8 -13 11 -17 6 -4 -4 0 -13 10 -20 19 -15 23 -36 6
-36 -5 0 -7 5 -4 10 3 6 2 10 -4 10 -5 0 -12 -6 -14 -12 -3 -7 -6 1 -6 18 -1
17 2 34 6 37 13 13 33 7 33 -10z m58 0 c2 -7 -4 -13 -15 -13 -15 0 -16 -2 -3
-10 13 -8 13 -10 -2 -10 -21 0 -30 13 -22 35 7 18 35 17 42 -2z m51 -10 c-2
-24 -2 -25 -6 -5 -2 12 -8 22 -13 22 -5 0 -11 -10 -13 -22 -4 -20 -4 -19 -6 5
-1 21 4 27 19 27 15 0 20 -6 19 -27z m111 12 c0 -8 -8 -15 -17 -16 -15 0 -15
-2 2 -9 16 -7 17 -9 3 -9 -21 -1 -32 15 -24 34 7 20 36 19 36 0z m168 -7 c-5
-34 -38 -37 -38 -4 0 20 5 26 21 26 15 0 20 -5 17 -22z m62 12 c0 -5 -6 -7
-14 -4 -9 4 -16 -3 -19 -18 -4 -21 -4 -20 -6 5 -1 21 4 27 19 27 11 0 20 -4
20 -10z m50 -15 c0 -18 -5 -25 -20 -25 -24 0 -27 18 -4 27 13 5 13 7 2 14 -10
7 -9 9 5 9 12 0 17 -8 17 -25z m60 15 c0 -5 -6 -7 -14 -4 -9 4 -16 -3 -19 -18
-4 -21 -4 -20 -6 5 -1 21 4 27 19 27 11 0 20 -4 20 -10z m42 -15 c3 -15 1 -25
-6 -25 -6 0 -11 11 -11 25 0 14 3 25 6 25 4 0 9 -11 11 -25z m66 2 c4 -21 -27
-35 -38 -17 -12 19 0 42 19 38 9 -2 17 -11 19 -21z m112 -2 c0 -18 -5 -25 -20
-25 -24 0 -27 18 -4 27 13 5 13 7 2 14 -10 7 -9 9 5 9 12 0 17 -8 17 -25z m60
16 c0 -16 -18 -22 -23 -9 -4 8 -6 9 -6 2 -1 -6 6 -17 14 -24 17 -14 20 -30 4
-30 -5 0 -7 5 -4 10 3 6 1 10 -4 10 -6 0 -11 -5 -11 -11 0 -5 -4 -8 -8 -5 -5
3 -7 19 -4 36 3 21 10 30 23 30 11 0 19 -4 19 -9z m50 -2 c0 -5 -5 -7 -10 -4
-6 3 -14 -4 -19 -17 -10 -23 -10 -22 -10 5 -1 21 4 27 19 27 11 0 20 -5 20
-11z m58 -6 c2 -7 -4 -13 -15 -13 -15 0 -16 -2 -3 -10 13 -8 13 -10 -2 -10
-21 0 -30 13 -22 35 7 18 35 17 42 -2z m53 -1 c-7 -13 -7 -22 0 -29 8 -8 7
-13 -2 -18 -8 -5 -10 -4 -5 3 4 7 1 12 -9 12 -9 0 -13 -4 -10 -10 3 -5 1 -10
-4 -10 -12 0 -15 52 -4 63 3 4 15 7 25 7 15 0 17 -4 9 -18z m59 -7 c0 -18 -5
-25 -20 -25 -11 0 -20 7 -20 15 0 8 8 15 18 15 14 0 15 2 2 10 -13 8 -12 10 3
10 12 0 17 -8 17 -25z m60 15 c0 -5 -6 -7 -14 -4 -9 4 -16 -3 -19 -18 -4 -21
-4 -20 -6 5 -1 21 4 27 19 27 11 0 20 -4 20 -10z m110 0 c0 -5 -6 -7 -14 -4
-9 4 -16 -3 -19 -18 -4 -21 -4 -20 -6 5 -1 21 4 27 19 27 11 0 20 -4 20 -10z
m50 -5 c0 -8 -8 -15 -17 -16 -15 0 -15 -2 2 -9 16 -7 17 -9 3 -9 -21 -1 -32
15 -24 34 7 20 36 19 36 0z m42 6 c-11 -7 -10 -9 3 -15 20 -7 10 -26 -13 -26
-13 0 -14 2 -3 9 9 6 10 11 2 15 -17 11 -13 26 7 26 13 0 14 -2 4 -9z m128 -1
c0 -5 -6 -7 -14 -4 -9 4 -16 -3 -19 -18 -4 -21 -4 -20 -6 5 -1 21 4 27 19 27
11 0 20 -4 20 -10z m42 -15 c3 -15 1 -25 -6 -25 -6 0 -11 11 -11 25 0 14 3 25
6 25 4 0 9 -11 11 -25z m56 18 c-10 -2 -18 -11 -18 -18 0 -7 8 -16 18 -18 15
-4 15 -5 0 -6 -9 0 -20 4 -23 9 -11 17 3 40 22 39 17 -1 17 -2 1 -6z m55 0
c-7 -2 -13 -11 -13 -18 0 -7 6 -16 13 -18 7 -3 5 -6 -5 -6 -11 -1 -18 6 -18
17 0 21 9 32 24 31 6 0 5 -3 -1 -6z m59 -18 c3 -15 1 -25 -6 -25 -6 0 -11 11
-11 25 0 14 3 25 6 25 4 0 9 -11 11 -25z m66 2 c4 -20 -25 -34 -39 -20 -14 14
1 45 20 41 9 -2 17 -11 19 -21z m51 -4 l-1 -28 -8 25 -7 25 -11 -25 -11 -25 0
28 c-1 21 4 27 19 27 15 0 20 -6 19 -27z m61 12 c0 -8 -8 -15 -17 -16 -15 0
-15 -2 2 -9 16 -7 17 -9 3 -9 -21 -1 -32 15 -24 34 7 20 36 19 36 0z m42 6
c-11 -7 -10 -9 3 -15 20 -7 10 -26 -13 -26 -15 0 -15 2 -2 10 10 6 11 10 3 10
-7 0 -13 7 -13 15 0 8 8 15 18 15 13 0 14 -2 4 -9z m182 0 c9 -14 -4 -41 -19
-41 -18 0 -28 17 -21 35 6 17 32 20 40 6z m56 -1 c0 -5 -6 -7 -14 -4 -9 4 -16
-3 -19 -18 -4 -21 -4 -20 -6 5 -1 21 4 27 19 27 11 0 20 -4 20 -10z m57 -6 c8
-21 -12 -38 -34 -30 -17 7 -17 8 0 21 13 10 15 14 5 18 -8 4 -7 6 5 6 10 1 20
-6 24 -15z m53 5 c0 -5 -5 -7 -10 -4 -6 3 -14 -4 -19 -17 -10 -23 -10 -22 -10
5 -1 21 4 27 19 27 11 0 20 -5 20 -11z m42 -14 c3 -15 1 -25 -6 -25 -6 0 -11
11 -11 25 0 14 3 25 6 25 4 0 9 -11 11 -25z m68 0 c0 -25 -23 -35 -35 -15 -10
16 2 40 20 40 9 0 15 -9 15 -25z m42 16 c-11 -7 -10 -9 3 -15 20 -7 10 -26
-13 -25 -14 0 -14 2 2 8 18 7 18 8 3 14 -22 8 -22 27 1 27 13 0 14 -2 4 -9z
m-2109 -58 c-7 -2 -19 -2 -25 0 -7 3 -2 5 12 5 14 0 19 -2 13 -5z m890 0 c-7
-2 -19 -2 -25 0 -7 3 -2 5 12 5 14 0 19 -2 13 -5z m780 0 c-7 -2 -19 -2 -25 0
-7 3 -2 5 12 5 14 0 19 -2 13 -5z m-561 -88 c2 -20 0 -35 -7 -35 -5 0 -10 18
-10 39 0 47 11 45 17 -4z m-1340 0 c2 -21 0 -35 -7 -35 -7 0 -9 14 -7 35 2 19
5 35 7 35 2 0 5 -16 7 -35z m785 15 c21 0 13 -44 -9 -48 -15 -3 -18 4 -17 35
0 21 3 32 6 26 2 -7 11 -13 20 -13z m55 -15 c2 -21 0 -35 -7 -35 -7 0 -9 14
-7 35 2 19 5 35 7 35 2 0 5 -16 7 -35z m383 26 c-18 -7 -18 -8 -1 -18 23 -13
15 -44 -11 -42 -17 1 -17 2 0 6 21 6 22 12 0 28 -19 14 -10 35 15 34 14 0 13
-2 -3 -8z m503 -10 c-9 -15 -9 -25 1 -47 11 -24 10 -26 -3 -14 -23 18 -18 80
5 80 5 0 4 -9 -3 -19z m62 -19 c0 -15 -4 -32 -8 -39 -4 -7 -7 8 -7 32 0 23 3
41 8 38 4 -2 7 -16 7 -31z m-624 12 c-4 -9 -1 -23 6 -32 11 -13 10 -14 -2 -10
-18 6 -27 58 -10 58 7 0 9 -7 6 -16z m280 0 c-4 -9 -1 -23 6 -32 11 -13 10
-14 -2 -10 -18 6 -27 58 -10 58 7 0 9 -7 6 -16z m-1546 -33 c0 -6 -8 -11 -17
-11 -14 0 -15 2 -4 9 9 6 10 11 2 15 -6 4 -11 12 -11 17 0 6 7 4 15 -5 8 -8
15 -19 15 -25z m33 19 c-3 -11 -1 -20 5 -20 6 0 13 9 16 20 5 17 6 17 4 -2 -2
-13 -10 -23 -18 -23 -8 0 -16 10 -18 23 -2 12 1 22 6 22 6 0 8 -9 5 -20z m117
-20 c5 0 11 10 13 23 4 18 5 17 6 -6 1 -22 -3 -28 -16 -25 -10 2 -18 12 -19
23 -1 15 0 16 3 3 3 -10 8 -18 13 -18z m53 24 c-3 -9 0 -20 8 -26 12 -8 11 -9
-1 -5 -17 4 -27 47 -11 47 6 0 8 -7 4 -16z m69 -9 c3 -15 1 -25 -6 -25 -6 0
-11 11 -11 25 0 14 3 25 6 25 4 0 9 -11 11 -25z m50 -15 c6 0 8 9 5 20 -3 11
-1 20 5 20 5 0 8 -10 6 -22 -4 -28 -33 -30 -34 -3 -1 15 0 16 3 3 3 -10 9 -18
15 -18z m75 15 c2 -17 1 -17 -3 -2 -4 11 -12 16 -20 13 -8 -3 -14 -1 -14 5 0
19 35 4 37 -16z m53 15 c0 -5 -7 -7 -15 -3 -17 6 -17 -16 0 -30 6 -5 4 -7 -5
-4 -8 2 -16 13 -18 25 -3 17 2 22 17 22 12 0 21 -4 21 -10z m54 -32 c-3 -4
-13 -8 -22 -8 -13 0 -14 2 -3 9 9 6 10 11 2 15 -6 4 -11 11 -11 16 0 6 9 2 19
-7 11 -9 18 -20 15 -25z m226 24 c0 -10 -9 -25 -20 -35 -19 -16 -20 -16 -20
18 0 28 4 35 20 35 12 0 20 -7 20 -18z m60 8 c0 -5 -6 -7 -14 -4 -8 3 -16 -2
-19 -13 -4 -14 -5 -14 -6 5 -1 16 5 22 19 22 11 0 20 -4 20 -10z m32 -30 c6 0
8 9 5 20 -3 11 -1 20 5 20 5 0 8 -10 6 -22 -4 -28 -33 -30 -34 -3 -1 15 0 16
3 3 3 -10 9 -18 15 -18z m170 0 c6 0 8 -3 5 -6 -12 -12 -36 17 -29 34 6 14 7
13 10 -5 2 -13 8 -23 14 -23z m13 31 c3 -5 2 -12 -3 -15 -5 -3 -9 1 -9 9 0 17
3 19 12 6z m64 -18 c-2 -28 -2 -28 -7 -3 -4 23 -5 24 -13 5 l-8 -20 -1 20 -1
20 -9 -20 c-8 -19 -9 -19 -9 3 -1 17 5 22 24 22 21 0 25 -4 24 -27z m111 17
c0 -5 -8 -14 -17 -19 -17 -10 -17 -10 0 -11 10 0 17 -6 15 -12 -3 -7 -13 -13
-23 -13 -17 0 -23 24 -16 60 2 9 41 5 41 -5z m50 -5 c0 -8 -8 -15 -17 -16 -15
0 -15 -2 2 -9 16 -7 17 -9 3 -9 -21 -1 -32 15 -24 34 7 20 36 19 36 0z m152
-25 c6 0 8 9 5 20 -3 11 -1 20 4 20 13 0 11 -37 -2 -46 -16 -10 -43 21 -33 38
7 10 10 7 12 -9 2 -13 8 -23 14 -23z m108 0 c5 0 11 10 13 23 4 18 5 17 6 -6
1 -22 -3 -28 -16 -25 -10 2 -18 12 -19 23 -1 15 0 16 3 3 3 -10 8 -18 13 -18z
m122 15 c3 -15 1 -25 -6 -25 -6 0 -11 11 -11 25 0 14 3 25 6 25 4 0 9 -11 11
-25z m34 9 c0 -9 5 -19 13 -22 10 -3 12 1 8 17 -3 11 -1 21 5 21 16 0 4 -45
-13 -48 -17 -3 -33 23 -23 39 8 14 12 11 10 -7z m64 9 c0 -5 -5 -15 -10 -23
-8 -12 -10 -11 -10 8 0 12 5 22 10 22 6 0 10 -3 10 -7z m30 -19 c0 -8 -4 -14
-10 -14 -5 0 -10 9 -10 21 0 11 5 17 10 14 6 -3 10 -13 10 -21z m44 -16 c-3
-4 -13 -8 -22 -8 -13 0 -14 2 -3 9 9 6 10 11 2 15 -6 4 -11 11 -11 16 0 6 9 2
19 -7 11 -9 18 -20 15 -25z m-1171 25 c-7 -2 -19 -2 -25 0 -7 3 -2 5 12 5 14
0 19 -2 13 -5z m492 -23 c3 -5 1 -10 -4 -10 -6 0 -11 5 -11 10 0 6 2 10 4 10
3 0 8 -4 11 -10z m-999 -117 c0 -29 -6 -47 -14 -49 -7 -1 -8 0 -2 3 13 6 13
63 0 63 -8 0 7 27 16 30 1 0 1 -21 0 -47z m334 6 c0 -16 -3 -29 -7 -29 -5 0
-8 15 -8 34 0 19 3 32 8 29 4 -2 7 -17 7 -34z m780 0 c0 -41 -15 -36 -16 6 0
18 3 32 8 29 4 -3 8 -18 8 -35z m342 32 c-7 -4 -12 -12 -11 -17 4 -22 -2 -44
-12 -44 -5 0 -8 4 -4 9 3 5 1 12 -4 16 -12 7 18 45 34 45 5 0 4 -4 -3 -9z
m1495 -28 c1 -32 0 -34 -6 -13 -7 21 -4 50 3 50 2 0 3 -17 3 -37z m335 -1 c2
-22 -1 -39 -7 -39 -5 0 -10 18 -10 39 0 21 3 38 6 38 4 0 9 -17 11 -38z m221
-5 c3 -22 2 -35 -4 -32 -5 4 -9 22 -9 42 0 45 5 40 13 -10z m453 -4 c0 -28 -6
-48 -14 -51 -11 -3 -11 -1 0 17 9 16 10 26 2 39 -9 14 -3 36 12 42 1 0 1 -21
0 -47z m334 6 c0 -41 -15 -36 -16 6 0 18 3 32 8 29 4 -3 8 -18 8 -35z m158 24
c-1 -10 2 -27 5 -39 5 -14 3 -21 -5 -21 -11 0 -14 21 -9 70 2 15 10 6 9 -10z
m172 -4 c-7 -11 -9 -32 -5 -46 4 -16 2 -22 -5 -18 -14 9 -13 58 2 73 18 18 20
15 8 -9z m170 -20 c0 -16 -3 -29 -7 -29 -5 0 -8 15 -8 34 0 19 3 32 8 29 4 -2
7 -17 7 -34z m-3451 -1 c-1 -30 -2 -31 -8 -8 -5 17 -9 21 -15 12 -4 -6 -4 -16
-1 -22 3 -5 1 -10 -4 -10 -16 0 -13 21 6 42 22 24 23 23 22 -14z m379 11 c-10
-7 -11 -12 -1 -28 11 -17 10 -19 -1 -15 -14 5 -28 49 -19 58 3 3 12 2 20 -1
12 -5 12 -7 1 -14z m564 3 c-7 -2 -12 -13 -13 -25 -1 -20 -2 -20 -8 3 -10 31
-5 41 16 33 11 -4 13 -8 5 -11z m272 -21 c1 -16 -2 -27 -5 -25 -9 5 -17 52
-11 59 9 9 15 -4 16 -34z m2680 -22 c-8 -17 -9 -13 -9 21 0 34 1 38 9 21 5
-13 5 -29 0 -42z m-5335 17 c0 -20 -1 -20 -9 -1 l-9 20 -1 -20 -1 -20 -9 20
-9 20 -1 -20 c-1 -12 -4 -15 -7 -7 -9 23 5 41 26 35 13 -3 21 -13 20 -27z m47
16 c1 -7 0 -8 -3 -2 -9 18 -23 11 -24 -12 0 -13 -3 -17 -6 -10 -7 18 5 44 19
40 6 -2 13 -10 14 -16z m111 -13 c1 -22 1 -22 -4 -1 -6 30 -27 28 -21 -3 3
-13 1 -22 -3 -19 -5 3 -9 13 -9 23 0 39 34 39 37 0z m59 19 c4 -7 3 -8 -5 -4
-7 4 -15 -2 -20 -16 -10 -23 -10 -23 -10 -1 -1 12 5 24 12 26 6 3 13 6 14 6 1
1 5 -4 9 -11z m95 3 c-11 -7 -10 -11 5 -19 10 -6 17 -13 14 -15 -3 -3 -13 1
-24 8 -18 14 -14 35 7 35 8 0 7 -3 -2 -9z m79 -16 c0 -7 -6 -18 -14 -24 -20
-17 -44 13 -26 33 13 17 40 10 40 -9z m140 10 c-10 -12 -10 -18 0 -30 11 -13
10 -14 -4 -9 -19 7 -21 25 -4 42 17 17 23 15 8 -3z m130 0 c10 -12 10 -18 0
-29 -14 -18 -40 -10 -40 13 0 32 20 40 40 16z m58 -21 c-3 -14 -5 -12 -10 9
-3 19 -2 25 4 19 6 -6 8 -18 6 -28z m219 5 c1 -19 1 -20 -4 -4 -3 11 -10 24
-17 28 -7 6 -6 7 4 4 8 -2 16 -14 17 -28z m170 0 c1 -19 1 -20 -4 -4 -3 11
-10 24 -17 28 -7 6 -6 7 4 4 8 -2 16 -14 17 -28z m173 0 c0 -27 -17 -23 -22 5
-4 17 -1 23 9 19 7 -3 13 -14 13 -24z m33 16 c-3 -9 -8 -14 -10 -11 -3 3 -2 9
2 15 9 16 15 13 8 -4z m177 -16 c0 -28 -15 -23 -16 6 -1 14 2 22 7 19 5 -3 9
-14 9 -25z m116 13 c1 -7 0 -8 -3 -2 -9 18 -23 11 -24 -12 0 -13 -3 -17 -6
-10 -7 18 5 44 19 40 6 -2 13 -10 14 -16z m60 6 c4 -7 3 -8 -5 -4 -7 4 -15 -2
-20 -16 -10 -23 -10 -23 -10 -1 -1 12 5 24 12 26 6 3 13 6 14 6 1 1 5 -4 9
-11z m59 -17 c-3 -3 -10 0 -14 8 -7 10 -9 10 -14 -2 -3 -8 -1 -20 4 -26 5 -6
1 -5 -8 3 -13 13 -14 18 -3 31 10 12 16 13 27 4 7 -7 11 -14 8 -18z m54 -4 c0
-21 -1 -21 -9 -2 -12 28 -12 37 0 30 6 -3 10 -16 9 -28z m107 15 c1 -7 0 -8
-3 -2 -9 18 -23 11 -24 -12 0 -13 -3 -17 -6 -10 -7 18 5 44 19 40 6 -2 13 -10
14 -16z m45 9 c-9 -6 -10 -11 -2 -15 6 -4 11 -12 11 -17 0 -6 -7 -3 -16 5 -16
17 -11 36 9 36 8 0 8 -3 -2 -9z m237 -16 c4 -18 -16 -37 -30 -29 -4 3 -8 11
-8 17 0 7 4 6 10 -3 8 -12 10 -12 16 4 4 11 1 22 -7 28 -12 8 -11 9 1 5 8 -2
17 -12 18 -22z m56 16 c3 -4 -3 -19 -14 -31 -11 -13 -18 -26 -15 -29 4 -3 10
1 15 9 5 8 12 11 16 7 12 -12 -13 -30 -31 -24 -9 4 -15 16 -13 29 6 40 28 61
42 39z m52 -9 c1 -7 0 -8 -3 -2 -9 18 -23 11 -24 -12 0 -13 -3 -17 -6 -10 -7
18 5 44 19 40 6 -2 13 -10 14 -16z m172 0 c2 -7 -1 -12 -8 -12 -6 0 -8 5 -5
10 3 6 1 10 -6 10 -7 0 -9 -10 -7 -25 4 -20 3 -23 -8 -14 -10 8 -11 16 -3 31
11 20 30 20 37 0z m110 -9 c4 -25 -22 -37 -38 -17 -10 11 -10 17 0 29 17 20
34 14 38 -12z m55 -14 c-8 -8 -11 -6 -10 7 2 14 -4 18 -18 16 -16 -2 -17 -1
-5 7 20 14 50 -13 33 -30z m174 10 c2 -22 2 -22 -6 -4 l-10 20 -1 -20 -1 -20
-9 20 -9 20 -1 -20 c-1 -12 -4 -15 -7 -7 -8 21 4 41 24 38 11 -2 19 -12 20
-27z m103 22 c0 -6 -5 -13 -12 -17 -6 -4 -8 -3 -4 4 3 5 0 13 -6 15 -8 3 -6 6
5 6 9 1 17 -3 17 -8z m58 -16 c4 -18 -16 -37 -30 -29 -4 3 -8 11 -8 17 0 7 4
6 10 -3 8 -12 10 -12 16 4 4 11 1 22 -7 28 -12 8 -11 9 1 5 8 -2 17 -12 18
-22z m45 18 c-7 -2 -13 -14 -13 -26 0 -18 -2 -19 -10 -7 -10 16 5 41 24 39 7
0 6 -2 -1 -6z m127 -18 c0 -7 -6 -18 -14 -24 -20 -17 -44 13 -26 33 13 17 40
10 40 -9z m49 -8 c-1 -20 -2 -20 -9 3 l-7 25 -11 -25 c-10 -23 -11 -24 -11 -3
-1 21 16 35 32 26 4 -2 7 -14 6 -26z m94 18 c-3 -9 -8 -14 -10 -11 -3 3 -2 9
2 15 9 16 15 13 8 -4z m73 -3 c1 -7 0 -8 -3 -2 -8 17 -23 11 -23 -9 0 -11 6
-22 13 -24 9 -4 9 -6 -1 -6 -16 -1 -26 24 -18 45 7 17 28 15 32 -4z m110 0 c1
-7 0 -8 -3 -2 -9 18 -23 11 -24 -12 0 -13 -3 -17 -6 -10 -7 18 5 44 19 40 6
-2 13 -10 14 -16z m47 11 c-7 -2 -13 -13 -13 -23 0 -10 6 -21 13 -23 9 -4 9
-6 -1 -6 -7 -1 -15 6 -18 14 -8 20 2 45 18 44 10 0 10 -2 1 -6z m52 -7 c-17
-12 -18 -16 -5 -32 13 -18 13 -18 -5 -2 -15 14 -16 20 -5 32 7 9 17 16 23 16
6 0 2 -6 -8 -14z m125 -1 c10 -12 10 -18 0 -29 -14 -18 -40 -10 -40 13 0 32
20 40 40 16z m58 -21 c-3 -14 -5 -12 -10 9 -3 19 -2 25 4 19 6 -6 8 -18 6 -28z
m62 0 c0 -24 -17 -15 -22 11 -4 20 -3 23 8 14 8 -6 14 -18 14 -25z m50 25 c0
-5 -5 -7 -10 -4 -6 3 -14 -4 -19 -17 -10 -23 -10 -23 -10 -1 -1 19 10 30 32
32 4 1 7 -4 7 -10z m119 -22 c0 -21 -1 -21 -9 -2 -7 17 -9 17 -9 3 -1 -10 -8
-18 -16 -18 -21 0 -19 38 3 43 24 5 32 -1 31 -26z m47 15 c1 -7 0 -8 -3 -2 -8
17 -23 11 -23 -9 0 -11 6 -22 13 -24 9 -4 9 -6 -1 -6 -16 -1 -26 24 -18 45 7
17 28 15 32 -4z m109 -12 c0 -13 -6 -25 -12 -27 -16 -6 -27 21 -19 43 9 23 31
11 31 -16z m60 20 c3 -5 1 -10 -4 -10 -6 0 -11 5 -11 10 0 6 2 10 4 10 3 0 8
-4 11 -10z m96 1 c-11 -7 -10 -11 5 -20 16 -9 17 -12 4 -21 -8 -5 -19 -10 -25
-10 -5 0 -3 5 5 10 13 8 13 11 1 19 -15 10 -7 31 12 31 8 0 7 -3 -2 -9z m69
-6 c10 -12 10 -18 0 -29 -14 -18 -40 -10 -40 13 0 32 20 40 40 16z m150 0
c-10 -12 -10 -18 0 -30 11 -13 10 -14 -4 -9 -25 10 -20 54 7 54 5 0 4 -7 -3
-15z m125 -15 c0 -27 -22 -39 -31 -16 -8 22 3 49 19 43 6 -2 12 -14 12 -27z
m64 -3 c0 -21 -1 -21 -9 -2 -12 28 -12 37 0 30 6 -3 10 -16 9 -28z m92 24
c-11 -7 -10 -11 5 -19 10 -6 16 -14 12 -17 -10 -10 -41 23 -33 35 3 5 12 10
18 10 8 0 7 -3 -2 -9z m79 -15 c0 -18 -21 -35 -36 -29 -17 6 -18 25 -3 40 13
13 39 6 39 -11z m140 9 c-10 -12 -10 -18 0 -30 11 -13 10 -14 -4 -9 -19 7 -22
40 -3 47 20 8 20 8 7 -8z m131 -29 c-16 -19 -41 -10 -41 14 0 24 21 31 39 14
11 -10 12 -16 2 -28z m57 8 c-3 -14 -5 -12 -10 9 -3 19 -2 25 4 19 6 -6 8 -18
6 -28z m57 7 c-3 -3 -10 1 -15 9 -9 13 -10 13 -11 0 -1 -8 -1 -18 0 -22 0 -5
-3 -8 -9 -8 -14 0 -13 23 2 38 8 8 15 9 25 0 7 -6 11 -13 8 -17z m36 20 c-11
-7 -10 -11 5 -19 10 -6 17 -13 14 -15 -3 -3 -13 1 -24 8 -18 14 -14 35 7 35 8
0 7 -3 -2 -9z m-4801 -21 c0 -11 -2 -20 -4 -20 -2 0 -6 9 -9 20 -3 11 -1 20 4
20 5 0 9 -9 9 -20z m30 0 c0 -11 -4 -20 -9 -20 -5 0 -7 9 -4 20 3 11 7 20 9
20 2 0 4 -9 4 -20z m100 0 c0 -11 -4 -20 -8 -20 -4 0 -8 9 -8 20 0 11 4 20 8
20 4 0 8 -9 8 -20z m87 -12 c-3 -7 -5 -2 -5 12 0 14 2 19 5 13 2 -7 2 -19 0
-25z m202 10 c-1 -21 -2 -21 -7 -3 l-5 20 -8 -20 -8 -20 -1 20 -1 20 -9 -20
c-8 -19 -9 -19 -9 3 -1 17 5 22 24 22 20 0 25 -5 24 -22z m104 1 c3 -12 -1
-17 -12 -16 -9 0 -17 8 -17 17 0 22 23 21 29 -1z m144 -11 c-3 -7 -5 -2 -5 12
0 14 2 19 5 13 2 -7 2 -19 0 -25z m33 12 c0 -11 -4 -20 -9 -20 -5 0 -7 9 -4
20 3 11 7 20 9 20 2 0 4 -9 4 -20z m577 -12 c-3 -7 -5 -2 -5 12 0 14 2 19 5
13 2 -7 2 -19 0 -25z m560 12 c-1 -11 -5 -20 -9 -20 -10 0 -10 4 -2 24 8 22
13 20 11 -4z m31 -11 c-3 -8 -7 -3 -11 10 -4 17 -3 21 5 13 5 -5 8 -16 6 -23z
m375 11 c3 -11 1 -20 -4 -20 -5 0 -9 9 -9 20 0 11 2 20 4 20 2 0 6 -9 9 -20z
m110 0 c3 -11 1 -20 -4 -20 -5 0 -9 9 -9 20 0 11 2 20 4 20 2 0 6 -9 9 -20z
m874 -12 c-3 -7 -5 -2 -5 12 0 14 2 19 5 13 2 -7 2 -19 0 -25z m450 0 c-3 -7
-5 -2 -5 12 0 14 2 19 5 13 2 -7 2 -19 0 -25z m276 12 c3 -11 1 -20 -4 -20 -5
0 -9 9 -9 20 0 11 2 20 4 20 2 0 6 -9 9 -20z m33 0 c0 -11 -4 -20 -8 -20 -4 0
-8 9 -8 20 0 11 4 20 8 20 4 0 8 -9 8 -20z m194 0 c0 -11 -4 -20 -9 -20 -5 0
-7 9 -4 20 3 11 7 20 9 20 2 0 4 -9 4 -20z m273 0 c3 -11 1 -18 -4 -14 -5 3
-9 12 -9 20 0 20 7 17 13 -6z m37 0 c0 -11 -4 -20 -9 -20 -6 0 -9 9 -8 20 1
11 5 20 9 20 4 0 8 -9 8 -20z m93 0 c3 -11 1 -20 -4 -20 -5 0 -9 9 -9 20 0 11
2 20 4 20 2 0 6 -9 9 -20z m94 -12 c-3 -7 -5 -2 -5 12 0 14 2 19 5 13 2 -7 2
-19 0 -25z m-3097 12 c0 -5 -7 -10 -15 -10 -8 0 -15 5 -15 10 0 6 7 10 15 10
8 0 15 -4 15 -10z m-1130 -4 c0 -3 -4 -8 -10 -11 -5 -3 -10 -1 -10 4 0 6 5 11
10 11 6 0 10 -2 10 -4z m2355 -15 c-3 -6 -11 -11 -16 -11 -5 0 -4 6 3 14 14
16 24 13 13 -3z m485 9 c0 -5 -5 -10 -11 -10 -5 0 -7 5 -4 10 3 6 8 10 11 10
2 0 4 -4 4 -10z m-3000 -15 c0 -8 -4 -15 -10 -15 -5 0 -7 7 -4 15 4 8 8 15 10
15 2 0 4 -7 4 -15z m1822 -7 c-7 -7 -12 -8 -12 -2 0 14 12 26 19 19 2 -3 -1
-11 -7 -17z m-2309 -15 c-7 -2 -21 -2 -30 0 -10 3 -4 5 12 5 17 0 24 -2 18 -5z
m780 0 c-7 -2 -21 -2 -30 0 -10 3 -4 5 12 5 17 0 24 -2 18 -5z m330 0 c-7 -2
-21 -2 -30 0 -10 3 -4 5 12 5 17 0 24 -2 18 -5z m1120 0 c-7 -2 -21 -2 -30 0
-10 3 -4 5 12 5 17 0 24 -2 18 -5z m1390 0 c-7 -2 -21 -2 -30 0 -10 3 -4 5 12
5 17 0 24 -2 18 -5z m330 0 c-7 -2 -19 -2 -25 0 -7 3 -2 5 12 5 14 0 19 -2 13
-5z m-3621 -358 c3 -29 1 -35 -15 -35 -14 0 -17 4 -10 13 5 6 8 22 7 35 -2 36
13 25 18 -13z m-436 4 c4 -8 9 -7 15 2 6 10 9 8 9 -8 0 -13 5 -23 12 -23 6 0
8 -3 5 -6 -4 -4 -13 -2 -20 4 -8 7 -17 9 -20 5 -4 -3 -7 2 -8 13 0 18 -1 18
-9 -1 l-9 -20 -1 20 -1 20 -9 -20 c-8 -19 -9 -19 -9 3 -1 15 5 22 18 22 11 0
23 -5 27 -11z m49 2 c3 -5 2 -12 -3 -15 -5 -3 -9 1 -9 9 0 17 3 19 12 6z m53
-23 c-2 -24 -9 -34 -23 -36 -20 -4 -20 -3 -1 11 13 9 17 21 13 36 -3 11 -1 21
5 21 5 0 8 -15 6 -32z m44 -8 c6 0 8 9 5 20 -3 11 -1 20 5 20 5 0 8 -10 6 -22
-4 -28 -33 -30 -34 -3 -1 15 0 16 3 3 3 -10 9 -18 15 -18z m78 30 c0 -5 -6 -7
-14 -4 -8 3 -16 -2 -19 -13 -4 -14 -5 -14 -6 5 -1 16 5 22 19 22 11 0 20 -4
20 -10z m104 -32 c-3 -4 -13 -8 -22 -8 -13 0 -14 2 -3 9 9 6 10 11 2 15 -6 4
-11 11 -11 16 0 6 9 2 19 -7 11 -9 18 -20 15 -25z m29 22 c-3 -11 -1 -20 5
-20 6 0 13 9 16 20 5 17 6 17 4 -2 -2 -13 -10 -23 -18 -23 -8 0 -16 10 -18 23
-2 12 1 22 6 22 6 0 8 -9 5 -20z m123 -16 c8 3 14 1 14 -5 0 -20 -35 -4 -36
16 -1 17 0 17 3 2 3 -11 10 -16 19 -13z m47 20 c-3 -9 0 -20 8 -26 12 -8 11
-9 -1 -5 -17 4 -27 47 -11 47 6 0 8 -7 4 -16z m69 -9 c3 -16 1 -25 -7 -25 -8
0 -10 9 -7 25 2 14 6 25 7 25 1 0 5 -11 7 -25z m50 -15 c6 0 8 9 5 20 -3 11
-1 20 5 20 5 0 8 -10 6 -22 -4 -28 -33 -30 -34 -3 -1 15 0 16 3 3 3 -10 9 -18
15 -18z m77 18 c-1 -17 -2 -19 -6 -5 -2 9 -8 17 -13 17 -5 0 -11 -8 -13 -17
-4 -14 -5 -12 -6 5 -1 16 5 22 19 22 14 0 20 -6 19 -22z m-456 -45 c-7 -2 -21
-2 -30 0 -10 3 -4 5 12 5 17 0 24 -2 18 -5z m-115 -78 c1 -19 -2 -35 -6 -35
-4 0 -7 16 -8 35 0 19 3 35 6 35 4 0 7 -16 8 -35z m162 10 c-10 -12 -10 -22
-1 -43 10 -25 10 -26 -4 -8 -8 11 -15 24 -15 29 0 15 21 49 27 43 3 -3 0 -13
-7 -21z m2342 -10 c2 -19 1 -35 -3 -35 -4 0 -9 16 -11 35 -2 19 -1 35 3 35 4
0 9 -16 11 -35z m275 -2 c1 -32 0 -34 -6 -13 -7 21 -4 50 3 50 2 0 3 -17 3
-37z m63 22 c-10 -12 -10 -15 1 -16 10 0 11 -2 2 -6 -7 -2 -13 -12 -14 -21 0
-13 -2 -13 -8 3 -9 22 3 55 21 55 7 0 6 -5 -2 -15z m-2736 -35 c1 -16 0 -30
-2 -30 -7 0 -21 53 -16 62 9 15 17 1 18 -32z m226 5 c0 -5 -5 -3 -10 5 -5 8
-10 20 -10 25 0 6 5 3 10 -5 5 -8 10 -19 10 -25z m2399 -26 c-7 -4 -17 -5 -21
-3 -14 9 -8 43 10 53 14 8 18 5 20 -16 2 -14 -2 -29 -9 -34z m383 24 l-6 -28
-6 25 c-7 27 -3 43 9 35 5 -2 6 -17 3 -32z m1298 -3 c0 -3 -7 -15 -16 -26 -14
-18 -15 -18 -4 4 8 16 8 28 0 45 -11 21 -10 21 4 3 9 -11 16 -23 16 -26z
m-4510 2 c0 -10 -9 -23 -20 -30 -19 -11 -20 -10 -19 20 1 30 2 31 8 8 5 -18 9
-21 15 -12 4 7 5 20 2 28 -3 9 -1 12 4 9 6 -3 10 -14 10 -23z m55 18 c3 -5 1
-10 -4 -10 -6 0 -11 5 -11 10 0 6 2 10 4 10 3 0 8 -4 11 -10z m109 -6 c11 -28
5 -40 -6 -14 -11 25 -11 25 -15 3 -3 -13 -9 -23 -14 -23 -14 0 -11 38 4 43 20
9 25 8 31 -9z m2173 -15 c1 -19 1 -20 -4 -4 -3 11 -10 24 -17 28 -7 6 -6 7 4
4 8 -2 16 -14 17 -28z m173 0 c0 -27 -17 -23 -22 5 -4 17 -1 23 9 19 7 -3 13
-14 13 -24z m158 -5 c-3 -14 -5 -12 -10 9 -3 19 -2 25 4 19 6 -6 8 -18 6 -28z
m43 27 c-11 -7 -10 -11 5 -19 10 -6 17 -13 14 -15 -3 -3 -13 1 -24 8 -18 14
-14 35 7 35 8 0 7 -3 -2 -9z m271 -16 c-2 -14 -8 -22 -13 -19 -5 3 -5 14 1 25
14 26 18 24 12 -6z m83 15 c3 -5 1 -10 -4 -10 -6 0 -11 5 -11 10 0 6 2 10 4
10 3 0 8 -4 11 -10z m51 -8 c1 -7 0 -8 -3 -2 -9 18 -23 11 -24 -12 0 -13 -3
-17 -6 -10 -7 18 5 44 19 40 6 -2 13 -10 14 -16z m63 -21 c0 -11 -3 -9 -9 7
-5 12 -12 22 -15 22 -3 0 -10 -10 -15 -22 -9 -23 -9 -23 -9 -1 -1 12 5 23 12
26 16 6 37 -12 36 -32z m111 18 c0 -13 -17 -11 -24 4 -3 6 -4 -1 -2 -16 3 -26
2 -27 -12 -13 -12 12 -13 18 -3 30 13 15 41 11 41 -5z m33 6 c-3 -9 -8 -14
-10 -11 -3 3 -2 9 2 15 9 16 15 13 8 -4z m-3293 -2 c0 -5 -5 -15 -10 -23 -8
-12 -10 -11 -10 8 0 12 5 22 10 22 6 0 10 -3 10 -7z m437 -25 c-3 -7 -5 -2 -5
12 0 14 2 19 5 13 2 -7 2 -19 0 -25z m30 0 c-3 -7 -5 -2 -5 12 0 14 2 19 5 13
2 -7 2 -19 0 -25z m1792 10 c-1 -21 -2 -21 -7 -3 l-5 20 -8 -20 -8 -20 -1 20
-1 20 -9 -20 c-8 -19 -9 -19 -9 3 -1 17 5 22 24 22 20 0 25 -5 24 -22z m97 2
c0 -9 -5 -17 -11 -17 -6 0 -11 8 -11 17 0 9 5 17 11 17 6 0 11 -8 11 -17z
m147 0 c3 -11 1 -20 -4 -20 -5 0 -9 9 -9 20 0 11 2 20 4 20 2 0 6 -9 9 -20z
m24 -12 c-3 -7 -5 -2 -5 12 0 14 2 19 5 13 2 -7 2 -19 0 -25z m453 22 c0 -5
-5 -10 -11 -10 -5 0 -7 5 -4 10 3 6 8 10 11 10 2 0 4 -4 4 -10z m27 -10 c-1
-11 -5 -20 -9 -20 -4 0 -8 9 -8 20 0 11 4 20 9 20 6 0 9 -9 8 -20z m-1260 -12
c-3 -8 -6 -5 -6 6 -1 11 2 17 5 13 3 -3 4 -12 1 -19z m1730 0 c-3 -8 -6 -5 -6
6 -1 11 2 17 5 13 3 -3 4 -12 1 -19z m-1193 -4 c3 -8 2 -12 -4 -9 -6 3 -10 10
-10 16 0 14 7 11 14 -7z m166 6 c0 -5 -5 -10 -11 -10 -5 0 -7 5 -4 10 3 6 8
10 11 10 2 0 4 -4 4 -10z m170 6 c0 -3 -4 -8 -10 -11 -5 -3 -10 -1 -10 4 0 6
5 11 10 11 6 0 10 -2 10 -4z m-207 -43 c-7 -2 -19 -2 -25 0 -7 3 -2 5 12 5 14
0 19 -2 13 -5z m340 0 c-7 -2 -21 -2 -30 0 -10 3 -4 5 12 5 17 0 24 -2 18 -5z
m-961 -78 c2 -19 1 -35 -3 -35 -4 0 -9 16 -11 35 -2 19 -1 35 3 35 4 0 9 -16
11 -35z m667 14 c-8 -16 -8 -28 0 -48 11 -24 10 -25 -4 -7 -8 11 -15 24 -15
29 0 11 19 47 26 47 2 0 0 -10 -7 -21z m65 -15 c3 -11 0 -28 -9 -40 -14 -18
-15 -18 -6 7 5 15 6 31 0 40 -5 8 -9 18 -9 24 0 14 17 -7 24 -31z m-285 6 c-6
-5 -9 -15 -6 -24 4 -9 4 -16 1 -16 -7 0 -22 44 -18 52 3 4 12 4 20 1 12 -4 13
-8 3 -13z m-2068 1 c-9 -6 -11 -16 -7 -27 6 -15 4 -16 -5 -7 -14 14 -5 43 13
43 10 0 9 -3 -1 -9z m129 -2 c0 -5 -5 -7 -10 -4 -6 3 -14 -4 -19 -17 -9 -22
-10 -22 -10 -2 -1 11 2 24 6 27 10 11 33 8 33 -4z m42 2 c-11 -7 -11 -9 2 -14
18 -7 22 -27 5 -27 -5 0 -7 5 -4 10 3 6 -1 10 -9 10 -17 0 -21 12 -9 23 3 4
11 7 17 7 6 0 5 -4 -2 -9z m75 -7 c3 -8 1 -20 -5 -26 -7 -7 -10 -5 -9 7 1 10
-4 20 -12 23 -10 3 -12 -1 -8 -18 4 -16 3 -20 -5 -12 -14 14 -3 42 17 42 9 0
18 -7 22 -16z m161 -12 c2 -12 -2 -22 -8 -22 -6 0 -8 5 -5 10 3 6 2 10 -4 10
-5 0 -12 -6 -14 -12 -4 -10 -6 -10 -6 0 -1 7 6 15 15 19 13 5 13 8 2 15 -10 8
-10 9 2 5 8 -2 16 -13 18 -25z m42 18 c-12 -8 -12 -10 3 -16 9 -3 14 -10 11
-15 -3 -5 -12 -2 -20 6 -16 16 -11 35 9 35 7 0 6 -4 -3 -10z m62 -15 c3 -15 1
-25 -6 -25 -6 0 -11 11 -11 25 0 14 3 25 6 25 4 0 9 -11 11 -25z m68 16 c0 -5
-7 -16 -15 -25 -8 -8 -15 -19 -15 -25 0 -6 -4 -11 -8 -11 -4 0 -6 16 -4 35 3
26 9 35 23 35 10 0 19 -4 19 -9z m49 -18 l-1 -28 -8 25 -7 25 -11 -25 c-10
-23 -11 -23 -11 -4 -1 24 7 34 26 34 8 0 13 -11 12 -27z m59 -1 c3 -17 -2 -22
-17 -22 -25 0 -28 18 -5 27 13 5 13 8 2 15 -10 8 -10 9 2 5 8 -2 16 -13 18
-25z m43 19 c-8 -5 -11 -16 -8 -25 4 -9 2 -16 -3 -16 -11 0 -14 33 -3 43 3 4
11 7 17 7 6 0 5 -4 -3 -9z m59 -22 c0 -10 -3 -19 -7 -19 -5 0 -8 11 -8 24 0
13 3 22 8 19 4 -2 7 -13 7 -24z m67 15 c3 -8 1 -20 -5 -26 -8 -8 -9 -4 -5 12
4 17 2 21 -8 18 -8 -3 -13 -13 -12 -23 1 -12 -2 -14 -9 -7 -14 14 -3 42 17 42
9 0 18 -7 22 -16z m52 -11 l-1 -28 -8 25 -7 25 -11 -25 c-10 -23 -11 -23 -11
-4 -1 24 7 34 26 34 8 0 13 -11 12 -27z m286 17 c5 -8 11 -7 20 0 15 12 35 6
35 -11 0 -5 -5 -9 -11 -9 -5 0 -7 5 -4 10 3 6 1 10 -4 10 -6 0 -11 -8 -11 -18
0 -10 -7 -19 -15 -19 -8 0 -15 6 -15 14 0 19 -28 16 -33 -4 -3 -11 -5 -7 -6
10 -1 20 4 27 18 27 11 0 23 -5 26 -10z m105 -19 c0 -17 -4 -32 -9 -35 -4 -3
-6 6 -3 20 3 16 -1 30 -9 35 -11 7 -10 9 4 9 12 0 17 -8 17 -29z m58 1 c2 -12
-1 -22 -6 -22 -6 0 -8 9 -5 20 3 11 0 20 -6 20 -6 0 -11 -10 -12 -22 0 -13 -3
-17 -6 -10 -7 19 5 44 20 40 6 -3 13 -14 15 -26z m58 17 c4 -7 1 -10 -7 -7 -8
3 -19 -4 -26 -16 l-12 -21 -1 21 c0 33 30 48 46 23z m95 2 c-9 -6 -10 -11 -2
-15 6 -4 11 -12 11 -17 0 -6 -7 -4 -15 5 -20 20 -19 36 3 36 13 0 14 -2 3 -9z
m73 -7 c8 -21 -1 -34 -25 -34 -12 0 -19 7 -19 18 0 34 33 45 44 16z m86 -24
c5 0 11 8 13 18 4 13 5 11 6 -5 1 -17 -5 -23 -19 -23 -15 0 -20 6 -19 28 2 23
2 24 6 5 2 -13 8 -23 13 -23z m61 31 c-8 -5 -11 -16 -8 -25 4 -9 2 -16 -3 -16
-11 0 -14 33 -3 43 3 4 11 7 17 7 6 0 5 -4 -3 -9z m61 -16 c3 -15 1 -25 -6
-25 -6 0 -11 11 -11 25 0 14 3 25 6 25 4 0 9 -11 11 -25z m66 -3 c3 -17 -2
-22 -17 -22 -14 0 -21 6 -21 18 0 38 33 41 38 4z m59 -2 l3 -25 -10 23 c-5 13
-14 20 -20 17 -5 -3 -10 -1 -10 5 0 23 35 4 37 -20z m95 5 c3 -14 2 -25 -2
-25 -4 0 -10 11 -12 25 -3 14 -2 25 2 25 4 0 10 -11 12 -25z m126 7 c2 -7 -4
-12 -13 -12 -9 0 -13 -4 -10 -10 3 -5 1 -10 -4 -10 -12 0 -15 33 -4 44 9 9 26
2 31 -12z m59 -12 c1 -19 0 -20 -4 -5 l-6 20 -8 -20 -8 -20 -1 20 -1 20 -9
-20 c-8 -18 -9 -17 -9 8 -1 24 3 28 22 25 15 -2 23 -10 24 -28z m35 21 c-11
-7 -11 -9 2 -14 18 -7 22 -27 5 -27 -5 0 -8 4 -5 9 3 5 -1 12 -10 15 -17 6
-10 26 9 26 8 0 8 -3 -1 -9z m-2182 -22 c0 -11 -4 -18 -10 -14 -5 3 -7 12 -3
20 7 21 13 19 13 -6z m30 1 c0 -11 -4 -20 -9 -20 -5 0 -7 9 -4 20 3 11 7 20 9
20 2 0 4 -9 4 -20z m1810 -10 c0 -5 -5 -10 -11 -10 -5 0 -7 5 -4 10 3 6 8 10
11 10 2 0 4 -4 4 -10z m-1600 -9 c0 -6 -4 -13 -10 -16 -5 -3 -10 1 -10 9 0 9
5 16 10 16 6 0 10 -4 10 -9z m-168 -106 c2 -20 0 -35 -7 -35 -5 0 -10 16 -10
35 0 19 3 35 6 35 4 0 9 -16 11 -35z m235 -22 c-4 -14 -5 -13 -6 6 -1 16 -5
21 -16 17 -10 -4 -15 1 -15 15 0 20 0 20 21 0 12 -11 19 -27 16 -38z m499 1
c-7 -19 -35 -18 -43 2 -4 11 2 23 18 35 23 18 24 18 27 -2 2 -11 1 -27 -2 -35z
m-836 11 c0 -18 -5 -25 -20 -25 -24 0 -27 18 -4 27 13 5 13 7 2 14 -10 7 -9 9
5 9 12 0 17 -8 17 -25z m48 5 l11 25 0 -27 c1 -22 -4 -28 -19 -28 -15 0 -20 6
-19 28 l1 27 8 -25 7 -25 11 25z m120 -8 c3 -17 -2 -22 -17 -22 -12 0 -21 6
-21 15 0 8 8 15 18 15 15 0 15 2 2 11 -13 9 -13 10 0 6 8 -2 16 -13 18 -25z
m220 6 c-2 -13 -10 -23 -18 -23 -8 0 -16 10 -18 23 -3 17 2 22 18 22 16 0 21
-5 18 -22z m62 12 c0 -5 -6 -7 -14 -4 -9 4 -16 -3 -19 -18 -4 -21 -4 -20 -6 5
-1 21 4 27 19 27 11 0 20 -4 20 -10z m50 -15 c0 -18 -5 -25 -20 -25 -24 0 -27
18 -4 27 13 5 13 7 2 14 -10 7 -9 9 5 9 12 0 17 -8 17 -25z m60 15 c0 -5 -6
-7 -14 -4 -9 4 -16 -3 -19 -18 -4 -21 -4 -20 -6 5 -1 21 4 27 19 27 11 0 20
-4 20 -10z m42 -15 c3 -15 1 -25 -6 -25 -6 0 -11 11 -11 25 0 14 3 25 6 25 4
0 9 -11 11 -25z m68 5 c0 -24 -29 -38 -40 -20 -12 19 -1 40 21 40 12 0 19 -7
19 -20z m212 -5 c3 -15 1 -25 -6 -25 -6 0 -11 11 -11 25 0 14 3 25 6 25 4 0 9
-11 11 -25z m66 -3 c3 -17 -2 -22 -17 -22 -12 0 -21 6 -21 15 0 8 8 15 18 15
15 0 15 2 2 11 -13 9 -13 10 0 6 8 -2 16 -13 18 -25z m222 3 c0 -18 -5 -25
-20 -25 -24 0 -27 18 -4 27 13 5 13 7 2 14 -10 7 -9 9 5 9 12 0 17 -8 17 -25z
m42 16 c-11 -7 -10 -9 3 -15 20 -7 10 -26 -13 -26 -13 0 -14 2 -3 9 9 6 10 11
2 15 -17 11 -13 26 7 26 13 0 14 -2 4 -9z m60 -16 c3 -15 1 -25 -6 -25 -6 0
-11 11 -11 25 0 14 3 25 6 25 4 0 9 -11 11 -25z m68 16 c0 -6 -5 -13 -12 -17
-7 -4 -8 -3 -4 4 4 7 2 12 -3 12 -16 0 -13 -16 4 -30 17 -14 20 -30 4 -30 -5
0 -7 5 -4 10 3 6 2 10 -4 10 -5 0 -12 -6 -14 -12 -3 -7 -6 4 -6 25 -1 31 2 37
19 37 11 0 20 -4 20 -9z m49 -18 l-1 -28 -8 25 -7 25 -11 -25 -11 -25 0 28
c-1 21 4 27 19 27 15 0 20 -6 19 -27z m61 2 c0 -18 -5 -25 -20 -25 -24 0 -27
18 -4 27 13 5 13 7 2 14 -10 7 -9 9 5 9 12 0 17 -8 17 -25z m36 13 c-19 -11
-19 -11 -1 -24 16 -12 16 -14 3 -14 -9 0 -18 6 -21 13 -7 19 4 37 22 37 13 -1
13 -2 -3 -12z m66 -13 c3 -15 1 -25 -6 -25 -6 0 -11 11 -11 25 0 14 3 25 6 25
4 0 9 -11 11 -25z m66 2 c4 -20 -25 -34 -40 -19 -15 15 -1 44 19 40 10 -2 19
-11 21 -21z m51 -4 c-2 -24 -2 -25 -6 -5 -2 12 -8 22 -13 22 -5 0 -11 -10 -13
-22 -4 -20 -4 -19 -6 5 -1 21 4 27 19 27 15 0 20 -6 19 -27z m-612 11 c-3 -3
-12 -4 -19 -1 -8 3 -5 6 6 6 11 1 17 -2 13 -5z m-337 -28 c0 -3 -4 -8 -10 -11
-5 -3 -10 -1 -10 4 0 6 5 11 10 11 6 0 10 -2 10 -4z m-516 -108 c-4 -12 -1
-24 7 -30 11 -8 11 -9 -1 -5 -9 2 -16 18 -18 36 -2 22 0 31 8 26 6 -4 8 -16 4
-27z m61 -12 c0 -25 -3 -40 -7 -33 -13 20 -8 78 6 77 1 0 1 -20 1 -44z m1117
9 c2 -21 0 -35 -7 -35 -7 0 -9 14 -7 35 2 19 5 35 7 35 2 0 5 -16 7 -35z m337
-26 c-18 -11 -29 -2 -28 24 1 20 2 20 8 -3 5 -17 9 -21 15 -12 4 6 4 17 1 22
-3 6 -3 16 2 23 5 8 9 2 11 -17 2 -16 -2 -32 -9 -37z m667 41 c9 0 14 -10 13
-27 -2 -24 -2 -25 -6 -5 -5 26 -20 29 -26 5 -3 -10 -5 -2 -5 17 0 19 2 29 5
23 2 -7 11 -13 19 -13z m504 -20 c0 -16 -3 -31 -7 -33 -5 -3 -8 12 -8 33 0 21
3 36 8 33 4 -2 7 -17 7 -33z m-2890 2 c0 -10 -9 -25 -20 -35 -19 -16 -20 -16
-20 18 0 28 4 35 20 35 12 0 20 -7 20 -18z m60 8 c0 -5 -6 -7 -14 -4 -8 3 -16
-2 -19 -13 -4 -14 -5 -14 -6 5 -1 16 5 22 19 22 11 0 20 -4 20 -10z m42 -15
c3 -15 1 -25 -6 -25 -6 0 -11 11 -11 25 0 14 3 25 6 25 4 0 9 -11 11 -25z m67
-2 c-2 -24 -2 -25 -6 -5 -2 12 -8 22 -13 22 -5 0 -11 -10 -13 -22 -4 -20 -4
-19 -6 5 -1 21 4 27 19 27 15 0 20 -6 19 -27z m305 15 c-4 -6 1 -17 11 -25 16
-11 17 -13 3 -13 -9 0 -20 5 -23 10 -7 12 0 40 10 40 4 0 3 -5 -1 -12z m75 -8
l11 25 -3 -25 c-1 -14 -9 -26 -19 -28 -14 -3 -18 3 -17 25 l1 28 8 -25 7 -25
12 25z m41 13 c0 -5 -5 -15 -10 -23 -8 -12 -10 -11 -10 8 0 12 5 22 10 22 6 0
10 -3 10 -7z m60 3 c0 -3 -4 -8 -10 -11 -5 -3 -10 -1 -10 4 0 6 5 11 10 11 6
0 10 -2 10 -4z m46 -12 c0 -9 5 -19 13 -22 10 -3 12 1 8 17 -3 11 -1 19 4 15
14 -9 10 -34 -7 -41 -20 -7 -38 11 -31 31 8 21 15 20 13 0z m584 -9 c0 -15 -6
-25 -14 -25 -20 0 -29 17 -15 26 8 4 9 3 5 -4 -4 -7 -2 -12 3 -12 6 0 11 9 11
20 0 11 2 20 5 20 3 0 5 -11 5 -25z m40 -15 c5 0 11 10 13 23 4 18 5 17 6 -6
1 -22 -3 -28 -16 -25 -10 2 -18 12 -19 23 -1 15 0 16 3 3 3 -10 8 -18 13 -18z
m130 14 c0 -18 -5 -25 -17 -22 -22 4 -29 28 -9 28 9 0 16 5 16 10 0 6 2 10 5
10 3 0 5 -12 5 -26z m322 1 c3 -16 1 -25 -7 -25 -8 0 -10 9 -7 25 2 14 6 25 7
25 1 0 5 -11 7 -25z m68 -1 c0 -18 -5 -25 -17 -22 -22 4 -29 28 -9 28 9 0 16
5 16 10 0 6 2 10 5 10 3 0 5 -12 5 -26z m583 5 c-4 -16 -2 -20 8 -17 8 3 13
13 12 23 -1 11 2 14 8 8 13 -13 1 -43 -16 -43 -18 0 -28 17 -21 35 8 23 15 18
9 -6z m87 11 c0 -5 -6 -7 -14 -4 -9 4 -16 -3 -19 -18 -4 -21 -4 -20 -6 5 -1
21 4 27 19 27 11 0 20 -4 20 -10z m60 -16 c0 -17 -24 -29 -40 -19 -8 5 -6 13
7 25 20 19 33 17 33 -6z m38 19 c-9 -2 -19 -12 -21 -21 -3 -12 -5 -10 -6 6 -1
17 4 22 22 21 15 -1 17 -3 5 -6z m54 -18 c3 -16 1 -25 -7 -25 -8 0 -10 9 -7
25 2 14 6 25 7 25 1 0 5 -11 7 -25z m41 5 c-3 -11 0 -20 6 -20 6 0 11 10 11
22 0 17 3 19 12 10 10 -9 9 -16 -4 -28 -9 -9 -21 -13 -27 -10 -13 9 -15 46 -2
46 5 0 7 -9 4 -20z m-2038 -21 c-4 -5 -14 -8 -23 -8 -15 1 -15 2 1 6 9 2 14 9
11 15 -4 7 -2 8 5 4 6 -4 9 -12 6 -17z m-626 -230 c-8 -16 -8 -28 0 -48 11
-24 10 -25 -4 -7 -8 11 -15 24 -15 29 0 11 19 47 26 47 2 0 0 -10 -7 -21z
m2351 -23 c0 -11 -5 -28 -10 -36 -7 -11 -8 -6 -4 17 4 21 2 39 -7 50 -13 16
-12 17 4 4 9 -7 17 -23 17 -35z m-2401 14 c-6 -5 -9 -15 -6 -24 4 -9 3 -16 -2
-16 -9 0 -21 47 -14 54 3 3 12 2 20 -1 11 -4 12 -8 2 -13z m-212 -6 c3 -9 -3
-23 -16 -35 l-21 -20 0 36 c0 37 25 50 37 19z m59 4 c5 -8 2 -9 -10 -5 -12 5
-19 0 -26 -16 l-9 -22 0 22 c-1 28 31 44 45 21z m44 -19 c0 -28 -15 -23 -16 6
-1 14 2 22 7 19 5 -3 9 -14 9 -25z m67 1 l3 -25 -12 25 c-11 25 -11 25 -15 3
-5 -27 -23 -31 -23 -5 0 41 44 42 47 2z m213 -5 c0 -5 -5 -3 -10 5 -5 8 -10
20 -10 25 0 6 5 3 10 -5 5 -8 10 -19 10 -25z m60 27 c0 -4 -10 -9 -22 -9 -18
-2 -20 0 -8 7 18 12 30 13 30 2z m1727 -34 c-3 -8 -6 -5 -6 6 -1 11 2 17 5 13
3 -3 4 -12 1 -19z"/>
<path d="M245 4160 c-4 -6 -3 -16 3 -22 6 -6 12 -6 17 2 4 6 3 16 -3 22 -6 6
-12 6 -17 -2z"/>
<path d="M860 3599 c0 -11 5 -17 10 -14 6 3 10 13 10 21 0 8 -4 14 -10 14 -5
0 -10 -9 -10 -21z"/>
<path d="M2310 3599 c0 -11 5 -17 10 -14 6 3 10 13 10 21 0 8 -4 14 -10 14 -5
0 -10 -9 -10 -21z"/>
<path d="M1695 3610 c-4 -6 -3 -16 3 -22 6 -6 12 -6 17 2 4 6 3 16 -3 22 -6 6
-12 6 -17 -2z"/>
<path d="M1865 3610 c-3 -5 -1 -10 4 -10 6 0 11 5 11 10 0 6 -2 10 -4 10 -3 0
-8 -4 -11 -10z"/>
<path d="M2365 3610 c-4 -6 -3 -16 3 -22 6 -6 12 -6 17 2 4 6 3 16 -3 22 -6 6
-12 6 -17 -2z"/>
<path d="M2645 3610 c-4 -6 -3 -16 3 -22 6 -6 12 -6 17 2 4 6 3 16 -3 22 -6 6
-12 6 -17 -2z"/>
<path d="M1530 3185 c0 -8 5 -15 10 -15 6 0 10 7 10 15 0 8 -4 15 -10 15 -5 0
-10 -7 -10 -15z"/>
<path d="M1640 3185 c0 -8 5 -15 10 -15 6 0 10 7 10 15 0 8 -4 15 -10 15 -5 0
-10 -7 -10 -15z"/>
<path d="M190 3060 c0 -5 5 -10 10 -10 6 0 10 5 10 10 0 6 -4 10 -10 10 -5 0
-10 -4 -10 -10z"/>
<path d="M855 3060 c-8 -13 4 -32 16 -25 12 8 12 35 0 35 -6 0 -13 -4 -16 -10z"/>
<path d="M1975 3060 c-4 -6 -3 -16 3 -22 6 -6 12 -6 17 2 4 6 3 16 -3 22 -6 6
-12 6 -17 -2z"/>
<path d="M190 2920 c0 -5 5 -10 10 -10 6 0 10 5 10 10 0 6 -4 10 -10 10 -5 0
-10 -4 -10 -10z"/>
<path d="M1080 2915 c0 -8 5 -15 10 -15 6 0 10 7 10 15 0 8 -4 15 -10 15 -5 0
-10 -7 -10 -15z"/>
<path d="M360 2499 c0 -11 5 -17 10 -14 6 3 10 13 10 21 0 8 -4 14 -10 14 -5
0 -10 -9 -10 -21z"/>
<path d="M135 2510 c-4 -6 -3 -16 3 -22 6 -6 12 -6 17 2 4 6 3 16 -3 22 -6 6
-12 6 -17 -2z"/>
<path d="M580 2510 c0 -5 5 -10 11 -10 5 0 7 5 4 10 -3 6 -8 10 -11 10 -2 0
-4 -4 -4 -10z"/>
<path d="M580 2370 c0 -5 5 -10 10 -10 6 0 10 5 10 10 0 6 -4 10 -10 10 -5 0
-10 -4 -10 -10z"/>
<path d="M970 2365 c0 -8 5 -15 10 -15 6 0 10 7 10 15 0 8 -4 15 -10 15 -5 0
-10 -7 -10 -15z"/>
<path d="M1250 2365 c0 -8 5 -15 10 -15 6 0 10 7 10 15 0 8 -4 15 -10 15 -5 0
-10 -7 -10 -15z"/>
<path d="M360 2225 c0 -8 5 -15 10 -15 6 0 10 7 10 15 0 8 -4 15 -10 15 -5 0
-10 -7 -10 -15z"/>
<path d="M135 2229 c-4 -6 -5 -13 -2 -16 7 -7 27 6 27 18 0 12 -17 12 -25 -2z"/>
<path d="M1027 2234 c-8 -8 1 -24 14 -24 5 0 9 7 9 15 0 15 -12 20 -23 9z"/>
<path d="M2366 1821 c-4 -7 -5 -15 -2 -18 9 -9 19 4 14 18 -4 11 -6 11 -12 0z"/>
<path d="M2475 1819 c-10 -15 3 -25 16 -12 7 7 7 13 1 17 -6 3 -14 1 -17 -5z"/>
<path d="M190 1820 c0 -5 5 -10 10 -10 6 0 10 5 10 10 0 6 -4 10 -10 10 -5 0
-10 -4 -10 -10z"/>
<path d="M860 1820 c0 -5 5 -10 10 -10 6 0 10 5 10 10 0 6 -4 10 -10 10 -5 0
-10 -4 -10 -10z"/>
<path d="M1750 1815 c0 -9 5 -15 11 -13 6 2 11 8 11 13 0 5 -5 11 -11 13 -6 2
-11 -4 -11 -13z"/>
<path d="M2140 1815 c0 -8 5 -15 10 -15 6 0 10 7 10 15 0 8 -4 15 -10 15 -5 0
-10 -7 -10 -15z"/>
<path d="M580 1675 c0 -8 5 -15 10 -15 6 0 10 7 10 15 0 8 -4 15 -10 15 -5 0
-10 -7 -10 -15z"/>
<path d="M857 1684 c-8 -8 1 -24 14 -24 5 0 9 7 9 15 0 15 -12 20 -23 9z"/>
<path d="M1195 1680 c3 -5 8 -10 11 -10 2 0 4 5 4 10 0 6 -5 10 -11 10 -5 0
-7 -4 -4 -10z"/>
<path d="M1920 1675 c0 -8 5 -15 10 -15 6 0 10 7 10 15 0 8 -4 15 -10 15 -5 0
-10 -7 -10 -15z"/>
<path d="M2250 1675 c0 -9 5 -15 11 -13 6 2 11 8 11 13 0 5 -5 11 -11 13 -6 2
-11 -4 -11 -13z"/>
<path d="M2530 1675 c0 -8 5 -15 10 -15 6 0 10 7 10 15 0 8 -4 15 -10 15 -5 0
-10 -7 -10 -15z"/>
<path d="M1030 1535 c0 -8 5 -15 10 -15 6 0 10 7 10 15 0 8 -4 15 -10 15 -5 0
-10 -7 -10 -15z"/>
<path d="M860 1535 c0 -8 5 -15 10 -15 6 0 10 7 10 15 0 8 -4 15 -10 15 -5 0
-10 -7 -10 -15z"/>
<path d="M1308 1503 c7 -3 16 -2 19 1 4 3 -2 6 -13 5 -11 0 -14 -3 -6 -6z"/>
<path d="M525 1410 c-4 -6 -3 -16 3 -22 6 -6 12 -6 17 2 4 6 3 16 -3 22 -6 6
-12 6 -17 -2z"/>
<path d="M802 1406 c1 -10 8 -17 13 -17 15 1 12 24 -3 29 -9 3 -13 -2 -10 -12z"/>
<path d="M2695 1410 c-4 -6 -3 -16 3 -22 6 -6 12 -6 17 2 4 6 3 16 -3 22 -6 6
-12 6 -17 -2z"/>
<path d="M3255 1410 c-4 -6 -3 -16 3 -22 6 -6 12 -6 17 2 4 6 3 16 -3 22 -6 6
-12 6 -17 -2z"/>
<path d="M3815 1409 c-4 -6 -3 -15 3 -21 6 -6 11 -4 15 6 7 18 -9 31 -18 15z"/>
<path d="M4260 1400 c0 -11 5 -20 10 -20 6 0 10 9 10 20 0 11 -4 20 -10 20 -5
0 -10 -9 -10 -20z"/>
<path d="M4480 1406 c0 -8 4 -17 9 -20 10 -7 23 19 14 28 -11 11 -23 6 -23 -8z"/>
<path d="M4760 1406 c0 -8 5 -18 10 -21 6 -3 10 3 10 14 0 12 -4 21 -10 21 -5
0 -10 -6 -10 -14z"/>
<path d="M4985 1410 c-4 -6 -3 -16 3 -22 6 -6 12 -6 17 2 4 6 3 16 -3 22 -6 6
-12 6 -17 -2z"/>
<path d="M5265 1410 c-4 -6 -3 -16 3 -22 6 -6 12 -6 17 2 4 6 3 16 -3 22 -6 6
-12 6 -17 -2z"/>
<path d="M3200 849 c0 -11 5 -17 10 -14 6 3 10 13 10 21 0 8 -4 14 -10 14 -5
0 -10 -9 -10 -21z"/>
<path d="M2140 715 c0 -9 5 -15 11 -13 6 2 11 8 11 13 0 5 -5 11 -11 13 -6 2
-11 -4 -11 -13z"/>
<path d="M2420 715 c0 -8 5 -15 10 -15 6 0 10 7 10 15 0 8 -4 15 -10 15 -5 0
-10 -7 -10 -15z"/>
<path d="M1410 574 c0 -9 5 -14 12 -12 18 6 21 28 4 28 -9 0 -16 -7 -16 -16z"/>
<path d="M970 575 c0 -8 5 -15 10 -15 6 0 10 7 10 15 0 8 -4 15 -10 15 -5 0
-10 -7 -10 -15z"/>
<path d="M1247 584 c-8 -8 1 -24 14 -24 5 0 9 7 9 15 0 15 -12 20 -23 9z"/>
<path d="M2197 584 c-8 -8 1 -24 14 -24 5 0 9 7 9 15 0 15 -12 20 -23 9z"/>
<path d="M580 435 c0 -8 5 -15 10 -15 6 0 10 7 10 15 0 8 -4 15 -10 15 -5 0
-10 -7 -10 -15z"/>
<path d="M360 165 c0 -8 5 -15 10 -15 6 0 10 7 10 15 0 8 -4 15 -10 15 -5 0
-10 -7 -10 -15z"/>
</g>
</svg>
