<?xml version="1.0" encoding="UTF-8"?>
<svg version="1.1" xmlns="http://www.w3.org/2000/svg" width="567" height="116">
<path d="M0 0 C187.11 0 374.22 0 567 0 C567 38.28 567 76.56 567 116 C379.89 116 192.78 116 0 116 C0 77.72 0 39.44 0 0 Z " fill="#191919" transform="translate(0,0)"/>
<path d="M0 0 C166.32 0 332.64 0 504 0 C504 2.31 504 4.62 504 7 C340.32 7 176.64 7 8 7 C8 6.34 8 5.68 8 5 C7.01 5.33 6.02 5.66 5 6 C4.67 5.01 4.34 4.02 4 3 C3.34 2.67 2.68 2.34 2 2 C1.67 2.99 1.34 3.98 1 5 C0.67 5 0.34 5 0 5 C0 3.35 0 1.7 0 0 Z " fill="#171717" transform="translate(63,12)"/>
<path d="M0 0 C0.66 0 1.32 0 2 0 C2.495 0.99 2.495 0.99 3 2 C3.78375 1.814375 4.5675 1.62875 5.375 1.4375 C8 1 8 1 10 2 C9.34 3.65 8.68 5.3 8 7 C265.895 7.495 265.895 7.495 529 8 C529 8.33 529 8.66 529 9 C362.68 9 196.36 9 25 9 C25.495 10.98 25.495 10.98 26 13 C26.33 12.34 26.66 11.68 27 11 C30 12 30 12 31 14 C31.66 14 32.32 14 33 14 C33 14.66 33 15.32 33 16 C196.68 16 360.36 16 529 16 C529 16.66 529 17.32 529 18 C383.47 18.33 237.94 18.66 88 19 C88 21.31 88 23.62 88 26 C85.10388456 25.85865273 82.2081919 25.7120847 79.3125 25.5625 C78.49587891 25.52318359 77.67925781 25.48386719 76.83789062 25.44335938 C72.80344189 25.23101997 68.94252691 24.95552078 65 24 C65.495 22.515 65.495 22.515 66 21 C70.75 19.875 70.75 19.875 73 21 C73.33 20.34 73.66 19.68 74 19 C66.08 19 58.16 19 50 19 C49.34 20.98 48.68 22.96 48 25 C43 25 38 25 33 25 C33 21 33 21 34 19 C28.9403143 18.85262671 23.88051055 18.71061198 18.82055664 18.57275391 C17.11348799 18.52558595 15.40645343 18.47716104 13.69946289 18.42724609 C-1.54510436 17.98300952 -16.73708496 18 -32 18 C-32 46.71 -32 75.42 -32 105 C-32.33 105 -32.66 105 -33 105 C-33 90.81 -33 76.62 -33 62 C-35.475 62.495 -35.475 62.495 -38 63 C-38 49.8 -38 36.6 -38 23 C-37.34 23 -36.68 23 -36 23 C-36 22.34 -36 21.68 -36 21 C-35.34 21 -34.68 21 -34 21 C-33.67 16.71 -33.34 12.42 -33 8 C-22.11 7.67 -11.22 7.34 0 7 C-0.495 4.03 -0.495 4.03 -1 1 C-0.67 0.67 -0.34 0.34 0 0 Z " fill="#242625" transform="translate(38,3)"/>
<path d="M0 0 C0.66 0 1.32 0 2 0 C2 0.66 2 1.32 2 2 C2.7425 1.835 3.485 1.67 4.25 1.5 C7.19897903 0.96382199 10.01105741 1 13 1 C13.33 2.32 13.66 3.64 14 5 C16.64 5.33 19.28 5.66 22 6 C22 6.66 22 7.32 22 8 C20.68 8.33 19.36 8.66 18 9 C18 9.99 18 10.98 18 12 C19.32 12 20.64 12 22 12 C22 11.34 22 10.68 22 10 C22.66 10 23.32 10 24 10 C24 10.66 24 11.32 24 12 C24.66 12 25.32 12 26 12 C25.67 13.32 25.34 14.64 25 16 C23.02 16 21.04 16 19 16 C18.67 15.01 18.34 14.02 18 13 C17.34 13 16.68 13 16 13 C16 13.99 16 14.98 16 16 C10.375 17.125 10.375 17.125 7 16 C7 15.34 7 14.68 7 14 C6.01 14.33 5.02 14.66 4 15 C4 14.34 4 13.68 4 13 C3.34 13 2.68 13 2 13 C2 13.99 2 14.98 2 16 C-0.31 16 -2.62 16 -5 16 C-4.67 14.35 -4.34 12.7 -4 11 C-3.34 11 -2.68 11 -2 11 C-1.67 10.34 -1.34 9.68 -1 9 C-0.34 8.34 0.32 7.68 1 7 C0.34 6.34 -0.32 5.68 -1 5 C-0.625 2.375 -0.625 2.375 0 0 Z " fill="#393D38" transform="translate(46,22)"/>
<path d="M0 0 C2.31 0.33 4.62 0.66 7 1 C7.33 2.32 7.66 3.64 8 5 C8.33 4.34 8.66 3.68 9 3 C17 3 17 3 19 4 C19 5.32 19 6.64 19 8 C20.32 8 21.64 8 23 8 C23.66 6.02 24.32 4.04 25 2 C25.66 2 26.32 2 27 2 C27.33 2.66 27.66 3.32 28 4 C28.99 3.67 29.98 3.34 31 3 C31 4.98 31 6.96 31 9 C27.72151099 10.09282967 25.28559684 10.1293042 21.8359375 10.1328125 C20.02996094 10.13474609 20.02996094 10.13474609 18.1875 10.13671875 C16.3003125 10.13091797 16.3003125 10.13091797 14.375 10.125 C12.47621094 10.13080078 12.47621094 10.13080078 10.5390625 10.13671875 C9.33765625 10.13542969 8.13625 10.13414063 6.8984375 10.1328125 C5.79161621 10.13168457 4.68479492 10.13055664 3.54443359 10.12939453 C1 10 1 10 0 9 C-0.07179964 7.48071962 -0.08392007 5.95832518 -0.0625 4.4375 C-0.05347656 3.61121094 -0.04445313 2.78492188 -0.03515625 1.93359375 C-0.02355469 1.29550781 -0.01195312 0.65742188 0 0 Z " fill="#232C34" transform="translate(5,11)"/>
<path d="M0 0 C16.17 0 32.34 0 49 0 C49.495 2.475 49.495 2.475 50 5 C50.66 5.66 51.32 6.32 52 7 C48.37 7 44.74 7 41 7 C41.66 6.34 42.32 5.68 43 5 C43.99 5 44.98 5 46 5 C46 4.34 46 3.68 46 3 C42.95086772 1.98888907 42.95086772 1.98888907 40 3 C39.01 2.67 38.02 2.34 37 2 C37 2.99 37 3.98 37 5 C36.34 5 35.68 5 35 5 C35 4.34 35 3.68 35 3 C32.87506859 2.97306425 30.75004088 2.95363372 28.625 2.9375 C27.44164063 2.92589844 26.25828125 2.91429687 25.0390625 2.90234375 C22.08078479 2.78533407 22.08078479 2.78533407 20 4 C20 3.01 20 2.02 20 1 C19.34 1 18.68 1 18 1 C17.34 2.98 16.68 4.96 16 7 C14.68 7 13.36 7 12 7 C11.34 5.68 10.68 4.36 10 3 C8.68 3 7.36 3 6 3 C4.65835921 2.7018576 3.32148827 2.37756808 2 2 C1.67 2.99 1.34 3.98 1 5 C0.67 5 0.34 5 0 5 C0 3.35 0 1.7 0 0 Z " fill="#181A1A" transform="translate(12,12)"/>
<path d="M0 0 C0 9.24 0 18.48 0 28 C-1.65 28.33 -3.3 28.66 -5 29 C-5 19.76 -5 10.52 -5 1 C-2 0 -2 0 0 0 Z " fill="#191919" transform="translate(5,26)"/>
<path d="M0 0 C0.66 0 1.32 0 2 0 C2.33 0.66 2.66 1.32 3 2 C4.175625 1.7215625 4.175625 1.7215625 5.375 1.4375 C8 1 8 1 10 2 C9.34 3.65 8.68 5.3 8 7 C13.61 7 19.22 7 25 7 C25.495 9.97 25.495 9.97 26 13 C26.33 12.34 26.66 11.68 27 11 C27.99 11.33 28.98 11.66 30 12 C30 12.99 30 13.98 30 15 C27.69 15 25.38 15 23 15 C23 13.02 23 11.04 23 9 C6.83 9 -9.34 9 -26 9 C-26 8.67 -26 8.34 -26 8 C-17.42 7.67 -8.84 7.34 0 7 C-0.33 5.02 -0.66 3.04 -1 1 C-0.67 0.67 -0.34 0.34 0 0 Z " fill="#242525" transform="translate(38,3)"/>
<path d="M0 0 C0.87785156 0.01546875 1.75570312 0.0309375 2.66015625 0.046875 C4.9375 0.25 4.9375 0.25 6.9375 1.25 C6.9375 3.56 6.9375 5.87 6.9375 8.25 C4.04138456 8.10865273 1.1456919 7.9620847 -1.75 7.8125 C-2.56662109 7.77318359 -3.38324219 7.73386719 -4.22460938 7.69335938 C-8.25905811 7.48101997 -12.11997309 7.20552078 -16.0625 6.25 C-15.7325 5.26 -15.4025 4.27 -15.0625 3.25 C-10.3125 2.125 -10.3125 2.125 -8.0625 3.25 C-7.67191406 2.76015625 -7.28132813 2.2703125 -6.87890625 1.765625 C-4.47989114 -0.23613385 -3.08362522 -0.09082843 0 0 Z " fill="#2E2A17" transform="translate(119.0625,20.75)"/>
<path d="M0 0 C4.29 0 8.58 0 13 0 C13.33 0.99 13.66 1.98 14 3 C14.66 2.67 15.32 2.34 16 2 C16 3.65 16 5.3 16 7 C11 7 6 7 1 7 C1 3 1 3 2 1 C1.34 0.67 0.68 0.34 0 0 Z " fill="#28343E" transform="translate(70,21)"/>
<path d="M0 0 C0.66 0 1.32 0 2 0 C2 0.99 2 1.98 2 3 C2.92232422 2.89171875 2.92232422 2.89171875 3.86328125 2.78125 C5.07564453 2.64203125 5.07564453 2.64203125 6.3125 2.5 C7.11300781 2.4071875 7.91351563 2.314375 8.73828125 2.21875 C11 2 11 2 14 2 C14 3.32 14 4.64 14 6 C12.88625 5.979375 11.7725 5.95875 10.625 5.9375 C5.71079586 5.92869318 0.8774919 6.44028782 -4 7 C-4.33 5.68 -4.66 4.36 -5 3 C-3.35 2.67 -1.7 2.34 0 2 C0 1.34 0 0.68 0 0 Z " fill="#4B4C3B" transform="translate(101,51)"/>
<path d="M0 0 C0.99 0.33 1.98 0.66 3 1 C2.34 1 1.68 1 1 1 C1 1.66 1 2.32 1 3 C1.37125 2.505 1.7425 2.01 2.125 1.5 C4.77595016 -0.62076013 6.67882895 -0.203337 10 0 C11.32 0 12.64 0 14 0 C15.34164079 0.2981424 16.67851173 0.62243192 18 1 C18 1.99 18 2.98 18 4 C17.01 4.06058594 16.02 4.12117188 15 4.18359375 C8.30533362 4.60460466 1.64481097 5.05074129 -5 6 C-5 5.34 -5 4.68 -5 4 C-3.68 4 -2.36 4 -1 4 C-0.67 2.68 -0.34 1.36 0 0 Z " fill="#737157" transform="translate(124,53)"/>
<path d="M0 0 C0.99 -0.33 1.98 -0.66 3 -1 C3 0.65 3 2.3 3 4 C-1.95 4 -6.9 4 -12 4 C-12 2.68 -12 1.36 -12 0 C-7.61731571 -0.77341487 -4.32313007 -0.96069557 0 0 Z " fill="#31567C" transform="translate(175,102)"/>
<path d="M0 0 C0.33 0.66 0.66 1.32 1 2 C1.99 2.33 2.98 2.66 4 3 C4 2.01 4 1.02 4 0 C4.66 0 5.32 0 6 0 C6.33 1.98 6.66 3.96 7 6 C1.34605369 6.34615998 -2.03006806 5.43425238 -7 3 C-7 3.99 -7 4.98 -7 6 C-8.65 6.33 -10.3 6.66 -12 7 C-12 5.35 -12 3.7 -12 2 C-8.37 2 -4.74 2 -1 2 C-0.67 1.34 -0.34 0.68 0 0 Z " fill="#527A8B" transform="translate(108,32)"/>
<path d="M0 0 C0.33 1.98 0.66 3.96 1 6 C0.08476563 5.98839844 -0.83046875 5.97679688 -1.7734375 5.96484375 C-2.96195313 5.95582031 -4.15046875 5.94679688 -5.375 5.9375 C-7.15003906 5.92009766 -7.15003906 5.92009766 -8.9609375 5.90234375 C-11.91921521 5.78533407 -11.91921521 5.78533407 -14 7 C-14 5.35 -14 3.7 -14 2 C-12.7625 2.04125 -11.525 2.0825 -10.25 2.125 C-6.37901432 2.13867839 -3.56342434 0 0 0 Z " fill="#714E41" transform="translate(118,71)"/>
<path d="M0 0 C4.62 0 9.24 0 14 0 C14.33 1.32 14.66 2.64 15 4 C12.9119743 5.26772989 11.59657324 6.05965732 9.125 5.8125 C6.30980923 4.73610353 3.66926381 3.39529699 1 2 C0.67 2.66 0.34 3.32 0 4 C0 2.68 0 1.36 0 0 Z " fill="#75795C" transform="translate(45,53)"/>
<path d="M0 0 C1.32 0.66 2.64 1.32 4 2 C3.67 2.99 3.34 3.98 3 5 C0.125 5.125 0.125 5.125 -3 5 C-3.66 4.34 -4.32 3.68 -5 3 C-5.33 3.66 -5.66 4.32 -6 5 C-9.0625 5.625 -9.0625 5.625 -12 6 C-12 4.35 -12 2.7 -12 1 C-11.21753906 1.01160156 -10.43507813 1.02320312 -9.62890625 1.03515625 C-8.61699219 1.04417969 -7.60507813 1.05320312 -6.5625 1.0625 C-5.04849609 1.07990234 -5.04849609 1.07990234 -3.50390625 1.09765625 C-1.05978933 1.28612676 -1.05978933 1.28612676 0 0 Z " fill="#4C6D7F" transform="translate(84,101)"/>
<path d="M0 0 C0.66 0 1.32 0 2 0 C2.33 0.99 2.66 1.98 3 3 C3.33 2.34 3.66 1.68 4 1 C4.99 1.33 5.98 1.66 7 2 C6.67 3.32 6.34 4.64 6 6 C-4.55808656 6.18451025 -4.55808656 6.18451025 -9 5 C-8.67 3.68 -8.34 2.36 -8 1 C-6.02 1.495 -6.02 1.495 -4 2 C-4 2.66 -4 3.32 -4 4 C-3.34 4 -2.68 4 -2 4 C-1.34 2.68 -0.68 1.36 0 0 Z " fill="#33452A" transform="translate(85,3)"/>
<path d="M0 0 C1.32 0 2.64 0 4 0 C4.33 1.98 4.66 3.96 5 6 C4.05125 5.814375 3.1025 5.62875 2.125 5.4375 C-0.89868793 4.71313368 -0.89868793 4.71313368 -3 6 C-4.99960012 6.039992 -7.00047242 6.04346799 -9 6 C-9 4.35 -9 2.7 -9 1 C-6.03 1.33 -3.06 1.66 0 2 C0 1.34 0 0.68 0 0 Z " fill="#65483B" transform="translate(342,71)"/>
<path d="M0 0 C0.66 0.33 1.32 0.66 2 1 C1.67 1.99 1.34 2.98 1 4 C1.99 4 2.98 4 4 4 C4 2.68 4 1.36 4 0 C4.66 0 5.32 0 6 0 C6.33 0.99 6.66 1.98 7 3 C7.33 2.34 7.66 1.68 8 1 C9.98 1 11.96 1 14 1 C14 2.65 14 4.3 14 6 C9.33333333 6 4.66666667 6 0 6 C-0.38218767 4.34385343 -0.71395102 2.67542976 -1 1 C-0.67 0.67 -0.34 0.34 0 0 Z " fill="#32442A" transform="translate(14,3)"/>
<path d="M0 0 C4.95 0 9.9 0 15 0 C14.01 0.495 14.01 0.495 13 1 C13 1.66 13 2.32 13 3 C13.66 3.33 14.32 3.66 15 4 C14.30132812 3.97679688 13.60265625 3.95359375 12.8828125 3.9296875 C11.51769531 3.90261719 11.51769531 3.90261719 10.125 3.875 C9.22007812 3.85179688 8.31515625 3.82859375 7.3828125 3.8046875 C4.81193006 3.75675164 4.81193006 3.75675164 3 6 C2.01 6 1.02 6 0 6 C0 4.02 0 2.04 0 0 Z " fill="#547E8F" transform="translate(470,102)"/>
<path d="M0 0 C2.3400417 -0.28241883 4.67504723 -0.61250787 7 -1 C6.01 -0.505 6.01 -0.505 5 0 C5 0.99 5 1.98 5 3 C5.66 3.33 6.32 3.66 7 4 C2.05 4 -2.9 4 -8 4 C-8 2.68 -8 1.36 -8 0 C-2.25 -1.125 -2.25 -1.125 0 0 Z " fill="#6B6D6A" transform="translate(112,102)"/>
<path d="M0 0 C0 1.32 0 2.64 0 4 C-3.875 3.125 -3.875 3.125 -5 2 C-5.33 2.66 -5.66 3.32 -6 4 C-7.11375 3.979375 -8.2275 3.95875 -9.375 3.9375 C-12.83215921 3.73619282 -12.83215921 3.73619282 -15 5 C-15 3.35 -15 1.7 -15 0 C-13.06325815 -0.19517554 -11.12555991 -0.38087873 -9.1875 -0.5625 C-8.10855469 -0.66691406 -7.02960938 -0.77132812 -5.91796875 -0.87890625 C-3 -1 -3 -1 0 0 Z " fill="#63463A" transform="translate(304,73)"/>
<path d="M0 0 C4.95 0 9.9 0 15 0 C15 1.32 15 2.64 15 4 C11.625 4.125 11.625 4.125 8 4 C7.34 3.34 6.68 2.68 6 2 C6 2.66 6 3.32 6 4 C4.35 4 2.7 4 1 4 C0.67 2.68 0.34 1.36 0 0 Z " fill="#496772" transform="translate(261,102)"/>
<path d="M0 0 C0.99 0 1.98 0 3 0 C3 1.32 3 2.64 3 4 C-5 4 -5 4 -8 3 C-8.33 3.33 -8.66 3.66 -9 4 C-9.99 3.67 -10.98 3.34 -12 3 C-12 2.01 -12 1.02 -12 0 C-7.72759296 -1.16520192 -4.33579164 -0.72263194 0 0 Z " fill="#65483B" transform="translate(226,73)"/>
<path d="M0 0 C0.66 0.33 1.32 0.66 2 1 C2 2.65 2 4.3 2 6 C-1.3 6 -4.6 6 -8 6 C-8 6.66 -8 7.32 -8 8 C-9.65 8 -11.3 8 -13 8 C-13 7.34 -13 6.68 -13 6 C-11.68 6 -10.36 6 -9 6 C-8.67 4.68 -8.34 3.36 -8 2 C-5.69 2 -3.38 2 -1 2 C-0.67 1.34 -0.34 0.68 0 0 Z " fill="#4A6778" transform="translate(443,100)"/>
<path d="M0 0 C6 0 12 0 18 0 C18 1.32 18 2.64 18 4 C12.06 4 6.12 4 0 4 C0 2.68 0 1.36 0 0 Z " fill="#506B79" transform="translate(242,102)"/>
<path d="M0 0 C0.66 0 1.32 0 2 0 C2.33 1.32 2.66 2.64 3 4 C3.33 3.34 3.66 2.68 4 2 C6.06640625 1.5859375 6.06640625 1.5859375 8.5625 1.375 C9.38878906 1.30023438 10.21507812 1.22546875 11.06640625 1.1484375 C12.02353516 1.07496094 12.02353516 1.07496094 13 1 C13.33 2.65 13.66 4.3 14 6 C9.38 6 4.76 6 0 6 C0 4.02 0 2.04 0 0 Z " fill="#4D7385" transform="translate(305,100)"/>
<path d="M0 0 C4.95 0 9.9 0 15 0 C14.34 1.32 13.68 2.64 13 4 C12.32453125 3.9278125 11.6490625 3.855625 10.953125 3.78125 C10.06109375 3.6884375 9.1690625 3.595625 8.25 3.5 C6.92742187 3.36078125 6.92742187 3.36078125 5.578125 3.21875 C2.76695165 2.94363687 2.76695165 2.94363687 -1 3 C-0.67 2.01 -0.34 1.02 0 0 Z " fill="#6A483B" transform="translate(195,73)"/>
<path d="M0 0 C0.66 0 1.32 0 2 0 C2.33 2.31 2.66 4.62 3 7 C1.741875 7.04125 0.48375 7.0825 -0.8125 7.125 C-1.52019531 7.14820313 -2.22789062 7.17140625 -2.95703125 7.1953125 C-5 7 -5 7 -8 5 C-8 4.01 -8 3.02 -8 2 C-7.01 2.33 -6.02 2.66 -5 3 C-4.67 2.67 -4.34 2.34 -4 2 C-3.01 2 -2.02 2 -1 2 C-0.67 1.34 -0.34 0.68 0 0 Z " fill="#324652" transform="translate(171,51)"/>
<path d="M0 0 C-2.59159438 2.59159438 -4.41954865 2.56157739 -8 3 C-10.83967231 3 -13.23735711 2.59732819 -16 2 C-15.67 1.01 -15.34 0.02 -15 -1 C-9.20858017 -2.01603857 -5.5415502 -1.96263236 0 0 Z " fill="#614338" transform="translate(407,74)"/>
<path d="M0 0 C5 0 10 0 15 0 C15 1.32 15 2.64 15 4 C8.375 4.25 8.375 4.25 5 2 C5 2.66 5 3.32 5 4 C3.35 4 1.7 4 0 4 C0 2.68 0 1.36 0 0 Z " fill="#4D7287" transform="translate(529,102)"/>
<path d="M0 0 C3.33333333 0 6.66666667 0 10 0 C10 1.32 10 2.64 10 4 C6.26513121 4.5745952 2.78706732 5 -1 5 C-0.67 3.35 -0.34 1.7 0 0 Z " fill="#4C6D80" transform="translate(199,102)"/>
<path d="M0 0 C0.66 0.66 1.32 1.32 2 2 C4.61580479 1.6730244 6.64078137 1.17960932 9 0 C9 1.65 9 3.3 9 5 C5.32589215 6.17571451 1.83070817 6.07366746 -2 6 C-2 2 -2 2 0 0 Z " fill="#6D4B3D" transform="translate(122,71)"/>
<path d="M0 0 C4.62 0 9.24 0 14 0 C13.67 0.66 13.34 1.32 13 2 C11.68 2 10.36 2 9 2 C9 2.66 9 3.32 9 4 C6.03 4 3.06 4 0 4 C0 2.68 0 1.36 0 0 Z " fill="#456373" transform="translate(53,92)"/>
<path d="M0 0 C0.66 0 1.32 0 2 0 C2.33 1.98 2.66 3.96 3 6 C-0.63 6 -4.26 6 -8 6 C-8 4.68 -8 3.36 -8 2 C-3.25 0.875 -3.25 0.875 -1 2 C-0.67 1.34 -0.34 0.68 0 0 Z " fill="#4B6F7E" transform="translate(112,22)"/>
<path d="M0 0 C12 0 12 0 15 1 C15 1.99 15 2.98 15 4 C13.02 4 11.04 4 9 4 C9 3.34 9 2.68 9 2 C8.34 2 7.68 2 7 2 C7 2.66 7 3.32 7 4 C4.525 3.01 4.525 3.01 2 2 C2 2.66 2 3.32 2 4 C1.34 4 0.68 4 0 4 C0 2.68 0 1.36 0 0 Z " fill="#6D7259" transform="translate(68,53)"/>
<path d="M0 0 C3.09202435 0.74846895 3.09202435 0.74846895 6.0625 -0.5 C6.0625 1.15 6.0625 2.8 6.0625 4.5 C2.4325 4.5 -1.1975 4.5 -4.9375 4.5 C-4.9375 3.18 -4.9375 1.86 -4.9375 0.5 C-2.9375 -0.5 -2.9375 -0.5 0 0 Z " fill="#53798B" transform="translate(423.9375,101.5)"/>
<path d="M0 0 C0.33 1.65 0.66 3.3 1 5 C-2.3 5 -5.6 5 -9 5 C-9.33 3.68 -9.66 2.36 -10 1 C-2.25 0 -2.25 0 0 0 Z " fill="#62453A" transform="translate(279,72)"/>
<path d="M0 0 C1 4 1 4 2 8 C0.68 8.33 -0.64 8.66 -2 9 C-2 9.66 -2 10.32 -2 11 C-3.32 11 -4.64 11 -6 11 C-6 10.01 -6 9.02 -6 8 C-7.32 7.67 -8.64 7.34 -10 7 C-7.36 7 -4.72 7 -2 7 C-1.34 4.69 -0.68 2.38 0 0 Z " fill="#514413" transform="translate(70,23)"/>
<path d="M0 0 C3.3 0 6.6 0 10 0 C10 1.32 10 2.64 10 4 C2.57142857 5.28571429 2.57142857 5.28571429 -1 4 C-0.67 2.68 -0.34 1.36 0 0 Z " fill="#57879D" transform="translate(400,102)"/>
<path d="M0 0 C0.66 0 1.32 0 2 0 C2 0.66 2 1.32 2 2 C4.31 2 6.62 2 9 2 C9 2.66 9 3.32 9 4 C8.34 4 7.68 4 7 4 C6.67 4.66 6.34 5.32 6 6 C5.21625 5.814375 4.4325 5.62875 3.625 5.4375 C1.02910225 4.74037734 1.02910225 4.74037734 -1 6 C-1.625 4.125 -1.625 4.125 -2 2 C-1.34 1.34 -0.68 0.68 0 0 Z " fill="#573C53" transform="translate(39,90)"/>
<path d="M0 0 C2.625 0.9375 2.625 0.9375 5 2 C5 3.32 5 4.64 5 6 C2.6875 6.625 2.6875 6.625 0 7 C-0.99 6.34 -1.98 5.68 -3 5 C-2.625 3.0625 -2.625 3.0625 -2 1 C-1.34 0.67 -0.68 0.34 0 0 Z " fill="#32442B" transform="translate(67,3)"/>
<path d="M0 0 C0.66 0 1.32 0 2 0 C2 0.66 2 1.32 2 2 C2.66 2 3.32 2 4 2 C3.67 3.32 3.34 4.64 3 6 C1.02 6 -0.96 6 -3 6 C-3.33 5.01 -3.66 4.02 -4 3 C-4.66 3 -5.32 3 -6 3 C-6.33 3.66 -6.66 4.32 -7 5 C-7 4.01 -7 3.02 -7 2 C-4.69 2 -2.38 2 0 2 C0 1.34 0 0.68 0 0 Z " fill="#4F7684" transform="translate(68,32)"/>
<path d="M0 0 C0.66 0 1.32 0 2 0 C2 0.66 2 1.32 2 2 C3.98 1.67 5.96 1.34 8 1 C8 2.65 8 4.3 8 6 C7.67 5.34 7.34 4.68 7 4 C6.34 4 5.68 4 5 4 C5 4.66 5 5.32 5 6 C2.69 6 0.38 6 -2 6 C-1.49396008 3.83125748 -1.00016187 2.00032373 0 0 Z " fill="#2C4A64" transform="translate(23,22)"/>
<path d="M0 0 C0.33 0.66 0.66 1.32 1 2 C2.65 2 4.3 2 6 2 C6 2.99 6 3.98 6 5 C2.37 5 -1.26 5 -5 5 C-5 3.68 -5 2.36 -5 1 C-3.35 0.67 -1.7 0.34 0 0 Z " fill="#2E705F" transform="translate(54,13)"/>
<path d="M0 0 C3.3 0 6.6 0 10 0 C10 0.66 10 1.32 10 2 C9.34 2 8.68 2 8 2 C8 2.66 8 3.32 8 4 C6.33388095 4.042721 4.66617115 4.04063832 3 4 C2.67 3.67 2.34 3.34 2 3 C1.01 3 0.02 3 -1 3 C-0.67 2.01 -0.34 1.02 0 0 Z " fill="#496A79" transform="translate(89,92)"/>
<path d="M0 0 C0.66 0.33 1.32 0.66 2 1 C1.67 2.65 1.34 4.3 1 6 C-2.3 6 -5.6 6 -9 6 C-8.67 4.35 -8.34 2.7 -8 1 C-6.8553125 1.309375 -6.8553125 1.309375 -5.6875 1.625 C-2.78114056 2.33391203 -2.78114056 2.33391203 0 0 Z " fill="#6E4B3D" transform="translate(255,71)"/>
<path d="M0 0 C0.33 0 0.66 0 1 0 C1 2.64 1 5.28 1 8 C0.34 7.67 -0.32 7.34 -1 7 C-1 6.34 -1 5.68 -1 5 C-3.64 5.33 -6.28 5.66 -9 6 C-9 4.68 -9 3.36 -9 2 C-7.68 2 -6.36 2 -5 2 C-2.22313192 1.53779799 -2.22313192 1.53779799 0 0 Z " fill="#5B5D7F" transform="translate(353,100)"/>
<path d="M0 0 C0 1.98 0 3.96 0 6 C-1.98 6 -3.96 6 -6 6 C-6.33 5.01 -6.66 4.02 -7 3 C-6.67 2.34 -6.34 1.68 -6 1 C-3.911361 0.32624548 -2.19636905 0 0 0 Z " fill="#4F3A31" transform="translate(268,71)"/>
<path d="M0 0 C0 1.32 0 2.64 0 4 C-3.63 4 -7.26 4 -11 4 C-10.67 3.01 -10.34 2.02 -10 1 C-6.52674819 -0.1577506 -3.63932552 -0.06866652 0 0 Z " fill="#79795B" transform="translate(115,53)"/>
<path d="M0 0 C2.64 0 5.28 0 8 0 C8 1.32 8 2.64 8 4 C5.36 4 2.72 4 0 4 C0 2.68 0 1.36 0 0 Z " fill="#507484" transform="translate(92,102)"/>
<path d="M0 0 C1.4540625 0.0309375 1.4540625 0.0309375 2.9375 0.0625 C2.9375 1.7125 2.9375 3.3625 2.9375 5.0625 C0.9575 5.0625 -1.0225 5.0625 -3.0625 5.0625 C-3.625 3.125 -3.625 3.125 -4.0625 1.0625 C-3.0625 0.0625 -3.0625 0.0625 0 0 Z " fill="#553E34" transform="translate(100.0625,71.9375)"/>
<path d="M0 0 C0.66 0 1.32 0 2 0 C2.33 0.66 2.66 1.32 3 2 C3.99 1.67 4.98 1.34 6 1 C6 2.98 6 4.96 6 7 C3.61435923 6.42415568 1.33317216 5.77772405 -1 5 C-0.67 3.35 -0.34 1.7 0 0 Z " fill="#3C5431" transform="translate(38,3)"/>
<path d="M0 0 C0 2.64 0 5.28 0 8 C-0.66 8 -1.32 8 -2 8 C-2 8.66 -2 9.32 -2 10 C-2.66 10 -3.32 10 -4 10 C-4.29296875 3.9453125 -4.29296875 3.9453125 -4 2 C-1 0 -1 0 0 0 Z " fill="#171717" transform="translate(4,55)"/>
<path d="M0 0 C0.66 0 1.32 0 2 0 C2.33 0.66 2.66 1.32 3 2 C3.99 1.67 4.98 1.34 6 1 C6 2.98 6 4.96 6 7 C5.01 7 4.02 7 3 7 C3 6.34 3 5.68 3 5 C1.68 5 0.36 5 -1 5 C-0.67 3.35 -0.34 1.7 0 0 Z " fill="#307666" transform="translate(30,13)"/>
<path d="M0 0 C2.31 0 4.62 0 7 0 C7 1.32 7 2.64 7 4 C4.69 4 2.38 4 0 4 C0 2.68 0 1.36 0 0 Z " fill="#51788B" transform="translate(116,24)"/>
<path d="M0 0 C2.31 0 4.62 0 7 0 C7 1.32 7 2.64 7 4 C4.69 4 2.38 4 0 4 C0 2.68 0 1.36 0 0 Z " fill="#676462" transform="translate(120,102)"/>
<path d="M0 0 C0.99 0 1.98 0 3 0 C3.33 1.98 3.66 3.96 4 6 C1.69 6 -0.62 6 -3 6 C-3 4.68 -3 3.36 -3 2 C-2.01 2 -1.02 2 0 2 C0 1.34 0 0.68 0 0 Z " fill="#3E5860" transform="translate(414,100)"/>
<path d="M0 0 C2.31 0 4.62 0 7 0 C7 0.66 7 1.32 7 2 C6.34 2 5.68 2 5 2 C5 2.99 5 3.98 5 5 C3.35 4.67 1.7 4.34 0 4 C0 2.68 0 1.36 0 0 Z " fill="#574036" transform="translate(49,72)"/>
<path d="M0 0 C0.66 0 1.32 0 2 0 C2 0.66 2 1.32 2 2 C2.99 2 3.98 2 5 2 C5 3.32 5 4.64 5 6 C3.02 6 1.04 6 -1 6 C-1.33 4.68 -1.66 3.36 -2 2 C-1.34 2 -0.68 2 0 2 C0 1.34 0 0.68 0 0 Z " fill="#6B4B3E" transform="translate(86,71)"/>
<path d="M0 0 C0.66 0.33 1.32 0.66 2 1 C0.125 5.875 0.125 5.875 -1 7 C-3.33944736 6.71269945 -5.6739143 6.38063221 -8 6 C-8 5.34 -8 4.68 -8 4 C-6.02 4.66 -4.04 5.32 -2 6 C-2.33 5.01 -2.66 4.02 -3 3 C-2.01 2.01 -1.02 1.02 0 0 Z " fill="#293323" transform="translate(46,4)"/>
<path d="M0 0 C2.31 0 4.62 0 7 0 C6.67 1.32 6.34 2.64 6 4 C4.02 4 2.04 4 0 4 C0 2.68 0 1.36 0 0 Z " fill="#4D6E85" transform="translate(490,102)"/>
<path d="M0 0 C1.98 0 3.96 0 6 0 C6.33 0.99 6.66 1.98 7 3 C6 4 6 4 2.9375 4.0625 C1.968125 4.041875 0.99875 4.02125 0 4 C0 2.68 0 1.36 0 0 Z " fill="#624439" transform="translate(313,73)"/>
<path d="M0 0 C0.66 0.66 1.32 1.32 2 2 C2.99 2 3.98 2 5 2 C4.67 3.32 4.34 4.64 4 6 C2.02 6 0.04 6 -2 6 C-2 2 -2 2 0 0 Z " fill="#714D3F" transform="translate(374,71)"/>
<path d="M0 0 C0.33 1.98 0.66 3.96 1 6 C-0.98 6 -2.96 6 -5 6 C-5 4.35 -5 2.7 -5 1 C-2 0 -2 0 0 0 Z " fill="#49362F" transform="translate(118,71)"/>
<path d="M0 0 C0.66 0 1.32 0 2 0 C2.33 0.66 2.66 1.32 3 2 C3.33 1.34 3.66 0.68 4 0 C4.99 0.33 5.98 0.66 7 1 C7 2.32 7 3.64 7 5 C5.02 5 3.04 5 1 5 C0.67 3.35 0.34 1.7 0 0 Z " fill="#364A2D" transform="translate(53,4)"/>
<path d="M0 0 C1.98 0 3.96 0 6 0 C6 1.32 6 2.64 6 4 C4.02 4 2.04 4 0 4 C0 2.68 0 1.36 0 0 Z " fill="#4A697A" transform="translate(321,102)"/>
<path d="M0 0 C2.31 0 4.62 0 7 0 C7 1.32 7 2.64 7 4 C5.824375 3.9690625 5.824375 3.9690625 4.625 3.9375 C2.01885039 3.81315937 2.01885039 3.81315937 0 5 C0 3.35 0 1.7 0 0 Z " fill="#714F41" transform="translate(222,73)"/>
<path d="M0 0 C0.99 0.33 1.98 0.66 3 1 C2.34 1 1.68 1 1 1 C1 1.66 1 2.32 1 3 C1.99 2.67 2.98 2.34 4 2 C3.67 2.99 3.34 3.98 3 5 C0.36 5.33 -2.28 5.66 -5 6 C-5 5.34 -5 4.68 -5 4 C-3.68 4 -2.36 4 -1 4 C-0.67 2.68 -0.34 1.36 0 0 Z " fill="#4F5243" transform="translate(124,53)"/>
<path d="M0 0 C2.31 0 4.62 0 7 0 C6.01 0.495 6.01 0.495 5 1 C5 1.66 5 2.32 5 3 C5.66 3.33 6.32 3.66 7 4 C4.36 4 1.72 4 -1 4 C-0.67 2.68 -0.34 1.36 0 0 Z " fill="#507282" transform="translate(478,102)"/>
<path d="M0 0 C0 1.32 0 2.64 0 4 C-2.31 4 -4.62 4 -7 4 C-7 2.68 -7 1.36 -7 0 C-3.98968256 -0.93423645 -3.13349732 -1.04449911 0 0 Z " fill="#696A66" transform="translate(154,102)"/>
<path d="M0 0 C0.33 0.66 0.66 1.32 1 2 C2.65 2 4.3 2 6 2 C5.67 2.99 5.34 3.98 5 5 C5 4.34 5 3.68 5 3 C4.34 3 3.68 3 3 3 C3 3.66 3 4.32 3 5 C1.68 5.33 0.36 5.66 -1 6 C-1.625 4.125 -1.625 4.125 -2 2 C-1.34 1.34 -0.68 0.68 0 0 Z " fill="#6A4B3D" transform="translate(74,71)"/>
<path d="M0 0 C0 1.65 0 3.3 0 5 C-2.31 5 -4.62 5 -7 5 C-6.67 3.68 -6.34 2.36 -6 1 C-1.125 0 -1.125 0 0 0 Z " fill="#797D60" transform="translate(158,52)"/>
<path d="M0 0 C0.66 0.66 1.32 1.32 2 2 C1.625 4.625 1.625 4.625 1 7 C-0.32 7 -1.64 7 -3 7 C-2.67 5.35 -2.34 3.7 -2 2 C-1.34 2 -0.68 2 0 2 C0 1.34 0 0.68 0 0 Z " fill="#374B53" transform="translate(44,31)"/>
<path d="M0 0 C0.99 0.495 0.99 0.495 2 1 C2 1.66 2 2.32 2 3 C3.32 2.67 4.64 2.34 6 2 C6 3.32 6 4.64 6 6 C4.02 6.66 2.04 7.32 0 8 C0 5.36 0 2.72 0 0 Z " fill="#5A4B63" transform="translate(522,100)"/>
<path d="M0 0 C0.33 0.66 0.66 1.32 1 2 C0.67 2.33 0.34 2.66 0 3 C0.33 3.66 0.66 4.32 1 5 C-1.31 5 -3.62 5 -6 5 C-6 3.68 -6 2.36 -6 1 C-4.02 0.67 -2.04 0.34 0 0 Z " fill="#767777" transform="translate(110,101)"/>
<path d="M0 0 C2.31 0 4.62 0 7 0 C7 1.32 7 2.64 7 4 C4.69 4 2.38 4 0 4 C0 2.68 0 1.36 0 0 Z " fill="#486576" transform="translate(234,102)"/>
<path d="M0 0 C0 1.65 0 3.3 0 5 C-2.31 5 -4.62 5 -7 5 C-6.67 3.68 -6.34 2.36 -6 1 C-1.125 0 -1.125 0 0 0 Z " fill="#567F91" transform="translate(304,101)"/>
<path d="M0 0 C2.375 -0.1875 2.375 -0.1875 5 0 C5.66 0.99 6.32 1.98 7 3 C6 4 6 4 2.9375 4.0625 C1.4834375 4.0315625 1.4834375 4.0315625 0 4 C0 2.68 0 1.36 0 0 Z " fill="#61453A" transform="translate(360,73)"/>
<path d="M0 0 C2.31 0 4.62 0 7 0 C6 3 6 3 5 4 C3.33382885 4.04063832 1.66611905 4.042721 0 4 C0 2.68 0 1.36 0 0 Z " fill="#704E40" transform="translate(348,73)"/>
<path d="M0 0 C0.66 0 1.32 0 2 0 C2.33 0.66 2.66 1.32 3 2 C3.99 2 4.98 2 6 2 C5.67 2.99 5.34 3.98 5 5 C3.02 5.33 1.04 5.66 -1 6 C-1.042721 4.33388095 -1.04063832 2.66617115 -1 1 C-0.67 0.67 -0.34 0.34 0 0 Z " fill="#68463A" transform="translate(235,71)"/>
<path d="M0 0 C2.64 0 5.28 0 8 0 C8 0.99 8 1.98 8 3 C5.33333333 3 2.66666667 3 0 3 C0 2.01 0 1.02 0 0 Z " fill="#598598" transform="translate(76,34)"/>
<path d="M0 0 C1.65 0 3.3 0 5 0 C5.33 1.32 5.66 2.64 6 4 C3.69 4 1.38 4 -1 4 C-0.67 2.68 -0.34 1.36 0 0 Z " fill="#507284" transform="translate(459,102)"/>
<path d="M0 0 C0.598125 0.350625 1.19625 0.70125 1.8125 1.0625 C1.4825 2.0525 1.1525 3.0425 0.8125 4.0625 C-1.1675 4.0625 -3.1475 4.0625 -5.1875 4.0625 C-5.1875 2.7425 -5.1875 1.4225 -5.1875 0.0625 C-2.1875 -0.9375 -2.1875 -0.9375 0 0 Z " fill="#52788C" transform="translate(86.1875,101.9375)"/>
<path d="M0 0 C2.31 0 4.62 0 7 0 C6.67 1.32 6.34 2.64 6 4 C4.02 4 2.04 4 0 4 C0 2.68 0 1.36 0 0 Z " fill="#4F7990" transform="translate(218,102)"/>
<path d="M0 0 C4 0 4 0 6 1 C6 2.32 6 3.64 6 5 C3.69 4.67 1.38 4.34 -1 4 C-0.67 2.68 -0.34 1.36 0 0 Z " fill="#724F40" transform="translate(172,72)"/>
<path d="M0 0 C2.31 0 4.62 0 7 0 C7 0.99 7 1.98 7 3 C4.69 3.66 2.38 4.32 0 5 C0 3.35 0 1.7 0 0 Z " fill="#745142" transform="translate(289,73)"/>
<path d="M0 0 C0.99 0.33 1.98 0.66 3 1 C3.33 0.67 3.66 0.34 4 0 C4.99 0 5.98 0 7 0 C7 1.32 7 2.64 7 4 C4.69 4 2.38 4 0 4 C0 2.68 0 1.36 0 0 Z " fill="#517482" transform="translate(163,53)"/>
<path d="M0 0 C1.98 0 3.96 0 6 0 C6 1.65 6 3.3 6 5 C3.69 4.67 1.38 4.34 -1 4 C-0.67 2.68 -0.34 1.36 0 0 Z " fill="#394F2F" transform="translate(22,4)"/>
<path d="M0 0 C0 1.65 0 3.3 0 5 C-1.65 5 -3.3 5 -5 5 C-5 3.68 -5 2.36 -5 1 C-1.125 0 -1.125 0 0 0 Z " fill="#2D4C69" transform="translate(178,101)"/>
<path d="M0 0 C1.98 0 3.96 0 6 0 C6.33 1.32 6.66 2.64 7 4 C6.01 3.67 5.02 3.34 4 3 C3.67 3.33 3.34 3.66 3 4 C2.01 4 1.02 4 0 4 C0 2.68 0 1.36 0 0 Z " fill="#527688" transform="translate(285,102)"/>
<path d="M0 0 C2.31 0.33 4.62 0.66 7 1 C7 2.32 7 3.64 7 5 C4.69 4.67 2.38 4.34 0 4 C0 2.68 0 1.36 0 0 Z " fill="#785141" transform="translate(179,72)"/>
<path d="M0 0 C1.65 0 3.3 0 5 0 C5 1.32 5 2.64 5 4 C2.69 4 0.38 4 -2 4 C-2 3.34 -2 2.68 -2 2 C-1.34 2 -0.68 2 0 2 C0 1.34 0 0.68 0 0 Z " fill="#6A4C40" transform="translate(153,73)"/>
<path d="M0 0 C0.99 0.33 1.98 0.66 3 1 C3.33 0.67 3.66 0.34 4 0 C4.66 0 5.32 0 6 0 C6 1.32 6 2.64 6 4 C3.69 4 1.38 4 -1 4 C-0.67 2.68 -0.34 1.36 0 0 Z " fill="#54758A" transform="translate(447,102)"/>
<path d="M0 0 C2.33333333 0 4.66666667 0 7 0 C6.67 1.32 6.34 2.64 6 4 C4.02 4 2.04 4 0 4 C0 2.68 0 1.36 0 0 Z " fill="#52778B" transform="translate(368,102)"/>
<path d="M0 0 C1.98 0 3.96 0 6 0 C6 3 6 3 5 5 C3.35 4.67 1.7 4.34 0 4 C0 2.68 0 1.36 0 0 Z " fill="#7E8160" transform="translate(128,53)"/>
<path d="M0 0 C0.99 0.33 1.98 0.66 3 1 C3 1.99 3 2.98 3 4 C1.1875 5.0625 1.1875 5.0625 -1 6 C-1.99 5.67 -2.98 5.34 -4 5 C-3.34 4.01 -2.68 3.02 -2 2 C-1.34 2 -0.68 2 0 2 C0 1.34 0 0.68 0 0 Z " fill="#706E55" transform="translate(57,53)"/>
<path d="M0 0 C-0.66 1.32 -1.32 2.64 -2 4 C-2 3.34 -2 2.68 -2 2 C-2.66 2 -3.32 2 -4 2 C-4 2.66 -4 3.32 -4 4 C-4.99 4 -5.98 4 -7 4 C-6.67 2.68 -6.34 1.36 -6 0 C-2.25 -1.125 -2.25 -1.125 0 0 Z " fill="#325779" transform="translate(32,53)"/>
<path d="M0 0 C2.31 0 4.62 0 7 0 C7 0.99 7 1.98 7 3 C5.824375 2.9690625 5.824375 2.9690625 4.625 2.9375 C2.01885039 2.81315937 2.01885039 2.81315937 0 4 C0 2.68 0 1.36 0 0 Z " fill="#5B889B" transform="translate(116,34)"/>
<path d="M0 0 C2.31 0 4.62 0 7 0 C6.01 0.495 6.01 0.495 5 1 C4.67 1.99 4.34 2.98 4 4 C1.9375 4.6875 1.9375 4.6875 0 5 C0 3.35 0 1.7 0 0 Z " fill="#568090" transform="translate(96,24)"/>
<path d="M0 0 C1.98 0 3.96 0 6 0 C6 1.32 6 2.64 6 4 C3.69 4 1.38 4 -1 4 C-0.67 2.68 -0.34 1.36 0 0 Z " fill="#315577" transform="translate(14,14)"/>
<path d="M0 0 C0.66 0 1.32 0 2 0 C2.33 0.99 2.66 1.98 3 3 C3.33 2.34 3.66 1.68 4 1 C4.99 1.33 5.98 1.66 7 2 C7 2.99 7 3.98 7 5 C4.69 5 2.38 5 0 5 C0 3.35 0 1.7 0 0 Z " fill="#2F7663" transform="translate(61,13)"/>
<path d="M0 0 C1.98 0.495 1.98 0.495 4 1 C4 1.66 4 2.32 4 3 C4.66 3 5.32 3 6 3 C6.33 2.34 6.66 1.68 7 1 C7 1.99 7 2.98 7 4 C4.36 4 1.72 4 -1 4 C-0.67 2.68 -0.34 1.36 0 0 Z " fill="#3C5430" transform="translate(77,4)"/>
<path d="M0 0 C2.31 0 4.62 0 7 0 C6.34 1.32 5.68 2.64 5 4 C3.35 4 1.7 4 0 4 C0 2.68 0 1.36 0 0 Z " fill="#547D8D" transform="translate(360,102)"/>
<path d="M0 0 C2.33333333 0 4.66666667 0 7 0 C6.67 1.32 6.34 2.64 6 4 C4.02 4 2.04 4 0 4 C0 2.68 0 1.36 0 0 Z " fill="#557B8F" transform="translate(53,102)"/>
<path d="M0 0 C2.64 0 5.28 0 8 0 C8 1.32 8 2.64 8 4 C6.68 4 5.36 4 4 4 C4 3.01 4 2.02 4 1 C2.68 0.67 1.36 0.34 0 0 Z " fill="#151516" transform="translate(60,30)"/>
<path d="M0 0 C0 1.32 0 2.64 0 4 C-1.65 4 -3.3 4 -5 4 C-5.33 3.01 -5.66 2.02 -6 1 C-3 0 -3 0 0 0 Z " fill="#4D6F81" transform="translate(410,102)"/>
<path d="M0 0 C2.31 0 4.62 0 7 0 C6.01 0.495 6.01 0.495 5 1 C5 1.99 5 2.98 5 4 C3.35 4 1.7 4 0 4 C0 2.68 0 1.36 0 0 Z " fill="#4C7694" transform="translate(336,102)"/>
<path d="M0 0 C2.31 0 4.62 0 7 0 C6.01 0.495 6.01 0.495 5 1 C5 1.66 5 2.32 5 3 C3.68 3.33 2.36 3.66 1 4 C0.67 2.68 0.34 1.36 0 0 Z " fill="#4B7087" transform="translate(261,102)"/>
<path d="M0 0 C2.31 0 4.62 0 7 0 C6.01 0.495 6.01 0.495 5 1 C5 1.99 5 2.98 5 4 C3.35 3.67 1.7 3.34 0 3 C0 2.01 0 1.02 0 0 Z " fill="#6E4C40" transform="translate(391,73)"/>
<path d="M0 0 C1.32 0 2.64 0 4 0 C4.33 1.98 4.66 3.96 5 6 C3.68 5.67 2.36 5.34 1 5 C0.67 3.35 0.34 1.7 0 0 Z " fill="#573D32" transform="translate(342,71)"/>
<path d="M0 0 C0.99 0 1.98 0 3 0 C3.33 1.65 3.66 3.3 4 5 C2.68 5.33 1.36 5.66 0 6 C0 4.02 0 2.04 0 0 Z " fill="#7C7D5D" transform="translate(41,53)"/>
<path d="M0 0 C0.99 0.33 1.98 0.66 3 1 C3 1.99 3 2.98 3 4 C1.02 4 -0.96 4 -3 4 C-3 3.34 -3 2.68 -3 2 C-2.01 1.34 -1.02 0.68 0 0 Z " fill="#4E6E80" transform="translate(69,92)"/>
<path d="M0 0 C4 0 4 0 7 1 C6.67 1.99 6.34 2.98 6 4 C4.02 4 2.04 4 0 4 C0 2.68 0 1.36 0 0 Z " fill="#5A8190" transform="translate(73,24)"/>
<path d="M0 0 C0 1.65 0 3.3 0 5 C-0.33 4.34 -0.66 3.68 -1 3 C-1.66 3 -2.32 3 -3 3 C-3 3.66 -3 4.32 -3 5 C-3.99 4.67 -4.98 4.34 -6 4 C-5.67 3.01 -5.34 2.02 -5 1 C-3.28960011 0.41205004 -1.81522119 0 0 0 Z " fill="#33597C" transform="translate(31,23)"/>
<path d="M0 0 C0.66 0 1.32 0 2 0 C2.33 1.65 2.66 3.3 3 5 C1.68 5 0.36 5 -1 5 C-0.67 3.35 -0.34 1.7 0 0 Z " fill="#557E91" transform="translate(199,102)"/>
<path d="M0 0 C0 0.66 0 1.32 0 2 C-0.66 2 -1.32 2 -2 2 C-2.33 2.66 -2.66 3.32 -3 4 C-4.32 4 -5.64 4 -7 4 C-6.67 3.01 -6.34 2.02 -6 1 C-3 0 -3 0 0 0 Z " fill="#764E6D" transform="translate(48,92)"/>
<path d="M0 0 C1.9375 0.3125 1.9375 0.3125 4 1 C4.33 1.99 4.66 2.98 5 4 C3.35 4.33 1.7 4.66 0 5 C0 3.35 0 1.7 0 0 Z " fill="#4D707E" transform="translate(96,34)"/>
<path d="M0 0 C1.32 0 2.64 0 4 0 C3.6875 1.9375 3.6875 1.9375 3 4 C2.01 4.33 1.02 4.66 0 5 C0 3.35 0 1.7 0 0 Z " fill="#4B6F83" transform="translate(56,34)"/>
<path d="M0 0 C0.99 0 1.98 0 3 0 C3 0.66 3 1.32 3 2 C3.66 2 4.32 2 5 2 C5 2.99 5 3.98 5 5 C3.68 5 2.36 5 1 5 C0.67 3.35 0.34 1.7 0 0 Z " fill="#191B1E" transform="translate(6,12)"/>
</svg>
