<?xml version="1.0" standalone="no"?>
<!DOCTYPE svg PUBLIC "-//W3C//DTD SVG 20010904//EN"
 "http://www.w3.org/TR/2001/REC-SVG-20010904/DTD/svg10.dtd">
<svg version="1.0" xmlns="http://www.w3.org/2000/svg"
 width="567.000000pt" height="102.000000pt" viewBox="0 0 567.000000 102.000000"
 preserveAspectRatio="xMidYMid meet">

<g transform="translate(0.000000,102.000000) scale(0.100000,-0.100000)"
fill="#000000" stroke="none">
<path d="M0 510 l0 -510 2835 0 2835 0 0 510 0 510 -2835 0 -2835 0 0 -510z
m820 285 c0 -28 -4 -35 -20 -35 -15 0 -20 7 -20 25 0 16 6 25 15 25 8 0 15 5
15 10 0 6 2 10 5 10 3 0 5 -16 5 -35z m402 23 c-15 -15 -15 -51 0 -66 9 -9 9
-12 1 -12 -7 0 -15 9 -18 21 -9 26 2 69 17 69 9 0 9 -3 0 -12z m68 -33 c0 -6
-6 -19 -12 -28 -11 -15 -13 -11 -13 28 0 39 2 43 13 28 6 -9 12 -22 12 -28z
m-940 16 c0 -6 -5 -13 -12 -17 -7 -4 -8 -3 -4 4 4 7 2 12 -3 12 -17 0 -13 -27
4 -34 17 -6 20 -26 4 -26 -5 0 -7 5 -4 10 3 6 -1 10 -10 10 -9 0 -13 -4 -10
-10 3 -5 2 -10 -3 -10 -7 0 -9 43 -3 68 2 7 41 0 41 -7z m58 -8 c2 -7 -4 -13
-15 -13 -15 0 -16 -2 -3 -10 13 -8 13 -10 -2 -10 -21 0 -32 16 -24 36 7 18 37
15 44 -3z m61 -10 c-2 -24 -2 -25 -6 -5 -5 27 -23 29 -23 2 0 -11 -4 -20 -10
-20 -5 0 -10 11 -10 25 0 20 5 25 25 25 21 0 25 -4 24 -27z m26 17 c-3 -5 1
-10 10 -10 10 0 13 5 9 12 -4 7 -3 8 4 4 19 -12 14 -26 -10 -27 -22 0 -22 -1
-3 -9 16 -7 17 -9 3 -9 -9 -1 -20 4 -23 9 -7 12 0 40 10 40 4 0 3 -4 0 -10z
m90 0 c3 -6 -1 -7 -9 -4 -11 4 -19 -2 -25 -17 -10 -24 -10 -24 -10 4 -1 20 4
27 18 27 11 0 23 -4 26 -10z m55 -15 c0 -18 -5 -25 -20 -25 -24 0 -27 18 -4
27 13 5 13 7 2 14 -10 7 -9 9 5 9 12 0 17 -8 17 -25z m65 15 c3 -6 -1 -7 -9
-4 -11 4 -19 -2 -25 -17 -10 -24 -10 -24 -10 4 -1 20 4 27 18 27 11 0 23 -4
26 -10z m175 -10 c0 -24 -26 -38 -42 -22 -16 16 -2 42 22 42 13 0 20 -7 20
-20z m59 -7 c-1 -22 -2 -24 -7 -8 l-5 20 -8 -20 c-7 -18 -8 -18 -9 5 l-2 25
-8 -25 -8 -25 -1 28 c-1 22 3 27 24 27 21 0 25 -5 24 -27z m43 2 c3 -16 1 -25
-7 -25 -8 0 -10 9 -7 25 2 14 6 25 7 25 1 0 5 -11 7 -25z m77 -2 c-2 -24 -2
-25 -6 -5 -5 27 -23 29 -23 2 0 -11 -4 -20 -10 -20 -5 0 -10 11 -10 25 0 20 5
25 25 25 21 0 25 -4 24 -27z m43 2 c3 -15 1 -25 -6 -25 -6 0 -11 11 -11 25 0
14 3 25 6 25 4 0 9 -11 11 -25z m73 0 c0 -30 -39 -27 -43 3 -3 20 0 23 20 20
15 -2 23 -10 23 -23z m3002 -267 c-3 -8 -6 -5 -6 6 -1 11 2 17 5 13 3 -3 4
-12 1 -19z m-2487 -8 c0 -5 -2 -10 -4 -10 -3 0 -8 5 -11 10 -3 6 -1 10 4 10 6
0 11 -4 11 -10z m247 -32 c-3 -7 -5 -2 -5 12 0 14 2 19 5 13 2 -7 2 -19 0 -25z
m1180 0 c-3 -7 -5 -2 -5 12 0 14 2 19 5 13 2 -7 2 -19 0 -25z m180 0 c-3 -7
-5 -2 -5 12 0 14 2 19 5 13 2 -7 2 -19 0 -25z m410 0 c-3 -7 -5 -2 -5 12 0 14
2 19 5 13 2 -7 2 -19 0 -25z m590 0 c-3 -7 -5 -2 -5 12 0 14 2 19 5 13 2 -7 2
-19 0 -25z m-3552 -278 c0 -27 -3 -50 -7 -50 -5 0 -8 23 -8 50 0 28 3 50 8 50
4 0 7 -22 7 -50z m237 15 c2 -19 0 -35 -4 -35 -4 0 -8 16 -8 35 0 19 2 35 4
35 2 0 6 -16 8 -35z m234 15 c9 0 14 -10 13 -27 -2 -24 -2 -25 -6 -5 -2 12 -8
22 -13 22 -5 0 -11 -10 -13 -22 -2 -13 -5 -5 -5 17 0 22 2 34 5 28 2 -7 11
-13 19 -13z m543 -17 c-1 -24 -3 -29 -6 -15 -2 12 -9 22 -15 22 -6 0 -8 -9 -5
-20 3 -11 1 -20 -4 -20 -15 0 -10 32 9 51 23 24 22 24 21 -18z m641 2 c0 -19
-3 -35 -7 -35 -5 0 -8 16 -8 35 0 19 3 35 8 35 4 0 7 -16 7 -35z m472 0 c2
-20 0 -35 -7 -35 -5 0 -10 16 -10 35 0 19 3 35 6 35 4 0 9 -16 11 -35z m454
26 c-3 -5 3 -11 14 -14 13 -3 20 -13 19 -29 l-2 -23 -4 23 c-5 26 -29 24 -27
-2 1 -9 -2 -16 -7 -16 -5 0 -9 16 -9 35 0 19 5 35 11 35 5 0 8 -4 5 -9z m665
-10 c12 -11 19 -27 16 -38 -4 -14 -5 -13 -6 5 -1 14 -6 22 -13 19 -7 -2 -12
-11 -10 -21 2 -9 -2 -16 -8 -16 -5 0 -10 16 -10 35 0 40 3 42 31 16z m779 -16
c0 -28 -4 -35 -20 -35 -25 0 -26 27 -2 51 23 24 22 24 22 -16z m420 0 c0 -19
-5 -35 -11 -35 -6 0 -8 9 -4 21 5 16 3 20 -6 17 -8 -3 -13 -12 -13 -21 1 -9
-2 -14 -7 -11 -16 9 -10 31 14 47 12 9 23 16 25 16 1 1 2 -15 2 -34z m220 -15
c0 -27 -3 -50 -7 -50 -5 0 -6 22 -5 50 5 65 12 65 12 0z m-4532 2 c2 -12 -2
-22 -8 -22 -6 0 -8 5 -5 10 3 6 2 10 -4 10 -5 0 -12 -6 -14 -12 -4 -10 -6 -10
-6 0 -1 7 7 16 16 19 15 6 15 7 -3 15 -18 8 -18 8 1 5 12 -1 21 -11 23 -25z
m29 -9 c-3 -10 -5 -4 -5 12 0 17 2 24 5 18 2 -7 2 -21 0 -30z m33 12 c0 -14
-4 -25 -9 -25 -4 0 -6 11 -3 25 2 14 6 25 8 25 2 0 4 -11 4 -25z m118 -3 c2
-12 -2 -22 -8 -22 -6 0 -8 5 -5 10 3 6 1 10 -4 10 -6 0 -11 -4 -11 -10 0 -5
-4 -10 -10 -10 -19 0 -10 22 12 28 21 5 21 6 2 14 -18 8 -18 8 1 5 12 -1 21
-11 23 -25z m232 18 c0 -5 -7 -7 -17 -3 -13 5 -15 2 -11 -15 4 -12 2 -22 -3
-22 -10 0 -12 33 -2 43 10 10 33 8 33 -3z m66 -2 c5 -8 2 -9 -10 -5 -12 5 -19
0 -26 -16 -8 -21 -9 -21 -9 6 -1 20 4 27 18 27 11 0 23 -5 27 -12z m54 -13 c0
-14 -5 -25 -11 -25 -5 0 -7 5 -4 10 3 6 2 10 -4 10 -5 0 -12 -6 -14 -12 -4
-10 -6 -10 -6 0 -1 7 6 15 15 19 13 5 13 7 2 14 -10 7 -9 9 5 9 12 0 17 -8 17
-25z m60 15 c0 -5 -6 -7 -14 -4 -9 4 -16 -3 -19 -18 -4 -21 -4 -20 -6 5 -1 21
4 27 19 27 11 0 20 -4 20 -10z m42 -15 c3 -14 2 -25 -2 -25 -4 0 -10 11 -12
25 -3 14 -2 25 2 25 4 0 10 -11 12 -25z m75 9 c3 -8 1 -20 -5 -26 -8 -8 -9 -5
-5 11 4 15 1 21 -12 21 -13 0 -16 -6 -12 -21 4 -16 3 -19 -5 -11 -14 14 -3 42
17 42 9 0 18 -7 22 -16z m223 -9 c0 -14 -3 -25 -7 -25 -5 0 -8 11 -8 25 0 14
3 25 8 25 4 0 7 -11 7 -25z m70 0 c0 -18 -5 -25 -20 -25 -24 0 -27 18 -4 27
13 5 13 7 2 14 -10 7 -9 9 5 9 12 0 17 -8 17 -25z m418 -3 c2 -12 -1 -22 -7
-22 -6 0 -11 6 -11 13 0 8 -3 7 -10 -3 -5 -8 -12 -11 -15 -8 -10 10 4 28 23
29 14 0 13 2 -3 10 l-20 9 20 -3 c12 -1 21 -11 23 -25z m35 -9 c7 3 11 10 10
16 -2 6 2 11 7 11 12 0 12 -3 4 -24 -3 -9 -15 -16 -25 -16 -14 0 -19 7 -18 28
2 24 2 24 6 4 3 -13 10 -21 16 -19z m137 12 c0 -18 -5 -25 -20 -25 -24 0 -27
18 -4 27 13 5 13 7 2 14 -10 7 -9 9 5 9 12 0 17 -8 17 -25z m298 -3 c2 -12 -2
-22 -8 -22 -6 0 -8 5 -5 10 3 6 1 10 -4 10 -6 0 -11 -4 -11 -10 0 -5 -4 -10
-10 -10 -19 0 -10 22 12 28 21 5 21 6 2 14 -18 8 -18 8 1 5 12 -1 21 -11 23
-25z m32 -3 c0 -11 -4 -17 -10 -14 -5 3 -10 15 -10 26 0 11 5 17 10 14 6 -3
10 -15 10 -26z m30 6 c0 -14 -4 -25 -9 -25 -4 0 -6 11 -3 25 2 14 6 25 8 25 2
0 4 -11 4 -25z m109 -2 c0 -16 -3 -22 -6 -15 -2 6 -9 12 -14 12 -6 0 -7 -4 -4
-10 3 -5 1 -10 -4 -10 -17 0 -13 20 5 27 13 5 13 7 2 14 -10 7 -9 9 5 9 12 0
17 -8 16 -27z m47 18 c-18 -7 -18 -8 -3 -14 9 -3 17 -11 17 -17 0 -5 -9 -2
-19 7 -22 18 -19 33 7 32 14 0 14 -2 -2 -8z m431 -7 c3 -8 1 -20 -5 -26 -8 -8
-9 -5 -5 11 4 15 1 21 -12 21 -13 0 -16 -6 -12 -21 4 -16 3 -19 -5 -11 -14 14
-3 42 17 42 9 0 18 -7 22 -16z m58 6 c3 -6 -1 -7 -9 -4 -11 4 -16 0 -16 -15 0
-12 -4 -21 -8 -21 -7 0 -8 31 -3 48 2 6 31 1 36 -8z m54 -17 c0 -16 -3 -22 -6
-15 -2 6 -9 12 -14 12 -6 0 -7 -4 -4 -10 3 -5 1 -10 -4 -10 -17 0 -13 20 5 27
13 5 13 7 2 14 -10 7 -9 9 5 9 12 0 17 -8 16 -27z m66 17 c3 -6 -1 -7 -9 -4
-11 4 -19 -2 -25 -17 -10 -24 -10 -24 -10 4 -1 20 4 27 18 27 11 0 23 -4 26
-10z m45 -15 c0 -14 -3 -25 -7 -25 -5 0 -8 11 -8 25 0 14 3 25 8 25 4 0 7 -11
7 -25z m74 8 c4 -9 2 -21 -5 -27 -8 -8 -10 -6 -7 8 1 10 -3 21 -11 24 -10 3
-12 -1 -8 -17 6 -23 -8 -29 -16 -7 -6 15 11 36 29 36 6 0 15 -8 18 -17z m353
1 c3 -8 1 -20 -5 -26 -8 -8 -9 -5 -5 11 4 15 1 21 -12 21 -13 0 -16 -6 -12
-21 4 -16 3 -19 -5 -11 -14 14 -3 42 17 42 9 0 18 -7 22 -16z m58 6 c3 -6 -1
-7 -9 -4 -11 4 -19 -2 -25 -17 -10 -24 -10 -24 -10 4 -1 20 4 27 18 27 11 0
23 -4 26 -10z m54 -17 c0 -16 -3 -22 -6 -15 -2 6 -9 12 -14 12 -6 0 -7 -4 -4
-10 3 -5 1 -10 -4 -10 -17 0 -13 20 5 27 13 5 13 7 2 14 -10 7 -9 9 5 9 12 0
17 -8 16 -27z m67 15 c5 -8 2 -9 -10 -5 -12 5 -19 0 -26 -16 -8 -21 -9 -21 -9
6 -1 20 4 27 18 27 11 0 23 -5 27 -12z m44 -13 c0 -14 -3 -25 -7 -25 -5 0 -8
11 -8 25 0 14 3 25 8 25 4 0 7 -11 7 -25z m73 13 c5 -16 -2 -38 -13 -38 -5 0
-6 9 -3 20 3 11 0 20 -6 20 -6 0 -11 -10 -11 -22 0 -15 -3 -19 -10 -12 -6 6
-8 18 -4 27 7 20 40 23 47 5z m39 3 c-11 -7 -11 -9 2 -14 18 -7 22 -27 5 -27
-5 0 -7 5 -4 10 3 6 -1 10 -9 10 -9 0 -16 7 -16 15 0 8 8 15 18 15 13 0 14 -2
4 -9z m418 -16 c0 -14 -3 -25 -7 -25 -5 0 -8 11 -8 25 0 14 3 25 8 25 4 0 7
-11 7 -25z m70 0 c0 -14 -5 -25 -11 -25 -5 0 -7 5 -4 10 3 6 2 10 -4 10 -5 0
-12 -6 -14 -12 -4 -10 -6 -10 -6 0 -1 7 6 15 15 19 13 5 13 7 2 14 -10 7 -9 9
5 9 12 0 17 -8 17 -25z m342 0 c3 -15 1 -25 -6 -25 -6 0 -11 11 -11 25 0 14 3
25 6 25 4 0 9 -11 11 -25z m67 -2 c0 -16 -3 -22 -6 -15 -2 6 -9 12 -14 12 -6
0 -7 -4 -4 -10 3 -5 1 -10 -4 -10 -17 0 -13 20 5 27 13 5 13 7 2 14 -10 7 -9
9 5 9 12 0 17 -8 16 -27z m47 18 c-18 -7 -18 -8 -3 -14 9 -3 17 -11 17 -17 0
-5 -9 -2 -19 7 -22 18 -19 33 7 32 14 0 14 -2 -2 -8z m-4255 -54 c-10 -9 -11
-8 -5 6 3 10 9 15 12 12 3 -3 0 -11 -7 -18z m547 11 c-2 -6 -10 -14 -16 -16
-7 -2 -10 2 -6 12 7 18 28 22 22 4z"/>
<path d="M790 785 c0 -8 5 -15 10 -15 6 0 10 7 10 15 0 8 -4 15 -10 15 -5 0
-10 -7 -10 -15z"/>
<path d="M842 788 c6 -18 28 -21 28 -4 0 9 -7 16 -16 16 -9 0 -14 -5 -12 -12z"/>
<path d="M1140 784 c0 -9 5 -14 12 -12 18 6 21 28 4 28 -9 0 -16 -7 -16 -16z"/>
<path d="M4740 205 c0 -8 5 -15 10 -15 6 0 10 7 10 15 0 8 -4 15 -10 15 -5 0
-10 -7 -10 -15z"/>
</g>
</svg>
