<?xml version="1.0" standalone="no"?>
<!DOCTYPE svg PUBLIC "-//W3C//DTD SVG 20010904//EN"
 "http://www.w3.org/TR/2001/REC-SVG-20010904/DTD/svg10.dtd">
<svg version="1.0" xmlns="http://www.w3.org/2000/svg"
 width="567.000000pt" height="289.000000pt" viewBox="0 0 567.000000 289.000000"
 preserveAspectRatio="xMidYMid meet">

<g transform="translate(0.000000,289.000000) scale(0.100000,-0.100000)"
fill="#000000" stroke="none">
<path d="M0 2756 c0 -139 6 -159 38 -134 15 12 16 11 3 -4 -7 -10 -20 -18 -27
-18 -11 0 -14 -17 -14 -70 0 -72 9 -85 40 -57 8 6 6 2 -4 -10 -10 -13 -23 -20
-27 -17 -5 3 -9 -26 -9 -65 0 -74 12 -95 35 -65 8 11 15 14 15 8 0 -17 -27
-37 -40 -29 -11 7 -15 -907 -3 -918 3 -4 15 0 25 10 10 9 18 11 18 5 0 -14
-35 -34 -44 -25 -3 3 -6 -131 -6 -299 0 -167 3 -308 7 -311 3 -4 16 1 27 10
21 18 21 18 2 -4 -10 -13 -23 -20 -27 -17 -5 3 -9 -161 -9 -370 l0 -376 2835
0 2835 0 0 1445 0 1445 -2835 0 -2835 0 0 -134z m492 -108 c-7 -7 -12 -20 -12
-29 0 -10 -4 -20 -9 -24 -6 -3 -6 7 0 27 5 18 9 34 9 35 0 2 5 3 12 3 9 0 9
-3 0 -12z m250 -23 c5 -43 -8 -47 -14 -5 -4 26 -1 40 8 40 1 0 4 -16 6 -35z
m111 20 c-3 -9 -8 -14 -10 -11 -3 3 -2 9 2 15 9 16 15 13 8 -4z m35 -26 c-3
-26 -39 -35 -44 -11 -1 7 0 8 3 2 2 -5 12 -10 20 -10 11 0 14 8 11 30 -3 19
-1 27 5 21 5 -5 7 -19 5 -32z m104 7 c4 -39 -7 -40 -14 -1 -4 21 -1 35 8 35 1
0 4 -15 6 -34z m-455 -38 c-2 -13 -4 -5 -4 17 -1 22 1 32 4 23 2 -10 2 -28 0
-40z m30 30 c-3 -8 -6 -5 -6 6 -1 11 2 17 5 13 3 -3 4 -12 1 -19z m130 -15
c-3 -10 -5 -4 -5 12 0 17 2 24 5 18 2 -7 2 -21 0 -30z m245 -5 c-6 -6 -7 0 -4
19 5 21 7 23 10 9 2 -10 0 -22 -6 -28z m120 17 c3 -16 1 -25 -7 -25 -8 0 -10
9 -7 25 2 14 6 25 7 25 1 0 5 -11 7 -25z m72 17 c-7 -4 -14 -16 -17 -27 -4
-17 -5 -16 -7 5 l-2 25 -8 -25 -8 -25 -1 28 c-1 23 3 27 27 27 15 0 22 -4 16
-8z m219 -7 c-3 -9 -8 -14 -10 -11 -3 3 -2 9 2 15 9 16 15 13 8 -4z m87 0 c0
-8 -2 -15 -4 -15 -2 0 -6 7 -10 15 -3 8 -1 15 4 15 6 0 10 -7 10 -15z m102
-10 c-2 -14 -6 -25 -8 -25 -2 0 -4 11 -4 25 0 14 4 25 9 25 4 0 6 -11 3 -25z
m-1029 -5 c3 -11 1 -18 -4 -14 -5 3 -9 12 -9 20 0 20 7 17 13 -6z m105 -14
c12 -3 12 -4 -3 -3 -11 1 -20 9 -21 17 0 8 1 10 3 3 2 -6 12 -14 21 -17z m175
14 c3 -11 1 -18 -4 -14 -5 3 -9 12 -9 20 0 20 7 17 13 -6z m504 -5 c0 -8 -4
-15 -9 -15 -10 0 -11 14 -1 23 9 10 10 9 10 -8z m20 -7 c-3 -8 -6 -5 -6 6 -1
11 2 17 5 13 3 -3 4 -12 1 -19z m193 7 c-14 -17 -40 -20 -40 -5 0 5 6 7 14 4
8 -3 17 -1 21 5 3 6 9 11 12 11 3 0 0 -7 -7 -15z m-323 -11 c-3 -3 -12 -4 -19
-1 -8 3 -5 6 6 6 11 1 17 -2 13 -5z m190 0 c-3 -3 -12 -4 -19 -1 -8 3 -5 6 6
6 11 1 17 -2 13 -5z m-626 -122 c5 -36 3 -42 -13 -42 -13 0 -17 4 -12 12 10
17 10 50 0 67 -6 9 -4 12 5 9 8 -3 17 -23 20 -46z m1119 15 c0 -18 5 -38 12
-45 9 -9 8 -12 -7 -12 -17 0 -20 7 -20 45 0 25 3 45 8 45 4 0 7 -15 7 -33z
m195 23 c3 -5 1 -10 -4 -10 -6 0 -11 5 -11 10 0 6 2 10 4 10 3 0 8 -4 11 -10z
m377 -40 c3 -34 1 -40 -15 -40 -16 0 -17 3 -7 15 8 9 10 27 6 46 -3 16 -2 28
3 25 5 -3 11 -24 13 -46z m60 38 c-8 -8 -9 -15 -1 -25 9 -10 8 -13 -1 -13 -7
0 -10 -7 -6 -15 3 -8 2 -15 -3 -15 -16 0 -19 39 -4 59 8 12 17 21 21 21 3 0 1
-5 -6 -12z m308 -17 c0 -16 3 -36 6 -45 4 -10 1 -16 -7 -16 -10 0 -14 14 -14
45 0 25 3 45 8 45 4 0 7 -13 7 -29z m-562 -1 c-10 -15 -10 -27 -1 -51 10 -26
10 -29 -3 -19 -21 19 -16 90 7 90 5 0 4 -9 -3 -20z m1072 -24 c0 -20 -7 -39
-17 -47 -16 -13 -17 -12 -4 4 9 11 12 30 8 52 -3 21 -2 33 4 30 5 -4 9 -21 9
-39z m-2698 17 c-10 -4 -10 -8 -2 -19 13 -15 5 -34 -13 -34 -7 0 -6 4 3 10 13
9 13 12 -3 21 -20 12 -14 29 11 28 11 0 13 -2 4 -6z m76 -10 c2 -7 -3 -13 -12
-13 -22 0 -20 -17 2 -23 14 -4 14 -5 1 -6 -22 -1 -43 25 -35 45 7 18 37 15 44
-3z m130 0 c2 -8 -6 -13 -20 -13 -22 -1 -22 -1 -4 -15 18 -13 18 -15 3 -15
-20 0 -32 23 -23 46 7 18 37 15 44 -3z m36 2 c-19 -15 -19 -15 0 -30 11 -8 15
-15 9 -15 -17 0 -36 28 -29 45 3 8 13 15 23 15 15 0 15 -2 -3 -15z m74 8 c-21
-5 -24 -39 -5 -46 7 -4 8 -6 1 -6 -18 -1 -35 25 -28 43 3 9 16 15 28 15 16 -1
17 -2 4 -6z m64 -23 c4 -24 1 -30 -14 -30 -16 0 -16 3 -6 20 11 17 10 22 -2
30 -13 8 -13 10 1 10 11 0 18 -11 21 -30z m75 14 c7 -19 -20 -49 -36 -40 -6 4
-11 18 -11 32 0 17 5 24 20 24 11 0 23 -7 27 -16z m62 -11 c-2 -25 -2 -25 -6
-5 -3 13 -10 21 -16 19 -7 -2 -11 -11 -9 -21 2 -9 -2 -16 -8 -16 -5 0 -10 11
-10 25 0 20 5 25 25 25 21 0 25 -4 24 -27z m59 0 c-2 -20 -9 -28 -22 -28 -28
0 -31 22 -4 31 22 7 22 7 3 15 -19 7 -18 8 3 8 20 1 23 -3 20 -26z m68 15 c5
-8 2 -9 -10 -5 -12 5 -19 0 -26 -16 -8 -21 -9 -21 -9 6 -1 20 4 27 18 27 11 0
23 -5 27 -12z m123 -15 l-1 -28 -8 25 -8 25 -2 -25 -3 -25 -5 25 -5 25 -8 -25
-7 -25 -1 28 c-1 22 3 27 24 27 21 0 25 -5 24 -27z m65 12 c4 -10 -1 -15 -14
-15 -25 0 -26 -17 -2 -23 14 -4 14 -5 1 -6 -22 -1 -41 23 -33 43 8 20 40 21
48 1z m54 -22 c-2 -29 -8 -38 -23 -40 -11 -2 -14 0 -7 3 6 3 12 18 12 34 0 16
-6 31 -12 33 -7 3 -3 6 10 6 21 1 23 -3 20 -36z m69 21 c7 -19 -20 -49 -36
-40 -12 8 -15 39 -4 49 12 12 33 7 40 -9z m63 6 c0 -5 -7 -7 -15 -4 -10 4 -15
0 -15 -15 0 -12 -4 -21 -9 -21 -4 0 -6 11 -3 25 3 16 11 25 23 25 11 0 19 -4
19 -10z m112 3 c-10 -4 -10 -8 -2 -19 14 -16 4 -34 -18 -33 -15 1 -15 2 1 6
21 6 22 19 1 27 -19 7 -9 26 14 25 11 0 13 -2 4 -6z m76 -19 c3 -22 -21 -39
-39 -28 -11 6 -12 38 -2 48 13 13 38 1 41 -20z m94 -3 c2 -17 1 -28 -4 -25 -8
5 -12 54 -4 54 2 0 6 -13 8 -29z m25 -8 c-3 -10 -5 -4 -5 12 0 17 2 24 5 18 2
-7 2 -21 0 -30z m47 22 c-19 -15 -19 -15 0 -30 21 -16 18 -19 -8 -9 -16 6 -22
35 -9 47 3 4 13 7 22 7 11 0 10 -3 -5 -15z m66 -3 c0 -10 5 -23 12 -30 9 -9 8
-12 -7 -12 -15 0 -20 7 -20 30 0 17 3 30 8 30 4 0 7 -8 7 -18z m80 -6 c0 -14
-4 -27 -9 -30 -15 -10 -41 5 -41 23 0 23 9 31 32 31 12 0 18 -7 18 -24z m59
-3 c-2 -24 -2 -25 -6 -5 -2 12 -8 22 -13 22 -5 0 -11 -10 -13 -22 -4 -20 -4
-19 -6 5 -1 21 4 27 19 27 15 0 20 -6 19 -27z m112 18 c-11 -7 -10 -11 5 -20
16 -9 17 -12 4 -21 -20 -13 -39 -13 -20 1 11 8 12 12 3 16 -19 7 -15 33 5 33
13 0 14 -2 3 -9z m77 -8 c2 -7 -3 -13 -12 -13 -22 0 -20 -17 2 -23 14 -4 14
-5 1 -6 -22 -1 -41 23 -33 43 7 19 35 18 42 -1z m299 10 c-17 -4 -17 -5 -1
-17 20 -15 11 -37 -14 -35 -15 1 -15 2 1 6 21 6 22 19 1 27 -19 7 -9 26 14 25
15 -1 14 -2 -1 -6z m80 -9 c7 -19 -20 -49 -36 -40 -12 8 -15 39 -4 49 12 12
33 7 40 -9z m106 -24 c3 8 8 22 10 30 3 8 6 3 6 -11 1 -15 -5 -29 -13 -32 -19
-8 -26 2 -25 32 1 25 2 25 9 -4 4 -20 9 -25 13 -15z m65 33 c-10 -2 -18 -11
-18 -18 0 -8 8 -19 18 -24 19 -12 12 -14 -12 -5 -16 6 -22 35 -9 47 3 4 13 6
22 6 13 -1 13 -2 -1 -6z m64 -23 c3 -17 0 -30 -6 -30 -6 0 -11 14 -11 30 0 17
3 30 6 30 4 0 9 -13 11 -30z m78 6 c0 -14 -4 -27 -9 -30 -15 -10 -41 5 -41 23
0 23 9 31 32 31 12 0 18 -7 18 -24z m59 -3 c-2 -24 -2 -25 -6 -5 -2 12 -8 22
-13 22 -5 0 -11 -10 -13 -22 -4 -20 -4 -19 -6 5 -1 21 4 27 19 27 15 0 20 -6
19 -27z m69 10 c2 -8 -5 -13 -17 -13 -25 0 -28 -17 -3 -23 16 -4 16 -5 -1 -6
-20 -1 -32 22 -23 45 7 18 37 15 44 -3z m44 10 c-10 -4 -9 -8 5 -19 16 -12 16
-15 3 -24 -8 -5 -19 -10 -25 -10 -5 0 -3 5 5 10 13 9 13 12 -3 21 -20 12 -14
29 11 28 11 0 13 -2 4 -6z m-684 -45 c-2 -6 -10 -14 -16 -16 -7 -2 -10 2 -6
12 7 18 28 22 22 4z m-1250 -25 c-10 -2 -26 -2 -35 0 -10 3 -2 5 17 5 19 0 27
-2 18 -5z m380 0 c-10 -2 -26 -2 -35 0 -10 3 -2 5 17 5 19 0 27 -2 18 -5z
m1939 -235 c-3 -8 -6 -5 -6 6 -1 11 2 17 5 13 3 -3 4 -12 1 -19z m608 2 c3 -5
1 -10 -4 -10 -6 0 -11 5 -11 10 0 6 2 10 4 10 3 0 8 -4 11 -10z m-3547 -25
c-3 -3 -9 2 -12 12 -6 14 -5 15 5 6 7 -7 10 -15 7 -18z m690 -11 c-3 -14 -5
-12 -10 9 -3 19 -2 25 4 19 6 -6 8 -18 6 -28z m1305 29 c-7 -2 -19 -2 -25 0
-7 3 -2 5 12 5 14 0 19 -2 13 -5z m1325 -18 c-3 -3 -9 2 -12 12 -6 14 -5 15 5
6 7 -7 10 -15 7 -18z m500 -11 c-3 -14 -5 -12 -10 9 -3 19 -2 25 4 19 6 -6 8
-18 6 -28z m-3321 -6 c-3 -7 -5 -2 -5 12 0 14 2 19 5 13 2 -7 2 -19 0 -25z
m1690 0 c-3 -8 -6 -5 -6 6 -1 11 2 17 5 13 3 -3 4 -12 1 -19z m-2132 -248 c3
-5 1 -10 -4 -10 -6 0 -11 5 -11 10 0 6 2 10 4 10 3 0 8 -4 11 -10z m367 -30
c2 -22 1 -40 -3 -40 -4 0 -9 18 -11 40 -2 22 -1 40 3 40 4 0 9 -18 11 -40z
m-483 -17 l-1 -28 -8 25 -8 25 -2 -25 -3 -25 -5 25 -5 25 -8 -25 -7 -25 -1 28
c-1 22 3 27 24 27 21 0 25 -5 24 -27z m59 10 c2 -8 -5 -13 -18 -13 -14 0 -19
-4 -14 -12 5 -10 4 -10 -6 -1 -7 6 -10 19 -6 28 7 18 37 17 44 -2z m62 -7 c0
-36 -10 -56 -29 -55 -10 0 -11 2 -3 6 6 2 12 17 12 33 0 16 -6 31 -12 33 -7 3
-3 6 10 6 17 1 22 -5 22 -23z m67 8 c3 -8 1 -20 -5 -26 -8 -8 -9 -5 -5 11 4
15 1 21 -12 21 -12 0 -16 -6 -12 -20 3 -11 1 -20 -4 -20 -5 0 -9 11 -9 25 0
18 5 25 20 25 11 0 23 -7 27 -16z m63 6 c0 -5 -7 -7 -15 -4 -9 4 -18 -2 -24
-17 -10 -24 -10 -24 -10 4 -1 22 3 27 24 27 14 0 25 -4 25 -10z m102 1 c-11
-7 -11 -9 2 -14 9 -4 16 -11 16 -17 0 -5 -9 -2 -20 7 -25 21 -26 33 -2 33 13
0 14 -2 4 -9z m85 -7 c3 -8 1 -20 -5 -26 -8 -8 -9 -5 -5 11 4 15 1 21 -10 21
-9 0 -18 -10 -20 -22 -4 -20 -4 -19 -6 5 -1 21 3 27 19 27 11 0 23 -7 27 -16z
m93 -11 c0 -14 -3 -23 -7 -19 -10 10 -11 46 -1 46 4 0 8 -12 8 -27z m30 2 c0
-14 -4 -25 -9 -25 -4 0 -6 11 -3 25 2 14 6 25 8 25 2 0 4 -11 4 -25z m47 18
c-13 -3 -17 -11 -14 -24 3 -10 1 -19 -4 -19 -10 0 -12 33 -2 43 3 4 13 6 22 6
12 -1 11 -3 -2 -6z m63 -18 c0 -14 -3 -25 -7 -25 -5 0 -8 11 -8 25 0 14 3 25
8 25 4 0 7 -11 7 -25z m80 0 c0 -14 -4 -25 -9 -25 -5 0 -7 9 -4 20 4 14 0 20
-12 20 -13 0 -16 -6 -12 -21 4 -16 3 -19 -5 -11 -16 16 -2 42 22 42 15 0 20
-7 20 -25z m59 -2 c-2 -24 -2 -25 -6 -5 -2 12 -8 22 -13 22 -5 0 -11 -10 -13
-22 -4 -20 -4 -19 -6 5 -1 21 4 27 19 27 15 0 20 -6 19 -27z m114 10 c-7 -2
-19 -2 -25 0 -7 3 -2 5 12 5 14 0 19 -2 13 -5z m0 -20 c-7 -2 -19 -2 -25 0 -7
3 -2 5 12 5 14 0 19 -2 13 -5z m-615 -40 c-10 -2 -26 -2 -35 0 -10 3 -2 5 17
5 19 0 27 -2 18 -5z m54 -93 c3 -35 1 -40 -17 -40 -15 0 -17 2 -6 9 9 6 12 20
9 40 -2 17 -1 31 3 31 4 0 9 -18 11 -40z m258 0 c0 -34 -3 -40 -20 -40 -32 0
-36 28 -9 55 13 13 25 24 27 24 1 1 2 -17 2 -39z m120 30 c-13 -9 -13 -11 0
-20 9 -6 10 -10 3 -10 -6 0 -13 -10 -16 -22 -4 -23 -4 -23 -14 2 -12 29 2 60
27 60 13 0 13 -1 0 -10z m310 -10 c10 -6 11 -10 3 -10 -7 0 -13 -9 -13 -19 0
-11 6 -22 13 -24 7 -3 5 -6 -5 -6 -10 -1 -19 4 -19 9 -3 20 -4 25 -11 36 -14
21 7 30 32 14z m353 -6 c-4 -12 -2 -15 8 -12 8 3 13 11 12 17 -2 6 2 11 8 11
6 0 9 -14 7 -32 -2 -25 -8 -33 -23 -33 -11 0 -21 8 -23 18 -4 19 4 47 12 47 3
0 3 -7 -1 -16z m-1404 -26 c-2 -29 -2 -30 -7 -8 l-5 25 -8 -25 -7 -25 -2 25
-2 25 -8 -25 c-8 -24 -8 -23 -9 8 -1 28 2 32 24 32 22 0 25 -4 24 -32z m59 -1
c3 -21 -1 -27 -17 -27 -23 0 -36 16 -21 25 5 3 10 1 10 -4 0 -20 16 -11 17 8
1 11 -6 22 -15 25 -12 3 -11 4 3 3 14 -2 21 -11 23 -30z m59 1 c0 -22 -3 -25
-14 -17 -9 8 -13 8 -13 0 0 -6 -5 -11 -11 -11 -8 0 -8 4 0 14 6 7 9 20 6 28
-4 9 1 14 13 14 14 0 19 -8 19 -28z m131 -1 c3 -23 0 -27 -22 -27 -16 0 -26 6
-26 15 0 8 5 15 11 15 5 0 7 -4 4 -10 -3 -5 -1 -10 4 -10 15 0 14 37 -1 44 -7
3 -4 5 7 3 14 -1 21 -11 23 -30z m62 2 c0 -26 -3 -30 -22 -27 -23 3 -40 48
-19 48 6 0 11 -9 11 -21 0 -11 5 -17 10 -14 6 3 10 15 10 26 0 10 2 19 5 19 3
0 5 -14 5 -31z m125 11 c3 -11 3 -24 0 -30 -10 -16 -45 -12 -45 5 0 8 5 15 11
15 5 0 7 -4 4 -10 -3 -5 -1 -10 4 -10 15 0 14 37 -1 43 -8 3 -7 6 4 6 9 1 19
-8 23 -19z m49 13 c-5 -5 -12 -12 -16 -18 -4 -6 -8 -2 -8 8 0 9 7 17 17 17 9
0 12 -3 7 -7z m188 -23 c4 -25 1 -30 -16 -30 -16 0 -18 2 -7 9 8 5 12 18 8 30
-3 12 -2 21 3 21 4 0 10 -13 12 -30z m134 12 c1 -7 0 -8 -3 -2 -8 17 -23 11
-23 -9 0 -11 8 -22 18 -24 14 -4 14 -5 1 -6 -26 -2 -44 26 -29 44 14 17 32 15
36 -3z m70 7 c3 -6 -2 -9 -12 -7 -12 2 -20 -5 -25 -22 -7 -24 -7 -24 -8 5 -1
24 3 31 19 32 11 1 22 -3 26 -8z m59 0 c4 -6 4 -13 0 -17 -4 -4 -10 -1 -12 6
-7 19 -23 14 -23 -7 0 -11 8 -22 18 -24 16 -4 16 -5 -1 -6 -20 -1 -32 21 -23
44 6 17 32 20 41 4z m61 -25 c2 -29 2 -29 -3 -1 -5 31 -23 37 -23 7 0 -11 -4
-20 -10 -20 -14 0 -12 37 3 43 22 9 32 1 33 -29z m128 21 c3 -8 1 -15 -4 -15
-6 0 -10 5 -10 10 0 6 -5 10 -10 10 -16 0 -7 -34 10 -42 12 -5 12 -7 -3 -7
-20 -1 -32 22 -23 44 3 8 12 15 20 15 7 0 16 -7 20 -15z m46 5 c-13 -9 -13
-12 3 -21 22 -13 13 -29 -16 -28 -20 0 -20 1 -4 8 17 6 17 8 3 20 -18 15 -12
31 12 31 15 0 15 -2 2 -10z m133 -17 c-7 -2 -19 -2 -25 0 -7 3 -2 5 12 5 14 0
19 -2 13 -5z m-808 -24 c-4 -5 -14 -8 -23 -8 -15 1 -15 2 1 6 9 2 14 9 11 15
-4 7 -2 8 5 4 6 -4 9 -12 6 -17z m-133 -279 c3 -35 1 -40 -17 -40 -15 0 -17 2
-6 9 9 6 12 20 9 40 -2 17 -1 31 3 31 4 0 9 -18 11 -40z m750 0 c3 -35 1 -40
-17 -40 -15 0 -17 2 -6 9 9 6 12 20 9 40 -2 17 -1 31 3 31 4 0 9 -18 11 -40z
m-880 11 c-10 -6 -10 -10 2 -21 18 -14 12 -30 -12 -30 -15 0 -15 2 -2 11 11 8
12 12 3 16 -19 7 -15 33 5 33 13 0 14 -2 4 -9z m73 -21 c0 -16 -6 -26 -18 -28
-19 -4 -32 20 -23 44 9 25 41 13 41 -16z m106 -20 c5 0 14 10 19 23 10 22 10
22 7 -3 -1 -18 -8 -25 -22 -25 -14 0 -20 7 -21 25 -1 22 0 22 3 3 2 -13 9 -23
14 -23z m77 43 c-27 -7 -30 -33 -5 -43 15 -6 17 -9 6 -9 -9 -1 -22 6 -29 14
-15 18 3 46 29 44 14 -1 14 -2 -1 -6z m63 -26 c6 -21 4 -27 -9 -27 -12 0 -17
9 -17 30 0 36 16 34 26 -3z m73 17 c11 -30 -33 -60 -49 -34 -11 17 5 50 25 50
10 0 21 -7 24 -16z m63 -14 c2 -20 1 -21 -5 -7 -11 25 -26 23 -34 -5 -5 -19
-6 -18 -7 10 -1 29 2 33 22 30 15 -2 23 -11 24 -28z m294 21 c-11 -7 -10 -11
4 -19 21 -11 12 -32 -13 -31 -14 0 -13 2 3 9 18 7 19 8 3 15 -10 4 -18 13 -18
21 0 8 8 14 18 14 13 0 14 -2 3 -9z m79 -6 c10 -12 10 -18 0 -30 -25 -30 -57
-12 -45 25 8 24 28 26 45 5z m103 -32 c6 2 14 14 18 28 6 21 7 20 8 -9 1 -29
-2 -33 -21 -30 -17 2 -23 10 -24 28 -1 23 -1 23 3 2 3 -13 10 -21 16 -19z m61
32 c-19 -15 -19 -15 0 -30 11 -8 15 -15 9 -15 -6 0 -16 7 -23 15 -10 12 -10
18 0 30 7 8 17 15 23 15 6 0 2 -7 -9 -15z m77 -18 c6 -23 4 -27 -13 -27 -17 0
-18 3 -8 15 10 12 10 18 -1 32 -12 14 -12 16 0 11 8 -2 18 -16 22 -31z m77 5
c4 -28 -24 -40 -45 -19 -14 13 -14 19 -3 32 18 22 44 15 48 -13z m58 -8 c2
-29 2 -29 -3 -1 -5 33 -20 35 -33 5 -9 -23 -9 -23 -9 -1 -1 21 14 34 34 29 6
-1 11 -16 11 -32z m60 18 c1 -7 0 -8 -3 -2 -8 17 -23 11 -23 -9 0 -11 8 -22
18 -24 13 -4 12 -5 -5 -6 -27 -1 -36 12 -28 40 7 22 37 23 41 1z m45 9 c-11
-7 -10 -11 4 -19 21 -11 12 -32 -13 -31 -14 0 -13 2 3 8 18 7 18 8 1 18 -19
11 -14 33 7 33 8 0 7 -3 -2 -9z m-1179 -161 c2 -25 -1 -40 -8 -40 -6 0 -9 12
-6 31 3 20 0 34 -9 40 -11 7 -11 9 2 9 12 0 18 -11 21 -40z m440 0 c2 -25 -1
-40 -8 -40 -7 0 -9 10 -6 25 2 14 -1 32 -8 40 -10 12 -10 15 3 15 10 0 16 -13
19 -40z m58 30 c0 -5 -4 -10 -10 -10 -5 0 -10 5 -10 10 0 6 5 10 10 10 6 0 10
-4 10 -10z m200 -30 c0 -22 -4 -40 -9 -40 -5 0 -7 10 -4 21 4 16 2 20 -8 17
-8 -3 -13 -13 -11 -23 2 -10 -1 -14 -7 -10 -17 10 -13 26 12 50 12 13 23 23
25 24 1 1 2 -17 2 -39z m361 13 c-4 -16 -4 -41 0 -57 6 -21 6 -27 -2 -19 -12
12 -15 75 -4 92 11 19 14 12 6 -16z m1319 17 c0 -5 -4 -10 -10 -10 -5 0 -10 5
-10 10 0 6 5 10 10 10 6 0 10 -4 10 -10z m872 -30 c2 -23 -1 -40 -7 -40 -5 0
-10 18 -10 40 0 22 3 40 6 40 4 0 9 -18 11 -40z m570 0 c2 -25 -1 -40 -8 -40
-6 0 -9 12 -6 31 3 20 0 34 -9 40 -11 7 -11 9 2 9 12 0 18 -11 21 -40z m372
10 c8 -16 10 -30 5 -30 -5 0 -9 -11 -9 -25 0 -14 -4 -25 -9 -25 -5 0 -6 12 -2
28 4 15 4 39 0 55 -10 35 -4 34 15 -3z m-3890 -12 c-4 -13 -1 -24 7 -29 11 -7
11 -9 -2 -9 -16 0 -33 46 -22 63 9 15 24 -5 17 -25z m1524 3 c2 -13 -1 -28 -8
-35 -8 -8 -9 -6 -4 8 5 14 3 17 -7 14 -8 -3 -13 -11 -11 -17 1 -7 -2 -10 -8
-6 -11 7 -14 48 -3 59 14 14 38 0 41 -23z m-1938 -16 c0 -14 -5 -25 -11 -25
-5 0 -7 5 -4 10 3 6 -1 10 -10 10 -9 0 -13 -4 -10 -10 3 -5 1 -10 -4 -10 -19
0 -12 22 9 27 11 3 17 9 14 14 -3 5 0 9 5 9 6 0 11 -11 11 -25z m30 5 c0 -27
18 -25 23 3 4 18 4 17 6 -6 1 -24 -2 -28 -21 -25 -23 3 -40 48 -19 48 6 0 11
-9 11 -20z m160 -11 c0 -14 -7 -19 -25 -19 -30 0 -31 7 -7 30 20 20 32 16 32
-11z m54 -11 c-6 -10 -34 16 -34 31 0 6 9 3 19 -6 11 -9 18 -20 15 -25z m106
2 c5 0 11 10 13 23 4 19 4 18 6 -5 1 -22 -4 -28 -19 -28 -15 0 -20 6 -19 28 2
23 2 24 6 5 2 -13 8 -23 13 -23z m132 15 c3 -15 1 -25 -6 -25 -6 0 -11 11 -11
25 0 14 3 25 6 25 4 0 9 -11 11 -25z m130 0 c3 -15 1 -25 -6 -25 -6 0 -11 11
-11 25 0 14 3 25 6 25 4 0 9 -11 11 -25z m138 0 c0 -20 -5 -25 -25 -25 -30 0
-33 20 -5 27 11 3 17 9 14 14 -3 5 0 9 5 9 6 0 11 -11 11 -25z m130 -6 c0 -14
-7 -19 -25 -19 -30 0 -31 7 -7 30 20 20 32 16 32 -11z m54 -10 c-3 -5 -13 -1
-24 8 -10 9 -17 20 -14 24 3 5 13 1 24 -8 10 -9 17 -20 14 -24z m316 16 c0
-14 -5 -25 -11 -25 -5 0 -7 5 -4 10 3 6 1 10 -4 10 -6 0 -11 -4 -11 -10 0 -5
-4 -10 -10 -10 -18 0 -10 22 10 27 11 3 17 9 14 14 -3 5 0 9 5 9 6 0 11 -11
11 -25z m36 16 c-3 -5 1 -11 9 -15 17 -6 20 -26 4 -26 -5 0 -8 4 -5 9 3 5 -1
11 -9 15 -17 6 -20 26 -4 26 5 0 8 -4 5 -9z m76 -16 c3 -15 1 -25 -6 -25 -6 0
-11 11 -11 25 0 14 3 25 6 25 4 0 9 -11 11 -25z m78 19 c0 -3 -9 -18 -21 -32
-14 -18 -17 -28 -9 -30 7 -3 17 2 22 9 8 12 9 11 5 -1 -6 -25 -42 -18 -45 8
-5 34 5 52 28 52 11 0 20 -3 20 -6z m59 -21 c-2 -24 -2 -25 -6 -5 -2 12 -8 22
-13 22 -5 0 -11 -10 -13 -22 -4 -20 -4 -19 -6 5 -1 21 4 27 19 27 15 0 20 -6
19 -27z m61 2 c0 -18 -5 -25 -20 -25 -11 0 -20 7 -20 15 0 8 7 15 16 15 8 0
12 5 9 10 -3 6 -1 10 4 10 6 0 11 -11 11 -25z m33 6 c-3 -13 1 -21 14 -24 15
-4 15 -5 1 -6 -20 -1 -32 15 -24 34 8 22 15 18 9 -4z m79 -6 c3 -15 1 -25 -6
-25 -6 0 -11 11 -11 25 0 14 3 25 6 25 4 0 9 -11 11 -25z m78 0 c0 -18 -5 -25
-19 -25 -11 0 -23 5 -26 10 -11 18 3 40 25 40 15 0 20 -7 20 -25z m59 -2 c-2
-24 -2 -25 -6 -5 -2 12 -8 22 -13 22 -5 0 -11 -10 -13 -22 -4 -20 -4 -19 -6 5
-1 21 4 27 19 27 15 0 20 -6 19 -27z m301 17 c0 -5 -2 -10 -4 -10 -3 0 -8 5
-11 10 -3 6 -1 10 4 10 6 0 11 -4 11 -10z m270 -21 c0 -14 -7 -19 -25 -19 -30
0 -33 20 -5 27 11 3 17 10 13 16 -3 6 -1 7 5 3 7 -4 12 -16 12 -27z m36 22
c-3 -5 1 -11 9 -15 17 -6 20 -26 4 -26 -5 0 -8 4 -5 9 3 5 -1 11 -9 15 -17 6
-20 26 -4 26 5 0 8 -4 5 -9z m74 -16 c0 -14 -3 -25 -7 -25 -5 0 -8 11 -8 25 0
14 3 25 8 25 4 0 7 -11 7 -25z m70 5 c-6 -11 -15 -20 -20 -20 -6 0 -10 -7 -10
-15 0 -8 5 -15 10 -15 6 0 10 5 10 10 0 6 5 10 11 10 6 0 9 -6 7 -12 -5 -14
-48 -18 -48 -5 0 4 0 21 0 37 0 25 4 30 25 30 23 0 24 -2 15 -20z m39 13 c0
-5 -4 -17 -9 -28 -8 -18 -9 -17 -9 8 -1 15 4 27 9 27 6 0 10 -3 9 -7z m31 -18
c0 -14 -2 -25 -4 -25 -2 0 -6 11 -8 25 -3 14 -1 25 3 25 5 0 9 -11 9 -25z m60
0 c0 -14 -5 -25 -11 -25 -5 0 -7 5 -4 10 3 6 2 10 -4 10 -5 0 -11 -5 -13 -12
-3 -9 -6 -9 -12 1 -5 8 -1 14 13 18 11 3 18 9 15 14 -3 5 0 9 5 9 6 0 11 -11
11 -25z m35 0 c0 -14 -3 -25 -7 -25 -5 0 -8 11 -8 25 0 14 3 25 8 25 4 0 7
-11 7 -25z m77 0 c3 -15 1 -25 -6 -25 -6 0 -11 11 -11 25 0 14 3 25 6 25 4 0
9 -11 11 -25z m41 5 c-4 -14 0 -20 12 -20 12 0 16 6 12 20 -3 11 -1 20 5 20 5
0 8 -10 6 -22 -2 -15 -11 -24 -25 -26 -19 -3 -23 1 -23 22 0 14 4 26 9 26 5 0
7 -9 4 -20z m96 -7 c-2 -24 -2 -25 -6 -5 -2 12 -8 22 -13 22 -5 0 -11 -10 -13
-22 -4 -20 -4 -19 -6 5 -1 21 4 27 19 27 15 0 20 -6 19 -27z m311 -12 c0 -6
-9 -3 -19 6 -11 9 -18 20 -15 25 6 10 34 -16 34 -31z m33 19 c-4 -14 0 -20 12
-20 12 0 16 6 12 20 -3 11 -1 20 5 20 5 0 8 -10 6 -22 -2 -15 -11 -24 -25 -26
-19 -3 -23 1 -23 22 0 14 4 26 9 26 5 0 7 -9 4 -20z m137 -20 c5 0 11 10 13
23 4 19 4 18 6 -5 1 -22 -4 -28 -19 -28 -15 0 -20 6 -19 28 2 23 2 24 6 5 2
-13 8 -23 13 -23z m53 21 c-3 -13 1 -21 14 -24 15 -4 15 -5 1 -6 -20 -1 -32
15 -24 34 8 22 15 18 9 -4z m79 -6 c3 -15 1 -25 -6 -25 -6 0 -11 11 -11 25 0
14 3 25 6 25 4 0 9 -11 11 -25z m41 5 c-4 -14 0 -20 12 -20 12 0 16 6 12 20
-3 11 -1 20 4 20 5 0 9 -11 9 -25 0 -18 -5 -25 -19 -25 -23 0 -35 15 -27 35 8
22 15 18 9 -5z m96 -7 c-2 -24 -2 -25 -6 -5 -2 12 -8 22 -13 22 -5 0 -11 -10
-13 -22 -4 -20 -4 -19 -6 5 -1 21 4 27 19 27 15 0 20 -6 19 -27z m120 14 c14
24 14 7 0 -19 -11 -21 -12 -21 -25 -3 -8 10 -14 24 -14 29 0 6 7 3 14 -7 14
-18 15 -18 25 0z m71 -12 c0 -18 -5 -25 -19 -25 -28 0 -37 20 -12 27 11 3 18
9 15 14 -3 5 0 9 5 9 6 0 11 -11 11 -25z m101 -15 c5 0 9 9 9 20 0 11 4 20 9
20 5 0 9 -11 9 -25 0 -20 -6 -25 -24 -25 -20 0 -24 5 -23 28 2 23 2 24 6 5 2
-13 9 -23 14 -23z m54 30 c-3 -5 1 -10 10 -10 9 0 13 5 10 10 -3 6 -1 10 4 10
6 0 11 -7 11 -15 0 -9 -9 -15 -22 -15 -19 0 -20 -2 -8 -10 9 -6 10 -10 3 -10
-6 0 -15 5 -18 10 -7 12 0 40 10 40 4 0 3 -4 0 -10z m71 1 c-3 -5 1 -11 9 -15
17 -6 20 -26 4 -26 -5 0 -8 4 -5 9 3 5 -1 11 -9 15 -17 6 -20 26 -4 26 5 0 8
-4 5 -9z m-3053 -8 c-7 -2 -19 -2 -25 0 -7 3 -2 5 12 5 14 0 19 -2 13 -5z
m-389 -18 c-4 -8 -11 -15 -16 -15 -6 0 -5 6 2 15 7 8 14 15 16 15 2 0 1 -7 -2
-15z m389 -2 c-7 -2 -19 -2 -25 0 -7 3 -2 5 12 5 14 0 19 -2 13 -5z m-745 -40
c-10 -2 -26 -2 -35 0 -10 3 -2 5 17 5 19 0 27 -2 18 -5z m54 -93 c3 -35 1 -40
-17 -40 -15 0 -17 2 -6 9 9 6 12 20 9 40 -2 17 -1 31 3 31 4 0 9 -18 11 -40z
m370 15 c-2 -14 1 -32 8 -40 10 -12 9 -15 -6 -15 -15 0 -19 8 -19 40 0 23 5
40 11 40 7 0 9 -10 6 -25z m186 0 c-8 -19 -8 -31 1 -52 11 -23 10 -25 -3 -13
-19 15 -21 61 -4 78 18 18 19 15 6 -13z m194 -15 c3 -35 1 -40 -17 -40 -15 0
-17 2 -6 9 9 6 12 20 9 40 -2 17 -1 31 3 31 4 0 9 -18 11 -40z m440 0 c3 -34
1 -40 -15 -40 -16 0 -17 3 -7 15 7 8 10 26 8 40 -3 14 -2 25 2 25 4 0 10 -18
12 -40z m260 -1 c-3 -30 -8 -39 -20 -37 -24 5 -27 37 -5 58 26 27 29 25 25
-21z m176 -33 c-6 -15 -16 -26 -21 -26 -5 0 -4 7 3 15 8 9 10 29 7 53 l-6 37
15 -27 c11 -21 12 -32 2 -52z m-560 46 c-10 -2 -18 -10 -18 -17 0 -8 8 -19 18
-25 16 -10 16 -11 -2 -8 -11 2 -23 14 -27 30 -8 32 -4 38 24 30 18 -5 19 -7 5
-10z m-1432 -25 c1 -26 1 -26 -3 -2 -5 31 -25 28 -34 -6 -6 -21 -7 -20 -8 9
-1 29 2 33 22 30 16 -2 22 -10 23 -31z m34 0 c0 -24 16 -13 23 18 3 13 5 8 6
-13 1 -29 -2 -33 -21 -30 -17 2 -24 11 -26 32 -2 18 0 26 7 21 6 -3 11 -16 11
-28z m97 3 c1 -19 0 -20 -4 -5 l-6 20 -8 -20 c-6 -17 -8 -17 -8 -2 -1 9 -5 17
-11 17 -5 0 -10 -8 -11 -17 0 -11 -2 -13 -6 -5 -9 23 6 44 29 40 16 -2 24 -10
25 -28z m121 -3 c3 -21 -1 -27 -17 -27 -21 0 -37 17 -26 28 3 3 10 1 14 -7 6
-9 10 -7 14 8 3 13 -1 22 -12 25 -11 3 -10 4 4 3 14 -2 21 -11 23 -30z m62 3
c0 -23 -4 -30 -20 -30 -15 0 -20 6 -19 28 2 23 2 24 6 4 5 -26 23 -20 23 9 0
10 2 19 5 19 3 0 5 -13 5 -30z m125 0 c0 -18 -5 -25 -19 -25 -11 0 -21 6 -23
13 -3 6 0 12 7 12 6 0 8 -4 5 -10 -3 -5 -1 -10 4 -10 15 0 14 37 -1 44 -7 3
-4 5 7 3 14 -2 20 -10 20 -27z m46 21 c-11 -7 -10 -11 4 -19 21 -11 12 -32
-13 -32 -15 0 -15 2 -2 10 13 9 13 12 -3 21 -20 12 -14 29 11 29 14 0 14 -2 3
-9z m325 -9 c1 -7 0 -8 -3 -2 -8 17 -23 11 -23 -9 0 -11 8 -22 18 -24 14 -4
14 -5 1 -6 -22 -1 -41 23 -33 43 7 19 36 18 40 -2z m72 -9 c2 -13 -1 -23 -7
-23 -6 0 -11 10 -11 22 0 25 -15 14 -23 -17 -3 -13 -5 -8 -6 13 -1 29 2 33 22
30 14 -2 23 -11 25 -25z m120 -6 c3 -25 0 -28 -19 -25 -23 3 -40 28 -19 28 6
0 8 -5 4 -11 -4 -7 -1 -10 7 -7 19 6 18 31 -1 40 -11 6 -10 7 5 5 14 -1 21
-11 23 -30z m42 -17 c5 0 11 12 13 28 4 25 4 25 6 -5 1 -27 -3 -33 -19 -33
-16 0 -20 6 -19 33 2 30 2 30 6 5 2 -16 8 -28 13 -28z m148 17 c3 -21 -1 -27
-17 -27 -21 0 -37 17 -26 28 3 3 10 1 14 -7 6 -9 10 -7 14 8 3 13 -1 22 -12
25 -11 3 -10 4 4 3 14 -2 21 -11 23 -30z m43 24 c-11 -7 -10 -11 4 -19 21 -11
12 -32 -13 -31 -14 0 -13 2 3 9 18 7 19 8 3 15 -10 4 -18 13 -18 21 0 8 8 14
18 14 13 0 14 -2 3 -9z m122 -38 c6 2 15 14 19 28 6 22 7 21 5 -6 -2 -23 -7
-30 -22 -30 -14 0 -20 7 -21 25 -1 23 -1 23 3 2 3 -13 10 -21 16 -19z m138 14
c6 -21 4 -27 -9 -27 -12 0 -17 9 -17 30 0 36 16 34 26 -3z m121 3 c4 -25 1
-30 -16 -30 -16 0 -18 2 -7 9 8 5 12 18 8 30 -3 12 -2 21 3 21 4 0 10 -13 12
-30z m63 6 c-15 -23 -15 -25 2 -29 14 -4 13 -5 -4 -6 -25 -1 -28 6 -13 29 6 9
5 17 -3 22 -8 5 -4 8 11 8 21 0 22 -1 7 -24z m73 -9 c3 -21 -1 -27 -17 -27
-23 0 -36 16 -21 25 5 3 10 1 10 -4 0 -6 5 -11 10 -11 13 0 9 32 -5 43 -6 5
-4 7 5 4 8 -2 16 -16 18 -30z m127 3 c0 -18 -5 -25 -19 -25 -11 0 -21 6 -23
13 -3 6 0 12 7 12 6 0 8 -4 5 -10 -3 -5 -1 -10 4 -10 15 0 14 37 -1 44 -7 3
-4 5 7 3 14 -2 20 -10 20 -27z m46 21 c-11 -7 -10 -11 4 -19 21 -11 12 -32
-13 -32 -15 0 -15 2 -2 10 13 9 13 12 -3 21 -20 12 -14 29 11 29 14 0 14 -2 3
-9z m-1301 -21 c0 -5 -10 -10 -22 -9 -22 0 -22 1 -3 9 11 5 21 9 23 9 1 1 2
-3 2 -9z m-437 -47 c-7 -2 -21 -2 -30 0 -10 3 -4 5 12 5 17 0 24 -2 18 -5z
m1125 0 c-10 -2 -26 -2 -35 0 -10 3 -2 5 17 5 19 0 27 -2 18 -5z m-756 -253
c3 -34 1 -40 -15 -40 -16 0 -17 3 -7 15 7 8 10 26 8 40 -3 14 -2 25 2 25 4 0
10 -18 12 -40z m750 0 c3 -34 1 -40 -15 -40 -16 0 -17 3 -7 15 7 8 10 26 8 40
-3 14 -2 25 2 25 4 0 10 -18 12 -40z m254 -26 c-7 -19 -32 -18 -40 3 -4 10 2
24 16 38 l23 22 3 -24 c2 -14 1 -31 -2 -39z m117 29 c-4 -42 -13 -58 -13 -25
0 12 -5 22 -10 22 -6 0 -5 8 2 20 19 30 26 24 21 -17z m-879 9 c15 -18 15 -20
-5 -38 l-22 -19 14 24 c11 18 11 25 2 28 -7 3 -13 9 -13 14 0 13 5 11 24 -9z
m1198 0 c-15 -5 -16 -38 -2 -45 6 -3 5 -4 -2 -3 -7 1 -14 12 -16 24 -2 12 -9
22 -15 22 -8 0 -7 4 2 9 8 5 21 6 30 3 10 -4 11 -7 3 -10z m-1952 -2 c0 -5 -5
-10 -11 -10 -5 0 -7 5 -4 10 3 6 8 10 11 10 2 0 4 -4 4 -10z m144 -6 c3 -9 6
-21 5 -27 0 -7 -4 -4 -8 6 -9 25 -25 23 -33 -5 -5 -20 -6 -18 -7 10 -1 25 3
32 18 32 10 0 22 -7 25 -16z m41 -25 c6 0 13 10 17 23 6 22 6 22 7 -3 1 -16
-5 -29 -15 -33 -23 -9 -34 2 -33 32 1 26 1 26 7 4 4 -13 12 -23 17 -23z m92
11 l2 -25 -8 25 -8 25 -11 -25 c-9 -22 -11 -22 -12 -5 l-1 20 -9 -20 c-8 -18
-9 -17 -9 8 -1 25 2 28 27 25 21 -2 27 -9 29 -28z m121 2 c4 -26 -23 -41 -41
-23 -9 10 -8 15 7 23 15 8 16 12 5 20 -11 7 -9 8 6 6 12 -2 21 -12 23 -26z
m37 -13 c6 0 13 10 17 23 6 19 7 18 5 -7 -2 -23 -7 -30 -22 -30 -15 0 -20 7
-22 30 -2 25 -1 26 5 7 4 -13 12 -23 17 -23z m145 11 c0 -23 -4 -30 -20 -30
-24 0 -27 28 -4 37 13 5 13 7 2 14 -10 7 -9 9 5 9 12 0 17 -8 17 -30z m47 23
c-18 -5 -17 -6 2 -20 25 -17 19 -33 -12 -32 -17 1 -18 2 -4 6 21 6 22 19 1 27
-19 7 -9 26 14 25 14 -1 14 -2 -1 -6z m272 -20 l-1 -28 -8 25 c-8 25 -8 25
-11 -5 l-2 -30 -5 30 -5 30 -7 -25 -8 -25 -1 28 c-1 22 3 27 24 27 21 0 25 -5
24 -27z m59 -6 c3 -25 0 -28 -19 -25 -31 4 -35 25 -7 34 22 7 22 7 3 15 l-20
9 20 -3 c14 -1 21 -11 23 -30z m57 15 c-3 -8 0 -21 6 -28 7 -9 8 -14 1 -14 -6
0 -13 6 -15 13 -4 9 -7 9 -15 -1 -6 -9 -9 -4 -9 15 0 21 5 29 19 29 12 0 17
-5 13 -14z m133 -15 c3 -25 0 -28 -19 -25 -31 4 -35 25 -7 34 22 7 22 7 3 15
l-20 9 20 -3 c14 -1 21 -11 23 -30z m32 0 c0 -24 16 -13 23 18 3 13 5 10 6
-11 1 -26 -3 -31 -21 -30 -17 1 -24 8 -26 30 -2 18 0 26 7 21 6 -3 11 -16 11
-28z m155 3 c0 -18 -5 -25 -19 -25 -11 0 -21 6 -23 13 -3 6 0 12 7 12 6 0 8
-4 5 -10 -3 -5 -1 -10 4 -10 15 0 14 37 -1 44 -7 3 -4 5 7 3 14 -2 20 -10 20
-27z m47 21 c-10 -6 -10 -10 2 -21 18 -14 12 -30 -12 -30 -15 0 -15 2 -2 11
11 8 12 12 3 16 -19 7 -15 33 5 33 13 0 14 -2 4 -9z m190 -21 c4 -25 1 -30
-16 -30 -16 0 -18 2 -7 9 8 5 12 18 8 30 -3 12 -2 21 3 21 4 0 10 -13 12 -30z
m136 13 c2 -7 -1 -13 -8 -13 -6 0 -8 5 -5 10 3 6 1 10 -4 10 -18 0 -12 -38 7
-43 14 -4 14 -5 1 -6 -22 -1 -41 23 -33 43 7 19 35 18 42 -1z m66 8 c3 -5 -2
-8 -11 -7 -10 0 -20 -9 -24 -24 -6 -23 -7 -23 -8 8 -1 25 3 32 18 32 11 0 22
-4 25 -9z m61 -2 c4 -6 4 -13 0 -17 -4 -4 -10 -1 -12 6 -7 18 -19 14 -20 -7
-1 -11 6 -22 15 -24 15 -4 15 -5 -1 -6 -20 -1 -32 21 -23 44 6 17 32 20 41 4z
m61 -22 c1 -25 1 -25 -3 -2 -5 31 -21 32 -33 3 -8 -22 -9 -22 -9 5 -1 24 3 28
22 25 16 -2 22 -10 23 -31z m128 18 c3 -8 1 -15 -4 -15 -6 0 -10 5 -10 10 0
19 -16 10 -17 -9 -1 -11 6 -22 15 -24 15 -4 15 -5 -1 -6 -20 -1 -32 21 -23 44
3 8 12 15 20 15 7 0 16 -7 20 -15z m43 8 c-18 -5 -17 -6 2 -20 25 -17 19 -33
-12 -32 -17 1 -18 2 -4 6 21 6 22 19 1 27 -19 7 -9 26 14 25 14 -1 14 -2 -1
-6z m-1739 -70 c-10 -2 -26 -2 -35 0 -10 3 -2 5 17 5 19 0 27 -2 18 -5z m750
0 c-10 -2 -26 -2 -35 0 -10 3 -2 5 17 5 19 0 27 -2 18 -5z m380 0 c-10 -2 -26
-2 -35 0 -10 3 -2 5 17 5 19 0 27 -2 18 -5z m-886 -93 c3 -35 1 -40 -17 -39
-11 0 -14 3 -7 6 6 2 12 17 12 33 0 16 -6 31 -12 33 -8 4 -7 6 3 6 13 1 18
-10 21 -39z m258 0 c0 -33 -3 -40 -20 -40 -25 0 -27 33 -2 59 9 11 18 20 20
20 1 1 2 -17 2 -39z m120 30 c-13 -9 -13 -11 0 -20 10 -6 11 -10 3 -10 -7 0
-13 -10 -13 -22 0 -23 -1 -23 -13 2 -7 14 -9 27 -5 28 4 2 8 10 8 18 0 8 8 14
18 14 14 0 15 -2 2 -10z m1062 -30 c3 -35 1 -40 -17 -40 -15 0 -17 2 -6 9 9 6
12 20 9 40 -2 17 -1 31 3 31 4 0 9 -18 11 -40z m-759 -1 c-4 -12 0 -25 8 -30
11 -7 11 -9 -2 -9 -16 0 -33 46 -22 63 9 15 21 -3 16 -24z m-983 -15 c0 -21
-4 -24 -35 -21 -27 1 -35 7 -36 22 -1 17 -2 16 -9 -5 l-8 -25 -2 25 -2 25 -8
-25 -8 -25 -1 28 c-1 22 3 27 24 27 16 0 25 -6 25 -16 0 -11 5 -14 16 -10 9 3
20 6 26 6 6 0 5 6 -2 15 -11 13 -10 14 4 9 9 -3 16 -17 16 -30z m190 0 c0 -19
-5 -24 -25 -24 -30 0 -33 20 -5 27 16 4 18 8 9 19 -10 12 -9 13 5 8 9 -3 16
-17 16 -30z m190 -5 c0 -14 -7 -19 -25 -19 -16 0 -25 6 -25 15 0 8 7 15 16 15
11 0 14 5 10 16 -5 14 -4 15 9 4 8 -7 15 -21 15 -31z m40 31 c-13 -8 -12 -11
5 -24 19 -14 19 -15 2 -22 -10 -3 -21 -4 -24 0 -4 3 2 6 12 6 18 0 18 0 0 13
-18 14 -14 37 8 37 7 0 6 -4 -3 -10z m328 -13 c2 -11 -3 -17 -15 -18 -16 0
-16 -1 2 -9 19 -8 19 -9 -2 -9 -28 -1 -37 13 -23 39 13 24 33 22 38 -3z m132
-8 c0 -5 -10 -9 -22 -10 -22 0 -22 -1 -3 -10 20 -9 20 -9 0 -6 -23 3 -33 36
-14 48 14 8 39 -6 39 -22z m190 0 c0 -5 -10 -9 -22 -10 -22 0 -22 -1 -3 -10
20 -9 20 -9 0 -6 -23 3 -33 36 -14 48 14 8 39 -6 39 -22z m40 21 c-13 -9 -13
-12 3 -21 20 -12 14 -29 -11 -29 -13 0 -14 2 -3 9 11 7 11 9 0 13 -16 5 -5 38
13 38 9 0 9 -3 -2 -10z m520 -26 c0 -19 -5 -24 -25 -24 -30 0 -33 20 -5 27 16
4 18 8 9 19 -10 12 -9 13 5 8 9 -3 16 -17 16 -30z m190 -5 c0 -14 -7 -19 -25
-19 -16 0 -25 6 -25 15 0 8 7 15 16 15 11 0 14 5 10 16 -5 14 -4 15 9 4 8 -7
15 -21 15 -31z m40 31 c-13 -8 -12 -11 5 -24 19 -14 19 -15 2 -22 -10 -3 -21
-4 -24 0 -4 3 2 6 12 6 18 0 18 0 0 13 -18 14 -14 37 8 37 7 0 6 -4 -3 -10z
m-1804 -25 c1 -14 -4 -21 -16 -21 -12 0 -17 7 -16 21 1 27 31 27 32 0z m174
-15 c5 0 11 10 13 23 4 19 4 18 6 -5 1 -22 -4 -28 -19 -28 -15 0 -20 6 -19 28
2 23 2 24 6 5 2 -13 8 -23 13 -23z m382 15 c3 -16 1 -25 -7 -25 -8 0 -10 9 -7
25 2 14 6 25 7 25 1 0 5 -11 7 -25z m177 18 c0 -5 -4 -17 -9 -28 -8 -18 -9
-17 -9 8 -1 15 4 27 9 27 6 0 10 -3 9 -7z m31 -3 c0 -5 -2 -10 -4 -10 -3 0 -8
5 -11 10 -3 6 -1 10 4 10 6 0 11 -4 11 -10z m119 -17 c-2 -24 -2 -25 -6 -5 -5
27 -23 29 -23 2 0 -11 -4 -20 -10 -20 -5 0 -10 11 -10 25 0 20 5 25 25 25 21
0 25 -4 24 -27z m410 20 c0 -5 -4 -17 -9 -28 -8 -18 -9 -17 -9 8 -1 15 4 27 9
27 6 0 10 -3 9 -7z m31 -18 c0 -14 -2 -25 -4 -25 -2 0 -6 11 -8 25 -3 14 -1
25 3 25 5 0 9 -11 9 -25z m40 -15 c5 0 11 10 13 23 4 19 4 18 6 -5 1 -22 -4
-28 -19 -28 -15 0 -20 6 -19 28 2 23 2 24 6 5 2 -13 8 -23 13 -23z m89 13 c-2
-24 -2 -25 -6 -5 -2 12 -9 22 -14 22 -5 0 -10 -10 -10 -22 -1 -21 -2 -21 -7
-3 l-5 20 -8 -20 c-7 -17 -8 -16 -8 8 -1 24 3 27 29 27 26 0 30 -3 29 -27z
m161 -13 c5 0 11 10 13 23 4 19 4 18 6 -5 1 -22 -4 -28 -19 -28 -15 0 -20 6
-19 28 2 23 2 24 6 5 2 -13 8 -23 13 -23z m-427 23 c-7 -2 -19 -2 -25 0 -7 3
-2 5 12 5 14 0 19 -2 13 -5z m0 -20 c-7 -2 -19 -2 -25 0 -7 3 -2 5 12 5 14 0
19 -2 13 -5z m-1120 -40 c-7 -2 -21 -2 -30 0 -10 3 -4 5 12 5 17 0 24 -2 18
-5z m375 0 c-10 -2 -26 -2 -35 0 -10 3 -2 5 17 5 19 0 27 -2 18 -5z m1065 0
c-7 -2 -21 -2 -30 0 -10 3 -4 5 12 5 17 0 24 -2 18 -5z m-450 -95 c4 -26 2
-38 -6 -38 -8 0 -12 17 -12 45 0 51 10 47 18 -7z m-681 -25 c8 -10 5 -13 -9
-13 -16 0 -18 6 -14 43 5 37 6 38 9 12 2 -16 8 -36 14 -42z m-489 35 c4 -10 8
-10 15 1 6 8 17 11 26 8 20 -8 21 -27 1 -27 -21 0 -19 -20 3 -21 11 0 12 -2 4
-6 -7 -3 -19 0 -27 7 -8 6 -19 9 -25 5 -5 -3 -10 2 -11 12 0 16 -1 16 -9 -2
l-9 -20 -1 20 -1 20 -9 -20 c-8 -18 -9 -17 -9 8 -1 22 3 27 23 27 13 0 27 -6
29 -12z m117 -12 c0 -36 -10 -56 -29 -56 -15 1 -15 1 1 10 17 11 14 49 -6 62
-6 5 -1 8 12 8 17 0 22 -6 22 -24z m67 8 c7 -19 -20 -49 -36 -40 -12 8 -15 39
-4 49 12 12 33 7 40 -9z m63 6 c0 -5 -7 -7 -15 -4 -10 4 -15 0 -15 -15 0 -12
-4 -21 -10 -21 -5 0 -10 11 -10 25 0 20 5 25 25 25 14 0 25 -4 25 -10z m107 3
c-17 -4 -17 -5 -1 -17 20 -15 11 -37 -14 -35 -15 1 -15 2 1 6 21 5 23 23 2 23
-16 0 -20 12 -8 23 3 4 13 6 22 6 12 -1 12 -2 -2 -6z m80 -9 c3 -8 -2 -23 -11
-32 -16 -16 -18 -16 -31 2 -11 14 -12 23 -4 33 15 18 38 16 46 -3z m106 -24
c3 8 8 22 10 30 3 8 6 3 6 -11 1 -15 -5 -29 -13 -32 -19 -8 -26 2 -25 32 1 25
2 25 9 -4 4 -20 9 -25 13 -15z m61 25 c-19 -15 -19 -15 0 -30 18 -13 18 -15 3
-15 -20 0 -32 23 -23 45 3 8 13 15 23 15 15 0 15 -2 -3 -15z m68 -15 c3 -17 0
-30 -6 -30 -6 0 -11 14 -11 30 0 17 3 30 6 30 4 0 9 -13 11 -30z m73 0 c0 -16
-6 -26 -18 -28 -19 -4 -32 20 -23 44 9 25 41 13 41 -16z m64 3 c-2 -24 -2 -25
-6 -5 -2 12 -8 22 -13 22 -5 0 -11 -10 -13 -22 -4 -20 -4 -19 -6 5 -1 21 4 27
19 27 15 0 20 -6 19 -27z m233 20 c-10 -4 -9 -8 4 -17 20 -15 11 -37 -14 -35
-15 1 -15 2 1 6 21 5 23 23 2 23 -8 0 -15 7 -15 15 0 8 8 15 18 14 11 0 12 -2
4 -6z m85 -9 c7 -19 -20 -49 -36 -40 -12 8 -15 39 -4 49 12 12 33 7 40 -9z
m93 -17 c0 -24 16 -13 23 18 4 16 5 14 6 -6 1 -16 -5 -29 -15 -33 -23 -9 -34
1 -34 30 0 14 4 22 10 19 6 -3 10 -16 10 -28z m78 26 c-10 -2 -18 -13 -18 -23
0 -10 8 -21 18 -23 16 -4 16 -5 -1 -6 -10 0 -20 6 -23 14 -9 23 3 45 23 44 17
-1 17 -2 1 -6z m64 -23 c4 -25 1 -30 -16 -30 -16 0 -18 2 -7 9 8 5 12 18 8 30
-3 12 -2 21 3 21 4 0 10 -13 12 -30z m73 0 c0 -16 -6 -26 -18 -28 -19 -4 -32
20 -23 44 9 25 41 13 41 -16z m64 3 c-2 -24 -2 -25 -6 -5 -2 12 -8 22 -13 22
-5 0 -11 -10 -13 -22 -4 -20 -4 -19 -6 5 -1 21 4 27 19 27 15 0 20 -6 19 -27z
m-566 -10 c-7 -2 -19 -2 -25 0 -7 3 -2 5 12 5 14 0 19 -2 13 -5z m-625 -40
c-10 -2 -26 -2 -35 0 -10 3 -2 5 17 5 19 0 27 -2 18 -5z m114 -253 c3 -35 1
-40 -17 -40 -15 0 -17 2 -6 9 10 6 12 20 8 45 -3 20 -2 34 3 31 4 -3 10 -23
12 -45z m880 0 c3 -34 1 -40 -15 -40 -16 0 -17 3 -7 15 8 9 10 27 6 46 -3 16
-2 28 3 25 5 -3 11 -24 13 -46z m380 41 c-8 -4 -13 -14 -12 -22 4 -27 0 -49
-9 -49 -16 0 -18 34 -3 58 8 12 19 22 26 22 7 0 6 -4 -2 -9z m-134 -72 c-18
-11 -40 13 -32 34 3 9 12 17 20 17 8 0 15 6 16 13 0 6 3 -3 5 -22 3 -21 0 -37
-9 -42z m442 51 c10 -6 11 -10 3 -10 -7 0 -13 -9 -13 -19 0 -11 6 -22 13 -24
9 -4 9 -6 0 -6 -14 -1 -35 33 -26 43 3 3 1 6 -6 6 -7 0 -9 5 -6 10 8 12 16 12
35 0z m-2051 -27 l-1 -28 -8 25 -8 25 -2 -25 -3 -25 -5 25 -5 25 -8 -25 -7
-25 -1 28 c-1 22 3 27 24 27 21 0 25 -5 24 -27z m59 10 c2 -8 -6 -13 -20 -13
-22 -1 -22 -1 -4 -15 11 -8 15 -15 9 -15 -17 0 -36 29 -29 46 7 18 37 15 44
-3z m52 -23 c0 -32 -4 -40 -17 -39 -11 0 -13 3 -5 6 6 2 12 17 12 33 0 16 -6
31 -12 33 -8 3 -6 6 5 6 13 1 17 -7 17 -39z m74 23 c4 -9 0 -23 -9 -32 -13
-14 -17 -14 -31 1 -9 9 -14 24 -11 32 8 21 43 20 51 -1z m66 7 c0 -5 -7 -7
-15 -4 -9 4 -18 -2 -24 -17 -10 -24 -10 -24 -10 4 -1 22 3 27 24 27 14 0 25
-4 25 -10z m102 3 c-10 -4 -9 -8 4 -17 20 -15 11 -37 -14 -35 -15 1 -15 2 1 6
21 5 23 23 2 23 -8 0 -15 7 -15 15 0 8 8 15 18 14 11 0 12 -2 4 -6z m82 -10
c4 -9 0 -23 -9 -32 -13 -14 -17 -14 -30 0 -19 19 -10 49 15 49 10 0 21 -8 24
-17z m96 -10 c0 -29 15 -22 23 12 4 16 5 14 6 -6 1 -30 -27 -48 -41 -27 -11
18 -10 48 2 48 6 0 10 -12 10 -27z m78 20 c-10 -2 -18 -11 -18 -18 0 -8 8 -19
18 -24 16 -10 16 -10 0 -11 -23 0 -41 33 -26 48 7 7 19 11 28 11 11 -1 11 -2
-2 -6z m64 -23 c4 -25 1 -30 -16 -30 -16 0 -18 2 -7 9 8 5 12 18 8 30 -3 12
-2 21 3 21 4 0 10 -13 12 -30z m75 14 c7 -19 -20 -49 -36 -40 -12 8 -15 39 -4
49 12 12 33 7 40 -9z m62 -11 c-2 -24 -2 -25 -6 -5 -2 12 -9 22 -14 22 -5 0
-14 -10 -19 -22 -8 -22 -9 -22 -9 5 -1 22 3 27 24 27 21 0 25 -4 24 -27z m190
0 c-1 -22 -2 -24 -7 -8 l-5 20 -8 -20 c-7 -18 -8 -18 -9 5 l-2 25 -8 -25 -8
-25 -1 28 c-1 22 3 27 24 27 21 0 25 -5 24 -27z m59 1 c3 -22 -21 -39 -39 -28
-16 9 -10 22 14 30 21 7 21 7 2 15 l-20 9 20 -3 c12 -1 21 -11 23 -23z m58 -7
c1 -16 -2 -24 -6 -17 -4 7 -12 10 -16 7 -5 -3 -10 5 -10 17 -1 14 4 22 15 22
11 0 16 -10 17 -29z m132 7 c3 -24 -25 -41 -41 -25 -12 12 0 31 21 32 14 0 13
2 -3 10 l-20 9 20 -3 c12 -1 21 -11 23 -23z m45 -14 c3 8 8 22 10 30 3 8 6 3
6 -11 1 -15 -5 -29 -13 -32 -19 -8 -26 2 -25 32 1 25 2 25 9 -4 4 -20 9 -25
13 -15z m142 19 c10 -30 -25 -53 -41 -27 -4 6 1 17 10 24 13 9 14 13 4 17 -9
4 -7 6 4 6 9 1 20 -9 23 -20z m47 14 c-10 -4 -9 -8 4 -17 20 -15 11 -36 -14
-36 -15 0 -15 2 -2 11 11 8 12 12 3 16 -19 7 -15 33 5 32 11 0 12 -2 4 -6z
m190 -23 c3 -17 0 -30 -6 -30 -6 0 -11 14 -11 30 0 17 3 30 6 30 4 0 9 -13 11
-30z m138 15 c0 -8 -7 -15 -15 -15 -21 0 -19 -18 3 -23 14 -4 14 -5 1 -6 -22
-1 -41 23 -33 43 8 20 44 21 44 1z m65 5 c3 -6 -1 -7 -9 -4 -11 4 -19 -2 -25
-17 -10 -24 -10 -24 -10 4 -1 20 4 27 18 27 11 0 23 -4 26 -10z m63 -7 c2 -8
-6 -13 -20 -13 -22 -1 -22 -1 -4 -15 18 -13 18 -15 3 -15 -20 0 -32 23 -23 46
7 18 37 15 44 -3z m58 -11 c2 -20 1 -20 -3 -2 -5 25 -29 21 -25 -4 2 -9 -2
-16 -8 -16 -5 0 -10 12 -10 26 0 21 4 25 23 22 15 -2 22 -10 23 -26z m132 11
c2 -8 -5 -13 -17 -13 -25 0 -28 -17 -3 -23 16 -4 16 -5 -1 -6 -20 -1 -32 22
-23 45 7 18 37 15 44 -3z m43 8 c-11 -7 -10 -11 4 -19 21 -11 12 -32 -13 -32
-15 0 -15 2 -2 10 13 9 13 12 -3 21 -20 12 -14 29 11 29 14 0 14 -2 3 -9z
m-1311 -40 c0 -6 -4 -13 -10 -16 -5 -3 -10 1 -10 9 0 9 5 16 10 16 6 0 10 -4
10 -9z m-557 -28 c-7 -2 -21 -2 -30 0 -10 3 -4 5 12 5 17 0 24 -2 18 -5z m875
0 c-10 -2 -26 -2 -35 0 -10 3 -2 5 17 5 19 0 27 -2 18 -5z m380 0 c-10 -2 -26
-2 -35 0 -10 3 -2 5 17 5 19 0 27 -2 18 -5z"/>
<path d="M798 2473 c7 -3 16 -2 19 1 4 3 -2 6 -13 5 -11 0 -14 -3 -6 -6z"/>
<path d="M1040 2460 c0 -13 5 -20 13 -17 6 2 12 10 12 17 0 7 -6 15 -12 18 -8
2 -13 -5 -13 -18z"/>
<path d="M1170 2449 c0 -5 5 -7 10 -4 6 3 10 8 10 11 0 2 -4 4 -10 4 -5 0 -10
-5 -10 -11z"/>
<path d="M1542 2466 c1 -10 8 -17 13 -17 15 1 12 24 -3 29 -9 3 -13 -2 -10
-12z"/>
<path d="M1792 2464 c4 -21 22 -23 26 -1 2 10 -3 17 -13 17 -10 0 -15 -6 -13
-16z"/>
<path d="M2105 2470 c-8 -13 4 -32 16 -25 12 8 12 35 0 35 -6 0 -13 -4 -16
-10z"/>
<path d="M2730 2459 c0 -24 23 -21 28 4 2 10 -3 17 -12 17 -10 0 -16 -9 -16
-21z"/>
<path d="M3042 2464 c4 -21 22 -23 26 -1 2 10 -3 17 -13 17 -10 0 -15 -6 -13
-16z"/>
<path d="M668 1853 c7 -3 16 -2 19 1 4 3 -2 6 -13 5 -11 0 -14 -3 -6 -6z"/>
<path d="M1230 1690 c0 -11 5 -20 10 -20 6 0 10 9 10 20 0 11 -4 20 -10 20 -5
0 -10 -9 -10 -20z"/>
<path d="M2051 1691 c-10 -6 -10 -10 -1 -16 13 -8 24 -1 19 14 -3 6 -10 7 -18
2z"/>
<path d="M915 1390 c-7 -12 2 -30 16 -30 5 0 9 9 9 20 0 21 -15 27 -25 10z"/>
<path d="M1230 1380 c0 -11 5 -20 10 -20 6 0 10 9 10 20 0 11 -4 20 -10 20 -5
0 -10 -9 -10 -20z"/>
<path d="M1665 1390 c-7 -12 2 -30 16 -30 5 0 9 9 9 20 0 21 -15 27 -25 10z"/>
<path d="M1980 1380 c0 -13 5 -20 13 -17 6 2 12 10 12 17 0 7 -6 15 -12 18 -8
2 -13 -5 -13 -18z"/>
<path d="M2797 1253 c-12 -12 -7 -22 8 -17 8 4 15 10 15 15 0 11 -14 12 -23 2z"/>
<path d="M2295 1230 c3 -5 8 -10 11 -10 2 0 4 5 4 10 0 6 -5 10 -11 10 -5 0
-7 -4 -4 -10z"/>
<path d="M2600 1225 c0 -8 7 -15 15 -15 8 0 15 7 15 15 0 8 -7 15 -15 15 -8 0
-15 -7 -15 -15z"/>
<path d="M3238 1213 c7 -3 16 -2 19 1 4 3 -2 6 -13 5 -11 0 -14 -3 -6 -6z"/>
<path d="M3420 1230 c0 -5 5 -10 10 -10 6 0 10 5 10 10 0 6 -4 10 -10 10 -5 0
-10 -4 -10 -10z"/>
<path d="M2670 1070 c0 -11 5 -20 10 -20 6 0 10 9 10 20 0 11 -4 20 -10 20 -5
0 -10 -9 -10 -20z"/>
<path d="M2420 759 c0 -11 5 -17 10 -14 6 3 10 13 10 21 0 8 -4 14 -10 14 -5
0 -10 -9 -10 -21z"/>
<path d="M1295 750 c-3 -5 -1 -10 4 -10 6 0 11 5 11 10 0 6 -2 10 -4 10 -3 0
-8 -4 -11 -10z"/>
<path d="M1480 750 c0 -5 5 -10 10 -10 6 0 10 5 10 10 0 6 -4 10 -10 10 -5 0
-10 -4 -10 -10z"/>
<path d="M1860 749 c0 -5 5 -7 10 -4 6 3 10 8 10 11 0 2 -4 4 -10 4 -5 0 -10
-5 -10 -11z"/>
<path d="M2050 749 c0 -5 5 -7 10 -4 6 3 10 8 10 11 0 2 -4 4 -10 4 -5 0 -10
-5 -10 -11z"/>
<path d="M1735 617 c-4 -10 -5 -21 -1 -24 10 -10 18 4 13 24 -4 17 -4 17 -12
0z"/>
<path d="M1920 620 c0 -5 5 -10 10 -10 6 0 10 5 10 10 0 6 -4 10 -10 10 -5 0
-10 -4 -10 -10z"/>
<path d="M2045 620 c-3 -5 -1 -10 4 -10 6 0 11 5 11 10 0 6 -2 10 -4 10 -3 0
-8 -4 -11 -10z"/>
<path d="M2235 620 c-3 -5 -1 -10 4 -10 6 0 11 5 11 10 0 6 -2 10 -4 10 -3 0
-8 -4 -11 -10z"/>
<path d="M2798 593 c7 -3 16 -2 19 1 4 3 -2 6 -13 5 -11 0 -14 -3 -6 -6z"/>
<path d="M1290 450 c0 -13 5 -20 13 -17 6 2 12 10 12 17 0 7 -6 15 -12 18 -8
2 -13 -5 -13 -18z"/>
<path d="M1540 450 c0 -13 5 -20 13 -17 6 2 12 10 12 17 0 7 -6 15 -12 18 -8
2 -13 -5 -13 -18z"/>
<path d="M1852 454 c4 -21 22 -23 26 -1 2 10 -3 17 -13 17 -10 0 -15 -6 -13
-16z"/>
<path d="M2230 450 c0 -13 5 -20 13 -17 6 2 12 10 12 17 0 7 -6 15 -12 18 -8
2 -13 -5 -13 -18z"/>
<path d="M2542 454 c4 -21 22 -23 26 -1 2 10 -3 17 -13 17 -10 0 -15 -6 -13
-16z"/>
<path d="M2670 139 c0 -11 5 -17 10 -14 6 3 10 13 10 21 0 8 -4 14 -10 14 -5
0 -10 -9 -10 -21z"/>
<path d="M1108 153 c7 -3 16 -2 19 1 4 3 -2 6 -13 5 -11 0 -14 -3 -6 -6z"/>
<path d="M1226 152 c-2 -4 0 -14 5 -22 8 -13 10 -13 18 0 10 15 6 30 -9 30 -5
0 -11 -4 -14 -8z"/>
<path d="M1480 140 c0 -11 4 -20 9 -20 11 0 22 26 14 34 -12 12 -23 5 -23 -14z"/>
<path d="M1792 144 c4 -21 22 -23 26 -1 2 10 -3 17 -13 17 -10 0 -15 -6 -13
-16z"/>
<path d="M2110 129 c0 -5 5 -7 10 -4 6 3 10 8 10 11 0 2 -4 4 -10 4 -5 0 -10
-5 -10 -11z"/>
<path d="M2300 129 c0 -5 5 -7 10 -4 6 3 10 8 10 11 0 2 -4 4 -10 4 -5 0 -10
-5 -10 -11z"/>
<path d="M2480 130 c0 -5 5 -10 10 -10 6 0 10 5 10 10 0 6 -4 10 -10 10 -5 0
-10 -4 -10 -10z"/>
</g>
</svg>
