<?xml version="1.0" encoding="UTF-8"?>
<svg version="1.1" xmlns="http://www.w3.org/2000/svg" width="190" height="190">
<path d="M0 0 C1 3 1 3 0.0625 5.75 C-1.86274242 11.63897683 -1.28940951 16.53920111 1.02734375 22.1640625 C2.53029825 25.00096457 4.63517491 26.85015901 7 29 C14.72980271 36.85390505 20.02695688 45.44240933 20.25 56.6875 C20.10024915 66.78070752 16.31852397 75.47218226 9.3125 82.75390625 C8.879375 83.16511719 8.44625 83.57632813 8 84 C17.57571789 83.5647401 26.73293899 78.44362653 33.1796875 71.484375 C42.21637493 59.15104194 44.82441022 45.96689412 42.5390625 30.9765625 C41.09267658 25.58239385 38.53401609 21.37042059 35.20703125 16.91015625 C34 15 34 15 34 12 C44.19411254 16.53071669 50.01996577 27.12444265 54.25 36.9375 C59.62670591 51.23057655 59.06016859 65.36953009 53.62890625 79.58984375 C46.48177888 95.10099548 35.09267579 105.67566636 19.125 111.9375 C4.27975912 116.88074422 -12.11040921 115.10492919 -26.06640625 108.5625 C-40.56754709 100.85819018 -49.81013212 88.94021833 -55.23828125 73.640625 C-59.41987097 59.14444729 -57.56687601 43.49955674 -50.75 30.1875 C-46.66130443 23.04522167 -41.85236953 16.69876768 -35 12 C-34.34 12 -33.68 12 -33 12 C-34.19547731 15.36907241 -35.74461422 18.39830064 -37.5 21.5 C-43.8077671 32.72411498 -44.41005342 43.66475589 -41.05078125 56.03515625 C-39.36011366 60.80547856 -36.86489352 64.85243297 -34 69 C-33.13375 70.3303125 -33.13375 70.3303125 -32.25 71.6875 C-24.75873485 79.38685585 -15.37997903 84.1620021 -4.6171875 85.23828125 C-2.55789575 85.28252141 -2.55789575 85.28252141 0 85 C2.40564868 78.20758021 2.32092894 72.57579417 -0.5625 65.9375 C-2.23539603 62.80462197 -4.13308678 60.86361749 -6.875 58.625 C-13.22257246 53.43799116 -17.62569407 46.10840498 -19 38 C-19.84713896 28.05935381 -19.025401 19.40793911 -12.94140625 11.234375 C-9.0519717 6.7480795 -5.18114961 2.92269978 0 0 Z " fill="#E52A29" transform="translate(95,37)"/>
<path d="M0 0 C-1.4975441 4.22035155 -3.62735334 7.95806682 -5.82421875 11.83984375 C-7.08877898 14.16310557 -8.11543991 16.50714884 -9 19 C-9.99 18.01 -10.98 17.02 -12 16 C-12.61875 16.825 -13.2375 17.65 -13.875 18.5 C-14.926875 19.7375 -14.926875 19.7375 -16 21 C-16.66 21 -17.32 21 -18 21 C-16.6904389 16.25196563 -14.84291112 13.1402805 -11.6875 9.375 C-10.54861328 7.99441406 -10.54861328 7.99441406 -9.38671875 6.5859375 C-3.3081571 0 -3.3081571 0 0 0 Z " fill="#EB4645" transform="translate(62,49)"/>
<path d="M0 0 C-1.1858237 3.37503669 -2.27573689 5.64722731 -5 8 C-5.33 7.34 -5.66 6.68 -6 6 C-6.33 6.66 -6.66 7.32 -7 8 C-7.66 8 -8.32 8 -9 8 C-7.47364599 4.11473526 -4.49771687 0 0 0 Z " fill="#ED6B6B" transform="translate(62,49)"/>
<path d="M0 0 C0.66 0 1.32 0 2 0 C2.33 3.63 2.66 7.26 3 11 C0 8 0 8 -0.29296875 5.95703125 C-0.1953125 3.97135417 -0.09765625 1.98567708 0 0 Z " fill="#EA3F3E" transform="translate(49,77)"/>
<path d="M0 0 C1.64826111 2.96687001 2.44271087 5.65626525 3 9 C2.01 9.33 1.02 9.66 0 10 C-0.74926071 6.33694766 -1.2380014 3.57644848 0 0 Z " fill="#ED5252" transform="translate(97,115)"/>
<path d="M0 0 C3.875 1.75 3.875 1.75 5 4 C4.01 5.485 4.01 5.485 3 7 C0 3.375 0 3.375 0 0 Z " fill="#EA6261" transform="translate(129,49)"/>
<path d="M0 0 C0.33 0.99 0.66 1.98 1 3 C0.34 3.66 -0.32 4.32 -1 5 C-1 4.34 -1 3.68 -1 3 C-2.32 3.99 -3.64 4.98 -5 6 C-5.66 5.67 -6.32 5.34 -7 5 C-2.25 1.125 -2.25 1.125 0 0 Z " fill="#E95251" transform="translate(95,37)"/>
</svg>
