<?xml version="1.0" standalone="no"?>
<!DOCTYPE svg PUBLIC "-//W3C//DTD SVG 20010904//EN"
 "http://www.w3.org/TR/2001/REC-SVG-20010904/DTD/svg10.dtd">
<svg version="1.0" xmlns="http://www.w3.org/2000/svg"
 width="190.000000pt" height="190.000000pt" viewBox="0 0 190.000000 190.000000"
 preserveAspectRatio="xMidYMid meet">
<metadata>
Created by potrace 1.16, written by Peter Selinger 2001-2019
</metadata>
<g transform="translate(0.000000,190.000000) scale(0.100000,-0.100000)"
fill="#000000" stroke="none">
<path d="M913 1501 c-112 -81 -172 -229 -143 -353 19 -80 45 -124 120 -203 76
-80 96 -128 86 -203 -8 -61 -22 -83 -49 -77 -12 2 -40 7 -62 10 -119 17 -252
120 -313 243 -35 72 -37 79 -37 181 0 117 14 171 67 250 44 66 23 63 -41 -6
-107 -115 -156 -238 -156 -388 0 -257 178 -482 433 -549 66 -18 205 -17 275 0
115 30 252 122 321 217 78 109 124 278 106 391 -17 103 -18 109 -60 193 -52
106 -170 233 -170 183 0 -5 4 -10 10 -10 13 0 55 -75 75 -135 21 -61 27 -174
13 -235 -39 -164 -199 -318 -350 -336 l-46 -6 53 55 c59 61 95 141 99 222 5
97 -53 227 -128 286 -75 59 -106 171 -71 255 8 20 14 39 12 41 -2 2 -22 -10
-44 -26z"/>
</g>
</svg>
